<?xml version="1.0" encoding="UTF-8" standalone="no"?>
<!-- Created with Inkscape (http://www.inkscape.org/) -->

<svg
   width="30.691666mm"
   height="29.633333mm"
   viewBox="0 0 30.691666 29.633333"
   version="1.1"
   id="svg5"
   xml:space="preserve"
   inkscape:version="1.2.1 (9c6d41e410, 2022-07-14)"
   sodipodi:docname="ORD_Icon_Color_Logo.svg"
   xmlns:inkscape="http://www.inkscape.org/namespaces/inkscape"
   xmlns:sodipodi="http://sodipodi.sourceforge.net/DTD/sodipodi-0.dtd"
   xmlns="http://www.w3.org/2000/svg"
   xmlns:svg="http://www.w3.org/2000/svg"><sodipodi:namedview
     id="namedview7"
     pagecolor="#ffffff"
     bordercolor="#000000"
     borderopacity="0.25"
     inkscape:showpageshadow="2"
     inkscape:pageopacity="0.0"
     inkscape:pagecheckerboard="0"
     inkscape:deskcolor="#d1d1d1"
     inkscape:document-units="mm"
     showgrid="false"
     inkscape:zoom="2.025849"
     inkscape:cx="8.6383535"
     inkscape:cy="101.93257"
     inkscape:window-width="1920"
     inkscape:window-height="991"
     inkscape:window-x="-9"
     inkscape:window-y="-9"
     inkscape:window-maximized="1"
     inkscape:current-layer="layer1" /><defs
     id="defs2"><linearGradient
       id="paint0_linear_204_2717"
       x1="25.7924"
       y1="23.9594"
       x2="74.000198"
       y2="72.499802"
       gradientUnits="userSpaceOnUse"><stop
         stop-color="#3EDEBF"
         id="stop142" /><stop
         offset="1"
         stop-color="#18828D"
         id="stop144" /></linearGradient></defs><g
     inkscape:label="Layer 1"
     inkscape:groupmode="layer"
     id="layer1"
     transform="translate(-67.031033,-142.1796)"><g
       style="fill:none"
       id="g161"
       transform="matrix(0.26458333,0,0,0.26458333,67.031033,142.1796)"><path
         fill-rule="evenodd"
         clip-rule="evenodd"
         d="m 55.3669,37.4032 c 0.1203,-0.8589 0.1825,-1.7364 0.1825,-2.6285 0,-0.0243 0,-0.0486 -10e-5,-0.0729 h 4.9746 c -10e-5,0.0243 -10e-5,0.0486 -10e-5,0.0729 0,0.8921 0.0622,1.7696 0.1825,2.6285 z M 39.5149,53.3509 V 37.4032 h 15.852 c -1.1528,8.2284 -7.6391,14.7467 -15.852,15.9477 z m 0,5.3719 v -5.3719 c -0.8821,0.129 -1.784,0.1966 -2.7014,0.1985 V 37.4032 34.7018 h 2.7014 16.0344 C 55.51,24.3663 47.1194,16 36.7747,16 26.4057,16 18,24.4057 18,34.7747 c 0,10.369 8.4057,18.7747 18.7747,18.7747 0.0129,0 0.0259,0 0.0388,0 v 4.975 c -0.0129,-1e-4 -0.0259,-1e-4 -0.0388,-1e-4 C 26.4057,58.5243 18,66.93 18,77.299 c 0,10.369 8.4057,18.7747 18.7747,18.7747 10.369,0 18.7747,-8.4057 18.7747,-18.7747 0,-0.0243 0,-0.0486 -10e-5,-0.0729 h 21.0872 2.7014 V 74.5247 53.5494 C 89.6887,53.5281 98.0732,45.1306 98.0732,34.7747 98.0732,24.4057 89.6675,16 79.2985,16 68.9538,16 60.5632,24.3663 60.5239,34.7018 h 16.1126 2.7014 v 2.7014 16.1462 c -0.0132,0 -0.0263,0 -0.0394,0 -0.9037,0 -1.7925,-0.0638 -2.662,-0.1873 V 37.4032 H 60.7063 c 1.1564,8.2545 7.6803,14.788 15.9302,15.9589 V 74.5247 H 55.3459 C 54.1373,66.3652 47.6792,59.9167 39.5149,58.7228 Z m 15.831,15.8019 c 0.1306,0.882 0.1999,1.784 0.2034,2.7014 H 39.5149 36.8135 V 74.5247 58.5244 c 0.9174,0.0018 1.8193,0.0695 2.7014,0.1984 v 15.8019 z"
         fill="url(#paint0_linear_204_2717)"
         id="path134"
         style="fill:url(#paint0_linear_204_2717)" /><path
         fill-rule="evenodd"
         clip-rule="evenodd"
         d="m 79.2981,90.6525 c 7.3851,0 13.372,-5.9868 13.372,-13.3719 0,-7.3851 -5.9869,-13.3719 -13.372,-13.3719 -7.3851,0 -13.3719,5.9868 -13.3719,13.3719 0,7.3851 5.9868,13.3719 13.3719,13.3719 z m 0,5.4028 c 10.369,0 18.7748,-8.4057 18.7748,-18.7747 0,-10.369 -8.4058,-18.7747 -18.7748,-18.7747 -10.3689,0 -18.7747,8.4057 -18.7747,18.7747 0,10.369 8.4058,18.7747 18.7747,18.7747 z"
         fill="#3edebf"
         id="path136" /><path
         fill-rule="evenodd"
         clip-rule="evenodd"
         d="m 97.3917,87.2305 8.6023,8.7606 -7.3606,7.3099 -8.6022,-8.7607 z"
         fill="#3edebf"
         id="path138" /><path
         fill-rule="evenodd"
         clip-rule="evenodd"
         d="m 88.5317,74.5765 c -0.7947,0.6231 -1.7991,0.9895 -2.8873,0.9763 -2.5366,-0.0306 -4.5681,-2.1117 -4.5375,-4.6482 0.0127,-1.0498 0.3766,-2.0131 0.9786,-2.7795 -0.8384,-0.251 -1.7254,-0.3907 -2.6441,-0.4018 -5.3049,-0.064 -9.6574,4.1847 -9.7214,9.4896 -0.064,5.305 4.1846,9.6574 9.4896,9.7215 5.305,0.064 9.6574,-4.1847 9.7214,-9.4896 0.0121,-0.9971 -0.1283,-1.9606 -0.3993,-2.8683 z"
         fill="#3edebf"
         id="path140" /></g></g></svg>
