<?xml version="1.0" encoding="UTF-8"?>
<svg id="Layer_1" data-name="Layer 1" xmlns="http://www.w3.org/2000/svg" xmlns:xlink="http://www.w3.org/1999/xlink" viewBox="0 0 500 500">
  <defs>
    <style>
      .cls-1, .cls-2 {
        fill: none;
      }

      .cls-3 {
        opacity: .29;
      }

      .cls-3, .cls-4, .cls-5, .cls-6, .cls-7, .cls-8, .cls-9, .cls-10 {
        isolation: isolate;
      }

      .cls-4, .cls-6, .cls-7, .cls-8, .cls-9 {
        opacity: .8;
      }

      .cls-5 {
        opacity: .85;
      }

      .cls-2 {
        stroke-width: 2.36px;
      }

      .cls-2, .cls-11 {
        stroke: #000;
      }

      .cls-12 {
        fill: url(#radial-gradient-7);
      }

      .cls-13 {
        fill: url(#radial-gradient-4);
      }

      .cls-14 {
        fill: url(#radial-gradient-3);
      }

      .cls-15 {
        fill: url(#radial-gradient-2);
      }

      .cls-16 {
        fill: url(#linear-gradient-8);
      }

      .cls-17 {
        fill: url(#linear-gradient-7);
      }

      .cls-18 {
        fill: url(#linear-gradient-5);
      }

      .cls-19 {
        fill: url(#linear-gradient-6);
      }

      .cls-20 {
        fill: url(#linear-gradient-9);
      }

      .cls-21 {
        fill: url(#linear-gradient-2);
      }

      .cls-22 {
        fill: url(#radial-gradient);
      }

      .cls-23 {
        fill: url(#linear-gradient);
      }

      .cls-11 {
        stroke-width: 2.3px;
      }

      .cls-24 {
        fill: #a0a0a0;
      }

      .cls-25 {
        fill: #009f76;
      }

      .cls-6 {
        fill: url(#linear-gradient-4);
      }

      .cls-7 {
        fill: url(#linear-gradient-3);
      }

      .cls-26 {
        fill: url(#linear-gradient-10);
      }

      .cls-27 {
        fill: url(#linear-gradient-11);
      }

      .cls-28 {
        fill: url(#linear-gradient-12);
      }

      .cls-29 {
        fill: url(#linear-gradient-13);
      }

      .cls-30 {
        fill: url(#linear-gradient-14);
      }

      .cls-31 {
        fill: url(#linear-gradient-15);
      }

      .cls-32 {
        fill: url(#linear-gradient-16);
      }

      .cls-33 {
        fill: url(#linear-gradient-17);
      }

      .cls-34 {
        fill: url(#linear-gradient-18);
      }

      .cls-35 {
        fill: #027154;
      }

      .cls-8 {
        fill: url(#radial-gradient-5);
      }

      .cls-9 {
        fill: url(#radial-gradient-6);
      }

      .cls-10 {
        fill: #fff;
        opacity: .39;
      }
    </style>
    <linearGradient id="linear-gradient" x1="1820.66" y1="-7142.01" x2="1820.66" y2="-7249.54" gradientTransform="translate(-1734.46 -7155.24) scale(1.09 -1.01)" gradientUnits="userSpaceOnUse">
      <stop offset="0" stop-color="#fff"/>
      <stop offset="1" stop-color="#fff" stop-opacity="0"/>
    </linearGradient>
    <linearGradient id="linear-gradient-2" x1="250.85" y1="-7336.97" x2="250.85" y2="-7378.4" gradientTransform="translate(0 -7151.05) scale(1 -1)" gradientUnits="userSpaceOnUse">
      <stop offset="0" stop-color="#fff"/>
      <stop offset="1" stop-color="#bebebe"/>
    </linearGradient>
    <radialGradient id="radial-gradient" cx="308.54" cy="-11370.51" fx="308.54" fy="-11370.51" r="49.54" gradientTransform="translate(0 -5035.22) scale(1 -.47)" gradientUnits="userSpaceOnUse">
      <stop offset="0" stop-color="#dfbe00"/>
      <stop offset=".8" stop-color="#deaf00"/>
      <stop offset="1" stop-color="#dea101"/>
    </radialGradient>
    <radialGradient id="radial-gradient-2" cx="193.8" cy="-7358.91" fx="193.8" fy="-7358.91" r="49.54" gradientTransform="translate(0 -7094.07) scale(1 -1)" xlink:href="#radial-gradient"/>
    <radialGradient id="radial-gradient-3" cx="1487.71" cy="-5898.13" fx="1487.71" fy="-5898.13" r="22.39" gradientTransform="translate(-1594.9 -9006.83) scale(1.22 -1.55)" gradientUnits="userSpaceOnUse">
      <stop offset="0" stop-color="#d2d2d2"/>
      <stop offset=".88" stop-color="#d2d2d2"/>
      <stop offset="1" stop-color="gray"/>
    </radialGradient>
    <radialGradient id="radial-gradient-4" cx="1995.38" cy="-6919.76" fx="1995.38" fy="-6919.76" r="22.4" gradientTransform="translate(-2356.4 -7542.62) scale(1.32 -1.11)" xlink:href="#radial-gradient-3"/>
    <linearGradient id="linear-gradient-3" x1="223.97" y1="-7267.6" x2="234.86" y2="-7284.96" gradientTransform="translate(0 -7151.05) scale(1 -1)" xlink:href="#linear-gradient"/>
    <linearGradient id="linear-gradient-4" x1="285.31" y1="-7268.16" x2="294.41" y2="-7283.3" gradientTransform="translate(0 -7151.05) scale(1 -1)" xlink:href="#linear-gradient"/>
    <radialGradient id="radial-gradient-5" cx="15388.85" cy="7187.36" fx="15388.85" fy="7187.36" r="26.01" gradientTransform="translate(15667.79 -2433.8) rotate(-180) scale(1 -.36)" gradientUnits="userSpaceOnUse">
      <stop offset="0" stop-color="#fff"/>
      <stop offset="1" stop-color="#fff" stop-opacity="0"/>
    </radialGradient>
    <radialGradient id="radial-gradient-6" cx="8989.87" cy="14315.86" fx="8989.87" fy="14315.86" r="26.02" gradientTransform="translate(12107.45 4933.21) rotate(-128.88) scale(1.19 -.44) skewX(1.5)" xlink:href="#radial-gradient-5"/>
    <radialGradient id="radial-gradient-7" cx="249.76" cy="-8271.35" fx="249.76" fy="-8271.35" r="26.38" gradientTransform="translate(0 -6442.86) scale(1 -.8)" xlink:href="#radial-gradient"/>
    <linearGradient id="linear-gradient-5" x1="258.33" y1="-7307" x2="249.37" y2="-7322.18" gradientTransform="translate(0 -7151.05) scale(1 -1)" xlink:href="#linear-gradient"/>
    <linearGradient id="linear-gradient-6" x1="2897.37" y1="-6306.56" x2="2897.37" y2="-6330.59" gradientTransform="translate(-3667.84 -9049.13) scale(1.33 -1.48)" xlink:href="#linear-gradient"/>
    <linearGradient id="linear-gradient-7" x1="2657.61" y1="-6306.56" x2="2657.61" y2="-6330.59" gradientTransform="translate(-3218.54 -9049.13) scale(1.33 -1.48)" xlink:href="#linear-gradient"/>
    <linearGradient id="linear-gradient-8" x1="75.74" y1="-7400.88" x2="163.97" y2="-7332.03" gradientTransform="translate(0 -7151.05) scale(1 -1)" xlink:href="#linear-gradient"/>
    <linearGradient id="linear-gradient-9" x1="15058.76" y1="-7357.87" x2="15146.99" y2="-7289.02" gradientTransform="translate(15482.99 -7108.62) rotate(-180)" xlink:href="#linear-gradient"/>
    <linearGradient id="linear-gradient-10" x1="251.15" y1="-7470.51" x2="251.22" y2="-7477.4" gradientTransform="translate(0 -7151.05) scale(1 -1)" gradientUnits="userSpaceOnUse">
      <stop offset="0" stop-color="#3c3c3c"/>
      <stop offset="1" stop-color="#a0a0a0" stop-opacity="0"/>
    </linearGradient>
    <linearGradient id="linear-gradient-11" x1="241.24" y1="-7280.07" x2="243.49" y2="-7288.23" gradientTransform="translate(0 -7151.05) scale(1 -1)" xlink:href="#linear-gradient"/>
    <linearGradient id="linear-gradient-12" x1="233.88" y1="-7288.61" x2="239.04" y2="-7298.29" gradientTransform="translate(0 -7151.05) scale(1 -1)" gradientUnits="userSpaceOnUse">
      <stop offset="0" stop-color="#3c3c3c"/>
      <stop offset="1" stop-color="#3c3c3c" stop-opacity="0"/>
    </linearGradient>
    <linearGradient id="linear-gradient-13" x1="257.27" y1="-7279.84" x2="260.25" y2="-7288.73" gradientTransform="translate(0 -7151.05) scale(1 -1)" xlink:href="#linear-gradient"/>
    <linearGradient id="linear-gradient-14" x1="251.06" y1="-7289.23" x2="256.22" y2="-7298.91" xlink:href="#linear-gradient-12"/>
    <linearGradient id="linear-gradient-15" x1="6895.19" y1="-3718.52" x2="6895.75" y2="-3717.74" gradientTransform="translate(178501.85 89581.73) rotate(-180) scale(25.85 -24.03)" gradientUnits="userSpaceOnUse">
      <stop offset="0" stop-color="#fff"/>
      <stop offset="1" stop-color="#439246"/>
    </linearGradient>
    <linearGradient id="linear-gradient-16" x1="6899.67" y1="-3718.26" x2="6900.41" y2="-3716.97" gradientTransform="translate(175643.34 89542.33) rotate(-180) scale(25.42 -24.02)" xlink:href="#linear-gradient-15"/>
    <linearGradient id="linear-gradient-17" x1="6489.36" y1="-3771.51" x2="6489.83" y2="-3770.85" gradientTransform="translate(-266280.99 130389.79) scale(41.07 34.51)" xlink:href="#linear-gradient-15"/>
    <linearGradient id="linear-gradient-18" x1="6488.33" y1="-3770.59" x2="6488.93" y2="-3769.6" gradientTransform="translate(-263887.73 129537.77) scale(40.71 34.29)" xlink:href="#linear-gradient-15"/>
  </defs>
  <g id="Layer_2" data-name="Layer 2">
    <g class="cls-4">
      <path class="cls-24" d="M367.02,326.34c0,5.86-52.36,10.65-117,10.65s-117-4.75-117-10.65,52.36-10.65,117-10.65,117,4.79,117,10.65"/>
    </g>
    <path class="cls-11" d="M153.1,217.74c-.62,3.28-.9,6.61-.83,9.94,1.54,50.82,44.04,92.05,98.27,92.05s97.79-40.99,98.27-92.05c.04-3.69-.65-7.35-2.02-10.77,0,0,11.61,2.5,32.36,17.43,18.26,3.33,11.61-11.61,11.61-11.61,0,0-4.16-11.61-30.7-32.36-26.54-20.75-25.82-27.73-28.72-40.56-2.93-12.91-6.93-29.94-6.93-29.94,0,0-6.14-26.77-20.08-40.64-29.97-29.92-78.53-29.89-108.45.09-.08.08-.15.15-.23.23-13.94,14.02-21.78,35.33-21.78,35.33,0,0-4.48,16.91-4.36,30.46.12,13.31-3.13,25.07-29.67,45.83-26.54,20.75-30.7,32.36-30.7,32.36,0,0-6.34,13.98,11.92,10.69,20.75-13.7,32.08-16.48,32.04-16.48h0Z"/>
    <path class="cls-23" d="M309.95,112.5c0,29.98-26.81,54.3-59.89,54.3s-59.89-24.32-59.89-54.3,26.81-54.3,59.89-54.3,59.89,24.32,59.89,54.3"/>
    <path class="cls-21" d="M330.07,244.63c0,25.19-8.87,48.52-23.21,65.04-14.34,16.52-97.67,16.52-112.01,0-14.34-16.52-23.21-39.33-23.21-64.52,0-50.38,35.49-91.26,79.22-91.26,43.41.04,78.7,40.76,79.22,90.74Z"/>
    <path class="cls-10" d="M177.85,212.07s-2.69,25.15.55,39.65,6.97,28.91,6.97,28.91l-7.76,2.42c-2.92-3.38-5.61-6.95-8.04-10.69-3.76-5.9-8.32-17.94-8.32-17.94l12.04,9.39s-2.42-10.18-1.35-21.43c1.07-11.25,2.18-23.05,5.9-30.3h0Z"/>
    <path class="cls-24" d="M208.71,170.8s3.49,5.35,5.9,5.43c3.96.44,5.07,4.59,8.99,4.32,8.4,10.06,15.76,19.41,23.61,23.33,2.81,1.82,5.82,2.26,8.4-2.18,4.48-3.92,14.77-14.97,16.99-19.21,3.25-3.76,2.5-9.23,2.5-9.23,0,0,5.55-2.22,8.32-2.42,3.09-.24.48-5.62,3.21-6.14-.67-4.44,3.6-4.36-1.43-4.91-5.03-.55-68.84-3.92-73.91-.55s-5.94,5.43-2.57,11.57h0Z"/>
    <path class="cls-10" d="M323.57,213.42s2.69,25.15-.55,39.65c-3.25,14.5-6.97,28.91-6.97,28.91l7.76,2.42c2.92-3.38,5.61-6.95,8.04-10.69,3.76-5.86,8.32-17.94,8.32-17.94l-12.04,9.39s2.42-10.18,1.35-21.43c-1.07-11.25-2.18-23.09-5.9-30.3Z"/>
    <path class="cls-24" d="M351.97,313.78c0,4.91-1.39,6.69-3.88,10.93h-91.34c-2.5-4.24-3.88-6.02-3.88-10.93,0-19.61,22.18-35.57,49.55-35.57s49.55,15.92,49.55,35.57"/>
    <path class="cls-22" d="M358.07,315.45c0,4.91-1.39,6.69-3.88,10.93h-91.3c-2.5-4.24-3.88-6.02-3.88-10.93,0-19.61,22.18-35.57,49.55-35.57s49.51,15.92,49.51,35.57"/>
    <path class="cls-24" d="M249.47,314.3c0,4.91-1.39,6.69-3.88,10.93h-91.3c-2.5-4.24-3.88-6.02-3.88-10.93,0-19.61,22.18-35.57,49.55-35.57s49.51,15.96,49.51,35.57"/>
    <path class="cls-15" d="M243.33,315.45c0,4.91-1.39,6.69-3.88,10.93h-91.3c-2.5-4.24-3.88-6.02-3.88-10.93,0-19.61,22.18-35.57,49.55-35.57s49.51,15.92,49.51,35.57"/>
    <g class="cls-5">
      <path d="M312.56,135.99c0,14.81-15.13,26.81-33.82,26.81s-33.82-12-33.82-26.81,15.13-26.81,33.82-26.81,33.82,12,33.82,26.81"/>
    </g>
    <g class="cls-5">
      <path d="M249.39,134.04c0,19.57-12.87,35.45-28.76,35.45s-28.76-15.88-28.76-35.45,12.87-35.45,28.76-35.45,28.76,15.88,28.76,35.45"/>
      <path class="cls-2" d="M249.39,134.04c0,19.57-12.87,35.45-28.76,35.45s-28.76-15.88-28.76-35.45,12.87-35.45,28.76-35.45,28.76,15.88,28.76,35.45"/>
    </g>
    <path class="cls-14" d="M247.72,134.92c0,19.13-12.24,34.62-27.37,34.62s-27.37-15.49-27.37-34.62,12.24-34.62,27.37-34.62,27.37,15.49,27.37,34.62"/>
    <path class="cls-13" d="M307.49,137.93c0,14.02-13.27,25.39-29.59,25.39s-29.59-11.37-29.59-25.39,13.27-25.39,29.59-25.39,29.59,11.37,29.59,25.39"/>
    <path d="M264.08,138.24c0,6.34-3.53,11.49-7.84,11.49s-7.84-5.15-7.84-11.49,3.53-11.49,7.84-11.49,7.84,5.15,7.84,11.49"/>
    <path class="cls-7" d="M203.01,111.94s7.84-14.54,22.93-9.51c15.09,5.03,16.12,13.78,20.04,33.94s-13.9,1.9-13.9,1.9c0,0-2.26-17.35-12.32-22.38s-16.75-3.37-16.75-3.96Z"/>
    <path class="cls-11" d="M247.21,138.01c0,6.34-3.53,11.49-7.84,11.49s-7.84-5.15-7.84-11.49,3.53-11.49,7.84-11.49,7.84,5.15,7.84,11.49"/>
    <path class="cls-6" d="M273.55,114.76s16.24-2.81,25.19,8.4c8.95,11.21,6.14,15.13,6.14,15.13l-12.32.55s-7.8-17.94-19.01-24.08h0Z"/>
    <path class="cls-8" d="M253.07,149.89s14.73,8.71,27.61,7.01c12.87-1.7,18.93-6.46,24.12-11.57-1.31,6.1-13.43,15.76-24.04,16.32-10.61.55-27.69-11.21-27.69-11.76Z"/>
    <path class="cls-9" d="M196.67,125.09s-.08,18.97,11.29,29.82c11.37,10.85,18.18,8.56,27.13,9.9-7.09,2.97-23.29,2.97-31.84-6.54-8.56-9.51-7.13-32.8-6.57-33.19h0Z"/>
    <path class="cls-12" d="M250.65,195.91l2.77-.04s3.01-3.33,13.43-14.22c6.97-7.92,9.19-13.11,9.19-13.11,0,0,1.43-5.23-5.39-10.58-8.91-4.44-13.43-4.44-20.04-4.4s-11.49.83-20.04,4.44-7.13,10.89-7.13,10.89c0,0,.63,3.49,11.05,14.38,10.42,10.89,16.16,12.63,16.16,12.63h0Z"/>
    <path class="cls-18" d="M233.07,158.72s13.51.91,22.38,6.3c8.87,5.39,12.08,12.87,12.08,12.87,0,0,5.55-6.06,6.3-8.36s2.3-6.93-5.78-11.57c-8.08-4.63-12.71-3.33-20.6-3.21-7.8.08-14.38,4.08-14.38,3.96h0Z"/>
    <g class="cls-4">
      <path class="cls-19" d="M215.88,304.24c0,10.97-13.55,19.88-30.22,19.88s-30.22-8.91-30.22-19.88,13.55-19.88,30.22-19.88,30.22,8.91,30.22,19.88"/>
    </g>
    <g class="cls-4">
      <path class="cls-17" d="M346.31,304.24c0,10.97-13.55,19.88-30.22,19.88s-30.22-8.91-30.22-19.88,13.55-19.88,30.22-19.88,30.22,8.91,30.22,19.88"/>
    </g>
    <path class="cls-16" d="M111.79,226.73s47.01-30.22,54.3-35.84c7.29-5.62.55-23.53.55-23.53-4.93,6.74-10.36,13.11-16.24,19.05-8.4,6.73-15.13,12.32-28,22.93-12.87,12.91-10.61,17.94-10.61,17.39Z"/>
    <path class="cls-20" d="M388.17,226.13s-47.01-30.22-54.3-35.84-.55-23.53-.55-23.53c4.93,6.74,10.36,13.11,16.24,19.05,8.4,6.73,15.13,12.32,28,22.93,12.87,12.91,10.61,17.98,10.61,17.39h0Z"/>
    <path class="cls-26" d="M242.81,319.53s6.02.51,8.52.48c2.77-.04,6.46-.32,8.4-.51.59,3.01,2.53,5.7,3.17,6.54.79.75-23.37.12-23.37.12,0,0,3.01-4.24,3.29-6.61Z"/>
    <path class="cls-27" d="M237.82,126.96s1.94,5.58,2.06,10.34c4.24-1.43,6.46-2.85,6.46-2.85,0,0-1.07-7.49-8.52-7.49h0Z"/>
    <path class="cls-28" d="M233.42,130.92s-.71,6.22,1.94,10.46,5.66,5.58,7.96,6.1c-.71.63-3.96,2.38-6.97-.08s-4.52-4.79-4.52-8.04.55-7.21,1.58-8.44h0Z"/>
    <path class="cls-29" d="M254.42,127.31s1.94,5.58,2.06,10.34c4.24-1.43,6.46-2.85,6.46-2.85,0,0-1.07-7.49-8.52-7.49Z"/>
    <path class="cls-30" d="M250.61,131.55s-.71,6.22,1.94,10.46c2.65,4.24,5.66,5.58,7.96,6.1-.71.63-3.96,2.38-6.97-.08-3.01-2.46-4.52-4.79-4.52-8.04s.59-7.25,1.58-8.44h0Z"/>
  </g>
  <g id="Layer_1-2" data-name="Layer 1-2">
    <path class="cls-35" d="M166.73,174.56s31.53,32.68,83.1,31.84c25.11-.4,57.91.44,91.18-34.34l2.26,2.65,16.52,14.42s-14.97,17.43-10.85,27.88c0,0,1.7,10.54.32,19.88-2.14,14.62-10.38,35.81-16.48,41.27,0,0-144.92-3.6-163.7,0,0,0-19.05-13.94-21.07-58.74,0,0-2.61-13.9-14.69-23.45l28.72-26.54,4.71,5.11Z"/>
  </g>
  <g id="Page-1">
    <g id="logo">
      <g id="Rectangle-2">
        <g id="Mask-2-2">
          <path id="path-1-2" class="cls-25" d="M250.38,209.82c.87-.36,1.84-.36,2.71,0l23.54,11.34c.82.45,1.43,1.22,1.69,2.12l5.8,25.48c.16.93-.06,1.88-.6,2.64l-16.29,20.43c-.62.71-1.5,1.13-2.44,1.19h-26.14c-.94-.06-1.82-.49-2.44-1.19l-16.29-20.43c-.54-.77-.76-1.72-.6-2.64l5.81-25.48c.26-.9.87-1.67,1.69-2.12l23.57-11.34Z"/>
        </g>
        <polygon class="cls-3" points="205.62 250.06 242.06 227.92 266.6 253.05 237.48 278.73 205.62 250.06"/>
      </g>
      <path id="Combined-Shape" class="cls-31" d="M241.44,238.59c.31.88.88,1.65,1.64,2.2l6.07,3.96c1.16.68,2.61.68,3.77,0l6.07-3.96c1.12-.82,1.81-2.11,1.89-3.49v-8.37c-.02-.6-.16-1.18-.43-1.72l-19,11.37Z"/>
      <path id="Combined-Shape-2" class="cls-32" d="M241.86,227.97c-.26.53-.41,1.11-.42,1.71v8.37c.07,1.39.77,2.67,1.89,3.5l6.07,3.96c1.16.68,2.61.68,3.77,0l6.07-3.96c.55-.39,1-.9,1.31-1.49l-18.68-12.08Z"/>
      <path id="Combined-Shape-3" class="cls-33" d="M267.05,252.08c-.33.75-.89,1.39-1.58,1.83l-11.73,6.77c-1.22.62-2.67.62-3.89,0l-11.73-6.77c-1.15-.75-1.87-2-1.94-3.37v-13.55c.02-.63.19-1.24.5-1.78l30.39,16.87Z"/>
      <path id="Combined-Shape-4" class="cls-34" d="M267.02,235.35c.25.51.38,1.06.4,1.62v13.55c-.08,1.37-.8,2.62-1.95,3.37l-11.73,6.77c-1.22.62-2.67.62-3.89,0l-11.73-6.77c-.53-.33-.98-.79-1.3-1.33l30.21-17.21Z"/>
    </g>
  </g>
  <g>
    <path d="M28.07,413.53c-4.16,0-7.81-1.19-10.96-3.56-3.15-2.37-5.6-5.72-7.36-10.04-1.76-4.32-2.64-9.44-2.64-15.36s.88-10.88,2.64-15.2c1.76-4.32,4.28-7.69,7.56-10.12,3.28-2.43,7.21-3.64,11.8-3.64,5.55,0,10.01,1.52,13.4,4.56,3.39,3.04,5.45,7.33,6.2,12.88h-9.2c-.53-2.88-1.69-5.17-3.48-6.88-1.79-1.71-4.09-2.56-6.92-2.56-4.32,0-7.63,1.87-9.92,5.6-2.29,3.73-3.44,8.85-3.44,15.36s1.21,11.96,3.64,15.56c2.43,3.6,5.59,5.4,9.48,5.4,2.61,0,4.77-.77,6.48-2.32,1.71-1.55,3.01-3.53,3.92-5.96.91-2.43,1.47-5,1.68-7.72h-11.76v-7.04h20.32v30.08h-7.84l-.56-7.52h-.48c-1.07,2.45-2.56,4.48-4.48,6.08-1.92,1.6-4.61,2.4-8.08,2.4Z"/>
    <path d="M69.91,413.53c-3.15,0-5.79-.55-7.92-1.64-2.13-1.09-3.73-2.56-4.8-4.4-1.07-1.84-1.6-3.85-1.6-6.04,0-3.89,1.43-6.93,4.28-9.12,2.85-2.19,6.89-3.28,12.12-3.28h10.24v-.88c0-5.97-2.77-8.96-8.32-8.96-2.29,0-4.23.49-5.8,1.48-1.57.99-2.63,2.57-3.16,4.76h-8.48c.43-4.16,2.23-7.45,5.4-9.88,3.17-2.43,7.19-3.64,12.04-3.64,5.87,0,10.13,1.44,12.8,4.32,2.67,2.88,4,6.85,4,11.92v24.4h-7.2l-.72-5.84h-.56c-1.17,1.87-2.64,3.47-4.4,4.8-1.76,1.33-4.4,2-7.92,2ZM71.51,406.41c3.47,0,6.07-1.05,7.8-3.16,1.73-2.11,2.68-4.79,2.84-8.04h-9.28c-3.04,0-5.19.49-6.44,1.48-1.25.99-1.88,2.36-1.88,4.12s.63,3.13,1.88,4.12c1.25.99,2.95,1.48,5.08,1.48Z"/>
    <path d="M97.27,412.57v-7.36h9.68v-22.32c0-1.76-.85-2.64-2.56-2.64h-6.32v-7.36h9.52c2.19,0,3.97.63,5.36,1.88,1.39,1.25,2.08,3,2.08,5.24v.96h.4c.59-2.99,1.85-5.24,3.8-6.76,1.95-1.52,4.79-2.28,8.52-2.28h6.16v8.96h-8.64c-3.15,0-5.57,1.09-7.28,3.28-1.71,2.19-2.56,4.8-2.56,7.84v13.2h12.32v7.36h-30.48Z"/>
    <path d="M154.55,413.53c-3.31,0-6.27-.79-8.88-2.36-2.61-1.57-4.68-3.91-6.2-7-1.52-3.09-2.28-6.91-2.28-11.44s.77-8.35,2.32-11.44c1.55-3.09,3.64-5.43,6.28-7,2.64-1.57,5.59-2.36,8.84-2.36,3.04,0,5.55.57,7.52,1.72,1.97,1.15,3.44,2.6,4.4,4.36v-23.04h8.48v57.6h-7.28l-.72-5.84h-.48c-1.07,2.08-2.57,3.73-4.52,4.96-1.95,1.23-4.44,1.84-7.48,1.84ZM156.31,405.45c3.04,0,5.56-1.07,7.56-3.2,2-2.13,3-5.31,3-9.52s-1-7.45-3-9.56c-2-2.11-4.52-3.16-7.56-3.16s-5.56,1.07-7.56,3.2c-2,2.13-3,5.33-3,9.6s1,7.37,3,9.48c2,2.11,4.52,3.16,7.56,3.16Z"/>
    <path d="M201.51,413.53c-3.84,0-7.23-.87-10.16-2.6-2.93-1.73-5.23-4.15-6.88-7.24-1.65-3.09-2.48-6.69-2.48-10.8s.81-7.81,2.44-10.96c1.63-3.15,3.92-5.6,6.88-7.36,2.96-1.76,6.39-2.64,10.28-2.64s7.15.87,9.92,2.6c2.77,1.73,4.92,4.04,6.44,6.92s2.28,6.05,2.28,9.52v1.72c0,.61-.03,1.29-.08,2.04h-29.84c.27,3.68,1.47,6.47,3.6,8.36,2.13,1.89,4.64,2.84,7.52,2.84,2.51,0,4.49-.52,5.96-1.56,1.47-1.04,2.55-2.47,3.24-4.28h8.56c-.96,3.79-2.96,6.97-6,9.56-3.04,2.59-6.93,3.88-11.68,3.88ZM201.51,379.29c-2.61,0-4.93.79-6.96,2.36-2.03,1.57-3.33,3.77-3.92,6.6h21.12c-.21-2.67-1.25-4.83-3.12-6.48-1.87-1.65-4.24-2.48-7.12-2.48Z"/>
    <path d="M227.59,412.57v-39.68h7.36l.72,5.92h.4c1.07-1.92,2.72-3.55,4.96-4.88,2.24-1.33,4.83-2,7.76-2,4.85,0,8.51,1.47,10.96,4.4,2.45,2.93,3.68,7.25,3.68,12.96v23.28h-8.48v-22.24c0-3.31-.69-5.87-2.08-7.68-1.39-1.81-3.57-2.72-6.56-2.72s-5.37.99-7.32,2.96c-1.95,1.97-2.92,4.83-2.92,8.56v21.12h-8.48Z"/>
    <path d="M287.41,412.57v-56h8.48v48.4h27.6v7.6h-36.08Z"/>
    <path d="M329.01,412.57v-7.36h12.48v-22.32c0-1.76-.85-2.64-2.56-2.64h-8.8v-7.36h10.32c3.31,0,5.72.76,7.24,2.28,1.52,1.52,2.28,3.93,2.28,7.24v22.8h12.48v7.36h-33.44ZM344.93,366.81c-1.87,0-3.43-.6-4.68-1.8-1.25-1.2-1.88-2.68-1.88-4.44s.63-3.23,1.88-4.4c1.25-1.17,2.81-1.76,4.68-1.76s3.51.59,4.76,1.76c1.25,1.17,1.88,2.64,1.88,4.4s-.63,3.24-1.88,4.44c-1.25,1.2-2.84,1.8-4.76,1.8Z"/>
    <path d="M368.77,412.57v-39.68h7.36l.72,5.92h.4c1.07-1.92,2.72-3.55,4.96-4.88s4.83-2,7.76-2c4.85,0,8.51,1.47,10.96,4.4,2.45,2.93,3.68,7.25,3.68,12.96v23.28h-8.48v-22.24c0-3.31-.69-5.87-2.08-7.68-1.39-1.81-3.57-2.72-6.56-2.72s-5.37.99-7.32,2.96c-1.95,1.97-2.92,4.83-2.92,8.56v21.12h-8.48Z"/>
    <path d="M425.81,413.53c-4.8,0-8.44-1.48-10.92-4.44-2.48-2.96-3.72-7.27-3.72-12.92v-23.28h8.48v22.24c0,3.25.71,5.8,2.12,7.64,1.41,1.84,3.59,2.76,6.52,2.76s5.39-.99,7.36-2.96c1.97-1.97,2.96-4.83,2.96-8.56v-21.12h8.48v39.68h-7.36l-.72-5.92h-.4c-1.07,1.92-2.72,3.55-4.96,4.88-2.24,1.33-4.85,2-7.84,2Z"/>
    <path d="M454.45,412.57l13.6-19.84-14.08-19.84h9.44l10.24,14.8,10.24-14.8h9.44l-14.08,19.84,13.6,19.84h-9.44l-9.76-14.8-9.84,14.8h-9.36Z"/>
  </g>
  <rect class="cls-1" x="496.46" y="360.42" width="601.3" height="81.2"/>
</svg>