<?xml version="1.0" encoding="UTF-8"?>
<svg id="Layer_1" data-name="Layer 1" xmlns="http://www.w3.org/2000/svg" viewBox="0 0 500 500">
  <defs>
    <style>
      .cls-1 {
        fill-rule: evenodd;
      }
    </style>
  </defs>
  <path class="cls-1" d="M245.55,63.8c2.19-1.07,4.74-1.07,6.93,0l125.47,61.5c3.9,1.91,5.66,4.9,3.74,8.81-1.91,3.9-6.77,7.25-10.67,5.33l-122-59.8-117.59,57.64v190.42h117.59c4.35,0,7.87,3.53,7.87,7.87s-3.53,7.87-7.87,7.87h-125.47c-4.35,0-7.87-3.52-7.87-7.87v-203.21c0-3,1.71-5.75,4.41-7.07l125.47-61.5h0Z"/>
  <path class="cls-1" d="M245.55,63.8c2.19-1.07,4.74-1.07,6.93,0l125.47,61.5c3.9,1.91,5.66,4.9,3.74,8.81-1.91,3.9-6.77,7.25-10.67,5.33l-122-59.8-117.59,57.64v190.42h117.59c4.35,0,7.87,3.53,7.87,7.87s-3.53,7.87-7.87,7.87h-125.47c-4.35,0-7.87-3.52-7.87-7.87v-203.21c0-3,1.71-5.75,4.41-7.07l125.47-61.5h0Z"/>
  <path class="cls-1" d="M377.95,125.3c4.19,2.05,6.38,4.2,6.38,8.54v201.73c0,4.35-3.53,7.87-7.87,7.87s-7.87-3.52-7.87-7.87v-201.73c0-4.35,5.02-8.54,9.37-8.54ZM250,297.96l-43.95-21.28c-3.18-1.54-7.01-.21-8.54,2.97-1.54,3.18-.21,7.01,2.97,8.54l46.69,22.61c.88.44,1.86.67,2.84.67.99,0,1.96-.23,2.84-.67l93.43-45.24c3.18-1.54,4.51-5.36,2.97-8.54-1.54-3.18-5.37-4.51-8.54-2.97l-90.7,43.92h0Z"/>
  <path class="cls-1" d="M250,192.05c4.35-.02,7.36.85,7.38,5.2l.98,138.29c.02,4.35-3.49,7.89-7.84,7.91-4.35.02-7.89-3.49-7.91-7.84l-.98-138.29c-.02-4.35,4.02-5.26,8.36-5.28h0Z"/>
  <path class="cls-1" d="M250,244.82l-43.95-21.28c-3.18-1.54-7.01-.21-8.54,2.97-1.54,3.18-.21,7.01,2.97,8.54l46.69,22.61c.88.44,1.86.67,2.84.67.99,0,1.96-.23,2.84-.67l93.43-45.24c3.18-1.54,4.51-5.37,2.97-8.54-1.54-3.18-5.37-4.51-8.54-2.97l-90.7,43.92h0ZM249.92,191.16l-43.88-21.25c-3.18-1.54-7.01-.21-8.54,2.97-1.54,3.18-.21,7.01,2.97,8.54l46.68,22.6c1.72.86,3.73.9,5.47.11.12-.05.24-.11.36-.17l124.91-63.93c3.14-1.61,4.39-5.46,2.78-8.61-1.61-3.14-5.46-4.39-8.61-2.78l-122.14,62.51h0Z"/>
  <g>
    <path d="M51.2,418.98c-4.16,0-7.81-1.19-10.96-3.56-3.15-2.37-5.6-5.72-7.36-10.04-1.76-4.32-2.64-9.44-2.64-15.36s.88-10.88,2.64-15.2c1.76-4.32,4.28-7.69,7.56-10.12,3.28-2.43,7.21-3.64,11.8-3.64,5.55,0,10.01,1.52,13.4,4.56,3.39,3.04,5.45,7.33,6.2,12.88h-9.2c-.53-2.88-1.69-5.17-3.48-6.88-1.79-1.71-4.09-2.56-6.92-2.56-4.32,0-7.63,1.87-9.92,5.6-2.29,3.73-3.44,8.85-3.44,15.36s1.21,11.96,3.64,15.56c2.43,3.6,5.59,5.4,9.48,5.4,2.61,0,4.77-.77,6.48-2.32,1.71-1.55,3.01-3.53,3.92-5.96.91-2.43,1.47-5,1.68-7.72h-11.76v-7.04h20.32v30.08h-7.84l-.56-7.52h-.48c-1.07,2.45-2.56,4.48-4.48,6.08-1.92,1.6-4.61,2.4-8.08,2.4Z"/>
    <path d="M78.4,418.02v-7.36h9.68v-22.32c0-1.76-.85-2.64-2.56-2.64h-6.32v-7.36h9.52c2.19,0,3.97.63,5.36,1.88,1.39,1.25,2.08,3,2.08,5.24v.96h.4c.59-2.99,1.85-5.24,3.8-6.76,1.95-1.52,4.79-2.28,8.52-2.28h6.16v8.96h-8.64c-3.15,0-5.57,1.09-7.28,3.28-1.71,2.19-2.56,4.8-2.56,7.84v13.2h12.32v7.36h-30.48Z"/>
    <path d="M138.32,418.98c-3.84,0-7.23-.87-10.16-2.6-2.93-1.73-5.23-4.15-6.88-7.24-1.65-3.09-2.48-6.69-2.48-10.8s.81-7.81,2.44-10.96c1.63-3.15,3.92-5.6,6.88-7.36s6.39-2.64,10.28-2.64,7.15.87,9.92,2.6c2.77,1.73,4.92,4.04,6.44,6.92,1.52,2.88,2.28,6.05,2.28,9.52v1.72c0,.61-.03,1.29-.08,2.04h-29.84c.27,3.68,1.47,6.47,3.6,8.36,2.13,1.89,4.64,2.84,7.52,2.84,2.51,0,4.49-.52,5.96-1.56,1.47-1.04,2.55-2.47,3.24-4.28h8.56c-.96,3.79-2.96,6.97-6,9.56-3.04,2.59-6.93,3.88-11.68,3.88ZM138.32,384.74c-2.61,0-4.93.79-6.96,2.36-2.03,1.57-3.33,3.77-3.92,6.6h21.12c-.21-2.67-1.25-4.83-3.12-6.48-1.87-1.65-4.24-2.48-7.12-2.48Z"/>
    <path d="M182.64,418.98c-3.84,0-7.23-.87-10.16-2.6-2.93-1.73-5.23-4.15-6.88-7.24-1.65-3.09-2.48-6.69-2.48-10.8s.81-7.81,2.44-10.96c1.63-3.15,3.92-5.6,6.88-7.36,2.96-1.76,6.39-2.64,10.28-2.64s7.15.87,9.92,2.6c2.77,1.73,4.92,4.04,6.44,6.92s2.28,6.05,2.28,9.52v1.72c0,.61-.03,1.29-.08,2.04h-29.84c.27,3.68,1.47,6.47,3.6,8.36,2.13,1.89,4.64,2.84,7.52,2.84,2.51,0,4.49-.52,5.96-1.56,1.47-1.04,2.55-2.47,3.24-4.28h8.56c-.96,3.79-2.96,6.97-6,9.56-3.04,2.59-6.93,3.88-11.68,3.88ZM182.64,384.74c-2.61,0-4.93.79-6.96,2.36-2.03,1.57-3.33,3.77-3.92,6.6h21.12c-.21-2.67-1.25-4.83-3.12-6.48-1.87-1.65-4.24-2.48-7.12-2.48Z"/>
    <path d="M208.72,418.02v-39.68h7.36l.72,5.92h.4c1.07-1.92,2.72-3.55,4.96-4.88s4.83-2,7.76-2c4.85,0,8.51,1.47,10.96,4.4,2.45,2.93,3.68,7.25,3.68,12.96v23.28h-8.48v-22.24c0-3.31-.69-5.87-2.08-7.68-1.39-1.81-3.57-2.72-6.56-2.72s-5.37.99-7.32,2.96c-1.95,1.97-2.92,4.83-2.92,8.56v21.12h-8.48Z"/>
    <path d="M252.64,418.02v-57.6h8.48v23.84c1.07-1.97,2.77-3.61,5.12-4.92,2.35-1.31,4.99-1.96,7.92-1.96,4.91,0,8.64,1.48,11.2,4.44s3.84,7.21,3.84,12.76v23.44h-8.48v-22.24c0-3.31-.8-5.87-2.4-7.68-1.6-1.81-3.81-2.72-6.64-2.72s-5.43.99-7.48,2.96c-2.05,1.97-3.08,4.83-3.08,8.56v21.12h-8.48Z"/>
    <path d="M315.12,418.98c-3.79,0-7.17-.85-10.16-2.56-2.99-1.71-5.33-4.12-7.04-7.24-1.71-3.12-2.56-6.79-2.56-11s.85-7.88,2.56-11c1.71-3.12,4.05-5.53,7.04-7.24,2.99-1.71,6.4-2.56,10.24-2.56s7.24.85,10.2,2.56c2.96,1.71,5.28,4.12,6.96,7.24s2.52,6.79,2.52,11-.85,7.88-2.56,11c-1.71,3.12-4.04,5.53-7,7.24-2.96,1.71-6.36,2.56-10.2,2.56ZM315.12,410.9c2.03,0,3.89-.45,5.6-1.36,1.71-.91,3.08-2.31,4.12-4.2,1.04-1.89,1.56-4.28,1.56-7.16s-.52-5.33-1.56-7.2c-1.04-1.87-2.4-3.25-4.08-4.16-1.68-.91-3.53-1.36-5.56-1.36s-3.89.45-5.6,1.36c-1.71.91-3.08,2.29-4.12,4.16-1.04,1.87-1.56,4.27-1.56,7.2,0,4.37,1.11,7.59,3.32,9.64,2.21,2.05,4.84,3.08,7.88,3.08Z"/>
    <path d="M355.92,418.98c-4.8,0-8.44-1.48-10.92-4.44-2.48-2.96-3.72-7.27-3.72-12.92v-23.28h8.48v22.24c0,3.25.71,5.8,2.12,7.64,1.41,1.84,3.59,2.76,6.52,2.76s5.39-.99,7.36-2.96c1.97-1.97,2.96-4.83,2.96-8.56v-21.12h8.48v39.68h-7.36l-.72-5.92h-.4c-1.07,1.92-2.72,3.55-4.96,4.88-2.24,1.33-4.85,2-7.84,2Z"/>
    <path d="M404.08,418.98c-5.23,0-9.39-1.23-12.48-3.68-3.09-2.45-4.85-5.71-5.28-9.76h8.72c.32,1.87,1.27,3.39,2.84,4.56,1.57,1.17,3.67,1.76,6.28,1.76s4.44-.52,5.8-1.56c1.36-1.04,2.04-2.25,2.04-3.64,0-2.03-.81-3.41-2.44-4.16-1.63-.75-4.01-1.31-7.16-1.68-2.72-.32-5.19-.95-7.4-1.88-2.21-.93-3.96-2.21-5.24-3.84-1.28-1.63-1.92-3.67-1.92-6.12,0-3.47,1.36-6.27,4.08-8.4,2.72-2.13,6.51-3.2,11.36-3.2s8.61,1.09,11.28,3.28c2.67,2.19,4.21,5.17,4.64,8.96h-8.16c-.21-1.6-1.04-2.87-2.48-3.8-1.44-.93-3.23-1.4-5.36-1.4s-3.92.41-5.2,1.24c-1.28.83-1.92,1.91-1.92,3.24,0,2.88,3.09,4.64,9.28,5.28,2.93.32,5.55.87,7.84,1.64,2.29.77,4.11,1.97,5.44,3.6,1.33,1.63,2,3.91,2,6.84.05,2.4-.63,4.56-2.04,6.48-1.41,1.92-3.36,3.44-5.84,4.56s-5.37,1.68-8.68,1.68Z"/>
    <path d="M448.56,418.98c-3.84,0-7.23-.87-10.16-2.6-2.93-1.73-5.23-4.15-6.88-7.24-1.65-3.09-2.48-6.69-2.48-10.8s.81-7.81,2.44-10.96c1.63-3.15,3.92-5.6,6.88-7.36s6.39-2.64,10.28-2.64,7.15.87,9.92,2.6c2.77,1.73,4.92,4.04,6.44,6.92s2.28,6.05,2.28,9.52v1.72c0,.61-.03,1.29-.08,2.04h-29.84c.27,3.68,1.47,6.47,3.6,8.36,2.13,1.89,4.64,2.84,7.52,2.84,2.51,0,4.49-.52,5.96-1.56,1.47-1.04,2.55-2.47,3.24-4.28h8.56c-.96,3.79-2.96,6.97-6,9.56-3.04,2.59-6.93,3.88-11.68,3.88ZM448.56,384.74c-2.61,0-4.93.79-6.96,2.36-2.03,1.57-3.33,3.77-3.92,6.6h21.12c-.21-2.67-1.25-4.83-3.12-6.48-1.87-1.65-4.24-2.48-7.12-2.48Z"/>
  </g>
</svg>