<?xml version="1.0" encoding="UTF-8"?>
<svg id="Layer_1" data-name="Layer 1" xmlns="http://www.w3.org/2000/svg" viewBox="0 0 500 500">
  <defs>
    <style>
      .cls-1 {
        fill: #1abf00;
      }
    </style>
  </defs>
  <g id="Layer_2" data-name="Layer 2">
    <g id="g7">
      <path id="path6" class="cls-1" d="M302.43,343.45h-104.94c-6.94.02-13.52-3.14-17.83-8.58l-65.44-82.04c-4.34-5.42-5.96-12.53-4.39-19.29l23.35-102.31c1.53-6.78,6.08-12.48,12.35-15.48l94.63-45.54c6.25-3.03,13.54-3.03,19.79,0l94.55,45.54c6.26,3,10.81,8.7,12.33,15.48l23.35,102.31c1.56,6.76-.06,13.87-4.39,19.29l-65.44,82.04c-4.33,5.47-10.94,8.64-17.91,8.58ZM244.24,78.87l-94.55,45.54c-3.63,1.73-6.26,5.03-7.14,8.95l-23.35,102.32c-.93,3.94.01,8.08,2.55,11.23l65.39,81.97c2.5,3.15,6.3,4.98,10.32,4.97h104.94c4.02.01,7.83-1.82,10.32-4.97l65.47-81.97c2.51-3.14,3.45-7.25,2.55-11.17l-23.36-102.32c-.89-3.92-3.52-7.22-7.14-8.95l-94.53-45.6c-3.62-1.76-7.85-1.76-11.47,0Z"/>
      <path id="polygon6" class="cls-1" d="M237.77,257.08l-7.85-7.85-18.51-18.51-7.85-7.85,7.85-7.85,69.26-69.26-18.53-18.53-95.64,95.64,71.27,71.27,18.53-18.53-18.53-18.53Z"/>
      <path id="rect6" class="cls-1" d="M219.24,222.87l69.27-69.27,18.52,18.52-69.27,69.27-18.52-18.52Z"/>
      <path id="rect7" class="cls-1" d="M245.63,249.23l69.27-69.27,18.52,18.52-69.27,69.27-18.52-18.52Z"/>
    </g>
  </g>
  <g>
    <path d="M157.63,410.82v-49h7.42v42.35h24.15v6.65h-31.57Z"/>
    <path d="M206.28,411.66c-4.2,0-7.38-1.29-9.56-3.88-2.17-2.59-3.25-6.36-3.25-11.3v-20.37h7.42v19.46c0,2.85.62,5.08,1.85,6.68,1.24,1.61,3.14,2.42,5.71,2.42s4.71-.86,6.44-2.59c1.73-1.73,2.59-4.22,2.59-7.49v-18.48h7.42v34.72h-6.44l-.63-5.18h-.35c-.93,1.68-2.38,3.1-4.34,4.27s-4.25,1.75-6.86,1.75Z"/>
    <path d="M231.13,410.82v-6.44h10.92v-19.53c0-1.54-.75-2.31-2.24-2.31h-7.7v-6.44h9.03c2.89,0,5,.67,6.33,2s2,3.44,2,6.33v19.95h10.92v6.44h-29.26ZM245.06,370.78c-1.63,0-3-.53-4.09-1.58-1.1-1.05-1.65-2.34-1.65-3.88s.55-2.82,1.65-3.85c1.1-1.03,2.46-1.54,4.09-1.54s3.07.51,4.17,1.54c1.1,1.03,1.65,2.31,1.65,3.85s-.55,2.83-1.65,3.88c-1.1,1.05-2.48,1.58-4.17,1.58Z"/>
    <path d="M281.39,400.81c-2.15,0-4.13-.35-5.95-1.05l-1.75,2.1c-.56.7-.71,1.37-.46,2,.26.63.88.95,1.85.95h9.17c4.06,0,7.34.85,9.83,2.55,2.5,1.7,3.75,4.3,3.75,7.8,0,2.19-.55,4.19-1.65,5.99-1.1,1.8-2.85,3.23-5.25,4.3-2.4,1.07-5.56,1.61-9.48,1.61-4.95,0-8.92-.92-11.94-2.77s-4.52-4.61-4.52-8.29c0-1.31.32-2.51.95-3.6.63-1.1,1.46-2.09,2.48-2.98-1.26-.93-2.02-2.25-2.27-3.96-.26-1.7.25-3.35,1.5-4.93l3.08-3.92c-2.19-2.33-3.29-5.2-3.29-8.61,0-2.29.55-4.4,1.65-6.33,1.1-1.94,2.68-3.49,4.76-4.65,2.08-1.17,4.59-1.75,7.52-1.75,1.91,0,3.69.28,5.32.84h13.09v4.9l-6.09.35v.63c.98,1.82,1.47,3.83,1.47,6.02s-.55,4.41-1.64,6.37c-1.1,1.96-2.67,3.52-4.73,4.69-2.05,1.17-4.53,1.75-7.42,1.75ZM272.01,415.44c0,1.87.9,3.24,2.7,4.13,1.8.89,4.05,1.33,6.75,1.33,2.89,0,5.18-.49,6.86-1.47,1.68-.98,2.52-2.36,2.52-4.13,0-1.49-.61-2.67-1.82-3.54-1.21-.86-3.27-1.29-6.16-1.29h-8.19c-1.77,1.4-2.66,3.06-2.66,4.97ZM281.39,394.86c2.05,0,3.75-.61,5.08-1.82,1.33-1.21,2-2.89,2-5.04s-.67-3.69-2-4.9c-1.33-1.21-3.02-1.82-5.08-1.82s-3.81.61-5.14,1.82c-1.33,1.21-2,2.85-2,4.9s.67,3.83,2,5.04c1.33,1.21,3.04,1.82,5.14,1.82Z"/>
    <path d="M303.93,410.82v-6.44h10.92v-19.53c0-1.54-.75-2.31-2.24-2.31h-7.7v-6.44h9.03c2.89,0,5.01.67,6.34,2,1.33,1.33,1.99,3.44,1.99,6.33v19.95h10.92v6.44h-29.26ZM317.86,370.78c-1.63,0-3-.53-4.1-1.58-1.1-1.05-1.65-2.34-1.65-3.88s.55-2.82,1.65-3.85c1.1-1.03,2.46-1.54,4.1-1.54s3.07.51,4.17,1.54c1.1,1.03,1.65,2.31,1.65,3.85s-.55,2.83-1.65,3.88c-1.1,1.05-2.49,1.58-4.17,1.58Z"/>
  </g>
</svg>