<?xml version="1.0" encoding="UTF-8"?>
<svg id="Layer_1" data-name="Layer 1" xmlns="http://www.w3.org/2000/svg" viewBox="0 0 552.01 517.57">
  <defs>
    <style>
      .cls-1 {
        fill: rgba(255, 255, 255, 0);
      }

      .cls-2 {
        fill: #257ddc;
      }
    </style>
  </defs>
  <path class="cls-2" d="M295.43,76.54l-4.1,4.58-4.1-.24c-5.3-.34-16.93-.24-20.86.21l-3.08.34-1.37-1.44c-.75-.79-2.7-2.87-4.34-4.65l-2.98-3.21-2.5.44c-5.61.99-15.8,3.76-21.34,5.85l-1.74.65-1.33,6.19-1.33,6.19-4.96,2.46c-5.64,2.8-10.53,5.68-15.73,9.27l-3.59,2.46-6.05-1.88-6.05-1.88-3.01,2.67c-3.97,3.56-10.22,9.92-13.17,13.41l-2.36,2.8,1.95,6.05,1.92,6.02-2.22,3.32c-3.56,5.27-4.96,7.66-8.45,14.57l-3.32,6.5-6.12,1.37-6.12,1.4-1.44,4.27c-1.71,5.03-3.25,10.84-4.38,16.65-.48,2.33-.85,4.34-.85,4.48s2.09,2.15,4.65,4.48l4.68,4.21-.24,3.86c-.38,5.75-.31,16.28.14,20.45l.38,3.69-3.18,2.94c-1.74,1.64-3.86,3.59-4.68,4.38l-1.5,1.4.58,3.04c1.4,7.08,5.37,20.76,6.43,22.06.41.48,1.78.82,10.74,2.7l1.78.38,1.27,2.8c2.46,5.44,6.84,12.93,10.84,18.57l1.95,2.77-1.85,6.09-1.88,6.09,1.61,1.92c2.98,3.49,8.75,9.34,12.99,13.03l4.21,3.69,5.68-1.85c3.15-1.03,5.98-1.85,6.29-1.85s1.61.75,2.94,1.68c4.21,2.98,9.75,6.19,15.73,9.13l5.85,2.91,1.3,5.81c.72,3.21,1.5,6.02,1.68,6.29.92,1.13,18.64,6.02,24.55,6.74.79.07,1.47-.51,5.1-4.51,4-4.38,4.27-4.62,5.44-4.55,7.08.41,18.71.48,22.43.14l4.41-.41,1.2,1.3c.65.72,2.6,2.8,4.31,4.65l3.11,3.39,4.58-.92c5.27-1.06,11.01-2.63,16.93-4.68l4.14-1.4,1.33-6.19,1.33-6.19,2.05-1.03c7.56-3.73,13.82-7.35,19.25-11.22l2.8-1.98,6.05,1.88,6.05,1.88,1.57-1.27c2.67-2.19,10.91-10.36,14.12-14.02l3.08-3.56-1.95-6.12-1.98-6.12,1.92-2.7c2.98-4.24,6.5-10.29,9.37-16.14l2.6-5.33,6.16-1.44c3.39-.79,6.19-1.47,6.22-1.5s.68-1.98,1.47-4.34c1.57-4.86,3.15-10.91,4.31-16.93l.82-4.1-1.95-1.88c-1.06-1.06-3.21-3.04-4.75-4.45l-2.77-2.56.27-3.08c.41-4.51.41-16.04-.03-20.69l-.38-4.04,2.67-2.5c1.5-1.4,3.59-3.39,4.68-4.41l1.98-1.88-1.06-5.03c-1.13-5.54-2.7-11.15-4.62-16.69-.68-1.98-1.3-3.62-1.33-3.66s-2.6-.62-5.71-1.3c-3.08-.68-5.88-1.3-6.22-1.4s-1.27-1.64-2.22-3.69c-2.22-4.68-5.3-9.99-9.16-15.8l-3.21-4.82,1.85-6.05,1.85-6.09-2.63-2.98c-3.76-4.17-9.61-9.92-13.13-12.96l-3.04-2.56-6.02,1.92-6.05,1.95-3.76-2.53c-4.96-3.32-10.98-6.74-16.28-9.27l-4.34-2.05-.68-3.08c-.41-1.68-1.06-4.51-1.44-6.22l-.75-3.15-4.17-1.37c-6.77-2.22-19.18-5.23-21.17-5.16-.24.03-2.26,2.12-4.51,4.65ZM298.79,138.02l19.39,11.22v22.77l-.03,22.81-7.18,4.1c-5.03,2.87-7.32,4.34-7.52,4.89-.48,1.27-.34,5.1.21,6.46.31.68,1.3,2.05,2.22,3.04,1.54,1.64,1.71,1.95,1.71,3.39s-.17,1.78-1.16,2.77-1.44,1.16-2.6,1.16c-2.56,0-4.45-1.85-4.45-4.34,0-2.26-2.8-5.03-5.98-5.92l-1.54-.41-6.53,3.73-6.53,3.76-6.02-3.45c-6.22-3.59-7.25-4.48-7.25-6.46,0-1.27.48-2.09,2.33-4.17,1.81-2.02,2.46-3.42,2.46-5.3,0-3.8-2.74-6.5-6.53-6.5-3.49,0-5.4,1.71-6.81,6.05-.68,2.19-1.06,2.8-2.02,3.42-1.95,1.33-2.77,1.09-9.44-2.74l-6.16-3.52-.1-22.57c-.07-19.9-.03-22.67.44-23.05,1.37-1.13,38.71-22.5,39.16-22.43.31.07,9.27,5.13,19.94,11.28ZM265.51,194.52c1.3.79,2.05,2.19,2.05,3.9,0,1.3-.17,1.64-1.88,3.25-1.03.99-2.05,2.26-2.26,2.8-.51,1.3-.44,5.37.1,6.5.31.62,2.33,1.98,6.77,4.55l6.33,3.66.1,6.98c.07,6.5.03,7.04-.62,8.1-.41.65-1.27,1.37-1.98,1.68-1.16.48-1.47.48-3.66-.03-2.98-.68-3.97-.68-5.57-.03-3.25,1.4-4.89,4.82-3.76,8.07,1.2,3.59,4.34,5.2,8.34,4.24,3.86-.92,5.33-.62,6.7,1.44.55.85.62,1.74.62,8v7.04l-19.73,11.39c-14.94,8.62-19.83,11.28-20.24,11.05-.31-.17-9.2-5.3-19.8-11.39l-19.22-11.11.07-22.71.1-22.74,19.66-11.35c10.81-6.26,19.73-11.32,19.83-11.25.1.03,3.42,1.95,7.39,4.24l7.22,4.14,1.44-.48c1.95-.72,4.41-2.46,5.13-3.69.34-.55.72-1.68.85-2.53.27-1.98.68-2.77,2.02-3.56,1.33-.82,2.74-.85,4-.14ZM338.21,208.57l19.59,11.22-.07,22.88-.07,22.84-19.32,11.25c-10.64,6.19-19.56,11.22-19.83,11.18-.27-.07-9.27-5.1-19.9-11.22l-19.42-11.11v-17.03l-1.27-1.2c-2.39-2.26-5.4-2.8-8.93-1.64-2.02.68-2.74.55-4.38-.89-1.03-.89-1.16-1.23-1.16-2.67,0-1.27.21-1.88.89-2.7,1.3-1.54,2.8-1.85,5.2-1.03,2.94,1.06,5.57.38,8.45-2.12l1.2-1.06v-15.25l5.95-3.45c4.96-2.91,6.16-3.45,7.39-3.45,1.16,0,1.64.21,2.56,1.13.68.68,1.3,1.74,1.5,2.67.92,3.76,2.98,5.92,5.98,6.33,4.86.68,8.79-4.41,6.87-8.96-.27-.68-1.37-2.15-2.39-3.28-1.68-1.78-1.88-2.19-1.88-3.45,0-2.39.72-3.08,7.01-6.74,3.21-1.85,5.95-3.39,6.12-3.39.17-.03,9.13,4.99,19.9,11.15Z"/>
  <g id="g29">
    <rect id="rect29" class="cls-1" x="542.8" y="118.72" width="561.67" height="420.81"/>
  </g>
  <g>
    <path d="M36.11,408.47c-3.97,0-7.4-1.03-10.29-3.08-2.89-2.05-5.11-4.97-6.65-8.75-1.54-3.78-2.31-8.28-2.31-13.51s.77-9.73,2.31-13.51c1.54-3.78,3.76-6.7,6.65-8.75,2.89-2.05,6.32-3.08,10.29-3.08s7.45,1.03,10.32,3.08c2.87,2.05,5.08,4.97,6.62,8.75,1.54,3.78,2.31,8.28,2.31,13.51s-.77,9.73-2.31,13.51c-1.54,3.78-3.75,6.7-6.62,8.75-2.87,2.05-6.31,3.08-10.32,3.08ZM36.11,401.47c3.5,0,6.32-1.58,8.47-4.72,2.15-3.15,3.22-7.69,3.22-13.62s-1.07-10.46-3.22-13.62c-2.15-3.15-4.97-4.72-8.47-4.72s-6.38,1.58-8.51,4.72c-2.12,3.15-3.18,7.69-3.18,13.62s1.06,10.46,3.18,13.62c2.12,3.15,4.96,4.72,8.51,4.72Z"/>
    <path d="M58.71,423.03v-50.12h6.44l.56,5.32h.42c.93-1.73,2.35-3.18,4.23-4.38,1.89-1.19,4.14-1.78,6.75-1.78s5.18.69,7.42,2.06c2.24,1.38,4.02,3.41,5.35,6.09,1.33,2.68,2,6.03,2,10.04s-.69,7.3-2.07,10.01c-1.38,2.71-3.23,4.75-5.56,6.12-2.33,1.38-4.95,2.06-7.84,2.06-2.57,0-4.71-.51-6.44-1.54-1.73-1.03-3.01-2.19-3.85-3.5v19.6h-7.42ZM75.16,401.4c2.61,0,4.79-.93,6.54-2.8,1.75-1.87,2.62-4.67,2.62-8.4s-.88-6.51-2.62-8.33c-1.75-1.82-3.93-2.73-6.54-2.73s-4.86.92-6.61,2.77-2.62,4.63-2.62,8.36.88,6.46,2.62,8.33c1.75,1.87,3.96,2.8,6.61,2.8Z"/>
    <path d="M114.08,408.47c-3.36,0-6.32-.76-8.89-2.27-2.57-1.52-4.57-3.63-6.02-6.33-1.45-2.71-2.17-5.86-2.17-9.45s.71-6.84,2.14-9.59c1.42-2.75,3.43-4.9,6.02-6.44,2.59-1.54,5.59-2.31,8.99-2.31s6.25.76,8.68,2.27c2.43,1.52,4.31,3.54,5.64,6.05,1.33,2.52,2,5.3,2,8.33v1.51c0,.54-.02,1.13-.07,1.78h-26.11c.23,3.22,1.28,5.66,3.15,7.32,1.87,1.66,4.06,2.49,6.58,2.49,2.19,0,3.93-.46,5.21-1.37,1.28-.91,2.23-2.16,2.83-3.75h7.49c-.84,3.31-2.59,6.1-5.25,8.37s-6.07,3.39-10.22,3.39ZM114.08,378.51c-2.29,0-4.32.69-6.09,2.07-1.77,1.38-2.92,3.3-3.43,5.77h18.48c-.19-2.33-1.1-4.22-2.73-5.67-1.63-1.45-3.71-2.17-6.23-2.17Z"/>
    <path d="M136.9,407.63v-34.72h6.44l.63,5.18h.35c.93-1.68,2.38-3.1,4.34-4.27,1.96-1.17,4.22-1.75,6.79-1.75,4.25,0,7.44,1.28,9.59,3.85,2.15,2.57,3.22,6.35,3.22,11.34v20.37h-7.42v-19.46c0-2.89-.61-5.13-1.82-6.72-1.21-1.59-3.13-2.38-5.74-2.38s-4.7.86-6.41,2.59c-1.7,1.73-2.55,4.22-2.55,7.49v18.48h-7.42Z"/>
    <path d="M204.72,408.47c-4.11,0-7.59-1.05-10.46-3.15-2.87-2.1-5.06-5.05-6.58-8.86-1.52-3.8-2.27-8.22-2.27-13.26s.76-9.53,2.27-13.33c1.52-3.8,3.72-6.77,6.61-8.89,2.89-2.12,6.37-3.18,10.43-3.18,5.27,0,9.47,1.43,12.6,4.3,3.13,2.87,4.95,6.75,5.46,11.66h-8.19c-.42-2.57-1.46-4.7-3.11-6.41-1.66-1.7-3.93-2.55-6.83-2.55-3.69,0-6.56,1.63-8.61,4.9-2.05,3.27-3.08,7.77-3.08,13.51s1.03,10.16,3.08,13.4c2.05,3.24,4.92,4.87,8.61,4.87,2.99,0,5.27-.78,6.86-2.34,1.59-1.56,2.61-3.63,3.08-6.2h8.19c-.75,4.81-2.64,8.6-5.67,11.38-3.03,2.78-7.16,4.17-12.39,4.17Z"/>
    <path d="M243.36,408.47c-3.31,0-6.28-.75-8.89-2.24-2.61-1.49-4.67-3.6-6.16-6.33-1.49-2.73-2.24-5.94-2.24-9.62s.75-6.89,2.24-9.62c1.49-2.73,3.55-4.84,6.16-6.33,2.61-1.49,5.6-2.24,8.96-2.24s6.33.75,8.92,2.24c2.59,1.49,4.62,3.61,6.09,6.33,1.47,2.73,2.21,5.94,2.21,9.62s-.75,6.9-2.24,9.62c-1.49,2.73-3.53,4.84-6.12,6.33-2.59,1.49-5.56,2.24-8.92,2.24ZM243.36,401.4c1.77,0,3.41-.4,4.9-1.19,1.49-.79,2.69-2.02,3.6-3.67.91-1.66,1.36-3.75,1.36-6.27s-.45-4.67-1.36-6.3c-.91-1.63-2.1-2.85-3.57-3.64-1.47-.79-3.09-1.19-4.87-1.19s-3.41.4-4.9,1.19c-1.49.79-2.69,2.01-3.6,3.64-.91,1.63-1.37,3.73-1.37,6.3,0,3.83.97,6.64,2.91,8.44,1.94,1.8,4.23,2.69,6.9,2.69Z"/>
    <path d="M266.11,407.63v-34.72h6.16l.63,4.06h.35c.61-1.45,1.54-2.62,2.8-3.54,1.26-.91,2.75-1.36,4.48-1.36s3.15.42,4.41,1.26c1.26.84,2.19,2.05,2.8,3.64h.28c.61-1.4,1.56-2.57,2.87-3.5,1.31-.93,2.92-1.4,4.83-1.4,2.57,0,4.52.84,5.84,2.52,1.33,1.68,2,4.04,2,7.07v25.97h-7.14v-24.5c0-1.4-.29-2.51-.88-3.33-.58-.82-1.5-1.22-2.76-1.22s-2.3.49-3.12,1.47c-.82.98-1.23,2.36-1.23,4.13v23.45h-7.21v-24.5c0-1.4-.28-2.51-.84-3.33-.56-.82-1.47-1.22-2.73-1.22s-2.31.49-3.15,1.47c-.84.98-1.26,2.36-1.26,4.13v23.45h-7.14Z"/>
    <path d="M311.19,423.03v-50.12h6.44l.56,5.32h.42c.93-1.73,2.34-3.18,4.23-4.38,1.89-1.19,4.14-1.78,6.76-1.78s5.18.69,7.42,2.06c2.24,1.38,4.02,3.41,5.35,6.09,1.33,2.68,2,6.03,2,10.04s-.69,7.3-2.06,10.01c-1.38,2.71-3.23,4.75-5.57,6.12-2.33,1.38-4.95,2.06-7.84,2.06-2.57,0-4.71-.51-6.44-1.54-1.73-1.03-3.01-2.19-3.85-3.5v19.6h-7.42ZM327.64,401.4c2.61,0,4.79-.93,6.54-2.8,1.75-1.87,2.62-4.67,2.62-8.4s-.88-6.51-2.62-8.33c-1.75-1.82-3.93-2.73-6.54-2.73s-4.87.92-6.62,2.77-2.62,4.63-2.62,8.36.88,6.46,2.62,8.33c1.75,1.87,3.96,2.8,6.62,2.8Z"/>
    <path d="M366.14,408.47c-3.31,0-6.28-.75-8.89-2.24-2.61-1.49-4.67-3.6-6.16-6.33-1.49-2.73-2.24-5.94-2.24-9.62s.75-6.89,2.24-9.62c1.49-2.73,3.55-4.84,6.16-6.33,2.61-1.49,5.6-2.24,8.96-2.24s6.33.75,8.92,2.24c2.59,1.49,4.62,3.61,6.09,6.33,1.47,2.73,2.21,5.94,2.21,9.62s-.75,6.9-2.24,9.62c-1.49,2.73-3.54,4.84-6.12,6.33-2.59,1.49-5.56,2.24-8.92,2.24ZM366.14,401.4c1.77,0,3.41-.4,4.9-1.19,1.49-.79,2.69-2.02,3.6-3.67.91-1.66,1.37-3.75,1.37-6.27s-.46-4.67-1.37-6.3c-.91-1.63-2.1-2.85-3.57-3.64-1.47-.79-3.09-1.19-4.86-1.19s-3.41.4-4.9,1.19c-1.49.79-2.69,2.01-3.6,3.64-.91,1.63-1.36,3.73-1.36,6.3,0,3.83.97,6.64,2.9,8.44,1.94,1.8,4.23,2.69,6.9,2.69Z"/>
    <path d="M389.38,407.63v-34.72h6.44l.63,5.18h.35c.93-1.68,2.38-3.1,4.34-4.27,1.96-1.17,4.22-1.75,6.79-1.75,4.25,0,7.44,1.28,9.59,3.85,2.15,2.57,3.22,6.35,3.22,11.34v20.37h-7.42v-19.46c0-2.89-.61-5.13-1.82-6.72-1.21-1.59-3.13-2.38-5.74-2.38s-4.7.86-6.4,2.59c-1.7,1.73-2.56,4.22-2.56,7.49v18.48h-7.42Z"/>
    <path d="M444.11,408.47c-3.36,0-6.32-.76-8.89-2.27-2.57-1.52-4.57-3.63-6.02-6.33-1.45-2.71-2.17-5.86-2.17-9.45s.71-6.84,2.14-9.59c1.42-2.75,3.43-4.9,6.02-6.44s5.59-2.31,9-2.31,6.25.76,8.68,2.27c2.43,1.52,4.31,3.54,5.63,6.05,1.33,2.52,2,5.3,2,8.33v1.51c0,.54-.02,1.13-.07,1.78h-26.11c.23,3.22,1.28,5.66,3.15,7.32,1.87,1.66,4.06,2.49,6.58,2.49,2.19,0,3.93-.46,5.21-1.37,1.28-.91,2.23-2.16,2.83-3.75h7.49c-.84,3.31-2.59,6.1-5.25,8.37-2.66,2.26-6.07,3.39-10.22,3.39ZM444.11,378.51c-2.29,0-4.32.69-6.09,2.07-1.77,1.38-2.92,3.3-3.43,5.77h18.48c-.19-2.33-1.1-4.22-2.73-5.67-1.63-1.45-3.71-2.17-6.23-2.17Z"/>
    <path d="M466.93,407.63v-34.72h6.44l.63,5.18h.35c.93-1.68,2.38-3.1,4.34-4.27,1.96-1.17,4.22-1.75,6.79-1.75,4.25,0,7.44,1.28,9.59,3.85,2.15,2.57,3.22,6.35,3.22,11.34v20.37h-7.42v-19.46c0-2.89-.61-5.13-1.82-6.72-1.21-1.59-3.13-2.38-5.74-2.38s-4.7.86-6.4,2.59c-1.7,1.73-2.56,4.22-2.56,7.49v18.48h-7.42Z"/>
    <path d="M525.03,407.63c-3.41,0-6.11-.83-8.12-2.49-2.01-1.66-3.01-4.61-3.01-8.85v-17.08h-8.75v-6.3h5.18c2.38,0,3.78-1.17,4.2-3.5l1.05-5.6h5.74v9.1h13.72v6.3h-13.72v16.94c0,1.82.41,3.09,1.23,3.82.82.72,2.23,1.08,4.23,1.08h8.12v6.58h-9.87Z"/>
    <path d="M183.41,477.63v-49h7.84l10.15,22.12,10.15-22.12h7.84v49h-7.07v-34.86l-7.98,17.5h-5.88l-7.98-17.43v34.79h-7.07Z"/>
    <path d="M242,478.47c-3.31,0-6.28-.75-8.89-2.24-2.61-1.49-4.67-3.6-6.16-6.33-1.49-2.73-2.24-5.94-2.24-9.62s.75-6.89,2.24-9.62c1.49-2.73,3.55-4.84,6.16-6.33,2.61-1.49,5.6-2.24,8.96-2.24s6.34.75,8.93,2.24c2.59,1.49,4.62,3.61,6.09,6.33,1.47,2.73,2.21,5.94,2.21,9.62s-.75,6.9-2.24,9.62c-1.49,2.73-3.54,4.84-6.12,6.33-2.59,1.49-5.57,2.24-8.93,2.24ZM242,471.4c1.77,0,3.41-.4,4.9-1.19,1.49-.79,2.7-2.02,3.61-3.67.91-1.66,1.36-3.75,1.36-6.27s-.46-4.67-1.36-6.3c-.91-1.63-2.1-2.85-3.57-3.64-1.47-.79-3.09-1.19-4.87-1.19s-3.41.4-4.9,1.19c-1.49.79-2.7,2.01-3.61,3.64-.91,1.63-1.36,3.73-1.36,6.3,0,3.83.97,6.64,2.9,8.44,1.94,1.8,4.24,2.69,6.9,2.69Z"/>
    <path d="M278.89,478.47c-2.89,0-5.48-.69-7.77-2.06-2.29-1.38-4.1-3.42-5.42-6.12-1.33-2.71-2-6.04-2-10.01s.68-7.3,2.03-10.01c1.35-2.71,3.19-4.75,5.5-6.12,2.31-1.38,4.89-2.06,7.73-2.06,2.66,0,4.85.5,6.58,1.5,1.73,1,3.01,2.27,3.85,3.81v-20.16h7.42v50.4h-6.37l-.63-5.11h-.42c-.93,1.82-2.25,3.27-3.96,4.34-1.7,1.07-3.89,1.61-6.54,1.61ZM280.43,471.4c2.66,0,4.86-.93,6.61-2.8,1.75-1.87,2.62-4.64,2.62-8.33s-.88-6.52-2.62-8.36-3.96-2.77-6.61-2.77-4.87.93-6.62,2.8c-1.75,1.87-2.62,4.67-2.62,8.4s.88,6.45,2.62,8.29c1.75,1.84,3.96,2.76,6.62,2.76Z"/>
    <path d="M319.98,478.47c-3.36,0-6.32-.76-8.89-2.27-2.57-1.52-4.57-3.63-6.02-6.33-1.45-2.71-2.17-5.86-2.17-9.45s.71-6.84,2.13-9.59c1.42-2.75,3.43-4.9,6.02-6.44,2.59-1.54,5.59-2.31,8.99-2.31s6.25.76,8.68,2.27c2.43,1.52,4.3,3.54,5.63,6.05,1.33,2.52,2,5.3,2,8.33v1.51c0,.54-.02,1.13-.07,1.78h-26.11c.23,3.22,1.28,5.66,3.15,7.32,1.87,1.66,4.06,2.49,6.58,2.49,2.19,0,3.93-.46,5.22-1.37,1.28-.91,2.23-2.16,2.83-3.75h7.49c-.84,3.31-2.59,6.1-5.25,8.37-2.66,2.26-6.07,3.39-10.22,3.39ZM319.98,448.51c-2.29,0-4.32.69-6.09,2.07-1.77,1.38-2.92,3.3-3.43,5.77h18.48c-.19-2.33-1.1-4.22-2.73-5.67-1.63-1.45-3.71-2.17-6.23-2.17Z"/>
    <path d="M339.72,477.63v-6.44h11.62v-35.21c0-1.54-.75-2.31-2.24-2.31h-8.4v-6.44h9.73c2.71,0,4.77.71,6.2,2.14,1.42,1.42,2.13,3.49,2.13,6.19v35.63h11.69v6.44h-30.73Z"/>
  </g>
</svg>