<?xml version="1.0" encoding="UTF-8"?>
<svg id="Layer_1" data-name="Layer 1" xmlns="http://www.w3.org/2000/svg" xmlns:xlink="http://www.w3.org/1999/xlink" viewBox="0 0 500 523.74">
  <defs>
    <style>
      .cls-1, .cls-2, .cls-3 {
        stroke: #221f20;
        stroke-miterlimit: 10;
      }

      .cls-1, .cls-3 {
        fill: none;
        stroke-width: 5.5px;
      }

      .cls-2 {
        fill: #221f20;
      }

      .cls-4 {
        fill: url(#linear-gradient-7);
      }

      .cls-5 {
        fill: url(#linear-gradient-5);
      }

      .cls-6 {
        fill: url(#linear-gradient-6);
      }

      .cls-7 {
        fill: url(#linear-gradient-3);
      }

      .cls-8 {
        fill: url(#linear-gradient);
      }

      .cls-9 {
        fill: #fff;
      }

      .cls-10 {
        fill: #5279a3;
      }

      .cls-11 {
        fill: url(#linear-gradient-4);
      }

      .cls-11, .cls-12 {
        opacity: .27;
      }

      .cls-11, .cls-12, .cls-13, .cls-14 {
        isolation: isolate;
      }

      .cls-12 {
        fill: url(#linear-gradient-2);
      }

      .cls-13 {
        fill: url(#linear-gradient-8);
      }

      .cls-13, .cls-14 {
        opacity: .42;
      }

      .cls-14 {
        fill: url(#linear-gradient-9);
      }

      .cls-15 {
        fill: url(#linear-gradient-10);
      }

      .cls-3 {
        stroke-linecap: round;
      }
    </style>
    <linearGradient id="linear-gradient" x1="-5311.2" y1="-7235.01" x2="-5134.54" y2="-7411.67" gradientTransform="translate(5417.06 -7094.07) scale(1 -1)" gradientUnits="userSpaceOnUse">
      <stop offset="0" stop-color="#53b7f9"/>
      <stop offset=".14" stop-color="#50b2f8"/>
      <stop offset=".31" stop-color="#49a3f5"/>
      <stop offset=".49" stop-color="#3e8bf2"/>
      <stop offset=".49" stop-color="#3e8bf2"/>
      <stop offset=".6" stop-color="#3a82f0"/>
      <stop offset=".76" stop-color="#326cec"/>
      <stop offset=".96" stop-color="#2348e5"/>
      <stop offset=".99" stop-color="#2142e4"/>
    </linearGradient>
    <linearGradient id="linear-gradient-2" x1="2349.77" y1="-8472.33" x2="2317.53" y2="-8528.18" gradientTransform="translate(1788.07 -7722.28) rotate(28.8) scale(1.01 -.9)" gradientUnits="userSpaceOnUse">
      <stop offset="0" stop-color="#fff" stop-opacity="0"/>
      <stop offset=".12" stop-color="#c8d4e1" stop-opacity=".32"/>
      <stop offset=".25" stop-color="#95adc6" stop-opacity=".61"/>
      <stop offset=".37" stop-color="#7090b3" stop-opacity=".82"/>
      <stop offset=".46" stop-color="#5a7fa7" stop-opacity=".95"/>
      <stop offset=".52" stop-color="#5279a3"/>
    </linearGradient>
    <linearGradient id="linear-gradient-3" x1="-6708.42" y1="-7235.01" x2="-6531.76" y2="-7411.67" gradientTransform="translate(-6314.28 -7094.07) rotate(-180)" xlink:href="#linear-gradient"/>
    <linearGradient id="linear-gradient-4" x1="1140.26" y1="-9215.45" x2="1108.02" y2="-9271.3" gradientTransform="translate(-2685.29 -7722.28) rotate(151.2) scale(1.01 .9)" xlink:href="#linear-gradient-2"/>
    <linearGradient id="linear-gradient-5" x1="3901.15" y1="-5509.76" x2="3910.6" y2="-5515.22" gradientTransform="translate(5762.51 -3621.24) rotate(90) scale(1 -1)" gradientUnits="userSpaceOnUse">
      <stop offset="0" stop-color="#fff" stop-opacity="0"/>
      <stop offset=".08" stop-color="#e5ebf1" stop-opacity=".12"/>
      <stop offset=".29" stop-color="#a6bacf" stop-opacity=".41"/>
      <stop offset=".47" stop-color="#7896b7" stop-opacity=".62"/>
      <stop offset=".63" stop-color="#5c80a8" stop-opacity=".75"/>
      <stop offset=".73" stop-color="#5279a3" stop-opacity=".8"/>
    </linearGradient>
    <linearGradient id="linear-gradient-6" x1="3921.95" y1="-5509.76" x2="3931.4" y2="-5515.22" xlink:href="#linear-gradient-5"/>
    <linearGradient id="linear-gradient-7" x1="3943.49" y1="-5509.77" x2="3952.94" y2="-5515.22" xlink:href="#linear-gradient-5"/>
    <linearGradient id="linear-gradient-8" x1="228.52" y1="-7298.01" x2="211.3" y2="-7327.83" gradientTransform="translate(0 -7094.07) scale(1 -1)" gradientUnits="userSpaceOnUse">
      <stop offset="0" stop-color="#fff" stop-opacity="0"/>
      <stop offset="0" stop-color="#fbfcfd" stop-opacity=".02"/>
      <stop offset=".08" stop-color="#ced9e5" stop-opacity=".28"/>
      <stop offset=".17" stop-color="#a8bbd0" stop-opacity=".5"/>
      <stop offset=".25" stop-color="#88a3c0" stop-opacity=".68"/>
      <stop offset=".35" stop-color="#7090b3" stop-opacity=".82"/>
      <stop offset=".44" stop-color="#5f83aa" stop-opacity=".92"/>
      <stop offset=".55" stop-color="#557ba4" stop-opacity=".98"/>
      <stop offset=".7" stop-color="#5279a3"/>
    </linearGradient>
    <linearGradient id="linear-gradient-9" x1="2511.55" y1="-7287.18" x2="2529.62" y2="-7318.47" gradientTransform="translate(2802.13 -7094.07) rotate(-180)" gradientUnits="userSpaceOnUse">
      <stop offset="0" stop-color="#fff" stop-opacity="0"/>
      <stop offset=".02" stop-color="#f5f7fa" stop-opacity=".05"/>
      <stop offset=".16" stop-color="#c4d1df" stop-opacity=".34"/>
      <stop offset=".29" stop-color="#9bb1c9" stop-opacity=".58"/>
      <stop offset=".42" stop-color="#7b98b8" stop-opacity=".76"/>
      <stop offset=".55" stop-color="#6487ac" stop-opacity=".89"/>
      <stop offset=".67" stop-color="#567ca5" stop-opacity=".97"/>
      <stop offset=".79" stop-color="#5279a3"/>
    </linearGradient>
    <linearGradient id="linear-gradient-10" x1="3831.73" y1="-5509.67" x2="3841.49" y2="-5515.31" xlink:href="#linear-gradient-5"/>
  </defs>
  <g id="Layer_5" data-name="Layer 5">
    <path class="cls-1" d="M180.92,105.03l-21.69-15.17c4.95-7.08,13.06-11.3,21.69-11.3,14.52,0,26.47,11.95,26.47,26.47,0,5.25-1.56,10.38-4.49,14.74l-21.98-14.74h0Z"/>
    <polygon class="cls-9" points="239.79 211.4 248.96 262.17 264.83 209.99 239.79 211.4"/>
    <path class="cls-8" d="M250.39,256.94l-9.38-43.08c-.54-2.47-2.67-4.27-5.19-4.39-6.29-.29-17.4-1-21.84-2.08-1-.24-1.88-.84-2.47-1.68l-31.2-44.71c-1.2-1.26-1.32-3.2-.29-4.6l23.77-35.26c1.14-1.54.72-3.74-.91-4.75l-40.53-27.61c-1.21-.75-2.67-.77-3.87-.19-.82.4-1.44,1.12-1.81,1.95l-34.26,82.53c-.62,1.36-.47,2.95.39,4.17l67.66,85.56c1.26,1.7,1.94,3.76,1.94,5.87l.3,80.25c0,.76.62,1.37,1.38,1.37l55.39-.21c.76,0,1.38-.63,1.37-1.39l-.42-91.46c0-.09-.01-.19-.03-.28h0Z"/>
    <path class="cls-9" d="M204.08,126.97l-56.11-37.31c-.65-.43-1.5-.32-1.9.25l-19.12,37.77c-.3.44.03,1.05.6,1.19l67.11,13.07c.38.09.76-.05.95-.34l8.75-13.56c.22-.34.09-.82-.29-1.07h0Z"/>
    <path class="cls-3" d="M241.64,204.47s-27.43-8.06-27.59-26.55c-.03-3.57-10.68-5.79-10.68-5.79,0,0,.58-20.74,2.11-26.72,2.77-10.81,11.79-28.91,37.48-28.91,23.81,0,31.74,16.83,33.3,26.81,2.1,13.4,2.61,35.64-5.24,54.01"/>
    <path class="cls-12" d="M204.06,126.94l-56.56-37.62c-.4-.27-.92-.19-1.16.16l-19.38,38.16c-.31.45,0,1.1.6,1.23l67.17,13.06c.34.08.68-.04.85-.31l8.78-13.6c.22-.35.09-.83-.29-1.08h0Z"/>
    <path class="cls-1" d="M319.09,105.03l21.69-15.17c-4.95-7.08-13.06-11.3-21.69-11.3-14.52,0-26.47,11.95-26.47,26.47,0,5.25,1.56,10.38,4.49,14.74l21.98-14.74Z"/>
    <path class="cls-7" d="M249.61,256.94l9.38-43.08c.54-2.47,2.67-4.27,5.19-4.39,6.29-.29,17.4-1,21.84-2.08,1-.24,1.88-.84,2.47-1.68l31.2-44.71c1.2-1.26,1.32-3.2.29-4.6l-23.77-35.26c-1.14-1.54-.72-3.74.91-4.75l40.53-27.61c1.21-.75,2.67-.77,3.87-.19.82.4,1.44,1.12,1.81,1.95l34.26,82.53c.62,1.36.47,2.95-.39,4.17l-67.66,85.56c-1.26,1.7-1.94,3.76-1.94,5.87l-.3,80.25c0,.76-.62,1.37-1.38,1.37l-55.39-.21c-.76,0-1.38-.63-1.37-1.39l.42-91.46c0-.09.01-.19.03-.28h0Z"/>
    <path class="cls-9" d="M295.92,126.97l56.11-37.31c.65-.43,1.5-.32,1.9.25l19.12,37.77c.3.44-.03,1.05-.6,1.19l-67.11,13.07c-.38.09-.76-.05-.95-.34l-8.75-13.56c-.22-.34-.09-.82.29-1.07h0Z"/>
    <path class="cls-11" d="M295.94,126.94l56.56-37.62c.4-.27.92-.19,1.16.16l19.38,38.16c.31.45,0,1.1-.6,1.23l-67.17,13.06c-.34.08-.68-.04-.85-.31l-8.78-13.6c-.22-.35-.09-.83.29-1.08h0Z"/>
    <path class="cls-2" d="M267.08,46.07c7.48-2.98,12.56-5,12.56-5,0,0-60.15,34.41-67.73,38.74-.86.41-1.69.82-1.69.82-4.14,2-8.56,1.39-9.88-1.35-1.32-2.74.96-6.58,5.1-8.58,0,0,.42-.2.97-.47,2.05-.82,40.3-16.05,60.69-24.17h0Z"/>
  </g>
  <g id="Layer_7" data-name="Layer 7">
    <circle class="cls-10" cx="138.54" cy="122.82" r="3.55"/>
    <circle class="cls-10" cx="360.18" cy="122.82" r="3.55"/>
    <circle class="cls-9" cx="250.02" cy="284.63" r="5.45"/>
    <circle class="cls-5" cx="250.02" cy="284.63" r="5.45"/>
    <circle class="cls-9" cx="250.02" cy="305.43" r="5.45"/>
    <circle class="cls-6" cx="250.02" cy="305.43" r="5.45"/>
    <path class="cls-9" d="M244.57,326.97c0-3.01,2.44-5.45,5.45-5.45s5.45,2.44,5.45,5.45-2.44,5.45-5.45,5.45-5.45-2.44-5.45-5.45Z"/>
    <path class="cls-4" d="M244.57,326.97c0-3.01,2.44-5.45,5.45-5.45s5.45,2.44,5.45,5.45-2.44,5.45-5.45,5.45-5.45-2.44-5.45-5.45Z"/>
    <path class="cls-9" d="M250.16,216.11l-44.16,18.87c-.36.16-.77-.11-.77-.51v-40.06c0-.41.43-.68.8-.5l44.16,21.19c.42.21.41.82-.02,1.01h0Z"/>
    <path class="cls-13" d="M250.29,216.03l-44.29,18.95c-.36.16-.77-.11-.77-.51v-40.06c0-.35.48-.65.8-.5l44.28,21.25c.37.17.36.7-.01.86h0Z"/>
    <path class="cls-9" d="M249.89,216.11l44.16,18.87c.36.16.77-.11.77-.51v-40.06c0-.41-.43-.68-.8-.5l-44.16,21.19c-.42.21-.41.82.02,1.01h0Z"/>
    <path class="cls-14" d="M249.76,216.02l44.29,18.95c.36.16.77-.11.77-.51v-40.06c0-.35-.48-.65-.8-.5l-44.28,21.25c-.37.17-.36.7.01.86h0Z"/>
    <circle class="cls-9" cx="250.02" cy="215.4" r="5.6"/>
    <circle class="cls-15" cx="250.02" cy="215.37" r="5.64"/>
  </g>
  <g>
    <path d="M37.23,416.34c-3.97,0-7.4-1.03-10.29-3.08-2.89-2.05-5.11-4.97-6.65-8.75-1.54-3.78-2.31-8.28-2.31-13.51s.77-9.73,2.31-13.51c1.54-3.78,3.76-6.7,6.65-8.75,2.89-2.05,6.32-3.08,10.29-3.08s7.45,1.03,10.32,3.08c2.87,2.05,5.08,4.97,6.61,8.75,1.54,3.78,2.31,8.28,2.31,13.51s-.77,9.73-2.31,13.51c-1.54,3.78-3.74,6.7-6.61,8.75-2.87,2.05-6.31,3.08-10.32,3.08ZM37.23,409.34c3.5,0,6.32-1.58,8.47-4.72,2.15-3.15,3.22-7.69,3.22-13.62s-1.07-10.46-3.22-13.62c-2.15-3.15-4.97-4.72-8.47-4.72s-6.38,1.58-8.51,4.72c-2.12,3.15-3.19,7.69-3.19,13.62s1.06,10.46,3.19,13.62c2.12,3.15,4.96,4.72,8.51,4.72Z"/>
    <path d="M59.84,430.9v-50.12h6.44l.56,5.32h.42c.93-1.73,2.34-3.18,4.23-4.38,1.89-1.19,4.14-1.78,6.75-1.78s5.18.69,7.42,2.06c2.24,1.38,4.02,3.41,5.35,6.09,1.33,2.68,2,6.03,2,10.04s-.69,7.3-2.06,10.01c-1.38,2.71-3.23,4.75-5.56,6.12-2.33,1.38-4.95,2.06-7.84,2.06-2.57,0-4.71-.51-6.44-1.54-1.73-1.03-3.01-2.19-3.85-3.5v19.6h-7.42ZM76.29,409.27c2.61,0,4.79-.93,6.54-2.8,1.75-1.87,2.62-4.67,2.62-8.4s-.88-6.51-2.62-8.33c-1.75-1.82-3.93-2.73-6.54-2.73s-4.86.92-6.61,2.77-2.62,4.63-2.62,8.36.88,6.46,2.62,8.33c1.75,1.87,3.96,2.8,6.61,2.8Z"/>
    <path d="M115.21,416.34c-3.36,0-6.32-.76-8.89-2.27-2.57-1.52-4.57-3.63-6.02-6.33-1.45-2.71-2.17-5.86-2.17-9.45s.71-6.84,2.14-9.59c1.42-2.75,3.43-4.9,6.02-6.44s5.59-2.31,9-2.31,6.25.76,8.68,2.27c2.43,1.52,4.31,3.54,5.64,6.05,1.33,2.52,1.99,5.3,1.99,8.33v1.51c0,.54-.02,1.13-.07,1.78h-26.11c.23,3.22,1.28,5.66,3.15,7.32,1.87,1.66,4.06,2.49,6.58,2.49,2.19,0,3.93-.46,5.21-1.37,1.28-.91,2.23-2.16,2.83-3.75h7.49c-.84,3.31-2.59,6.1-5.25,8.37-2.66,2.26-6.07,3.39-10.22,3.39ZM115.21,386.38c-2.29,0-4.32.69-6.09,2.07-1.77,1.38-2.92,3.3-3.43,5.77h18.48c-.19-2.33-1.1-4.22-2.73-5.67-1.63-1.45-3.71-2.17-6.23-2.17Z"/>
    <path d="M138.03,415.5v-34.72h6.44l.63,5.18h.35c.93-1.68,2.38-3.1,4.34-4.27,1.96-1.17,4.22-1.75,6.79-1.75,4.25,0,7.44,1.28,9.59,3.85,2.15,2.57,3.22,6.35,3.22,11.34v20.37h-7.42v-19.46c0-2.89-.61-5.13-1.82-6.72-1.21-1.59-3.13-2.38-5.74-2.38s-4.7.86-6.4,2.59c-1.7,1.73-2.56,4.22-2.56,7.49v18.48h-7.42Z"/>
    <path d="M187.71,415.5v-49h7.84l10.15,22.12,10.15-22.12h7.84v49h-7.07v-34.86l-7.98,17.5h-5.88l-7.98-17.43v34.79h-7.07Z"/>
    <path d="M241.33,416.34c-2.75,0-5.06-.48-6.93-1.43-1.87-.96-3.27-2.24-4.2-3.85-.93-1.61-1.4-3.37-1.4-5.29,0-3.41,1.25-6.07,3.74-7.98,2.5-1.91,6.03-2.87,10.61-2.87h8.96v-.77c0-5.23-2.43-7.84-7.28-7.84-2.01,0-3.7.43-5.07,1.3-1.38.86-2.3,2.25-2.77,4.16h-7.42c.37-3.64,1.95-6.52,4.72-8.64,2.78-2.12,6.29-3.18,10.54-3.18,5.13,0,8.87,1.26,11.2,3.78,2.33,2.52,3.5,6,3.5,10.43v21.35h-6.3l-.63-5.11h-.49c-1.03,1.63-2.31,3.03-3.85,4.2s-3.85,1.75-6.93,1.75ZM242.73,410.11c3.03,0,5.31-.92,6.82-2.77,1.52-1.84,2.35-4.19,2.48-7.04h-8.12c-2.66,0-4.54.43-5.63,1.3-1.1.86-1.65,2.06-1.65,3.6s.55,2.74,1.65,3.61c1.1.86,2.58,1.29,4.45,1.29Z"/>
    <path d="M267.72,415.5v-34.72h6.44l.63,5.18h.35c.93-1.68,2.38-3.1,4.34-4.27,1.96-1.17,4.22-1.75,6.79-1.75,4.25,0,7.44,1.28,9.59,3.85,2.15,2.57,3.22,6.35,3.22,11.34v20.37h-7.42v-19.46c0-2.89-.61-5.13-1.82-6.72-1.21-1.59-3.13-2.38-5.74-2.38s-4.7.86-6.41,2.59c-1.7,1.73-2.55,4.22-2.55,7.49v18.48h-7.42Z"/>
    <path d="M318.89,416.34c-2.75,0-5.06-.48-6.93-1.43-1.87-.96-3.27-2.24-4.2-3.85-.93-1.61-1.4-3.37-1.4-5.29,0-3.41,1.25-6.07,3.74-7.98,2.5-1.91,6.03-2.87,10.61-2.87h8.96v-.77c0-5.23-2.43-7.84-7.28-7.84-2.01,0-3.7.43-5.08,1.3-1.38.86-2.3,2.25-2.76,4.16h-7.42c.37-3.64,1.95-6.52,4.72-8.64,2.78-2.12,6.29-3.18,10.54-3.18,5.13,0,8.87,1.26,11.2,3.78,2.33,2.52,3.5,6,3.5,10.43v21.35h-6.3l-.63-5.11h-.49c-1.03,1.63-2.31,3.03-3.85,4.2s-3.85,1.75-6.93,1.75ZM320.29,410.11c3.03,0,5.31-.92,6.82-2.77,1.52-1.84,2.35-4.19,2.48-7.04h-8.12c-2.66,0-4.54.43-5.63,1.3-1.1.86-1.65,2.06-1.65,3.6s.55,2.74,1.65,3.61c1.1.86,2.58,1.29,4.45,1.29Z"/>
    <path d="M360.05,405.49c-2.15,0-4.13-.35-5.95-1.05l-1.75,2.1c-.56.7-.71,1.37-.46,2,.26.63.88.95,1.85.95h9.17c4.06,0,7.34.85,9.83,2.55,2.5,1.7,3.75,4.3,3.75,7.8,0,2.19-.55,4.19-1.65,5.99-1.1,1.8-2.85,3.23-5.25,4.3-2.4,1.07-5.56,1.61-9.48,1.61-4.95,0-8.92-.92-11.94-2.77s-4.52-4.61-4.52-8.29c0-1.31.32-2.51.95-3.6.63-1.1,1.46-2.09,2.48-2.98-1.26-.93-2.02-2.25-2.27-3.96-.26-1.7.25-3.35,1.5-4.93l3.08-3.92c-2.19-2.33-3.29-5.2-3.29-8.61,0-2.29.55-4.4,1.65-6.33,1.1-1.94,2.68-3.49,4.76-4.65,2.08-1.17,4.58-1.75,7.52-1.75,1.91,0,3.69.28,5.32.84h13.09v4.9l-6.09.35v.63c.98,1.82,1.47,3.83,1.47,6.02s-.55,4.41-1.64,6.37c-1.1,1.96-2.67,3.52-4.73,4.69-2.05,1.17-4.53,1.75-7.42,1.75ZM350.67,420.12c0,1.87.9,3.24,2.7,4.13,1.8.89,4.05,1.33,6.75,1.33,2.89,0,5.18-.49,6.86-1.47,1.68-.98,2.52-2.36,2.52-4.13,0-1.49-.61-2.67-1.82-3.54-1.21-.86-3.27-1.29-6.16-1.29h-8.19c-1.77,1.4-2.66,3.06-2.66,4.97ZM360.05,399.54c2.05,0,3.75-.61,5.08-1.82,1.33-1.21,2-2.89,2-5.04s-.67-3.69-2-4.9c-1.33-1.21-3.02-1.82-5.08-1.82s-3.81.61-5.14,1.82c-1.33,1.21-2,2.85-2,4.9s.67,3.83,2,5.04c1.33,1.21,3.04,1.82,5.14,1.82Z"/>
    <path d="M400.02,416.34c-3.36,0-6.32-.76-8.89-2.27-2.57-1.52-4.57-3.63-6.02-6.33-1.45-2.71-2.17-5.86-2.17-9.45s.71-6.84,2.13-9.59c1.42-2.75,3.43-4.9,6.02-6.44,2.59-1.54,5.59-2.31,8.99-2.31s6.25.76,8.68,2.27c2.43,1.52,4.3,3.54,5.63,6.05,1.33,2.52,2,5.3,2,8.33v1.51c0,.54-.02,1.13-.07,1.78h-26.11c.23,3.22,1.28,5.66,3.15,7.32,1.87,1.66,4.06,2.49,6.58,2.49,2.19,0,3.93-.46,5.21-1.37,1.28-.91,2.23-2.16,2.83-3.75h7.49c-.84,3.31-2.59,6.1-5.25,8.37s-6.07,3.39-10.22,3.39ZM400.02,386.38c-2.29,0-4.32.69-6.09,2.07-1.77,1.38-2.92,3.3-3.43,5.77h18.48c-.19-2.33-1.1-4.22-2.73-5.67-1.63-1.45-3.71-2.17-6.23-2.17Z"/>
    <path d="M436.49,416.34c-2.89,0-5.48-.69-7.77-2.06-2.29-1.38-4.1-3.42-5.43-6.12-1.33-2.71-2-6.04-2-10.01s.68-7.3,2.03-10.01c1.35-2.71,3.19-4.75,5.5-6.12,2.31-1.38,4.89-2.06,7.74-2.06,2.66,0,4.85.5,6.58,1.5,1.73,1,3.01,2.27,3.85,3.81v-20.16h7.42v50.4h-6.37l-.63-5.11h-.42c-.93,1.82-2.25,3.27-3.96,4.34-1.7,1.07-3.88,1.61-6.54,1.61ZM438.03,409.27c2.66,0,4.87-.93,6.62-2.8,1.75-1.87,2.62-4.64,2.62-8.33s-.88-6.52-2.62-8.36-3.96-2.77-6.62-2.77-4.87.93-6.62,2.8c-1.75,1.87-2.62,4.67-2.62,8.4s.88,6.45,2.62,8.29c1.75,1.84,3.96,2.76,6.62,2.76Z"/>
    <path d="M32.36,486.34c-4.11,0-7.59-1.05-10.46-3.15-2.87-2.1-5.06-5.05-6.58-8.86-1.52-3.8-2.28-8.22-2.28-13.26s.76-9.53,2.28-13.33c1.52-3.8,3.72-6.77,6.61-8.89,2.89-2.12,6.37-3.18,10.43-3.18,5.27,0,9.47,1.43,12.6,4.3,3.13,2.87,4.95,6.75,5.46,11.66h-8.19c-.42-2.57-1.46-4.7-3.12-6.41-1.66-1.7-3.93-2.55-6.83-2.55-3.69,0-6.56,1.63-8.61,4.9-2.05,3.27-3.08,7.77-3.08,13.51s1.03,10.16,3.08,13.4c2.05,3.24,4.92,4.87,8.61,4.87,2.99,0,5.27-.78,6.86-2.34,1.59-1.56,2.61-3.63,3.08-6.2h8.19c-.75,4.81-2.64,8.6-5.67,11.38-3.03,2.78-7.16,4.17-12.39,4.17Z"/>
    <path d="M68.96,486.34c-3.31,0-6.28-.75-8.89-2.24-2.61-1.49-4.67-3.6-6.16-6.33-1.49-2.73-2.24-5.94-2.24-9.62s.75-6.89,2.24-9.62c1.49-2.73,3.55-4.84,6.16-6.33,2.61-1.49,5.6-2.24,8.96-2.24s6.34.75,8.93,2.24c2.59,1.49,4.62,3.61,6.09,6.33,1.47,2.73,2.21,5.94,2.21,9.62s-.75,6.9-2.24,9.62c-1.49,2.73-3.53,4.84-6.12,6.33-2.59,1.49-5.56,2.24-8.92,2.24ZM68.96,479.27c1.77,0,3.41-.4,4.9-1.19,1.49-.79,2.69-2.02,3.6-3.67.91-1.66,1.37-3.75,1.37-6.27s-.46-4.67-1.37-6.3c-.91-1.63-2.1-2.85-3.57-3.64-1.47-.79-3.09-1.19-4.87-1.19s-3.41.4-4.9,1.19c-1.49.79-2.69,2.01-3.6,3.64-.91,1.63-1.36,3.73-1.36,6.3,0,3.83.97,6.64,2.9,8.44,1.94,1.8,4.23,2.69,6.9,2.69Z"/>
    <path d="M90.17,485.5v-34.72h6.44l.63,5.18h.35c.93-1.68,2.38-3.1,4.34-4.27,1.96-1.17,4.22-1.75,6.79-1.75,4.25,0,7.44,1.28,9.59,3.85,2.15,2.57,3.22,6.35,3.22,11.34v20.37h-7.42v-19.46c0-2.89-.61-5.13-1.82-6.72-1.21-1.59-3.13-2.38-5.74-2.38s-4.7.86-6.4,2.59c-1.7,1.73-2.56,4.22-2.56,7.49v18.48h-7.42Z"/>
    <path d="M145.89,485.5c-3.41,0-6.11-.83-8.12-2.49-2.01-1.66-3.01-4.61-3.01-8.85v-17.08h-8.75v-6.3h5.18c2.38,0,3.78-1.17,4.2-3.5l1.05-5.6h5.74v9.1h13.72v6.3h-13.72v16.94c0,1.82.41,3.09,1.23,3.82.82.72,2.23,1.08,4.23,1.08h8.12v6.58h-9.87Z"/>
    <path d="M162.2,485.5v-6.44h8.47v-19.53c0-1.54-.75-2.31-2.24-2.31h-5.53v-6.44h8.33c1.91,0,3.48.55,4.69,1.64,1.21,1.1,1.82,2.62,1.82,4.58v.84h.35c.51-2.61,1.62-4.58,3.33-5.92,1.7-1.33,4.19-1.99,7.46-1.99h5.39v7.84h-7.56c-2.75,0-4.88.96-6.37,2.87-1.49,1.91-2.24,4.2-2.24,6.86v11.55h10.78v6.44h-26.67Z"/>
    <path d="M214.21,486.34c-3.31,0-6.28-.75-8.89-2.24-2.61-1.49-4.67-3.6-6.16-6.33-1.49-2.73-2.24-5.94-2.24-9.62s.75-6.89,2.24-9.62c1.49-2.73,3.55-4.84,6.16-6.33,2.61-1.49,5.6-2.24,8.96-2.24s6.33.75,8.93,2.24c2.59,1.49,4.62,3.61,6.09,6.33,1.47,2.73,2.21,5.94,2.21,9.62s-.75,6.9-2.24,9.62c-1.49,2.73-3.54,4.84-6.12,6.33-2.59,1.49-5.57,2.24-8.93,2.24ZM214.21,479.27c1.77,0,3.41-.4,4.9-1.19,1.49-.79,2.7-2.02,3.6-3.67.91-1.66,1.37-3.75,1.37-6.27s-.46-4.67-1.37-6.3c-.91-1.63-2.1-2.85-3.57-3.64-1.47-.79-3.09-1.19-4.87-1.19s-3.41.4-4.9,1.19c-1.49.79-2.69,2.01-3.6,3.64-.91,1.63-1.37,3.73-1.37,6.3,0,3.83.97,6.64,2.91,8.44,1.94,1.8,4.23,2.69,6.9,2.69Z"/>
    <path d="M233.67,485.5v-6.44h11.62v-35.21c0-1.54-.75-2.31-2.24-2.31h-8.4v-6.44h9.73c2.71,0,4.77.71,6.19,2.14,1.42,1.42,2.14,3.49,2.14,6.19v35.63h11.69v6.44h-30.73Z"/>
    <path d="M283.16,485.5v-49h16.59c3.73,0,6.81.64,9.24,1.92,2.43,1.28,4.22,3.04,5.39,5.29,1.17,2.24,1.75,4.81,1.75,7.7s-.58,5.46-1.75,7.7c-1.17,2.24-2.96,4-5.39,5.28-2.43,1.28-5.51,1.93-9.24,1.93h-9.17v19.18h-7.42ZM290.58,459.67h8.82c3.17,0,5.49-.75,6.96-2.24,1.47-1.49,2.21-3.5,2.21-6.02s-.74-4.47-2.21-5.99c-1.47-1.52-3.79-2.27-6.96-2.27h-8.82v16.52Z"/>
    <path d="M318.65,485.5v-6.44h11.62v-35.21c0-1.54-.75-2.31-2.24-2.31h-8.4v-6.44h9.73c2.71,0,4.77.71,6.2,2.14,1.42,1.42,2.13,3.49,2.13,6.19v35.63h11.69v6.44h-30.73Z"/>
    <path d="M367.44,486.34c-2.75,0-5.06-.48-6.93-1.43-1.87-.96-3.27-2.24-4.2-3.85-.93-1.61-1.4-3.37-1.4-5.29,0-3.41,1.25-6.07,3.74-7.98,2.5-1.91,6.03-2.87,10.6-2.87h8.96v-.77c0-5.23-2.43-7.84-7.28-7.84-2.01,0-3.7.43-5.08,1.3-1.38.86-2.3,2.25-2.77,4.16h-7.42c.37-3.64,1.95-6.52,4.73-8.64,2.78-2.12,6.29-3.18,10.54-3.18,5.13,0,8.87,1.26,11.2,3.78,2.33,2.52,3.5,6,3.5,10.43v21.35h-6.3l-.63-5.11h-.49c-1.03,1.63-2.31,3.03-3.85,4.2s-3.85,1.75-6.93,1.75ZM368.84,480.11c3.03,0,5.31-.92,6.83-2.77,1.52-1.84,2.34-4.19,2.48-7.04h-8.12c-2.66,0-4.54.43-5.64,1.3-1.1.86-1.64,2.06-1.64,3.6s.55,2.74,1.64,3.61c1.1.86,2.58,1.29,4.45,1.29Z"/>
    <path d="M391.45,485.5v-34.72h6.44l.63,5.18h.35c.93-1.68,2.38-3.1,4.34-4.27,1.96-1.17,4.22-1.75,6.79-1.75,4.25,0,7.44,1.28,9.59,3.85,2.15,2.57,3.22,6.35,3.22,11.34v20.37h-7.42v-19.46c0-2.89-.61-5.13-1.82-6.72-1.21-1.59-3.13-2.38-5.74-2.38s-4.7.86-6.41,2.59c-1.7,1.73-2.55,4.22-2.55,7.49v18.48h-7.42Z"/>
    <path d="M443.81,486.34c-3.36,0-6.32-.76-8.89-2.27-2.57-1.52-4.57-3.63-6.02-6.33-1.45-2.71-2.17-5.86-2.17-9.45s.71-6.84,2.13-9.59c1.42-2.75,3.43-4.9,6.02-6.44,2.59-1.54,5.59-2.31,8.99-2.31s6.25.76,8.68,2.27c2.43,1.52,4.31,3.54,5.64,6.05,1.33,2.52,2,5.3,2,8.33v1.51c0,.54-.02,1.13-.07,1.78h-26.11c.23,3.22,1.28,5.66,3.15,7.32,1.87,1.66,4.06,2.49,6.58,2.49,2.19,0,3.93-.46,5.21-1.37,1.28-.91,2.23-2.16,2.83-3.75h7.49c-.84,3.31-2.59,6.1-5.25,8.37s-6.07,3.39-10.22,3.39ZM443.81,456.38c-2.29,0-4.32.69-6.09,2.07-1.77,1.38-2.92,3.3-3.43,5.77h18.48c-.19-2.33-1.1-4.22-2.73-5.67-1.63-1.45-3.71-2.17-6.23-2.17Z"/>
  </g>
</svg>