<?xml version="1.0" encoding="UTF-8"?>
<svg id="Layer_1" data-name="Layer 1" xmlns="http://www.w3.org/2000/svg" xmlns:xlink="http://www.w3.org/1999/xlink" viewBox="0 0 500 599.47">
  <defs>
    <style>
      .cls-1 {
        fill: #3edebf;
      }

      .cls-1, .cls-2 {
        fill-rule: evenodd;
      }

      .cls-2 {
        fill: url(#linear-gradient);
      }
    </style>
    <linearGradient id="linear-gradient" x1="-192.05" y1="-8539.04" x2="19.02" y2="-8751.58" gradientTransform="translate(278.79 -6312.54) scale(.75 -.75)" gradientUnits="userSpaceOnUse">
      <stop offset="0" stop-color="#3edebf"/>
      <stop offset="1" stop-color="#18828d"/>
    </linearGradient>
  </defs>
  <g id="layer1">
    <g id="g161">
      <path id="path134" class="cls-2" d="M231.23,136.52c.4-2.82.6-5.7.6-8.63,0-.08,0-.16,0-.24h16.34c0,.08,0,.16,0,.24,0,2.93.2,5.81.6,8.63h-17.53ZM179.17,188.89v-52.37h52.06c-3.79,27.02-25.09,48.43-52.06,52.37ZM179.17,206.53v-17.64c-2.9.42-5.86.65-8.87.65v-61.89h61.53c-.13-33.94-27.68-61.41-61.65-61.41s-61.65,27.6-61.65,61.65,27.6,61.65,61.65,61.65h.13v16.34s-.09,0-.13,0c-34.05,0-61.65,27.6-61.65,61.65s27.6,61.65,61.65,61.65,61.65-27.6,61.65-61.65c0-.08,0-.16,0-.24h78.12v-77.75c33.99-.07,61.52-27.65,61.52-61.65s-27.6-61.65-61.65-61.65-61.52,27.47-61.65,61.41h61.78v61.89h-.13c-2.97,0-5.89-.21-8.74-.62v-52.41h-52.31c3.8,27.11,25.22,48.56,52.31,52.41v69.5h-69.92c-3.97-26.79-25.18-47.97-51.99-51.89ZM231.16,258.42c.43,2.9.66,5.86.67,8.87h-61.53v-61.41c3.01,0,5.97.23,8.87.65v51.89h51.99Z"/>
      <path id="path136" class="cls-1" d="M309.81,311.39c24.25,0,43.91-19.66,43.91-43.91s-19.66-43.91-43.91-43.91-43.91,19.66-43.91,43.91,19.66,43.91,43.91,43.91ZM309.81,329.13c34.05,0,61.65-27.6,61.65-61.65s-27.6-61.65-61.65-61.65-61.65,27.6-61.65,61.65,27.6,61.65,61.65,61.65Z"/>
      <path id="path138" class="cls-1" d="M369.23,300.15l28.25,28.77-24.17,24-28.25-28.77,24.17-24Z"/>
      <path id="path140" class="cls-1" d="M340.14,258.59c-2.61,2.05-5.91,3.25-9.48,3.21-8.33-.1-15-6.93-14.9-15.26.04-3.45,1.24-6.61,3.21-9.13-2.75-.82-5.67-1.28-8.68-1.32-17.42-.21-31.71,13.74-31.92,31.16-.21,17.42,13.74,31.71,31.16,31.92,17.42.21,31.71-13.74,31.92-31.16.04-3.27-.42-6.44-1.31-9.42Z"/>
    </g>
  </g>
  <g>
    <path d="M33.9,412.09c-3.97,0-7.4-1.03-10.29-3.08-2.89-2.05-5.11-4.97-6.65-8.75-1.54-3.78-2.31-8.28-2.31-13.51s.77-9.73,2.31-13.51c1.54-3.78,3.76-6.7,6.65-8.75,2.89-2.05,6.32-3.08,10.29-3.08s7.46,1.03,10.33,3.08c2.87,2.05,5.07,4.97,6.61,8.75,1.54,3.78,2.31,8.28,2.31,13.51s-.77,9.73-2.31,13.51c-1.54,3.78-3.75,6.7-6.61,8.75-2.87,2.05-6.31,3.08-10.33,3.08ZM33.9,405.09c3.5,0,6.32-1.58,8.47-4.72,2.15-3.15,3.22-7.69,3.22-13.62s-1.07-10.46-3.22-13.62c-2.15-3.15-4.97-4.72-8.47-4.72s-6.38,1.58-8.5,4.72c-2.12,3.15-3.19,7.69-3.19,13.62s1.06,10.46,3.19,13.62c2.12,3.15,4.96,4.72,8.5,4.72Z"/>
    <path d="M56.51,426.66v-50.12h6.44l.56,5.32h.42c.93-1.73,2.35-3.18,4.23-4.38,1.89-1.19,4.14-1.78,6.76-1.78s5.18.69,7.42,2.06c2.24,1.38,4.02,3.41,5.35,6.09,1.33,2.68,1.99,6.03,1.99,10.04s-.69,7.3-2.06,10.01c-1.38,2.71-3.23,4.75-5.56,6.12-2.33,1.38-4.95,2.06-7.84,2.06-2.57,0-4.71-.51-6.44-1.54-1.73-1.03-3.01-2.19-3.85-3.5v19.6h-7.42ZM72.96,405.02c2.61,0,4.8-.93,6.55-2.8,1.75-1.87,2.62-4.67,2.62-8.4s-.88-6.51-2.62-8.33c-1.75-1.82-3.93-2.73-6.55-2.73s-4.86.92-6.61,2.77-2.62,4.63-2.62,8.36.88,6.46,2.62,8.33c1.75,1.87,3.96,2.8,6.61,2.8Z"/>
    <path d="M111.88,412.09c-3.36,0-6.32-.76-8.89-2.27-2.57-1.52-4.57-3.63-6.02-6.33-1.45-2.71-2.17-5.86-2.17-9.45s.71-6.84,2.14-9.59c1.42-2.75,3.43-4.9,6.02-6.44,2.59-1.54,5.59-2.31,9-2.31s6.25.76,8.68,2.27c2.43,1.52,4.31,3.54,5.64,6.05,1.33,2.52,1.99,5.3,1.99,8.33v1.51c0,.54-.02,1.13-.07,1.78h-26.11c.23,3.22,1.28,5.66,3.15,7.32,1.87,1.66,4.06,2.49,6.58,2.49,2.19,0,3.93-.46,5.21-1.37,1.28-.91,2.23-2.16,2.83-3.75h7.49c-.84,3.31-2.59,6.1-5.25,8.37-2.66,2.26-6.07,3.39-10.22,3.39ZM111.88,382.13c-2.29,0-4.32.69-6.09,2.07-1.77,1.38-2.92,3.3-3.43,5.77h18.48c-.19-2.33-1.1-4.22-2.73-5.67-1.63-1.45-3.71-2.17-6.23-2.17Z"/>
    <path d="M134.7,411.25v-34.72h6.44l.63,5.18h.35c.93-1.68,2.38-3.1,4.34-4.27,1.96-1.17,4.22-1.75,6.79-1.75,4.25,0,7.44,1.28,9.59,3.85,2.15,2.57,3.22,6.35,3.22,11.34v20.37h-7.42v-19.46c0-2.89-.61-5.13-1.82-6.72-1.21-1.59-3.13-2.38-5.74-2.38s-4.7.86-6.4,2.59c-1.7,1.73-2.56,4.22-2.56,7.49v18.48h-7.42Z"/>
    <path d="M186.62,411.25v-49h16.03c3.83,0,6.99.65,9.49,1.96,2.5,1.31,4.36,3.07,5.6,5.29,1.24,2.22,1.85,4.72,1.85,7.52,0,3.17-.81,5.99-2.42,8.44-1.61,2.45-4.07,4.24-7.39,5.35l10.29,20.44h-8.61l-9.38-19.39h-8.05v19.39h-7.42ZM194.04,385.14h8.19c3.36,0,5.82-.75,7.39-2.24,1.56-1.49,2.34-3.45,2.34-5.88s-.77-4.44-2.31-5.91c-1.54-1.47-4.04-2.21-7.49-2.21h-8.12v16.24Z"/>
    <path d="M241.57,412.09c-3.36,0-6.32-.76-8.89-2.27-2.57-1.52-4.57-3.63-6.02-6.33-1.45-2.71-2.17-5.86-2.17-9.45s.71-6.84,2.14-9.59c1.42-2.75,3.43-4.9,6.02-6.44,2.59-1.54,5.59-2.31,9-2.31s6.25.76,8.68,2.27c2.43,1.52,4.31,3.54,5.64,6.05,1.33,2.52,1.99,5.3,1.99,8.33v1.51c0,.54-.02,1.13-.07,1.78h-26.11c.23,3.22,1.28,5.66,3.15,7.32,1.87,1.66,4.06,2.49,6.58,2.49,2.19,0,3.93-.46,5.21-1.37,1.28-.91,2.23-2.16,2.83-3.75h7.49c-.84,3.31-2.59,6.1-5.25,8.37-2.66,2.26-6.07,3.39-10.22,3.39ZM241.57,382.13c-2.29,0-4.32.69-6.09,2.07-1.77,1.38-2.92,3.3-3.43,5.77h18.48c-.19-2.33-1.1-4.22-2.73-5.67-1.63-1.45-3.71-2.17-6.23-2.17Z"/>
    <path d="M280.21,412.09c-4.57,0-8.21-1.07-10.92-3.22-2.71-2.15-4.25-4.99-4.62-8.54h7.63c.28,1.63,1.11,2.96,2.48,3.99,1.38,1.03,3.21,1.54,5.5,1.54s3.88-.46,5.07-1.37c1.19-.91,1.79-1.97,1.79-3.19,0-1.77-.71-2.99-2.13-3.64-1.42-.65-3.51-1.14-6.27-1.47-2.38-.28-4.54-.83-6.48-1.65-1.94-.82-3.46-1.94-4.58-3.36-1.12-1.42-1.68-3.21-1.68-5.36,0-3.03,1.19-5.48,3.57-7.35,2.38-1.87,5.69-2.8,9.94-2.8s7.54.96,9.87,2.87c2.33,1.91,3.69,4.53,4.06,7.84h-7.14c-.19-1.4-.91-2.51-2.17-3.33-1.26-.82-2.82-1.23-4.69-1.23s-3.43.36-4.55,1.08c-1.12.72-1.68,1.67-1.68,2.83,0,2.52,2.71,4.06,8.12,4.62,2.57.28,4.85.76,6.86,1.44,2.01.68,3.59,1.73,4.76,3.15,1.17,1.42,1.75,3.42,1.75,5.99.05,2.1-.55,3.99-1.79,5.67-1.24,1.68-2.94,3.01-5.11,3.99-2.17.98-4.7,1.47-7.6,1.47Z"/>
    <path d="M318.71,412.09c-3.31,0-6.28-.75-8.89-2.24-2.61-1.49-4.67-3.6-6.16-6.33-1.49-2.73-2.24-5.94-2.24-9.62s.75-6.89,2.24-9.62c1.49-2.73,3.55-4.84,6.16-6.33,2.61-1.49,5.6-2.24,8.96-2.24s6.33.75,8.93,2.24c2.59,1.49,4.62,3.61,6.09,6.33,1.47,2.73,2.21,5.94,2.21,9.62s-.75,6.9-2.24,9.62c-1.49,2.73-3.53,4.84-6.12,6.33-2.59,1.49-5.56,2.24-8.92,2.24ZM318.71,405.02c1.77,0,3.41-.4,4.9-1.19,1.49-.79,2.7-2.02,3.6-3.67.91-1.66,1.37-3.75,1.37-6.27s-.46-4.67-1.37-6.3c-.91-1.63-2.1-2.85-3.57-3.64-1.47-.79-3.09-1.19-4.87-1.19s-3.41.4-4.9,1.19c-1.49.79-2.69,2.01-3.6,3.64-.91,1.63-1.36,3.73-1.36,6.3,0,3.83.97,6.64,2.9,8.44,1.94,1.8,4.23,2.69,6.9,2.69Z"/>
    <path d="M354.41,412.09c-4.2,0-7.38-1.29-9.55-3.88-2.17-2.59-3.26-6.36-3.26-11.3v-20.37h7.42v19.46c0,2.85.62,5.08,1.85,6.68,1.24,1.61,3.14,2.42,5.71,2.42s4.71-.86,6.44-2.59c1.73-1.73,2.59-4.22,2.59-7.49v-18.48h7.42v34.72h-6.44l-.63-5.18h-.35c-.93,1.68-2.38,3.1-4.34,4.27-1.96,1.17-4.25,1.75-6.86,1.75Z"/>
    <path d="M380.66,411.25v-6.44h8.47v-19.53c0-1.54-.75-2.31-2.24-2.31h-5.53v-6.44h8.33c1.91,0,3.48.55,4.69,1.64,1.21,1.1,1.82,2.62,1.82,4.58v.84h.35c.51-2.61,1.62-4.58,3.33-5.92,1.7-1.33,4.19-1.99,7.46-1.99h5.39v7.84h-7.56c-2.75,0-4.88.96-6.37,2.87-1.49,1.91-2.24,4.2-2.24,6.86v11.55h10.78v6.44h-26.67Z"/>
    <path d="M435.54,412.09c-3.22,0-6.1-.75-8.65-2.24-2.54-1.49-4.54-3.6-5.99-6.33-1.45-2.73-2.17-5.94-2.17-9.62s.73-6.88,2.21-9.59c1.47-2.71,3.46-4.82,5.98-6.33,2.52-1.52,5.39-2.27,8.61-2.27,4.43,0,8.01,1.11,10.74,3.32,2.73,2.22,4.47,5.26,5.22,9.14h-7.77c-.47-1.68-1.41-3.01-2.83-3.99-1.42-.98-3.23-1.47-5.43-1.47-1.59,0-3.09.42-4.52,1.26-1.42.84-2.57,2.09-3.43,3.75-.86,1.66-1.29,3.72-1.29,6.19s.43,4.48,1.29,6.16c.86,1.68,2.01,2.95,3.43,3.82,1.42.86,2.93,1.29,4.52,1.29,2.24,0,4.04-.49,5.39-1.47,1.35-.98,2.31-2.33,2.87-4.06h7.77c-.93,3.83-2.75,6.86-5.46,9.1-2.71,2.24-6.21,3.36-10.5,3.36Z"/>
    <path d="M474.25,412.09c-3.36,0-6.32-.76-8.89-2.27-2.57-1.52-4.57-3.63-6.02-6.33-1.45-2.71-2.17-5.86-2.17-9.45s.71-6.84,2.14-9.59c1.42-2.75,3.43-4.9,6.02-6.44,2.59-1.54,5.59-2.31,9-2.31s6.25.76,8.68,2.27c2.43,1.52,4.31,3.54,5.64,6.05,1.33,2.52,1.99,5.3,1.99,8.33v1.51c0,.54-.02,1.13-.07,1.78h-26.11c.23,3.22,1.28,5.66,3.15,7.32,1.87,1.66,4.06,2.49,6.58,2.49,2.19,0,3.93-.46,5.21-1.37,1.28-.91,2.23-2.16,2.83-3.75h7.49c-.84,3.31-2.59,6.1-5.25,8.37-2.66,2.26-6.07,3.39-10.22,3.39ZM474.25,382.13c-2.29,0-4.32.69-6.09,2.07-1.77,1.38-2.92,3.3-3.43,5.77h18.48c-.19-2.33-1.1-4.22-2.73-5.67-1.63-1.45-3.71-2.17-6.23-2.17Z"/>
    <path d="M85.66,481.25v-49h11.76c7.89,0,13.74,2.18,17.57,6.54,3.83,4.36,5.74,10.35,5.74,17.96s-1.91,13.59-5.74,17.96c-3.83,4.36-9.68,6.54-17.57,6.54h-11.76ZM93.08,474.39h4.06c5.69,0,9.8-1.6,12.32-4.79,2.52-3.2,3.78-7.48,3.78-12.84s-1.26-9.65-3.78-12.84-6.63-4.79-12.32-4.79h-4.06v35.28Z"/>
    <path d="M124.44,481.25v-6.44h10.92v-19.53c0-1.54-.75-2.31-2.24-2.31h-7.7v-6.44h9.03c2.89,0,5,.67,6.33,2s2,3.44,2,6.33v19.95h10.92v6.44h-29.26ZM138.37,441.21c-1.63,0-3-.53-4.09-1.58-1.1-1.05-1.65-2.34-1.65-3.88s.55-2.82,1.65-3.85c1.1-1.03,2.46-1.54,4.09-1.54s3.07.51,4.17,1.54c1.1,1.03,1.65,2.31,1.65,3.85s-.55,2.83-1.65,3.88c-1.1,1.05-2.48,1.58-4.17,1.58Z"/>
    <path d="M175.05,482.09c-4.57,0-8.21-1.07-10.92-3.22-2.71-2.15-4.25-4.99-4.62-8.54h7.63c.28,1.63,1.11,2.96,2.48,3.99,1.38,1.03,3.21,1.54,5.5,1.54s3.88-.46,5.07-1.37c1.19-.91,1.79-1.97,1.79-3.19,0-1.77-.71-2.99-2.13-3.64-1.42-.65-3.51-1.14-6.27-1.47-2.38-.28-4.54-.83-6.48-1.65-1.94-.82-3.46-1.94-4.58-3.36-1.12-1.42-1.68-3.21-1.68-5.36,0-3.03,1.19-5.48,3.57-7.35,2.38-1.87,5.69-2.8,9.94-2.8s7.54.96,9.87,2.87c2.33,1.91,3.69,4.53,4.06,7.84h-7.14c-.19-1.4-.91-2.51-2.17-3.33-1.26-.82-2.82-1.23-4.69-1.23s-3.43.36-4.55,1.08c-1.12.72-1.68,1.67-1.68,2.83,0,2.52,2.71,4.06,8.12,4.62,2.57.28,4.85.76,6.86,1.44,2.01.68,3.59,1.73,4.76,3.15,1.17,1.42,1.75,3.42,1.75,5.99.05,2.1-.55,3.99-1.79,5.67-1.24,1.68-2.94,3.01-5.11,3.99-2.17.98-4.7,1.47-7.6,1.47Z"/>
    <path d="M211.66,482.09c-3.22,0-6.1-.75-8.65-2.24-2.54-1.49-4.54-3.6-5.99-6.33-1.45-2.73-2.17-5.94-2.17-9.62s.73-6.88,2.21-9.59c1.47-2.71,3.46-4.82,5.98-6.33,2.52-1.52,5.39-2.27,8.61-2.27,4.43,0,8.01,1.11,10.74,3.32,2.73,2.22,4.47,5.26,5.22,9.14h-7.77c-.47-1.68-1.41-3.01-2.83-3.99-1.42-.98-3.23-1.47-5.43-1.47-1.59,0-3.09.42-4.52,1.26-1.42.84-2.57,2.09-3.43,3.75-.86,1.66-1.29,3.72-1.29,6.19s.43,4.48,1.29,6.16c.86,1.68,2.01,2.95,3.43,3.82,1.42.86,2.93,1.29,4.52,1.29,2.24,0,4.04-.49,5.39-1.47,1.35-.98,2.31-2.33,2.87-4.06h7.77c-.93,3.83-2.75,6.86-5.46,9.1-2.71,2.24-6.21,3.36-10.5,3.36Z"/>
    <path d="M249.95,482.09c-3.31,0-6.28-.75-8.89-2.24-2.61-1.49-4.67-3.6-6.16-6.33-1.49-2.73-2.24-5.94-2.24-9.62s.75-6.89,2.24-9.62c1.49-2.73,3.55-4.84,6.16-6.33,2.61-1.49,5.6-2.24,8.96-2.24s6.33.75,8.93,2.24c2.59,1.49,4.62,3.61,6.09,6.33,1.47,2.73,2.21,5.94,2.21,9.62s-.75,6.9-2.24,9.62c-1.49,2.73-3.53,4.84-6.12,6.33-2.59,1.49-5.56,2.24-8.92,2.24ZM249.95,475.02c1.77,0,3.41-.4,4.9-1.19,1.49-.79,2.7-2.02,3.6-3.67.91-1.66,1.37-3.75,1.37-6.27s-.46-4.67-1.37-6.3c-.91-1.63-2.1-2.85-3.57-3.64-1.47-.79-3.09-1.19-4.87-1.19s-3.41.4-4.9,1.19c-1.49.79-2.69,2.01-3.6,3.64-.91,1.63-1.36,3.73-1.36,6.3,0,3.83.97,6.64,2.9,8.44,1.94,1.8,4.23,2.69,6.9,2.69Z"/>
    <path d="M284.25,481.25l-15.05-34.72h8.4l11.13,26.88,11.2-26.88h8.33l-15.12,34.72h-8.89Z"/>
    <path d="M327.92,482.09c-3.36,0-6.32-.76-8.89-2.27-2.57-1.52-4.57-3.63-6.02-6.33-1.45-2.71-2.17-5.86-2.17-9.45s.71-6.84,2.14-9.59c1.42-2.75,3.43-4.9,6.02-6.44,2.59-1.54,5.59-2.31,9-2.31s6.25.76,8.68,2.27c2.43,1.52,4.31,3.54,5.64,6.05,1.33,2.52,1.99,5.3,1.99,8.33v1.51c0,.54-.02,1.13-.07,1.78h-26.11c.23,3.22,1.28,5.66,3.15,7.32,1.87,1.66,4.06,2.49,6.58,2.49,2.19,0,3.93-.46,5.21-1.37,1.28-.91,2.23-2.16,2.83-3.75h7.49c-.84,3.31-2.59,6.1-5.25,8.37-2.66,2.26-6.07,3.39-10.22,3.39ZM327.92,452.13c-2.29,0-4.32.69-6.09,2.07-1.77,1.38-2.92,3.3-3.43,5.77h18.48c-.19-2.33-1.1-4.22-2.73-5.67-1.63-1.45-3.71-2.17-6.23-2.17Z"/>
    <path d="M350.67,481.25v-6.44h8.47v-19.53c0-1.54-.75-2.31-2.24-2.31h-5.53v-6.44h8.33c1.91,0,3.48.55,4.69,1.64,1.21,1.1,1.82,2.62,1.82,4.58v.84h.35c.51-2.61,1.62-4.58,3.33-5.92,1.7-1.33,4.19-1.99,7.46-1.99h5.39v7.84h-7.56c-2.75,0-4.88.96-6.37,2.87-1.49,1.91-2.24,4.2-2.24,6.86v11.55h10.78v6.44h-26.67Z"/>
    <path d="M394.07,496.66l8.26-18.27h-2.03l-13.51-31.85h8.05l10.36,25.41,10.99-25.41h7.77l-22.05,50.12h-7.84Z"/>
  </g>
</svg>