<?xml version="1.0" encoding="UTF-8"?>
<svg id="Layer_1" data-name="Layer 1" xmlns="http://www.w3.org/2000/svg" xmlns:xlink="http://www.w3.org/1999/xlink" viewBox="0 0 500 500">
  <defs>
    <style>
      .cls-1 {
        mask: url(#mask);
      }

      .cls-2 {
        fill-rule: evenodd;
      }

      .cls-2, .cls-3 {
        fill: #fff;
      }

      .cls-4 {
        fill: url(#radial-gradient-3);
      }

      .cls-5 {
        fill: url(#radial-gradient-2);
      }

      .cls-6 {
        fill: url(#radial-gradient);
      }

      .cls-7 {
        mask: url(#mask-1);
      }
    </style>
    <mask id="mask" x="123.81" y="71.89" width="277.76" height="261.88" maskUnits="userSpaceOnUse">
      <g id="mask0_1_49" data-name="mask0 1 49">
        <path class="cls-3" d="M387.68,202.64c0,71.95-58.33,130.28-130.28,130.28s-130.28-58.33-130.28-130.28,58.33-130.28,130.28-130.28,130.28,58.33,130.28,130.28Z"/>
      </g>
    </mask>
    <radialGradient id="radial-gradient" cx="561.91" cy="-3128.5" fx="561.91" fy="-3128.5" r=".21" gradientTransform="translate(2594601.89 -3012748.28) rotate(51.28) scale(1295.92 -1249.39)" gradientUnits="userSpaceOnUse">
      <stop offset="0" stop-color="#1348ff"/>
      <stop offset="1" stop-color="#06238d"/>
    </radialGradient>
    <mask id="mask-1" x="125.55" y="71.89" width="261.88" height="261.88" maskUnits="userSpaceOnUse">
      <g id="mask1_1_49" data-name="mask1 1 49">
        <path class="cls-6" d="M256.49,333.76c72.32,0,130.94-58.62,130.94-130.94s-58.62-130.94-130.94-130.94-130.94,58.62-130.94,130.94,58.62,130.94,130.94,130.94Z"/>
      </g>
    </mask>
    <radialGradient id="radial-gradient-2" cx="561.67" cy="-3127.02" fx="561.67" fy="-3127.02" r=".21" gradientTransform="translate(7410288.13 -6803417.35) rotate(53.13) scale(1775.97 -3201.16)" gradientUnits="userSpaceOnUse">
      <stop offset="0" stop-color="#0195ff"/>
      <stop offset="1" stop-color="#1147e9"/>
    </radialGradient>
    <radialGradient id="radial-gradient-3" cx="561.84" cy="-3127.52" fx="561.84" fy="-3127.52" r=".21" gradientTransform="translate(4507428 -4592956.81) rotate(52.04) scale(1510.89 -2039.62)" gradientUnits="userSpaceOnUse">
      <stop offset="0" stop-color="#0bf"/>
      <stop offset="1" stop-color="#008bff"/>
    </radialGradient>
  </defs>
  <g class="cls-1">
    <g>
      <g class="cls-7">
        <g>
          <path class="cls-6" d="M256.49,333.76c72.32,0,130.94-58.62,130.94-130.94s-58.62-130.94-130.94-130.94-130.94,58.62-130.94,130.94,58.62,130.94,130.94,130.94Z"/>
          <path class="cls-5" d="M256.38,71.89c-42.59,0-80.42,20.3-104.36,51.74,4.71-.86,9.56-1.31,14.52-1.31,44.5,0,80.57,36.04,80.57,80.51s-36.07,80.51-80.57,80.51c-4.96,0-9.81-.45-14.52-1.31,23.93,31.44,61.77,51.74,104.36,51.74,72.37,0,131.04-58.62,131.04-130.94s-58.67-130.94-131.04-130.94Z"/>
          <path class="cls-4" d="M256.32,71.89c-26.59,0-51.34,7.91-72.01,21.5,7.77-1.7,15.85-2.6,24.13-2.6,61.96,0,112.19,50.16,112.19,112.04s-50.23,112.04-112.19,112.04c-8.29,0-16.36-.9-24.13-2.6,20.67,13.59,45.41,21.5,72.01,21.5,72.41,0,131.11-58.62,131.11-130.94s-58.7-130.94-131.11-130.94Z"/>
        </g>
      </g>
      <path class="cls-2" d="M256.53,104.86c-2.26,2.47-5.5,4.02-9.11,4.02-6.45,0-11.74-4.95-12.29-11.26-10.36,2.86-19.9,6.78-28.61,11.6-7.61,4.21-14.6,9.1-20.97,14.57,5.93,1.61,11.81,3.88,17.44,6.8,3.89,2.01,7.67,4.33,11.28,6.96,1.56-1.15,3.49-1.82,5.58-1.82,4.05,0,7.51,2.56,8.84,6.15,1.44-.37,2.87-.72,4.29-1.04,24.26-5.51,46.8-4,66.74,1.12-9.71-13.99-22.1-24.92-35.51-32.89-2.53-1.5-5.09-2.9-7.68-4.2ZM259.75,96.34c0,.07,0,.14,0,.21,0,2.19-.57,4.25-1.57,6.03,2.51,1.27,5,2.63,7.45,4.09,14.59,8.68,27.99,20.77,38.19,36.39,3.07.88,6.08,1.84,9.01,2.87,22.94,8.06,41.7,20.37,54.72,30.65,3.53,2.79,6.63,5.42,9.29,7.79.76-.86,1.63-1.62,2.58-2.28-17.32-49.61-67.66-78.86-119.67-85.75ZM373.54,196.46c1.26,6.52,7,11.44,13.89,11.44,7.81,0,14.14-6.33,14.14-14.15s-6.33-14.15-14.14-14.15c-1.97,0-3.84.4-5.54,1.13-17.98-50.87-69.72-80.44-122.51-87.24-.03-.13-.07-.25-.1-.38,25.06-2.6,54.02.39,86.94,10.74l.83-2.65c-33.59-10.56-63.22-13.56-88.9-10.76-2.12-3.72-6.13-6.23-10.72-6.23-5.87,0-10.77,4.09-12.02,9.58-21.23-5.82-42.22-5.26-57.62,1.4l1.1,2.55c14.02-6.07,33.15-6.88,52.84-2.04-9.54,2.84-18.39,6.57-26.54,11.09-8.37,4.63-16.01,10.07-22.91,16.18-16.95-3.88-34.06-2.3-46.91,5.39l1.42,2.38c11.64-6.96,27.23-8.68,42.97-5.48-18.53,17.29-31.46,39.52-38.87,63.64-.94-.2-1.92-.3-2.93-.3-7.81,0-14.15,6.33-14.15,14.15,0,1.95.39,3.8,1.11,5.49l-.03.31c.06,0,.11,0,.17.01,2.22,4.91,7.16,8.33,12.9,8.33,1.84,0,3.61-.35,5.22-.99,7,18.15,18.79,43.06,38.82,64.29-13.13,2.64-25.98,2.61-35.9.87l-.48,2.73c10.66,1.87,24.55,1.82,38.65-1.25,9.68,9.82,21.21,18.75,34.93,25.71-.28.95-.44,1.96-.44,3,0,.48.03.94.09,1.4-12.17,1.1-25.58.65-40.31-1.72l-.44,2.74c15.15,2.43,28.96,2.87,41.49,1.69,1.6,3.76,5.33,6.4,9.68,6.4,3.86,0,7.23-2.08,9.06-5.18,2.06.38,4.23.73,6.49,1.03,10,1.35,22.01,1.94,34.38,1.48,12.37-.47,25.13-2,36.65-4.94,6.58-1.68,12.79-3.82,18.29-6.51,2.59,3.09,6.49,5.05,10.83,5.05,7.81,0,14.15-6.33,14.15-14.15,0-6.88-4.92-12.62-11.43-13.89-.91-21.26-3.82-36.94-8.23-49.21-3.56-9.9-8.08-17.55-13.27-24.08,1.19-1,2.17-2.24,2.86-3.65,23.27,10.04,42.68,25.36,54.79,47.77l2.44-1.32c-12.51-23.15-32.51-38.84-56.32-49.08.16-.75.24-1.53.24-2.33,0-.1,0-.19,0-.29l43.33-6.06ZM375.21,186.63c-1.21,2.08-1.91,4.49-1.92,7.07l-43.48,6.08c-1.07-3.82-4.11-6.82-7.96-7.83-2.47-17.39-8.07-32.48-15.79-45.33,1.98.61,3.94,1.26,5.86,1.93,22.57,7.92,41.06,20.05,53.92,30.21,3.57,2.82,6.71,5.49,9.37,7.87ZM318.98,191.58c-2.64-17.88-8.67-33.23-16.92-46.14-20.31-5.67-43.45-7.6-68.46-1.91-1.44.33-2.88.68-4.33,1.06.01.19.02.38.02.57,0,.45-.03.9-.09,1.33,14.45,2.6,32.36,7.89,48.56,15.85,15.26,7.5,29.22,17.48,37.2,29.99,1.25-.48,2.61-.75,4.03-.75ZM312.49,193.65c-7.59-11.78-20.91-21.42-35.97-28.82-16.07-7.9-33.88-13.13-48.13-15.67-.13.28-.28.56-.44.83,9.06,10.32,15.78,23.27,18.44,38.66,5.7.19,11.4.53,17.07,1.02,15.61,1.36,31,3.93,45.51,8.06.83-1.63,2.04-3.03,3.52-4.08ZM308.03,200.34c-14.23-4.04-29.37-6.56-44.81-7.91-5.44-.47-10.92-.8-16.39-1,.22,1.56.39,3.14.52,4.74,1.05,12.77,0,23.9-2.66,33.55,1.9,1.62,3.23,3.88,3.66,6.45,12.77-.65,26.93-4.55,39.21-9.84,7.81-3.36,14.8-7.27,20.14-11.19,1.62-1.19,3.07-2.37,4.33-3.52-2.61-2.06-4.28-5.24-4.28-8.82,0-.85.09-1.67.27-2.47ZM314.52,213.11c-1.52,1.44-3.26,2.87-5.17,4.27-5.54,4.07-12.73,8.07-20.68,11.5-12.43,5.36-26.9,9.38-40.1,10.06,17.25,7.39,34.88,16.22,52.12,26.68,11.31-16.75,17.38-35.43,19.09-51.62-.26.02-.52.03-.78.03-1.59,0-3.1-.33-4.47-.92ZM322.61,213.44c-1.62,16.78-7.83,36.22-19.56,53.64,10.75,6.63,21.35,13.9,31.59,21.87,2.57-2.76,6.22-4.49,10.28-4.51-.92-20.87-3.79-36.15-8.05-48.01-3.48-9.68-7.9-17.12-13-23.5-.4.2-.82.37-1.25.51ZM332.95,291.15c-10.21-7.94-20.76-15.18-31.48-21.79-3.41,4.8-7.24,9.43-11.53,13.79-12.65,12.85-29.21,23.28-50.15,28.73-.04.73-.16,1.44-.34,2.12,1.82.33,3.75.63,5.76.9,9.83,1.32,21.68,1.92,33.9,1.45,12.22-.46,24.79-1.98,36.07-4.85,6.32-1.61,12.21-3.64,17.39-6.14-1.1-2.01-1.73-4.32-1.73-6.78,0-2.73.77-5.28,2.11-7.43ZM239.57,309.07c20.25-5.37,36.2-15.5,48.39-27.87,4.14-4.2,7.84-8.66,11.14-13.29-16.94-10.27-34.26-18.95-51.22-26.24-.88,2.47-2.63,4.52-4.88,5.8,6.68,24.51.85,44.77-5.86,56.79,1.19,1.34,2.05,2.98,2.44,4.8ZM234.98,302.43c6.24-11.45,11.66-30.63,5.42-53.9-.89.23-1.82.36-2.78.36-.44,0-.87-.03-1.3-.08-6.3,9.95-14.74,17.48-24.14,23.03-7.8,4.6-16.26,7.85-24.74,9.97,9.21,9.13,20.08,17.4,32.89,23.92,1.86-2.99,5.17-4.98,8.94-4.98,2.1,0,4.05.61,5.69,1.67ZM227.69,233.57c-.61,1.36-.94,2.86-.94,4.44,0,4.55,2.79,8.45,6.76,10.07-5.98,9.16-13.89,16.16-22.72,21.38-8.04,4.75-16.84,8.01-25.61,10.05-20.49-21.23-32.45-46.51-39.52-64.89,1.21-.78,2.29-1.75,3.2-2.85,21.38,3.76,49.07,10.65,78.83,21.8ZM242.25,228.15c-1.4-.66-2.97-1.03-4.62-1.03-3.42,0-6.46,1.57-8.46,4.03-29.58-11.12-57.15-18.06-78.64-21.91,1.01-1.95,1.58-4.15,1.58-6.5,0-1.16-.14-2.28-.4-3.36,26.77-5.2,59.54-8.95,92.31-8.05.24,1.66.43,3.35.57,5.06.99,12.1.06,22.63-2.34,31.74ZM150.77,196.75c26.87-5.24,59.79-9.04,92.79-8.19-2.6-14.42-8.91-26.62-17.4-36.4-1.67,1.51-3.88,2.42-6.31,2.42-3.32,0-6.24-1.72-7.92-4.31-20.45,8.11-41.93,21.63-63.96,42.49,1.15,1.15,2.09,2.5,2.79,3.98ZM145.82,190.99c22.29-21.17,44.11-34.96,64.96-43.25-.24-.82-.36-1.69-.36-2.59,0-2.11.69-4.05,1.86-5.62-3.38-2.43-6.92-4.59-10.56-6.47-6.04-3.13-12.35-5.48-18.68-7.05-18.89,17.11-32.05,39.41-39.52,63.74.8.35,1.57.76,2.29,1.25Z"/>
    </g>
  </g>
  <g>
    <path d="M29.12,404.68v-49h16.59c3.73,0,6.81.64,9.24,1.92,2.43,1.28,4.22,3.04,5.39,5.29,1.17,2.24,1.75,4.81,1.75,7.7s-.58,5.46-1.75,7.7c-1.17,2.24-2.96,4-5.39,5.28-2.43,1.28-5.51,1.93-9.24,1.93h-9.17v19.18h-7.42ZM36.54,378.85h8.82c3.17,0,5.5-.75,6.96-2.24,1.47-1.49,2.21-3.5,2.21-6.02s-.73-4.47-2.21-5.99c-1.47-1.52-3.79-2.27-6.96-2.27h-8.82v16.52Z"/>
    <path d="M65.3,404.68v-6.44h11.62v-35.21c0-1.54-.75-2.31-2.24-2.31h-8.4v-6.44h9.73c2.71,0,4.77.71,6.2,2.14,1.42,1.42,2.13,3.49,2.13,6.19v35.63h11.69v6.44h-30.73Z"/>
    <path d="M114.09,405.52c-2.75,0-5.06-.48-6.93-1.43-1.87-.96-3.27-2.24-4.2-3.85-.93-1.61-1.4-3.37-1.4-5.29,0-3.41,1.25-6.07,3.74-7.98,2.5-1.91,6.03-2.87,10.6-2.87h8.96v-.77c0-5.23-2.43-7.84-7.28-7.84-2.01,0-3.7.43-5.07,1.3-1.38.86-2.3,2.25-2.77,4.16h-7.42c.37-3.64,1.95-6.52,4.73-8.64,2.78-2.12,6.29-3.18,10.54-3.18,5.13,0,8.87,1.26,11.2,3.78,2.33,2.52,3.5,6,3.5,10.43v21.35h-6.3l-.63-5.11h-.49c-1.03,1.63-2.31,3.03-3.85,4.2s-3.85,1.75-6.93,1.75ZM115.49,399.29c3.03,0,5.31-.92,6.83-2.77,1.52-1.84,2.34-4.19,2.48-7.04h-8.12c-2.66,0-4.54.43-5.63,1.3-1.1.86-1.65,2.06-1.65,3.6s.55,2.74,1.65,3.61c1.1.86,2.58,1.29,4.44,1.29Z"/>
    <path d="M156.72,404.68c-3.41,0-6.11-.83-8.12-2.49-2.01-1.66-3.01-4.61-3.01-8.85v-17.08h-8.75v-6.3h5.18c2.38,0,3.78-1.17,4.2-3.5l1.05-5.6h5.74v9.1h13.72v6.3h-13.72v16.94c0,1.82.41,3.09,1.23,3.82.82.72,2.23,1.08,4.23,1.08h8.12v6.58h-9.87Z"/>
    <path d="M172.47,420.08v-6.51h5.67c1.63,0,2.81-.34,3.54-1.01.72-.68,1.08-1.81,1.08-3.39v-32.9h-8.82v-6.3h8.82v-4.83c0-3.87.96-6.65,2.87-8.33,1.91-1.68,4.64-2.52,8.19-2.52h8.47v6.51h-7.56c-1.63,0-2.8.33-3.5.98-.7.65-1.05,1.8-1.05,3.43v4.76h12.11v6.3h-12.11v32.97c0,3.87-.96,6.65-2.87,8.33-1.91,1.68-4.67,2.52-8.26,2.52h-6.58Z"/>
    <path d="M224.34,405.52c-3.31,0-6.28-.75-8.89-2.24-2.61-1.49-4.67-3.6-6.16-6.33-1.49-2.73-2.24-5.94-2.24-9.62s.75-6.89,2.24-9.62c1.49-2.73,3.55-4.84,6.16-6.33,2.61-1.49,5.6-2.24,8.96-2.24s6.34.75,8.93,2.24c2.59,1.49,4.62,3.61,6.09,6.33,1.47,2.73,2.21,5.94,2.21,9.62s-.75,6.9-2.24,9.62c-1.49,2.73-3.54,4.84-6.12,6.33-2.59,1.49-5.57,2.24-8.93,2.24ZM224.34,398.45c1.77,0,3.41-.4,4.9-1.19,1.49-.79,2.7-2.02,3.61-3.67.91-1.66,1.36-3.75,1.36-6.27s-.46-4.67-1.36-6.3c-.91-1.63-2.1-2.85-3.57-3.64-1.47-.79-3.09-1.19-4.87-1.19s-3.41.4-4.9,1.19c-1.49.79-2.7,2.01-3.61,3.64-.91,1.63-1.36,3.73-1.36,6.3,0,3.83.97,6.64,2.9,8.44,1.94,1.8,4.24,2.69,6.9,2.69Z"/>
    <path d="M245.13,404.68v-6.44h8.47v-19.53c0-1.54-.75-2.31-2.24-2.31h-5.53v-6.44h8.33c1.91,0,3.48.55,4.69,1.64,1.21,1.1,1.82,2.62,1.82,4.58v.84h.35c.51-2.61,1.62-4.58,3.32-5.92,1.7-1.33,4.19-1.99,7.46-1.99h5.39v7.84h-7.56c-2.75,0-4.88.96-6.37,2.87-1.49,1.91-2.24,4.2-2.24,6.86v11.55h10.78v6.44h-26.67Z"/>
    <path d="M283.49,404.68v-34.72h6.16l.63,4.06h.35c.61-1.45,1.54-2.62,2.8-3.54,1.26-.91,2.75-1.36,4.48-1.36s3.15.42,4.41,1.26c1.26.84,2.19,2.05,2.8,3.64h.28c.61-1.4,1.56-2.57,2.87-3.5,1.31-.93,2.92-1.4,4.83-1.4,2.57,0,4.52.84,5.85,2.52,1.33,1.68,1.99,4.04,1.99,7.07v25.97h-7.14v-24.5c0-1.4-.29-2.51-.88-3.33-.58-.82-1.51-1.22-2.77-1.22s-2.3.49-3.12,1.47c-.82.98-1.22,2.36-1.22,4.13v23.45h-7.21v-24.5c0-1.4-.28-2.51-.84-3.33-.56-.82-1.47-1.22-2.73-1.22s-2.31.49-3.15,1.47c-.84.98-1.26,2.36-1.26,4.13v23.45h-7.14Z"/>
    <path d="M336.89,404.68v-49h7.84l10.15,22.12,10.15-22.12h7.84v49h-7.07v-34.86l-7.98,17.5h-5.88l-7.98-17.43v34.79h-7.07Z"/>
    <path d="M394.08,405.52c-3.36,0-6.32-.76-8.89-2.27-2.57-1.52-4.57-3.63-6.02-6.33-1.45-2.71-2.17-5.86-2.17-9.45s.71-6.84,2.13-9.59c1.42-2.75,3.43-4.9,6.02-6.44,2.59-1.54,5.59-2.31,8.99-2.31s6.25.76,8.68,2.27c2.43,1.52,4.31,3.54,5.64,6.05,1.33,2.52,2,5.3,2,8.33v1.51c0,.54-.02,1.13-.07,1.78h-26.11c.23,3.22,1.28,5.66,3.15,7.32,1.87,1.66,4.06,2.49,6.58,2.49,2.19,0,3.93-.46,5.21-1.37,1.28-.91,2.23-2.16,2.83-3.75h7.49c-.84,3.31-2.59,6.1-5.25,8.37s-6.07,3.39-10.22,3.39ZM394.08,375.56c-2.29,0-4.32.69-6.09,2.07-1.77,1.38-2.92,3.3-3.43,5.77h18.48c-.19-2.33-1.1-4.22-2.73-5.67-1.63-1.45-3.71-2.17-6.23-2.17Z"/>
    <path d="M432.71,405.52c-4.57,0-8.21-1.07-10.92-3.22-2.71-2.15-4.25-4.99-4.62-8.54h7.63c.28,1.63,1.11,2.96,2.49,3.99,1.38,1.03,3.21,1.54,5.5,1.54s3.88-.46,5.07-1.37,1.78-1.97,1.78-3.19c0-1.77-.71-2.99-2.13-3.64-1.42-.65-3.51-1.14-6.26-1.47-2.38-.28-4.54-.83-6.48-1.65-1.94-.82-3.46-1.94-4.58-3.36-1.12-1.42-1.68-3.21-1.68-5.36,0-3.03,1.19-5.48,3.57-7.35,2.38-1.87,5.69-2.8,9.94-2.8s7.54.96,9.87,2.87c2.33,1.91,3.69,4.53,4.06,7.84h-7.14c-.19-1.4-.91-2.51-2.17-3.33s-2.82-1.23-4.69-1.23-3.43.36-4.55,1.08c-1.12.72-1.68,1.67-1.68,2.83,0,2.52,2.71,4.06,8.12,4.62,2.57.28,4.85.76,6.86,1.44,2.01.68,3.59,1.73,4.76,3.15,1.17,1.42,1.75,3.42,1.75,5.99.05,2.1-.55,3.99-1.79,5.67-1.24,1.68-2.94,3.01-5.11,3.99-2.17.98-4.7,1.47-7.59,1.47Z"/>
    <path d="M455.32,404.68v-50.4h7.42v20.86c.93-1.73,2.43-3.16,4.48-4.3,2.05-1.14,4.36-1.71,6.93-1.71,4.29,0,7.56,1.29,9.8,3.88s3.36,6.31,3.36,11.17v20.51h-7.42v-19.46c0-2.89-.7-5.13-2.1-6.72-1.4-1.59-3.34-2.38-5.81-2.38s-4.75.86-6.54,2.59c-1.8,1.73-2.7,4.22-2.7,7.49v18.48h-7.42Z"/>
  </g>
</svg>