<svg xmlns="http://www.w3.org/2000/svg" width="301" height="301" fill="none" viewBox="0 0 301 301">
  <path fill="#000" fill-rule="evenodd" d="M147.09 282.918a6.866 6.866 0 0 0 6.123.008L265.7 227.101a6.868 6.868 0 0 0-6.107-12.304L150.17 269.102 45.339 216.729V94.665l104.986-63.27 108.986 59.56a6.869 6.869 0 0 0 6.587-12.054L153.451 17.45a6.869 6.869 0 0 0-6.839.144L34.926 84.903a6.868 6.868 0 0 0-3.324 5.882v130.19a6.869 6.869 0 0 0 3.8 6.145l111.688 55.798Z" clip-rule="evenodd"/>
  <path fill="#000" fill-rule="evenodd" d="M144.247 244.902a5.494 5.494 0 0 0 4.966-.081l74.504-39.294 37.518 19.267a5.495 5.495 0 0 0 5.02-9.776l-30.921-15.879 31.082-17.288a5.496 5.496 0 0 0-.054-9.634l-33.459-18.118 33.394-17.514a5.495 5.495 0 0 0 .037-9.712l-33.244-17.756 33.282-18.116a5.494 5.494 0 0 0 2.199-7.453 5.493 5.493 0 0 0-7.452-2.199l-39.631 21.572-66.259-35.389a5.494 5.494 0 0 0-5.358.101l-75.16 43.872a5.495 5.495 0 0 0 .366 9.686l32.47 15.802-32.848 19.29a5.494 5.494 0 0 0 .367 9.673l33.012 16.163-33.365 19.46a5.494 5.494 0 0 0 .366 9.687l69.168 33.636Zm-24.765-69.435L89.08 160.582l63.67-37.39 99.576 53.921-28.734 15.983-68.422-35.485a5.494 5.494 0 0 0-5.298.131l-30.39 17.725Zm92.345 23.907-59.031-30.615-63.655 37.127 57.408 27.916 65.278-34.428Zm-92.9-69.063-29.793-14.5 63.626-37.14L252 131.675l-30.738 16.12-66.005-35.742a5.494 5.494 0 0 0-5.399.093l-30.931 18.165Z" clip-rule="evenodd"/>
</svg>
