<?xml version="1.0" standalone="yes"?><svg xmlns="http://www.w3.org/2000/svg" version="1.1" width="222" height="222" viewBox="0 0 222 222" shape-rendering="crispEdges"><rect x="0" y="0" width="222" height="222" fill="#ffffff"/><path fill="#000000" d="M24 24h6v6H24V24M30 24h6v6H30V24M36 24h6v6H36V24M42 24h6v6H42V24M48 24h6v6H48V24M54 24h6v6H54V24M60 24h6v6H60V24M78 24h6v6H78V24M84 24h6v6H84V24M102 24h6v6H102V24M120 24h6v6H120V24M138 24h6v6H138V24M156 24h6v6H156V24M162 24h6v6H162V24M168 24h6v6H168V24M174 24h6v6H174V24M180 24h6v6H180V24M186 24h6v6H186V24M192 24h6v6H192V24M24 30h6v6H24V30M60 30h6v6H60V30M72 30h6v6H72V30M84 30h6v6H84V30M108 30h6v6H108V30M114 30h6v6H114V30M120 30h6v6H120V30M126 30h6v6H126V30M138 30h6v6H138V30M144 30h6v6H144V30M156 30h6v6H156V30M192 30h6v6H192V30M24 36h6v6H24V36M36 36h6v6H36V36M42 36h6v6H42V36M48 36h6v6H48V36M60 36h6v6H60V36M78 36h6v6H78V36M84 36h6v6H84V36M90 36h6v6H90V36M102 36h6v6H102V36M108 36h6v6H108V36M120 36h6v6H120V36M132 36h6v6H132V36M156 36h6v6H156V36M168 36h6v6H168V36M174 36h6v6H174V36M180 36h6v6H180V36M192 36h6v6H192V36M24 42h6v6H24V42M36 42h6v6H36V42M42 42h6v6H42V42M48 42h6v6H48V42M60 42h6v6H60V42M84 42h6v6H84V42M90 42h6v6H90V42M102 42h6v6H102V42M108 42h6v6H108V42M114 42h6v6H114V42M132 42h6v6H132V42M138 42h6v6H138V42M156 42h6v6H156V42M168 42h6v6H168V42M174 42h6v6H174V42M180 42h6v6H180V42M192 42h6v6H192V42M24 48h6v6H24V48M36 48h6v6H36V48M42 48h6v6H42V48M48 48h6v6H48V48M60 48h6v6H60V48M72 48h6v6H72V48M78 48h6v6H78V48M90 48h6v6H90V48M96 48h6v6H96V48M108 48h6v6H108V48M126 48h6v6H126V48M132 48h6v6H132V48M138 48h6v6H138V48M156 48h6v6H156V48M168 48h6v6H168V48M174 48h6v6H174V48M180 48h6v6H180V48M192 48h6v6H192V48M24 54h6v6H24V54M60 54h6v6H60V54M84 54h6v6H84V54M90 54h6v6H90V54M102 54h6v6H102V54M126 54h6v6H126V54M138 54h6v6H138V54M156 54h6v6H156V54M192 54h6v6H192V54M24 60h6v6H24V60M30 60h6v6H30V60M36 60h6v6H36V60M42 60h6v6H42V60M48 60h6v6H48V60M54 60h6v6H54V60M60 60h6v6H60V60M72 60h6v6H72V60M84 60h6v6H84V60M96 60h6v6H96V60M108 60h6v6H108V60M120 60h6v6H120V60M132 60h6v6H132V60M144 60h6v6H144V60M156 60h6v6H156V60M162 60h6v6H162V60M168 60h6v6H168V60M174 60h6v6H174V60M180 60h6v6H180V60M186 60h6v6H186V60M192 60h6v6H192V60M84 66h6v6H84V66M102 66h6v6H102V66M108 66h6v6H108V66M120 66h6v6H120V66M126 66h6v6H126V66M144 66h6v6H144V66M24 72h6v6H24V72M36 72h6v6H36V72M48 72h6v6H48V72M60 72h6v6H60V72M78 72h6v6H78V72M84 72h6v6H84V72M96 72h6v6H96V72M108 72h6v6H108V72M114 72h6v6H114V72M126 72h6v6H126V72M138 72h6v6H138V72M144 72h6v6H144V72M168 72h6v6H168V72M186 72h6v6H186V72M24 78h6v6H24V78M48 78h6v6H48V78M66 78h6v6H66V78M78 78h6v6H78V78M90 78h6v6H90V78M96 78h6v6H96V78M108 78h6v6H108V78M114 78h6v6H114V78M144 78h6v6H144V78M150 78h6v6H150V78M156 78h6v6H156V78M174 78h6v6H174V78M192 78h6v6H192V78M24 84h6v6H24V84M54 84h6v6H54V84M60 84h6v6H60V84M84 84h6v6H84V84M96 84h6v6H96V84M102 84h6v6H102V84M126 84h6v6H126V84M156 84h6v6H156V84M162 84h6v6H162V84M180 84h6v6H180V84M186 84h6v6H186V84M192 84h6v6H192V84M42 90h6v6H42V90M48 90h6v6H48V90M66 90h6v6H66V90M72 90h6v6H72V90M84 90h6v6H84V90M90 90h6v6H90V90M96 90h6v6H96V90M114 90h6v6H114V90M126 90h6v6H126V90M132 90h6v6H132V90M144 90h6v6H144V90M156 90h6v6H156V90M162 90h6v6H162V90M174 90h6v6H174V90M186 90h6v6H186V90M36 96h6v6H36V96M54 96h6v6H54V96M60 96h6v6H60V96M72 96h6v6H72V96M78 96h6v6H78V96M96 96h6v6H96V96M120 96h6v6H120V96M126 96h6v6H126V96M138 96h6v6H138V96M144 96h6v6H144V96M150 96h6v6H150V96M156 96h6v6H156V96M162 96h6v6H162V96M174 96h6v6H174V96M186 96h6v6H186V96M192 96h6v6H192V96M24 102h6v6H24V102M36 102h6v6H36V102M42 102h6v6H42V102M54 102h6v6H54V102M72 102h6v6H72V102M84 102h6v6H84V102M90 102h6v6H90V102M96 102h6v6H96V102M102 102h6v6H102V102M114 102h6v6H114V102M120 102h6v6H120V102M126 102h6v6H126V102M132 102h6v6H132V102M144 102h6v6H144V102M150 102h6v6H150V102M156 102h6v6H156V102M174 102h6v6H174V102M180 102h6v6H180V102M192 102h6v6H192V102M24 108h6v6H24V108M48 108h6v6H48V108M54 108h6v6H54V108M60 108h6v6H60V108M72 108h6v6H72V108M78 108h6v6H78V108M84 108h6v6H84V108M108 108h6v6H108V108M114 108h6v6H114V108M120 108h6v6H120V108M126 108h6v6H126V108M132 108h6v6H132V108M156 108h6v6H156V108M168 108h6v6H168V108M186 108h6v6H186V108M192 108h6v6H192V108M30 114h6v6H30V114M42 114h6v6H42V114M54 114h6v6H54V114M66 114h6v6H66V114M84 114h6v6H84V114M102 114h6v6H102V114M108 114h6v6H108V114M120 114h6v6H120V114M126 114h6v6H126V114M132 114h6v6H132V114M138 114h6v6H138V114M144 114h6v6H144V114M174 114h6v6H174V114M186 114h6v6H186V114M36 120h6v6H36V120M54 120h6v6H54V120M60 120h6v6H60V120M84 120h6v6H84V120M90 120h6v6H90V120M96 120h6v6H96V120M108 120h6v6H108V120M114 120h6v6H114V120M126 120h6v6H126V120M132 120h6v6H132V120M144 120h6v6H144V120M150 120h6v6H150V120M156 120h6v6H156V120M186 120h6v6H186V120M192 120h6v6H192V120M36 126h6v6H36V126M42 126h6v6H42V126M48 126h6v6H48V126M54 126h6v6H54V126M84 126h6v6H84V126M108 126h6v6H108V126M114 126h6v6H114V126M144 126h6v6H144V126M156 126h6v6H156V126M180 126h6v6H180V126M192 126h6v6H192V126M24 132h6v6H24V132M36 132h6v6H36V132M48 132h6v6H48V132M54 132h6v6H54V132M60 132h6v6H60V132M66 132h6v6H66V132M84 132h6v6H84V132M96 132h6v6H96V132M102 132h6v6H102V132M126 132h6v6H126V132M144 132h6v6H144V132M156 132h6v6H156V132M174 132h6v6H174V132M186 132h6v6H186V132M192 132h6v6H192V132M30 138h6v6H30V138M36 138h6v6H36V138M42 138h6v6H42V138M54 138h6v6H54V138M72 138h6v6H72V138M78 138h6v6H78V138M84 138h6v6H84V138M114 138h6v6H114V138M126 138h6v6H126V138M144 138h6v6H144V138M150 138h6v6H150V138M168 138h6v6H168V138M174 138h6v6H174V138M186 138h6v6H186V138M24 144h6v6H24V144M36 144h6v6H36V144M48 144h6v6H48V144M60 144h6v6H60V144M78 144h6v6H78V144M90 144h6v6H90V144M120 144h6v6H120V144M126 144h6v6H126V144M138 144h6v6H138V144M144 144h6v6H144V144M150 144h6v6H150V144M156 144h6v6H156V144M162 144h6v6H162V144M168 144h6v6H168V144M72 150h6v6H72V150M78 150h6v6H78V150M90 150h6v6H90V150M96 150h6v6H96V150M102 150h6v6H102V150M114 150h6v6H114V150M120 150h6v6H120V150M138 150h6v6H138V150M144 150h6v6H144V150M168 150h6v6H168V150M180 150h6v6H180V150M186 150h6v6H186V150M192 150h6v6H192V150M24 156h6v6H24V156M30 156h6v6H30V156M36 156h6v6H36V156M42 156h6v6H42V156M48 156h6v6H48V156M54 156h6v6H54V156M60 156h6v6H60V156M96 156h6v6H96V156M108 156h6v6H108V156M114 156h6v6H114V156M120 156h6v6H120V156M126 156h6v6H126V156M138 156h6v6H138V156M144 156h6v6H144V156M156 156h6v6H156V156M168 156h6v6H168V156M174 156h6v6H174V156M186 156h6v6H186V156M192 156h6v6H192V156M24 162h6v6H24V162M60 162h6v6H60V162M78 162h6v6H78V162M84 162h6v6H84V162M90 162h6v6H90V162M102 162h6v6H102V162M108 162h6v6H108V162M120 162h6v6H120V162M126 162h6v6H126V162M132 162h6v6H132V162M144 162h6v6H144V162M168 162h6v6H168V162M186 162h6v6H186V162M192 162h6v6H192V162M24 168h6v6H24V168M36 168h6v6H36V168M42 168h6v6H42V168M48 168h6v6H48V168M60 168h6v6H60V168M72 168h6v6H72V168M78 168h6v6H78V168M84 168h6v6H84V168M96 168h6v6H96V168M108 168h6v6H108V168M114 168h6v6H114V168M120 168h6v6H120V168M126 168h6v6H126V168M144 168h6v6H144V168M150 168h6v6H150V168M156 168h6v6H156V168M162 168h6v6H162V168M168 168h6v6H168V168M186 168h6v6H186V168M24 174h6v6H24V174M36 174h6v6H36V174M42 174h6v6H42V174M48 174h6v6H48V174M60 174h6v6H60V174M84 174h6v6H84V174M90 174h6v6H90V174M102 174h6v6H102V174M108 174h6v6H108V174M114 174h6v6H114V174M126 174h6v6H126V174M132 174h6v6H132V174M138 174h6v6H138V174M144 174h6v6H144V174M162 174h6v6H162V174M168 174h6v6H168V174M180 174h6v6H180V174M24 180h6v6H24V180M36 180h6v6H36V180M42 180h6v6H42V180M48 180h6v6H48V180M60 180h6v6H60V180M72 180h6v6H72V180M78 180h6v6H78V180M84 180h6v6H84V180M90 180h6v6H90V180M126 180h6v6H126V180M132 180h6v6H132V180M138 180h6v6H138V180M162 180h6v6H162V180M168 180h6v6H168V180M180 180h6v6H180V180M192 180h6v6H192V180M24 186h6v6H24V186M60 186h6v6H60V186M84 186h6v6H84V186M90 186h6v6H90V186M96 186h6v6H96V186M120 186h6v6H120V186M126 186h6v6H126V186M138 186h6v6H138V186M144 186h6v6H144V186M186 186h6v6H186V186M24 192h6v6H24V192M30 192h6v6H30V192M36 192h6v6H36V192M42 192h6v6H42V192M48 192h6v6H48V192M54 192h6v6H54V192M60 192h6v6H60V192M72 192h6v6H72V192M78 192h6v6H78V192M84 192h6v6H84V192M108 192h6v6H108V192M120 192h6v6H120V192M126 192h6v6H126V192M144 192h6v6H144V192M150 192h6v6H150V192M156 192h6v6H156V192M168 192h6v6H168V192M186 192h6v6H186V192M192 192h6v6H192V192"/></svg>