<?xml version="1.0" encoding="UTF-8"?>
<svg id="Layer_1" data-name="Layer 1" xmlns="http://www.w3.org/2000/svg" viewBox="98.93 42.7825 304.76 398.6075">
  <defs>
    <style>
      .cls-1 {
        fill-rule: evenodd;
      }
    </style>
  </defs>
  <path class="cls-1" d="M246.42,43.69c2.48-1.21,5.38-1.21,7.85,0l142.19,69.7c4.42,2.17,6.41,5.56,4.24,9.98-2.17,4.42-7.67,8.21-12.09,6.04L250.35,61.64,117.08,126.96v215.8h133.26c4.93,0,8.92,3.99,8.92,8.92s-3.99,8.92-8.92,8.92H108.16c-4.93,0-8.92-3.99-8.92-8.92V121.4c0-3.4,1.94-6.51,4.99-8.01L246.42,43.69h0Z"/>
  <path class="cls-1" d="M246.42,43.69c2.48-1.21,5.38-1.21,7.85,0l142.19,69.7c4.42,2.17,6.41,5.56,4.24,9.98-2.17,4.42-7.67,8.21-12.09,6.04L250.35,61.64,117.08,126.96v215.8h133.26c4.93,0,8.92,3.99,8.92,8.92s-3.99,8.92-8.92,8.92H108.16c-4.93,0-8.92-3.99-8.92-8.92V121.4c0-3.4,1.94-6.51,4.99-8.01L246.42,43.69h0Z"/>
  <path class="cls-1" d="M396.46,113.39c4.75,2.33,7.23,4.76,7.23,9.68v228.61c0,4.93-3.99,8.92-8.92,8.92s-8.92-3.99-8.92-8.92V123.07c0-4.93,5.69-9.68,10.62-9.68ZM251.46,309.06l-49.81-24.12c-3.6-1.74-7.94-.24-9.68,3.37-1.74,3.6-.24,7.94,3.37,9.68l52.91,25.62c1,.5,2.1.76,3.22.76,1.12,0,2.22-.26,3.22-.76l105.88-51.27c3.6-1.74,5.11-6.08,3.37-9.68-1.74-3.6-6.08-5.11-9.68-3.37l-102.78,49.77h0Z"/>
  <path class="cls-1" d="M251.46,189.03c4.93-.02,8.34.97,8.36,5.89l1.12,156.72c.02,4.93-3.95,8.94-8.88,8.96-4.93.02-8.94-3.95-8.96-8.88l-1.12-156.72c-.02-4.93,4.55-5.96,9.48-5.98h0Z"/>
  <path class="cls-1" d="M251.46,248.84l-49.81-24.12c-3.6-1.74-7.94-.24-9.68,3.37-1.74,3.6-.24,7.94,3.37,9.68l52.91,25.62c1,.5,2.1.76,3.22.76,1.12,0,2.22-.26,3.22-.76l105.88-51.27c3.6-1.74,5.11-6.08,3.37-9.68-1.74-3.6-6.08-5.11-9.68-3.37l-102.78,49.77h0ZM251.37,188.02l-49.72-24.08c-3.6-1.74-7.94-.24-9.68,3.37-1.74,3.6-.24,7.94,3.37,9.68l52.9,25.61c1.94.97,4.22,1.02,6.2.12.14-.06.27-.13.41-.2l141.55-72.45c3.56-1.82,4.97-6.19,3.15-9.76-1.82-3.56-6.19-4.97-9.76-3.15l-138.41,70.84h0Z"/>
  <g>
    <path d="M113.33,441.37c-2.86,0-5.37-.82-7.53-2.45-2.16-1.63-3.85-3.93-5.06-6.9-1.21-2.97-1.81-6.49-1.81-10.56s.6-7.48,1.81-10.45c1.21-2.97,2.94-5.29,5.2-6.96,2.26-1.67,4.96-2.5,8.11-2.5,3.81,0,6.88,1.04,9.21,3.13,2.33,2.09,3.75,5.04,4.26,8.86h-6.32c-.37-1.98-1.16-3.56-2.39-4.73-1.23-1.17-2.81-1.76-4.76-1.76-2.97,0-5.24,1.28-6.82,3.85-1.58,2.57-2.36,6.09-2.36,10.56s.83,8.22,2.5,10.7c1.67,2.48,3.84,3.71,6.52,3.71,1.8,0,3.28-.53,4.46-1.59,1.17-1.06,2.07-2.43,2.7-4.1.62-1.67,1.01-3.44,1.16-5.31h-8.09v-4.84h13.97v20.68h-5.39l-.39-5.17h-.33c-.73,1.69-1.76,3.08-3.08,4.18-1.32,1.1-3.17,1.65-5.56,1.65Z"/>
    <path d="M132.03,440.71v-5.06h6.65v-15.35c0-1.21-.59-1.81-1.76-1.81h-4.34v-5.06h6.55c1.5,0,2.73.43,3.68,1.29.95.86,1.43,2.06,1.43,3.6v.66h.27c.4-2.05,1.27-3.6,2.61-4.65,1.34-1.05,3.29-1.57,5.86-1.57h4.24v6.16h-5.94c-2.16,0-3.83.75-5.01,2.25-1.17,1.5-1.76,3.3-1.76,5.39v9.08h8.47v5.06h-20.95Z"/>
    <path d="M173.22,441.37c-2.64,0-4.97-.6-6.99-1.79-2.02-1.19-3.59-2.85-4.73-4.98-1.14-2.13-1.71-4.6-1.71-7.42s.56-5.37,1.68-7.54c1.12-2.16,2.7-3.85,4.73-5.06,2.04-1.21,4.39-1.82,7.07-1.82s4.91.6,6.82,1.79c1.91,1.19,3.38,2.78,4.43,4.76,1.04,1.98,1.57,4.16,1.57,6.54v1.18c0,.42-.02.89-.05,1.4h-20.52c.18,2.53,1.01,4.45,2.48,5.75,1.47,1.3,3.19,1.95,5.17,1.95,1.72,0,3.09-.36,4.1-1.07,1.01-.71,1.75-1.7,2.23-2.94h5.89c-.66,2.6-2.04,4.79-4.12,6.57-2.09,1.78-4.77,2.67-8.03,2.67ZM173.22,417.83c-1.8,0-3.39.54-4.79,1.62-1.39,1.08-2.29,2.59-2.69,4.54h14.52c-.15-1.83-.86-3.32-2.15-4.46-1.28-1.14-2.92-1.71-4.9-1.71Z"/>
    <path d="M203.69,441.37c-2.64,0-4.97-.6-6.99-1.79-2.02-1.19-3.59-2.85-4.73-4.98-1.14-2.13-1.71-4.6-1.71-7.42s.56-5.37,1.68-7.54c1.12-2.16,2.7-3.85,4.73-5.06,2.04-1.21,4.39-1.82,7.07-1.82s4.91.6,6.82,1.79c1.91,1.19,3.38,2.78,4.43,4.76,1.04,1.98,1.57,4.16,1.57,6.54v1.18c0,.42-.02.89-.05,1.4h-20.52c.18,2.53,1.01,4.45,2.48,5.75,1.47,1.3,3.19,1.95,5.17,1.95,1.72,0,3.09-.36,4.1-1.07,1.01-.71,1.75-1.7,2.23-2.94h5.89c-.66,2.6-2.04,4.79-4.12,6.57-2.09,1.78-4.77,2.67-8.03,2.67ZM203.69,417.83c-1.8,0-3.39.54-4.79,1.62-1.39,1.08-2.29,2.59-2.69,4.54h14.52c-.15-1.83-.86-3.32-2.15-4.46-1.28-1.14-2.92-1.71-4.9-1.71Z"/>
    <path d="M221.62,440.71v-27.28h5.06l.49,4.07h.28c.73-1.32,1.87-2.44,3.41-3.36,1.54-.92,3.32-1.38,5.33-1.38,3.34,0,5.85,1.01,7.53,3.03,1.69,2.02,2.53,4.99,2.53,8.91v16h-5.83v-15.29c0-2.27-.48-4.03-1.43-5.28-.95-1.25-2.46-1.87-4.51-1.87s-3.69.68-5.03,2.04c-1.34,1.36-2.01,3.32-2.01,5.89v14.52h-5.83Z"/>
    <path d="M251.81,440.71v-39.6h5.83v16.39c.73-1.36,1.91-2.48,3.52-3.38,1.61-.9,3.43-1.35,5.45-1.35,3.37,0,5.94,1.02,7.7,3.05s2.64,4.96,2.64,8.77v16.12h-5.83v-15.29c0-2.27-.55-4.03-1.65-5.28-1.1-1.25-2.62-1.87-4.56-1.87s-3.73.68-5.14,2.04c-1.41,1.36-2.12,3.32-2.12,5.89v14.52h-5.83Z"/>
    <path d="M294.77,441.37c-2.6,0-4.93-.59-6.99-1.76-2.05-1.17-3.67-2.83-4.84-4.98-1.17-2.15-1.76-4.67-1.76-7.56s.59-5.42,1.76-7.56c1.17-2.15,2.79-3.8,4.84-4.98,2.05-1.17,4.4-1.76,7.04-1.76s4.98.59,7.01,1.76c2.04,1.17,3.63,2.83,4.79,4.98,1.16,2.14,1.73,4.67,1.73,7.56s-.59,5.42-1.76,7.56c-1.17,2.14-2.78,3.8-4.81,4.98-2.03,1.17-4.37,1.76-7.01,1.76ZM294.77,435.82c1.39,0,2.68-.31,3.85-.94,1.17-.62,2.12-1.59,2.83-2.89.71-1.3,1.07-2.94,1.07-4.92s-.36-3.67-1.07-4.95c-.72-1.28-1.65-2.24-2.81-2.86-1.16-.62-2.43-.93-3.82-.93s-2.68.31-3.85.93c-1.17.62-2.12,1.58-2.83,2.86-.72,1.28-1.07,2.93-1.07,4.95,0,3.01.76,5.22,2.28,6.63,1.52,1.41,3.33,2.12,5.42,2.12Z"/>
    <path d="M322.82,441.37c-3.3,0-5.8-1.02-7.51-3.05s-2.56-5-2.56-8.88v-16h5.83v15.29c0,2.24.49,3.99,1.46,5.25.97,1.26,2.47,1.9,4.48,1.9s3.7-.68,5.06-2.04c1.36-1.36,2.03-3.32,2.03-5.88v-14.52h5.83v27.28h-5.06l-.49-4.07h-.28c-.73,1.32-1.87,2.44-3.41,3.36s-3.34,1.38-5.39,1.38Z"/>
    <path d="M355.93,441.37c-3.59,0-6.45-.84-8.58-2.53-2.13-1.69-3.34-3.92-3.63-6.71h5.99c.22,1.28.87,2.33,1.95,3.13,1.08.81,2.52,1.21,4.32,1.21s3.05-.36,3.99-1.07,1.4-1.55,1.4-2.5c0-1.39-.56-2.35-1.68-2.86-1.12-.51-2.76-.9-4.92-1.16-1.87-.22-3.57-.65-5.09-1.29-1.52-.64-2.72-1.52-3.6-2.64-.88-1.12-1.32-2.52-1.32-4.21,0-2.38.94-4.31,2.81-5.78,1.87-1.47,4.47-2.2,7.81-2.2s5.92.75,7.76,2.26c1.83,1.5,2.9,3.56,3.19,6.16h-5.61c-.15-1.1-.71-1.97-1.7-2.61-.99-.64-2.22-.96-3.69-.96s-2.7.28-3.57.85c-.88.57-1.32,1.31-1.32,2.23,0,1.98,2.13,3.19,6.38,3.63,2.02.22,3.81.6,5.39,1.13,1.58.53,2.82,1.36,3.74,2.48.92,1.12,1.38,2.69,1.38,4.7.04,1.65-.43,3.13-1.4,4.46-.97,1.32-2.31,2.37-4.01,3.13-1.71.77-3.69,1.16-5.97,1.16Z"/>
    <path d="M386.51,441.37c-2.64,0-4.97-.6-6.99-1.79-2.02-1.19-3.59-2.85-4.73-4.98-1.14-2.13-1.71-4.6-1.71-7.42s.56-5.37,1.68-7.54c1.12-2.16,2.7-3.85,4.73-5.06,2.04-1.21,4.39-1.82,7.07-1.82s4.91.6,6.82,1.79c1.91,1.19,3.38,2.78,4.43,4.76,1.04,1.98,1.57,4.16,1.57,6.54v1.18c0,.42-.02.89-.05,1.4h-20.52c.18,2.53,1.01,4.45,2.48,5.75,1.47,1.3,3.19,1.95,5.17,1.95,1.72,0,3.09-.36,4.1-1.07,1.01-.71,1.75-1.7,2.23-2.94h5.89c-.66,2.6-2.04,4.79-4.12,6.57-2.09,1.78-4.77,2.67-8.03,2.67ZM386.51,417.83c-1.8,0-3.39.54-4.79,1.62-1.39,1.08-2.29,2.59-2.69,4.54h14.52c-.15-1.83-.86-3.32-2.15-4.46-1.28-1.14-2.92-1.71-4.9-1.71Z"/>
  </g>
</svg>
