<?xml version="1.0" encoding="UTF-8"?>
<svg id="Layer_1" data-name="Layer 1" xmlns="http://www.w3.org/2000/svg" xmlns:xlink="http://www.w3.org/1999/xlink" viewBox="88.08 42.78 323.83997 393.65">
  <defs>
    <style>
      .cls-1 {
        mask: url(#mask);
      }

      .cls-2 {
        fill: #004a82;
      }

      .cls-3 {
        isolation: isolate;
      }

      .cls-4 {
        fill: #fff;
      }

      .cls-5 {
        fill: #0077ba;
      }
    </style>
    <mask id="mask" x="92.13" y="46.83" width="315.75" height="315.75" maskUnits="userSpaceOnUse">
      <g id="mask-1he0h8_xwz-2" data-name="mask-1he0h8 xwz-2">
        <rect id="path-1he0h8_xwz-1" data-name="path-1he0h8 xwz-1" class="cls-4" x="92.13" y="46.83" width="315.75" height="315.75" rx="8" ry="8"/>
      </g>
    </mask>
  </defs>
  <g id="Page-1">
    <g id="ironcore">
      <rect id="Rectangle" class="cls-4" x="88.08" y="42.78" width="323.84" height="323.84"/>
      <g id="Path">
        <g id="Mask">
          <rect id="path-3ulh_37f8a-1" data-name="path-3ulh 37f8a-1" class="cls-5" x="92.13" y="46.83" width="315.75" height="315.75" rx="8" ry="8"/>
        </g>
        <g id="Clipped">
          <g class="cls-1">
            <polygon id="Path-2" data-name="Path" class="cls-2" points="170.52 131.87 170.52 208.52 287.11 208.52 287.11 249.75 331.66 249.75 186.92 362.58 92.13 362.58 92.13 193.38 170.52 131.87"/>
          </g>
        </g>
      </g>
      <g id="Group">
        <g id="_1" data-name="+1">
          <polygon id="Path-3" data-name="Path" class="cls-4" points="377.63 79.7 383.12 79.7 383.12 75.86 377.63 75.86 377.63 70.18 373.67 70.18 373.67 75.86 368.19 75.86 368.19 79.7 373.67 79.7 373.67 85.53 377.63 85.53 377.63 79.7"/>
          <polygon id="Path-4" data-name="Path" class="cls-4" points="395.06 85.69 395.06 66.26 390.44 66.26 385.85 69.49 385.85 73.62 390.21 70.56 390.44 70.56 390.44 85.69 395.06 85.69"/>
        </g>
        <g id="Fe">
          <polygon id="Path-5" data-name="Path" class="cls-4" points="200.14 254.9 200.14 208.47 247.71 208.47 247.71 185.38 200.14 185.38 200.14 155.66 252.46 155.66 252.46 131.87 170.52 131.87 170.52 254.9 200.14 254.9"/>
          <path id="Shape" class="cls-4" d="M304.66,256.66c7.12,0,13.26-.96,18.44-2.89,5.18-1.93,9.47-4.49,12.86-7.68,3.4-3.19,5.99-6.7,7.79-10.52s2.89-7.63,3.26-11.42h-26.11c-.38,2.38-1.31,4.42-2.81,6.13-1.49,1.7-3.39,3.01-5.67,3.91-2.29.9-4.87,1.35-7.73,1.35-4.95,0-9.11-1.75-12.51-5.24-3.39-3.5-5.09-8.31-5.09-14.44v-3.23h60.56v-9.68c0-9.47-1.81-17.65-5.44-24.53-3.63-6.88-8.74-12.19-15.34-15.92-6.6-3.73-14.37-5.6-23.33-5.6-8.45,0-16.03,1.73-22.73,5.19s-12,8.58-15.89,15.35c-3.89,6.77-5.84,15.14-5.84,25.11v7.68c0,10.2,1.91,18.75,5.74,25.64,3.83,6.89,9.17,12.09,16.02,15.57,6.85,3.49,14.79,5.23,23.8,5.23ZM287.11,196.06v-.09c0-3.57.7-6.75,2.1-9.55s3.35-5.01,5.85-6.62,5.42-2.42,8.74-2.42,6.18.81,8.62,2.42c2.44,1.61,4.34,3.82,5.69,6.62s2.02,5.98,2.02,9.55v.09h-33.02Z"/>
        </g>
        <g id="_26" data-name="26">
          <path id="Path-6" data-name="Path" class="cls-4" d="M106.31,72.33v-.3c0-1.3.93-2.46,2.49-2.46,1.42,0,2.49,1.02,2.49,2.33,0,1.48-1.12,2.66-2.13,3.7l-6.97,7.22v2.87h14v-3.7h-7.68v-.21l3.91-4.17c1.59-1.68,3.47-3.34,3.47-6.18,0-3.13-2.75-5.51-7-5.51-4.82,0-6.97,3.17-6.97,6.15v.26h4.4Z"/>
          <path id="Shape-2" data-name="Shape" class="cls-4" d="M134.31,71.09c-.13-2.35-2.33-5.15-6.89-5.15-5.02,0-8.11,3.47-8.11,10.37,0,2.79.56,4.88,1.48,6.4,1.44,2.36,3.8,3.33,6.46,3.33,4.3,0,7.46-2.53,7.46-6.89,0-4.13-3-6.22-6.12-6.22-2.49,0-3.91,1.25-4.53,2.56h-.28c-.13-3.12,1.15-5.98,3.61-5.98,1.38,0,2.25.74,2.55,1.57h4.37ZM124.27,79.34c0-1.79,1.2-3.06,2.99-3.06,1.65,0,2.96,1.11,2.96,3.06s-1.24,3.13-2.97,3.13-2.97-1.21-2.97-3.13Z"/>
        </g>
        <g id="_55.8457" data-name="55.8457">
          <path id="Path-7" data-name="Path" class="cls-4" d="M101.66,341.75c.12,1.9,1.83,3.28,4.22,3.28,2.73,0,4.59-1.82,4.59-4.5s-1.88-4.17-4.14-4.17c-1.43,0-2.33.69-2.6,1.11h-.09l.35-4.15h5.83v-1.51h-7.31l-.58,7.44h1.48c.35-.64,1.2-1.42,2.54-1.42,1.46,0,2.76,1.04,2.76,2.75,0,1.94-1.4,2.97-2.73,2.97-1.19,0-2.4-.51-2.66-1.8h-1.67Z"/>
          <path id="Path-8" data-name="Path" class="cls-4" d="M113.03,341.75c.12,1.9,1.83,3.28,4.22,3.28,2.73,0,4.59-1.82,4.59-4.5s-1.88-4.17-4.14-4.17c-1.43,0-2.33.69-2.6,1.11h-.09l.35-4.15h5.83v-1.51h-7.31l-.58,7.44h1.48c.35-.64,1.2-1.42,2.54-1.42,1.46,0,2.76,1.04,2.76,2.75,0,1.94-1.4,2.97-2.73,2.97-1.19,0-2.4-.51-2.66-1.8h-1.67Z"/>
          <path id="Path-9" data-name="Path" class="cls-4" d="M124.16,343.6c0,.77.61,1.34,1.36,1.34.79,0,1.39-.57,1.39-1.34,0-.81-.6-1.38-1.39-1.38s-1.36.57-1.36,1.38Z"/>
          <path id="Shape-3" data-name="Shape" class="cls-4" d="M134.2,345.03c2.7,0,4.65-1.56,4.65-3.81,0-2.01-1.52-2.98-2.62-3.24v-.09c.87-.28,2.13-1.16,2.13-2.88,0-2-1.73-3.45-4.11-3.45s-4.11,1.45-4.11,3.45c0,1.7,1.2,2.58,2.11,2.88v.09c-1.08.27-2.62,1.22-2.62,3.26,0,2.26,1.89,3.8,4.57,3.8ZM134.25,337.31c-1.39,0-2.43-.89-2.43-2.17s1.03-2.13,2.43-2.13,2.41.85,2.41,2.13-1.01,2.17-2.41,2.17ZM134.25,343.6c-1.65,0-2.91-.99-2.91-2.44s1.26-2.46,2.91-2.46,2.89,1.01,2.89,2.46-1.24,2.44-2.89,2.44Z"/>
          <path id="Shape-4" data-name="Shape" class="cls-4" d="M146.32,331.81c-1.84,2.92-3.77,5.84-5.38,8.77v1.53h6.29v2.66h1.67v-2.66h1.68v-1.52h-1.68v-8.78h-2.58ZM142.67,340.59v-.09c1.36-2.38,2.96-4.93,4.47-7.19h.09v7.28h-4.56Z"/>
          <path id="Path-10" data-name="Path" class="cls-4" d="M152.83,341.75c.12,1.9,1.83,3.28,4.22,3.28,2.73,0,4.59-1.82,4.59-4.5s-1.88-4.17-4.14-4.17c-1.43,0-2.33.69-2.6,1.11h-.09l.35-4.15h5.83v-1.51h-7.31l-.58,7.44h1.48c.35-.64,1.2-1.42,2.54-1.42,1.46,0,2.76,1.04,2.76,2.75,0,1.94-1.4,2.97-2.73,2.97-1.19,0-2.4-.51-2.66-1.8h-1.67Z"/>
          <polygon id="Path-11" data-name="Path" class="cls-4" points="163.68 331.81 163.68 333.33 170.19 333.33 170.19 333.44 164.83 344.76 166.66 344.76 171.97 333.39 171.97 331.81 163.68 331.81"/>
        </g>
        <g id="IronCore" class="cls-3">
          <g class="cls-3">
            <path class="cls-4" d="M103.54,299.29h4.35v20.98h-4.35v-20.98Z"/>
            <path class="cls-4" d="M119.45,308.49c-1.63,0-2.73.53-3.29,1.59-.31.6-.47,1.52-.47,2.76v7.41h-4.08v-15.51h3.87v2.7c.63-1.03,1.17-1.74,1.64-2.12.76-.64,1.75-.95,2.96-.95.08,0,.14,0,.19,0s.17.01.35.02v4.16c-.26-.03-.48-.05-.68-.06-.2,0-.36-.01-.48-.01Z"/>
            <path class="cls-4" d="M135.93,306.72c1.31,1.64,1.96,3.58,1.96,5.82s-.65,4.22-1.96,5.84c-1.31,1.62-3.3,2.43-5.96,2.43s-4.65-.81-5.96-2.43c-1.31-1.62-1.96-3.56-1.96-5.84s.65-4.18,1.96-5.82c1.31-1.64,3.3-2.46,5.96-2.46s4.65.82,5.96,2.46ZM129.96,307.68c-1.19,0-2.1.42-2.74,1.26s-.96,2.04-.96,3.59.32,2.76.96,3.6,1.55,1.27,2.74,1.27,2.1-.42,2.73-1.27.95-2.04.95-3.6-.32-2.75-.95-3.59-1.55-1.26-2.73-1.26Z"/>
            <path class="cls-4" d="M148.1,307.75c-1.38,0-2.32.58-2.83,1.75-.27.62-.4,1.4-.4,2.36v8.4h-4.04v-15.48h3.91v2.26c.52-.8,1.01-1.37,1.48-1.72.83-.63,1.89-.94,3.17-.94,1.6,0,2.92.42,3.94,1.26,1.02.84,1.53,2.23,1.53,4.18v10.45h-4.16v-9.44c0-.82-.11-1.44-.33-1.88-.4-.8-1.16-1.2-2.28-1.2Z"/>
          </g>
          <g class="cls-3">
            <g>
              <path class="cls-5" d="M173.73,318.7c-1.57,1.43-3.57,2.15-6.01,2.15-3.02,0-5.39-.97-7.12-2.9-1.73-1.95-2.59-4.61-2.59-8,0-3.66.98-6.49,2.95-8.47,1.71-1.73,3.88-2.59,6.52-2.59,3.53,0,6.11,1.16,7.74,3.47.9,1.3,1.39,2.6,1.45,3.91h-4.38c-.28-1.01-.65-1.76-1.1-2.28-.8-.91-1.98-1.37-3.54-1.37s-2.85.64-3.77,1.93c-.92,1.29-1.38,3.1-1.38,5.46s.49,4.12,1.46,5.29c.97,1.17,2.21,1.76,3.71,1.76s2.71-.5,3.52-1.51c.45-.54.82-1.35,1.11-2.43h4.34c-.38,2.29-1.35,4.15-2.9,5.58Z"/>
              <path class="cls-5" d="M192.59,306.72c1.31,1.64,1.96,3.58,1.96,5.82s-.65,4.22-1.96,5.84c-1.31,1.62-3.3,2.43-5.96,2.43s-4.65-.81-5.96-2.43c-1.31-1.62-1.96-3.56-1.96-5.84s.65-4.18,1.96-5.82c1.31-1.64,3.3-2.46,5.96-2.46s4.65.82,5.96,2.46ZM186.61,307.68c-1.19,0-2.1.42-2.74,1.26s-.96,2.04-.96,3.59.32,2.76.96,3.6,1.55,1.27,2.74,1.27,2.1-.42,2.73-1.27.95-2.04.95-3.6-.32-2.75-.95-3.59-1.55-1.26-2.73-1.26Z"/>
              <path class="cls-5" d="M205.26,308.49c-1.63,0-2.73.53-3.29,1.59-.31.6-.47,1.52-.47,2.76v7.41h-4.08v-15.51h3.87v2.7c.63-1.03,1.17-1.74,1.64-2.12.76-.64,1.75-.95,2.96-.95.08,0,.14,0,.19,0s.17.01.35.02v4.16c-.26-.03-.48-.05-.68-.06-.2,0-.36-.01-.48-.01Z"/>
              <path class="cls-5" d="M222.08,315.71c-.1.92-.58,1.85-1.44,2.8-1.33,1.51-3.19,2.26-5.58,2.26-1.97,0-3.71-.64-5.22-1.91s-2.26-3.34-2.26-6.21c0-2.68.68-4.74,2.04-6.18,1.36-1.43,3.13-2.15,5.3-2.15,1.29,0,2.45.24,3.49.73,1.03.48,1.89,1.25,2.56,2.29.61.92,1,1.99,1.18,3.2.1.71.15,1.74.13,3.07h-10.62c.06,1.56.55,2.65,1.47,3.27.56.39,1.23.58,2.02.58.83,0,1.51-.24,2.04-.71.28-.26.54-.61.75-1.07h4.14ZM218.06,310.96c-.07-1.07-.39-1.89-.97-2.44s-1.31-.83-2.17-.83c-.94,0-1.67.29-2.18.88-.52.59-.84,1.39-.97,2.39h6.3Z"/>
            </g>
          </g>
        </g>
      </g>
    </g>
  </g>
  <g>
    <path d="M114.57,435.77v-5.17h8.36v-28.16h-8.25v-5.17h22.33v5.17h-8.25v28.16h8.36v5.17h-22.55Z"/>
    <path d="M142.18,435.77v-5.06h6.65v-15.35c0-1.21-.59-1.81-1.76-1.81h-4.34v-5.06h6.55c1.5,0,2.73.43,3.68,1.29.95.86,1.43,2.06,1.43,3.6v.66h.27c.4-2.05,1.27-3.6,2.61-4.65,1.34-1.05,3.29-1.57,5.86-1.57h4.24v6.16h-5.94c-2.16,0-3.83.75-5.01,2.25-1.17,1.5-1.76,3.3-1.76,5.39v9.08h8.47v5.06h-20.95Z"/>
    <path d="M183.04,436.43c-2.6,0-4.93-.59-6.99-1.76-2.05-1.17-3.67-2.83-4.84-4.98-1.17-2.15-1.76-4.67-1.76-7.56s.59-5.42,1.76-7.56c1.17-2.15,2.79-3.8,4.84-4.98,2.05-1.17,4.4-1.76,7.04-1.76s4.98.59,7.01,1.76c2.04,1.17,3.63,2.83,4.79,4.98,1.16,2.14,1.73,4.67,1.73,7.56s-.59,5.42-1.76,7.56c-1.17,2.14-2.78,3.8-4.81,4.98-2.03,1.17-4.37,1.76-7.01,1.76ZM183.04,430.88c1.39,0,2.68-.31,3.85-.94,1.17-.62,2.12-1.59,2.83-2.89.71-1.3,1.07-2.94,1.07-4.92s-.36-3.67-1.07-4.95c-.72-1.28-1.65-2.24-2.81-2.86-1.16-.62-2.43-.93-3.82-.93s-2.68.31-3.85.93c-1.17.62-2.12,1.58-2.83,2.86-.72,1.28-1.07,2.93-1.07,4.95,0,3.01.76,5.22,2.28,6.63,1.52,1.41,3.33,2.12,5.42,2.12Z"/>
    <path d="M201.3,435.77v-27.28h5.06l.49,4.07h.28c.73-1.32,1.87-2.44,3.41-3.36,1.54-.92,3.32-1.38,5.33-1.38,3.34,0,5.85,1.01,7.53,3.03,1.69,2.02,2.53,4.99,2.53,8.91v16h-5.83v-15.29c0-2.27-.48-4.03-1.43-5.28-.95-1.25-2.46-1.87-4.51-1.87s-3.69.68-5.03,2.04c-1.34,1.36-2.01,3.32-2.01,5.89v14.52h-5.83Z"/>
    <path d="M244.37,436.43c-2.53,0-4.79-.59-6.79-1.76-2-1.17-3.57-2.83-4.7-4.98-1.14-2.15-1.7-4.67-1.7-7.56s.58-5.41,1.73-7.54c1.16-2.13,2.72-3.79,4.7-4.98,1.98-1.19,4.23-1.79,6.76-1.79,3.48,0,6.3.87,8.44,2.61,2.15,1.74,3.51,4.13,4.1,7.18h-6.1c-.37-1.32-1.11-2.36-2.23-3.13-1.12-.77-2.54-1.16-4.26-1.16-1.25,0-2.43.33-3.55.99-1.12.66-2.02,1.64-2.7,2.94-.68,1.3-1.02,2.92-1.02,4.87s.34,3.52,1.02,4.84c.68,1.32,1.58,2.32,2.7,3,1.12.68,2.3,1.02,3.55,1.02,1.76,0,3.17-.38,4.23-1.16,1.06-.77,1.81-1.83,2.26-3.19h6.1c-.73,3.01-2.16,5.39-4.29,7.15-2.13,1.76-4.88,2.64-8.25,2.64Z"/>
    <path d="M274.45,436.43c-2.6,0-4.93-.59-6.99-1.76-2.05-1.17-3.67-2.83-4.84-4.98-1.17-2.15-1.76-4.67-1.76-7.56s.59-5.42,1.76-7.56c1.17-2.15,2.79-3.8,4.84-4.98,2.05-1.17,4.4-1.76,7.04-1.76s4.98.59,7.01,1.76c2.04,1.17,3.63,2.83,4.79,4.98,1.16,2.14,1.73,4.67,1.73,7.56s-.59,5.42-1.76,7.56c-1.17,2.14-2.78,3.8-4.81,4.98-2.03,1.17-4.37,1.76-7.01,1.76ZM274.45,430.88c1.39,0,2.68-.31,3.85-.94,1.17-.62,2.12-1.59,2.83-2.89.71-1.3,1.07-2.94,1.07-4.92s-.36-3.67-1.07-4.95c-.72-1.28-1.65-2.24-2.81-2.86-1.16-.62-2.43-.93-3.82-.93s-2.68.31-3.85.93c-1.17.62-2.12,1.58-2.83,2.86-.72,1.28-1.07,2.93-1.07,4.95,0,3.01.76,5.22,2.28,6.63,1.52,1.41,3.33,2.12,5.42,2.12Z"/>
    <path d="M292.66,435.77v-5.06h6.65v-15.35c0-1.21-.59-1.81-1.76-1.81h-4.34v-5.06h6.55c1.5,0,2.73.43,3.68,1.29.95.86,1.43,2.06,1.43,3.6v.66h.27c.4-2.05,1.27-3.6,2.61-4.65,1.34-1.05,3.29-1.57,5.86-1.57h4.24v6.16h-5.94c-2.16,0-3.83.75-5.01,2.25-1.17,1.5-1.76,3.3-1.76,5.39v9.08h8.47v5.06h-20.95Z"/>
    <path d="M335.72,436.43c-2.64,0-4.97-.6-6.99-1.79-2.02-1.19-3.59-2.85-4.73-4.98-1.14-2.13-1.71-4.6-1.71-7.42s.56-5.37,1.68-7.54c1.12-2.16,2.7-3.85,4.73-5.06,2.04-1.21,4.39-1.82,7.07-1.82s4.91.6,6.82,1.79c1.91,1.19,3.38,2.78,4.43,4.76,1.04,1.98,1.57,4.16,1.57,6.54v1.18c0,.42-.02.89-.05,1.4h-20.52c.18,2.53,1.01,4.45,2.48,5.75,1.47,1.3,3.19,1.95,5.17,1.95,1.72,0,3.09-.36,4.1-1.07,1.01-.71,1.75-1.7,2.23-2.94h5.89c-.66,2.6-2.04,4.79-4.12,6.57-2.09,1.78-4.77,2.67-8.03,2.67ZM335.72,412.89c-1.8,0-3.39.54-4.79,1.62-1.39,1.08-2.29,2.59-2.69,4.54h14.52c-.15-1.83-.86-3.32-2.15-4.46-1.28-1.14-2.92-1.71-4.9-1.71Z"/>
  </g>
</svg>
