<?xml version="1.0" encoding="UTF-8"?>
<svg id="Layer_1" data-name="Layer 1" xmlns="http://www.w3.org/2000/svg" viewBox="14.34 45.57 467.52 448.27">
  <defs>
    <style>
      .cls-1 {
        fill: #028dfa;
      }

      .cls-2 {
        fill: #00baff;
      }

      .cls-3 {
        fill: #1243ed;
      }
    </style>
  </defs>
  <g id="layer1">
    <path id="rect2727" class="cls-3" d="M148.02,45.57h266.47v315.61H98.88V94.72c0-27.14,22-49.14,49.14-49.14Z"/>
  </g>
  <g id="layer2">
    <path id="rect6963" class="cls-1" d="M226.93,125.62h187v236.14h-236.14v-187c0-27.14,22-49.14,49.14-49.14h0Z"/>
  </g>
  <g id="layer3">
    <path id="rect12826" class="cls-2" d="M305.26,202.81h109.24v158.38h-158.38v-109.24c0-27.14,22-49.14,49.14-49.14h0Z"/>
  </g>
  <g>
    <path d="M119.77,422.39c-3.12,0-5.81-.81-8.08-2.42-2.27-1.61-4.01-3.91-5.22-6.88-1.21-2.97-1.82-6.51-1.82-10.62s.61-7.64,1.82-10.62c1.21-2.97,2.95-5.26,5.22-6.88,2.27-1.61,4.97-2.42,8.08-2.42s5.86.81,8.11,2.42c2.25,1.61,3.99,3.91,5.2,6.88,1.21,2.97,1.82,6.51,1.82,10.62s-.61,7.64-1.82,10.62c-1.21,2.97-2.94,5.26-5.2,6.88s-4.96,2.42-8.11,2.42ZM119.77,416.89c2.75,0,4.97-1.24,6.66-3.71,1.69-2.47,2.53-6.04,2.53-10.7s-.84-8.22-2.53-10.7c-1.69-2.48-3.91-3.71-6.66-3.71s-5.01,1.24-6.68,3.71c-1.67,2.47-2.5,6.04-2.5,10.7s.83,8.22,2.5,10.7c1.67,2.48,3.9,3.71,6.68,3.71Z"/>
    <path d="M137.53,433.83v-39.38h5.06l.44,4.18h.33c.73-1.36,1.84-2.5,3.33-3.44,1.49-.94,3.25-1.4,5.31-1.4s4.07.54,5.83,1.62c1.76,1.08,3.16,2.68,4.21,4.79s1.57,4.74,1.57,7.89-.54,5.74-1.62,7.86c-1.08,2.13-2.54,3.73-4.37,4.81-1.83,1.08-3.89,1.62-6.16,1.62-2.02,0-3.7-.4-5.06-1.21-1.36-.81-2.37-1.72-3.03-2.75v15.4h-5.83ZM150.46,416.83c2.05,0,3.77-.73,5.14-2.2s2.06-3.67,2.06-6.6-.69-5.11-2.06-6.54c-1.38-1.43-3.09-2.14-5.14-2.14s-3.82.72-5.2,2.17c-1.38,1.45-2.06,3.64-2.06,6.57s.69,5.08,2.06,6.54,3.11,2.2,5.2,2.2Z"/>
    <path d="M181.04,422.39c-2.64,0-4.97-.6-6.99-1.79-2.02-1.19-3.59-2.85-4.73-4.98-1.14-2.13-1.71-4.6-1.71-7.42s.56-5.37,1.68-7.54c1.12-2.16,2.69-3.85,4.73-5.06s4.39-1.82,7.07-1.82,4.91.6,6.82,1.79c1.91,1.19,3.38,2.78,4.43,4.76,1.04,1.98,1.57,4.16,1.57,6.54v1.18c0,.42-.02.89-.06,1.4h-20.51c.18,2.53,1.01,4.45,2.48,5.75,1.47,1.3,3.19,1.95,5.17,1.95,1.72,0,3.09-.36,4.1-1.07s1.75-1.7,2.23-2.94h5.89c-.66,2.6-2.04,4.79-4.12,6.57-2.09,1.78-4.77,2.67-8.03,2.67ZM181.04,398.85c-1.8,0-3.39.54-4.79,1.62-1.39,1.08-2.29,2.59-2.7,4.54h14.52c-.15-1.83-.86-3.32-2.15-4.46s-2.92-1.71-4.89-1.71Z"/>
    <path d="M198.97,421.73v-27.28h5.06l.5,4.07h.28c.73-1.32,1.87-2.44,3.41-3.36,1.54-.92,3.32-1.38,5.33-1.38,3.34,0,5.85,1.01,7.54,3.03,1.69,2.02,2.53,4.99,2.53,8.91v16h-5.83v-15.29c0-2.27-.48-4.03-1.43-5.28-.95-1.25-2.46-1.87-4.51-1.87s-3.69.68-5.03,2.04c-1.34,1.36-2.01,3.32-2.01,5.89v14.52h-5.83Z"/>
    <path d="M238,421.73v-38.5h6.16l7.97,17.38,7.97-17.38h6.16v38.5h-5.55v-27.39l-6.27,13.75h-4.62l-6.27-13.7v27.33h-5.55Z"/>
    <path d="M271.11,421.73v-5.06h8.58v-15.35c0-1.21-.59-1.81-1.76-1.81h-6.05v-5.06h7.09c2.27,0,3.93.52,4.98,1.57s1.57,2.71,1.57,4.98v15.68h8.58v5.06h-22.99ZM282.06,390.27c-1.28,0-2.36-.41-3.22-1.24-.86-.83-1.29-1.84-1.29-3.05s.43-2.22,1.29-3.03c.86-.81,1.93-1.21,3.22-1.21s2.41.4,3.27,1.21c.86.81,1.29,1.82,1.29,3.03s-.43,2.23-1.29,3.05c-.86.83-1.95,1.24-3.27,1.24Z"/>
    <path d="M313.46,422.39c-2.53,0-4.79-.59-6.79-1.76-2-1.17-3.57-2.83-4.7-4.98-1.14-2.15-1.71-4.67-1.71-7.56s.58-5.41,1.73-7.54c1.15-2.13,2.72-3.79,4.7-4.98,1.98-1.19,4.24-1.79,6.76-1.79,3.48,0,6.3.87,8.44,2.61,2.15,1.74,3.51,4.13,4.1,7.18h-6.1c-.37-1.32-1.11-2.36-2.23-3.13-1.12-.77-2.54-1.16-4.26-1.16-1.25,0-2.43.33-3.55.99s-2.02,1.64-2.69,2.94c-.68,1.3-1.02,2.92-1.02,4.87s.34,3.52,1.02,4.84c.68,1.32,1.58,2.32,2.69,3,1.12.68,2.3,1.02,3.55,1.02,1.76,0,3.17-.38,4.24-1.16,1.06-.77,1.81-1.83,2.25-3.19h6.1c-.73,3.01-2.16,5.39-4.29,7.15-2.13,1.76-4.88,2.64-8.25,2.64Z"/>
    <path d="M331.28,421.73v-5.06h6.65v-15.35c0-1.21-.59-1.81-1.76-1.81h-4.34v-5.06h6.54c1.5,0,2.73.43,3.68,1.29s1.43,2.06,1.43,3.6v.66h.27c.4-2.05,1.27-3.6,2.61-4.65,1.34-1.05,3.29-1.57,5.86-1.57h4.23v6.16h-5.94c-2.16,0-3.83.75-5,2.25-1.17,1.5-1.76,3.3-1.76,5.39v9.08h8.47v5.06h-20.96Z"/>
    <path d="M374.01,422.39c-2.6,0-4.93-.59-6.99-1.76-2.05-1.17-3.67-2.83-4.84-4.98-1.17-2.15-1.76-4.67-1.76-7.56s.59-5.42,1.76-7.56c1.17-2.15,2.79-3.8,4.84-4.98s4.4-1.76,7.04-1.76,4.98.59,7.01,1.76,3.63,2.83,4.79,4.98c1.16,2.14,1.73,4.67,1.73,7.56s-.59,5.42-1.76,7.56c-1.17,2.14-2.78,3.8-4.81,4.98-2.04,1.17-4.37,1.76-7.01,1.76ZM374.01,416.83c1.39,0,2.68-.31,3.85-.94,1.17-.62,2.12-1.59,2.83-2.89.71-1.3,1.07-2.94,1.07-4.92s-.36-3.67-1.07-4.95c-.71-1.28-1.65-2.24-2.8-2.86-1.16-.62-2.43-.93-3.82-.93s-2.68.31-3.85.93c-1.17.62-2.12,1.58-2.83,2.86-.71,1.28-1.07,2.93-1.07,4.95,0,3.01.76,5.22,2.28,6.63,1.52,1.41,3.33,2.12,5.42,2.12Z"/>
    <path d="M14.34,481.73v-38.5h24.7v5.45h-18.87v11.77h15.84v5.12h-15.84v16.17h-5.83Z"/>
    <path d="M42.55,481.73v-5.06h6.65v-15.35c0-1.21-.59-1.81-1.76-1.81h-4.34v-5.06h6.54c1.5,0,2.73.43,3.68,1.29s1.43,2.06,1.43,3.6v.66h.27c.4-2.05,1.27-3.6,2.61-4.65,1.34-1.05,3.29-1.57,5.86-1.57h4.23v6.16h-5.94c-2.16,0-3.83.75-5,2.25-1.17,1.5-1.76,3.3-1.76,5.39v9.08h8.47v5.06h-20.96Z"/>
    <path d="M83.41,482.39c-2.6,0-4.93-.59-6.99-1.76-2.05-1.17-3.67-2.83-4.84-4.98-1.17-2.15-1.76-4.67-1.76-7.56s.59-5.42,1.76-7.56c1.17-2.15,2.79-3.8,4.84-4.98s4.4-1.76,7.04-1.76,4.98.59,7.01,1.76,3.63,2.83,4.79,4.98c1.16,2.14,1.73,4.67,1.73,7.56s-.59,5.42-1.76,7.56c-1.17,2.14-2.78,3.8-4.81,4.98-2.04,1.17-4.37,1.76-7.01,1.76ZM83.41,476.83c1.39,0,2.68-.31,3.85-.94,1.17-.62,2.12-1.59,2.83-2.89.71-1.3,1.07-2.94,1.07-4.92s-.36-3.67-1.07-4.95c-.71-1.28-1.65-2.24-2.8-2.86-1.16-.62-2.43-.93-3.82-.93s-2.68.31-3.85.93c-1.17.62-2.12,1.58-2.83,2.86-.71,1.28-1.07,2.93-1.07,4.95,0,3.01.76,5.22,2.28,6.63,1.52,1.41,3.33,2.12,5.42,2.12Z"/>
    <path d="M99.8,481.73v-27.28h5.06l.5,4.07h.28c.73-1.32,1.87-2.44,3.41-3.36,1.54-.92,3.32-1.38,5.33-1.38,3.34,0,5.85,1.01,7.54,3.03,1.69,2.02,2.53,4.99,2.53,8.91v16h-5.83v-15.29c0-2.27-.48-4.03-1.43-5.28-.95-1.25-2.46-1.87-4.51-1.87s-3.69.68-5.03,2.04c-1.34,1.36-2.01,3.32-2.01,5.89v14.52h-5.83Z"/>
    <path d="M143.58,481.73c-2.68,0-4.8-.65-6.38-1.95-1.58-1.3-2.37-3.62-2.37-6.96v-13.42h-6.88v-4.95h4.07c1.87,0,2.97-.92,3.3-2.75l.83-4.4h4.51v7.15h10.78v4.95h-10.78v13.31c0,1.43.32,2.43.96,3,.64.57,1.75.85,3.33.85h6.38v5.17h-7.75Z"/>
    <path d="M169.54,482.39c-2.64,0-4.97-.6-6.99-1.79-2.02-1.19-3.59-2.85-4.73-4.98-1.14-2.13-1.71-4.6-1.71-7.42s.56-5.37,1.68-7.54c1.12-2.16,2.69-3.85,4.73-5.06s4.39-1.82,7.07-1.82,4.91.6,6.82,1.79c1.91,1.19,3.38,2.78,4.43,4.76,1.04,1.98,1.57,4.16,1.57,6.54v1.18c0,.42-.02.89-.06,1.4h-20.51c.18,2.53,1.01,4.45,2.48,5.75,1.47,1.3,3.19,1.95,5.17,1.95,1.72,0,3.09-.36,4.1-1.07s1.75-1.7,2.23-2.94h5.89c-.66,2.6-2.04,4.79-4.12,6.57-2.09,1.78-4.77,2.67-8.03,2.67ZM169.54,458.85c-1.8,0-3.39.54-4.79,1.62-1.39,1.08-2.29,2.59-2.7,4.54h14.52c-.15-1.83-.86-3.32-2.15-4.46s-2.92-1.71-4.89-1.71Z"/>
    <path d="M185.6,481.73v-27.28h5.06l.5,4.07h.28c.73-1.32,1.87-2.44,3.41-3.36,1.54-.92,3.32-1.38,5.33-1.38,3.34,0,5.85,1.01,7.54,3.03,1.69,2.02,2.53,4.99,2.53,8.91v16h-5.83v-15.29c0-2.27-.48-4.03-1.43-5.28-.95-1.25-2.46-1.87-4.51-1.87s-3.69.68-5.03,2.04c-1.34,1.36-2.01,3.32-2.01,5.89v14.52h-5.83Z"/>
    <path d="M224.92,482.39c-2.27,0-4.31-.54-6.1-1.62-1.8-1.08-3.22-2.69-4.26-4.81-1.04-2.13-1.57-4.75-1.57-7.86s.53-5.74,1.59-7.87c1.06-2.13,2.5-3.73,4.32-4.81,1.82-1.08,3.84-1.62,6.08-1.62,2.09,0,3.81.39,5.17,1.18,1.36.79,2.37,1.79,3.02,3v-15.84h5.83v39.6h-5l-.5-4.01h-.33c-.73,1.43-1.77,2.57-3.11,3.41-1.34.84-3.05,1.27-5.14,1.27ZM226.13,476.83c2.09,0,3.82-.73,5.2-2.2s2.06-3.65,2.06-6.54-.69-5.12-2.06-6.57c-1.38-1.45-3.11-2.17-5.2-2.17s-3.82.73-5.2,2.2-2.06,3.67-2.06,6.6.69,5.07,2.06,6.52c1.38,1.45,3.11,2.17,5.2,2.17Z"/>
    <path d="M252.91,481.73v-38.5h13.04c2.93,0,5.35.5,7.26,1.51,1.91,1.01,3.32,2.39,4.23,4.15s1.38,3.78,1.38,6.05-.46,4.29-1.38,6.05c-.92,1.76-2.33,3.14-4.23,4.15-1.91,1.01-4.33,1.51-7.26,1.51h-7.21v15.07h-5.83ZM258.74,461.43h6.93c2.49,0,4.32-.59,5.47-1.76s1.73-2.75,1.73-4.73-.58-3.51-1.73-4.7-2.98-1.79-5.47-1.79h-6.93v12.98Z"/>
    <path d="M283.21,481.73v-5.06h9.13v-27.67c0-1.21-.59-1.82-1.76-1.82h-6.6v-5.06h7.65c2.13,0,3.75.56,4.87,1.68,1.12,1.12,1.68,2.74,1.68,4.87v28h9.18v5.06h-24.14Z"/>
    <path d="M322.09,482.39c-2.16,0-3.98-.38-5.45-1.13-1.47-.75-2.57-1.76-3.3-3.02-.73-1.27-1.1-2.65-1.1-4.15,0-2.68.98-4.77,2.94-6.27,1.96-1.5,4.74-2.25,8.33-2.25h7.04v-.61c0-4.11-1.91-6.16-5.72-6.16-1.58,0-2.91.34-3.99,1.02-1.08.68-1.81,1.77-2.17,3.27h-5.83c.29-2.86,1.53-5.12,3.71-6.79,2.18-1.67,4.94-2.5,8.28-2.5,4.03,0,6.97.99,8.8,2.97,1.83,1.98,2.75,4.71,2.75,8.19v16.78h-4.95l-.5-4.01h-.38c-.81,1.28-1.82,2.38-3.03,3.3s-3.02,1.38-5.44,1.38ZM323.19,477.49c2.38,0,4.17-.72,5.36-2.17s1.84-3.29,1.95-5.53h-6.38c-2.09,0-3.57.34-4.43,1.02-.86.68-1.29,1.62-1.29,2.83s.43,2.15,1.29,2.83c.86.68,2.03,1.02,3.49,1.02Z"/>
    <path d="M356.14,481.73c-2.68,0-4.8-.65-6.38-1.95-1.58-1.3-2.37-3.62-2.37-6.96v-13.42h-6.88v-4.95h4.07c1.87,0,2.97-.92,3.3-2.75l.83-4.4h4.51v7.15h10.78v4.95h-10.78v13.31c0,1.43.32,2.43.96,3,.64.57,1.75.85,3.33.85h6.38v5.17h-7.75Z"/>
    <path d="M369.06,493.83v-5.11h4.46c1.28,0,2.21-.27,2.78-.8.57-.53.85-1.42.85-2.67v-25.85h-6.93v-4.95h6.93v-3.79c0-3.04.75-5.22,2.25-6.54,1.5-1.32,3.65-1.98,6.44-1.98h6.65v5.11h-5.94c-1.28,0-2.2.26-2.75.77s-.83,1.41-.83,2.7v3.74h9.51v4.95h-9.51v25.91c0,3.04-.75,5.22-2.25,6.54-1.5,1.32-3.67,1.98-6.49,1.98h-5.17Z"/>
    <path d="M410.37,482.39c-2.6,0-4.93-.59-6.99-1.76-2.05-1.17-3.67-2.83-4.84-4.98-1.17-2.15-1.76-4.67-1.76-7.56s.59-5.42,1.76-7.56c1.17-2.15,2.79-3.8,4.84-4.98s4.4-1.76,7.04-1.76,4.98.59,7.01,1.76,3.63,2.83,4.79,4.98c1.16,2.14,1.73,4.67,1.73,7.56s-.59,5.42-1.76,7.56c-1.17,2.14-2.78,3.8-4.81,4.98-2.04,1.17-4.37,1.76-7.01,1.76ZM410.37,476.83c1.39,0,2.68-.31,3.85-.94,1.17-.62,2.12-1.59,2.83-2.89.71-1.3,1.07-2.94,1.07-4.92s-.36-3.67-1.07-4.95c-.71-1.28-1.65-2.24-2.8-2.86-1.16-.62-2.43-.93-3.82-.93s-2.68.31-3.85.93c-1.17.62-2.12,1.58-2.83,2.86-.71,1.28-1.07,2.93-1.07,4.95,0,3.01.76,5.22,2.28,6.63,1.52,1.41,3.33,2.12,5.42,2.12Z"/>
    <path d="M426.7,481.73v-5.06h6.65v-15.35c0-1.21-.59-1.81-1.76-1.81h-4.34v-5.06h6.54c1.5,0,2.73.43,3.68,1.29s1.43,2.06,1.43,3.6v.66h.27c.4-2.05,1.27-3.6,2.61-4.65,1.34-1.05,3.29-1.57,5.86-1.57h4.23v6.16h-5.94c-2.16,0-3.83.75-5,2.25-1.17,1.5-1.76,3.3-1.76,5.39v9.08h8.47v5.06h-20.96Z"/>
    <path d="M452.44,481.73v-27.28h4.84l.5,3.19h.28c.48-1.14,1.21-2.06,2.2-2.78.99-.71,2.16-1.07,3.52-1.07s2.47.33,3.46.99,1.72,1.61,2.2,2.86h.22c.48-1.1,1.23-2.02,2.25-2.75s2.29-1.1,3.79-1.1c2.02,0,3.55.66,4.59,1.98s1.57,3.17,1.57,5.55v20.41h-5.61v-19.25c0-1.1-.23-1.97-.69-2.61-.46-.64-1.18-.96-2.17-.96s-1.81.38-2.45,1.16c-.64.77-.96,1.85-.96,3.25v18.42h-5.67v-19.25c0-1.1-.22-1.97-.66-2.61-.44-.64-1.15-.96-2.14-.96s-1.82.38-2.48,1.16c-.66.77-.99,1.85-.99,3.25v18.42h-5.61Z"/>
  </g>
</svg>
