<?xml version="1.0" encoding="UTF-8"?>
<svg id="Layer_1" data-name="Layer 1" xmlns="http://www.w3.org/2000/svg" viewBox="100.16 57.385586 297.66998 384.24442">
  <defs>
    <style>
      .cls-1 {
        fill-rule: evenodd;
      }
    </style>
  </defs>
  <path class="cls-1" d="M245.81,365.98c2.23,1.12,4.86,1.12,7.1,0l130.34-64.69c3.94-1.95,5.54-6.73,3.59-10.67-1.95-3.94-6.73-5.54-10.67-3.59l-126.79,62.93-121.47-60.69v-141.44l121.65-73.31,126.29,69.02c3.89,2.05,8.7.56,10.75-3.33,2-3.8.62-8.51-3.12-10.63L253.19,58.36c-2.48-1.36-5.5-1.29-7.92.17l-129.42,77.99c-2.39,1.44-3.85,4.03-3.85,6.82v150.86c0,3.02,1.7,5.77,4.4,7.12l129.42,64.66Z"/>
  <path class="cls-1" d="M242.52,321.93c1.82.89,3.96.85,5.75-.09l86.33-45.53,43.47,22.33c3.14,1.58,6.97.31,8.55-2.83,1.56-3.1.34-6.88-2.73-8.5l-35.83-18.4,36.02-20.03c3.07-1.71,4.18-5.59,2.47-8.66-.59-1.06-1.47-1.92-2.53-2.5l-38.77-20.99,38.7-20.29c3.11-1.63,4.31-5.48,2.68-8.6-.59-1.13-1.51-2.06-2.64-2.66l-38.52-20.57,38.57-20.99c3.09-1.68,4.23-5.55,2.55-8.63,0,0,0,0,0,0-1.68-3.09-5.55-4.23-8.63-2.55,0,0,0,0,0,0l-45.92,25-76.78-41.01c-1.95-1.04-4.3-1-6.21.12l-87.09,50.84c-3.04,1.77-4.06,5.67-2.29,8.71.64,1.09,1.58,1.96,2.71,2.51l37.62,18.31-38.06,22.35c-3.03,1.78-4.05,5.68-2.27,8.71.63,1.08,1.57,1.95,2.69,2.5l38.25,18.73-38.66,22.55c-3.04,1.77-4.06,5.67-2.29,8.71.64,1.09,1.58,1.97,2.72,2.52l80.15,38.98h0ZM213.82,241.47l-35.23-17.25,73.78-43.33,115.38,62.48-33.3,18.52-79.28-41.12c-1.94-1-4.25-.95-6.14.15l-35.21,20.54h0ZM320.83,269.17l-68.4-35.48-73.76,43.02,66.52,32.35,75.64-39.89ZM213.18,189.14l-34.52-16.8,73.73-43.04,114.99,61.42-35.62,18.68-76.48-41.42c-1.96-1.06-4.33-1.02-6.26.11l-35.84,21.05h0Z"/>
  <g>
    <path d="M115.34,441.61c-3.23,0-5.97-.83-8.22-2.48-2.26-1.65-3.98-3.97-5.17-6.96-1.19-2.99-1.79-6.46-1.79-10.42s.6-7.49,1.79-10.48c1.19-2.99,2.92-5.32,5.2-6.98,2.27-1.67,5.01-2.5,8.2-2.5,4.14,0,7.44,1.13,9.9,3.38,2.46,2.25,3.89,5.31,4.29,9.16h-6.43c-.33-2.02-1.15-3.69-2.45-5.03-1.3-1.34-3.09-2.01-5.36-2.01-2.9,0-5.15,1.28-6.77,3.85-1.61,2.57-2.42,6.1-2.42,10.61s.81,7.98,2.42,10.53c1.61,2.55,3.87,3.82,6.77,3.82,2.35,0,4.14-.61,5.39-1.84,1.25-1.23,2.05-2.85,2.42-4.87h6.43c-.59,3.78-2.07,6.76-4.46,8.94-2.38,2.18-5.63,3.27-9.73,3.27Z"/>
    <path d="M145.7,441.61c-2.6,0-4.93-.59-6.98-1.76-2.05-1.17-3.67-2.83-4.84-4.98-1.17-2.15-1.76-4.67-1.76-7.56s.59-5.42,1.76-7.56c1.17-2.15,2.79-3.8,4.84-4.98,2.05-1.17,4.4-1.76,7.04-1.76s4.98.59,7.01,1.76c2.03,1.17,3.63,2.83,4.78,4.98,1.16,2.14,1.73,4.67,1.73,7.56s-.59,5.42-1.76,7.56c-1.17,2.14-2.78,3.8-4.81,4.98-2.04,1.17-4.37,1.76-7.01,1.76ZM145.7,436.05c1.39,0,2.68-.31,3.85-.94,1.17-.62,2.12-1.59,2.83-2.89.72-1.3,1.07-2.94,1.07-4.92s-.36-3.67-1.07-4.95c-.71-1.28-1.65-2.24-2.8-2.86-1.16-.62-2.43-.93-3.82-.93s-2.68.31-3.85.93c-1.17.62-2.12,1.58-2.83,2.86-.72,1.28-1.07,2.93-1.07,4.95,0,3.01.76,5.22,2.28,6.63,1.52,1.41,3.33,2.12,5.42,2.12Z"/>
    <path d="M177.65,441.61c-2.02,0-3.71-.41-5.09-1.24-1.38-.83-2.43-1.97-3.16-3.44h-.33l-.5,4.01h-5v-39.6h5.83v15.84c.66-1.1,1.71-2.07,3.14-2.92,1.43-.84,3.14-1.27,5.11-1.27,2.27,0,4.31.54,6.11,1.62,1.8,1.08,3.22,2.69,4.26,4.81,1.05,2.13,1.57,4.75,1.57,7.87s-.52,5.74-1.57,7.86c-1.04,2.13-2.47,3.73-4.26,4.81-1.8,1.08-3.83,1.62-6.11,1.62ZM176.44,436.05c2.09,0,3.82-.72,5.2-2.17,1.38-1.45,2.06-3.62,2.06-6.52s-.69-5.13-2.06-6.6-3.11-2.2-5.2-2.2-3.82.72-5.2,2.17c-1.38,1.45-2.06,3.64-2.06,6.57s.69,5.08,2.06,6.54,3.11,2.2,5.2,2.2Z"/>
    <path d="M204.16,441.61c-2.16,0-3.98-.38-5.45-1.13-1.47-.75-2.57-1.76-3.3-3.02-.73-1.27-1.1-2.65-1.1-4.15,0-2.68.98-4.77,2.94-6.27,1.96-1.5,4.74-2.25,8.33-2.25h7.04v-.61c0-4.11-1.91-6.16-5.72-6.16-1.58,0-2.91.34-3.99,1.02-1.08.68-1.81,1.77-2.17,3.27h-5.83c.29-2.86,1.53-5.12,3.71-6.79,2.18-1.67,4.94-2.5,8.28-2.5,4.03,0,6.97.99,8.8,2.97,1.83,1.98,2.75,4.71,2.75,8.19v16.78h-4.95l-.49-4.01h-.39c-.81,1.28-1.82,2.38-3.03,3.3-1.21.92-3.02,1.38-5.44,1.38ZM205.26,436.71c2.38,0,4.17-.72,5.36-2.17,1.19-1.45,1.84-3.29,1.95-5.53h-6.38c-2.09,0-3.57.34-4.43,1.02-.86.68-1.29,1.62-1.29,2.83s.43,2.15,1.29,2.83c.86.68,2.03,1.02,3.49,1.02Z"/>
    <path d="M221.93,440.95v-5.06h9.13v-27.67c0-1.21-.59-1.82-1.76-1.82h-6.6v-5.06h7.65c2.13,0,3.75.56,4.87,1.68,1.12,1.12,1.68,2.74,1.68,4.87v28h9.19v5.06h-24.15Z"/>
    <path d="M265.71,440.95c-2.68,0-4.8-.65-6.38-1.95-1.58-1.3-2.36-3.62-2.36-6.96v-13.42h-6.88v-4.95h4.07c1.87,0,2.97-.92,3.3-2.75l.83-4.4h4.51v7.15h10.78v4.95h-10.78v13.31c0,1.43.32,2.43.96,3,.64.57,1.75.85,3.33.85h6.38v5.17h-7.76Z"/>
    <path d="M293.32,441.61c-3.23,0-5.97-.83-8.22-2.48-2.26-1.65-3.98-3.97-5.17-6.96-1.19-2.99-1.79-6.46-1.79-10.42s.6-7.49,1.79-10.48c1.19-2.99,2.92-5.32,5.2-6.98,2.27-1.67,5.01-2.5,8.19-2.5,4.14,0,7.44,1.13,9.9,3.38,2.46,2.25,3.89,5.31,4.29,9.16h-6.44c-.33-2.02-1.15-3.69-2.45-5.03-1.3-1.34-3.09-2.01-5.36-2.01-2.9,0-5.15,1.28-6.77,3.85-1.61,2.57-2.42,6.1-2.42,10.61s.81,7.98,2.42,10.53c1.61,2.55,3.87,3.82,6.77,3.82,2.35,0,4.14-.61,5.39-1.84,1.25-1.23,2.05-2.85,2.42-4.87h6.44c-.59,3.78-2.07,6.76-4.46,8.94-2.38,2.18-5.63,3.27-9.73,3.27Z"/>
    <path d="M323.68,441.61c-2.6,0-4.93-.59-6.98-1.76-2.05-1.17-3.67-2.83-4.84-4.98-1.17-2.15-1.76-4.67-1.76-7.56s.59-5.42,1.76-7.56c1.17-2.15,2.79-3.8,4.84-4.98,2.05-1.17,4.4-1.76,7.04-1.76s4.98.59,7.01,1.76,3.63,2.83,4.79,4.98c1.15,2.14,1.73,4.67,1.73,7.56s-.59,5.42-1.76,7.56c-1.17,2.14-2.78,3.8-4.81,4.98-2.03,1.17-4.37,1.76-7.01,1.76ZM323.68,436.05c1.39,0,2.68-.31,3.85-.94,1.17-.62,2.12-1.59,2.83-2.89.71-1.3,1.07-2.94,1.07-4.92s-.36-3.67-1.07-4.95c-.71-1.28-1.65-2.24-2.81-2.86-1.15-.62-2.43-.93-3.82-.93s-2.68.31-3.85.93c-1.17.62-2.12,1.58-2.83,2.86-.72,1.28-1.07,2.93-1.07,4.95,0,3.01.76,5.22,2.28,6.63,1.52,1.41,3.33,2.12,5.42,2.12Z"/>
    <path d="M341.88,440.95v-5.06h6.66v-15.35c0-1.21-.59-1.81-1.76-1.81h-4.34v-5.06h6.54c1.5,0,2.73.43,3.69,1.29.95.86,1.43,2.06,1.43,3.6v.66h.28c.4-2.05,1.27-3.6,2.61-4.65,1.34-1.05,3.29-1.57,5.86-1.57h4.24v6.16h-5.94c-2.16,0-3.83.75-5.01,2.25-1.17,1.5-1.76,3.3-1.76,5.39v9.08h8.47v5.06h-20.95Z"/>
    <path d="M384.94,441.61c-2.64,0-4.97-.6-6.98-1.79-2.02-1.19-3.59-2.85-4.73-4.98-1.14-2.13-1.7-4.6-1.7-7.42s.56-5.37,1.68-7.54c1.12-2.16,2.69-3.85,4.73-5.06s4.39-1.82,7.07-1.82,4.91.6,6.82,1.79c1.91,1.19,3.38,2.78,4.43,4.76,1.05,1.98,1.57,4.16,1.57,6.54v1.18c0,.42-.02.89-.05,1.4h-20.52c.18,2.53,1.01,4.45,2.47,5.75,1.47,1.3,3.19,1.95,5.17,1.95,1.72,0,3.09-.36,4.1-1.07,1.01-.71,1.75-1.7,2.23-2.94h5.89c-.66,2.6-2.04,4.79-4.12,6.57-2.09,1.78-4.77,2.67-8.03,2.67ZM384.94,418.07c-1.8,0-3.39.54-4.78,1.62-1.39,1.08-2.29,2.59-2.7,4.54h14.52c-.15-1.83-.86-3.32-2.15-4.46-1.28-1.14-2.91-1.71-4.9-1.71Z"/>
  </g>
</svg>
