<?xml version="1.0" encoding="UTF-8"?>
<svg id="Layer_1" data-name="Layer 1" xmlns="http://www.w3.org/2000/svg" xmlns:xlink="http://www.w3.org/1999/xlink" viewBox="15.62 43.258747 396.36148 398.13126">
  <defs>
    <style>
      .cls-1 {
        mask: url(#mask);
      }

      .cls-2 {
        fill: url(#linear-gradient-2);
      }

      .cls-2, .cls-3, .cls-4, .cls-5, .cls-6, .cls-7, .cls-8 {
        fill-rule: evenodd;
      }

      .cls-3 {
        fill: url(#linear-gradient-3);
      }

      .cls-4 {
        fill: url(#linear-gradient-4);
      }

      .cls-5 {
        fill: #fff;
      }

      .cls-6 {
        fill: #009f76;
      }

      .cls-7 {
        fill: url(#linear-gradient);
      }

      .cls-8 {
        isolation: isolate;
        opacity: .29;
      }
    </style>
    <mask id="mask" x="15.62" y="43.26" width="396.37" height="348.99" maskUnits="userSpaceOnUse">
      <g id="mask-2">
        <path id="path-1-2" data-name="path-1" class="cls-5" d="M241.38,44.62c3.78-1.82,9.92-1.81,13.68,0l118.77,57.2c3.78,1.82,7.6,6.63,8.53,10.7l29.33,128.52c.93,4.09-.44,10.08-3.05,13.34l-82.19,103.06c-2.62,3.28-8.15,5.94-12.33,5.94h-131.82c-4.19,0-9.73-2.67-12.33-5.94l-82.19-103.06c-2.62-3.28-3.97-9.27-3.05-13.34l29.33-128.52c.93-4.09,4.77-8.89,8.53-10.7l118.77-57.2Z"/>
      </g>
    </mask>
    <linearGradient id="linear-gradient" x1="6263.87" y1="-3295.42" x2="6266.74" y2="-3299.34" gradientTransform="translate(162222.83 -79062.37) rotate(-180) scale(25.85 24.03)" gradientUnits="userSpaceOnUse">
      <stop offset="0" stop-color="#fff"/>
      <stop offset="1" stop-color="#439246"/>
    </linearGradient>
    <linearGradient id="linear-gradient-2" x1="6269.23" y1="-3296.4" x2="6272.97" y2="-3302.87" gradientTransform="translate(159599.15 -79024.09) rotate(-180) scale(25.42 24.02)" xlink:href="#linear-gradient"/>
    <linearGradient id="linear-gradient-3" x1="5896.17" y1="-3245.14" x2="5898.56" y2="-3248.44" gradientTransform="translate(-241980.32 -111804.59) scale(41.07 -34.51)" xlink:href="#linear-gradient"/>
    <linearGradient id="linear-gradient-4" x1="5896.63" y1="-3247.04" x2="5899.69" y2="-3252.04" gradientTransform="translate(-239818.28 -111133.91) scale(40.71 -34.29)" xlink:href="#linear-gradient"/>
  </defs>
  <g id="Page-1">
    <g id="logo">
      <g id="Rectangle-2">
        <g id="Mask">
          <path id="path-1" class="cls-6" d="M241.38,44.62c3.78-1.82,9.92-1.81,13.68,0l118.77,57.2c3.78,1.82,7.6,6.63,8.53,10.7l29.33,128.52c.93,4.09-.44,10.08-3.05,13.34l-82.19,103.06c-2.62,3.28-8.15,5.94-12.33,5.94h-131.82c-4.19,0-9.73-2.67-12.33-5.94l-82.19-103.06c-2.62-3.28-3.97-9.27-3.05-13.34l29.33-128.52c.93-4.09,4.77-8.89,8.53-10.7l118.77-57.2Z"/>
        </g>
        <g class="cls-1">
          <polygon class="cls-8" points="15.62 247.6 199.43 135.95 323.23 262.68 176.33 392.25 15.62 247.6"/>
        </g>
      </g>
      <path id="Combined-Shape" class="cls-7" d="M196.3,189.72c1.64,4.49,4.71,8.8,8.26,11.13l30.62,20.04c5.25,3.44,13.75,3.46,19.03,0l30.62-20.04c5.25-3.44,9.51-11.33,9.51-17.63v-42.21c0-2.75-.81-5.8-2.16-8.66l-95.87,57.36Z"/>
      <path id="Combined-Shape-2" data-name="Combined-Shape" class="cls-2" d="M198.45,136.18c-1.34,2.84-2.14,5.88-2.14,8.61v42.21c0,6.29,4.23,14.17,9.51,17.63l30.62,20.04c5.25,3.44,13.75,3.46,19.03,0l30.62-20.04c2.57-1.68,4.9-4.42,6.61-7.53l-94.24-60.92Z"/>
      <path id="Combined-Shape-3" data-name="Combined-Shape" class="cls-3" d="M325.5,257.69c-1.79,3.85-4.68,7.35-7.93,9.23l-59.17,34.16c-5.42,3.13-14.23,3.13-19.65,0l-59.17-34.16c-5.42-3.13-9.82-10.76-9.82-17.01v-68.32c0-2.9.95-6.1,2.5-9l153.24,85.11Z"/>
      <path id="Combined-Shape-4" data-name="Combined-Shape" class="cls-4" d="M325.3,173.4c1.31,2.68,2.09,5.56,2.09,8.19v68.32c0,6.26-4.41,13.89-9.82,17.01l-59.17,34.16c-5.42,3.13-14.23,3.13-19.65,0l-59.17-34.16c-2.53-1.46-4.83-3.89-6.57-6.71l152.3-86.82Z"/>
    </g>
  </g>
  <g>
    <path d="M140.99,441.37c-2.86,0-5.37-.82-7.53-2.45-2.16-1.63-3.85-3.93-5.06-6.9-1.21-2.97-1.81-6.49-1.81-10.56s.6-7.48,1.81-10.45c1.21-2.97,2.94-5.29,5.2-6.96,2.26-1.67,4.96-2.5,8.11-2.5,3.81,0,6.88,1.04,9.21,3.13,2.33,2.09,3.75,5.04,4.26,8.86h-6.32c-.37-1.98-1.16-3.56-2.39-4.73-1.23-1.17-2.81-1.76-4.76-1.76-2.97,0-5.24,1.28-6.82,3.85-1.58,2.57-2.36,6.09-2.36,10.56s.83,8.22,2.5,10.7c1.67,2.48,3.84,3.71,6.52,3.71,1.8,0,3.28-.53,4.46-1.59,1.17-1.06,2.07-2.43,2.7-4.1.62-1.67,1.01-3.44,1.16-5.31h-8.09v-4.84h13.97v20.68h-5.39l-.39-5.17h-.33c-.73,1.69-1.76,3.08-3.08,4.18-1.32,1.1-3.17,1.65-5.56,1.65Z"/>
    <path d="M169.76,441.37c-2.16,0-3.98-.38-5.44-1.13-1.47-.75-2.57-1.76-3.3-3.02-.73-1.27-1.1-2.65-1.1-4.15,0-2.68.98-4.77,2.94-6.27,1.96-1.5,4.74-2.25,8.33-2.25h7.04v-.61c0-4.11-1.91-6.16-5.72-6.16-1.58,0-2.91.34-3.99,1.02-1.08.68-1.81,1.77-2.17,3.27h-5.83c.29-2.86,1.53-5.12,3.71-6.79,2.18-1.67,4.94-2.5,8.28-2.5,4.03,0,6.97.99,8.8,2.97,1.83,1.98,2.75,4.71,2.75,8.19v16.78h-4.95l-.5-4.01h-.38c-.81,1.28-1.82,2.38-3.03,3.3s-3.02,1.38-5.45,1.38ZM170.86,436.48c2.38,0,4.17-.72,5.36-2.17,1.19-1.45,1.84-3.29,1.95-5.53h-6.38c-2.09,0-3.57.34-4.43,1.02-.86.68-1.29,1.62-1.29,2.83s.43,2.15,1.29,2.83c.86.68,2.03,1.02,3.49,1.02Z"/>
    <path d="M188.57,440.71v-5.06h6.65v-15.35c0-1.21-.59-1.81-1.76-1.81h-4.34v-5.06h6.55c1.5,0,2.73.43,3.68,1.29.95.86,1.43,2.06,1.43,3.6v.66h.27c.4-2.05,1.27-3.6,2.61-4.65,1.34-1.05,3.29-1.57,5.86-1.57h4.24v6.16h-5.94c-2.16,0-3.83.75-5.01,2.25-1.17,1.5-1.76,3.3-1.76,5.39v9.08h8.47v5.06h-20.95Z"/>
    <path d="M227.95,441.37c-2.27,0-4.31-.54-6.1-1.62-1.8-1.08-3.22-2.69-4.26-4.81-1.04-2.13-1.57-4.75-1.57-7.86s.53-5.74,1.59-7.87c1.06-2.13,2.5-3.73,4.32-4.81,1.82-1.08,3.84-1.62,6.08-1.62,2.09,0,3.81.39,5.17,1.18,1.36.79,2.36,1.79,3.02,3v-15.84h5.83v39.6h-5l-.5-4.01h-.33c-.73,1.43-1.77,2.57-3.11,3.41-1.34.84-3.05,1.27-5.14,1.27ZM229.16,435.82c2.09,0,3.82-.73,5.2-2.2s2.06-3.65,2.06-6.54-.69-5.12-2.06-6.57c-1.38-1.45-3.11-2.17-5.2-2.17s-3.82.73-5.2,2.2-2.06,3.67-2.06,6.6.69,5.07,2.06,6.52c1.38,1.45,3.11,2.17,5.2,2.17Z"/>
    <path d="M260.23,441.37c-2.64,0-4.97-.6-6.99-1.79-2.02-1.19-3.59-2.85-4.73-4.98-1.14-2.13-1.71-4.6-1.71-7.42s.56-5.37,1.68-7.54c1.12-2.16,2.7-3.85,4.73-5.06,2.04-1.21,4.39-1.82,7.07-1.82s4.91.6,6.82,1.79c1.91,1.19,3.38,2.78,4.43,4.76,1.04,1.98,1.57,4.16,1.57,6.54v1.18c0,.42-.02.89-.05,1.4h-20.52c.18,2.53,1.01,4.45,2.48,5.75,1.47,1.3,3.19,1.95,5.17,1.95,1.72,0,3.09-.36,4.1-1.07,1.01-.71,1.75-1.7,2.23-2.94h5.89c-.66,2.6-2.04,4.79-4.12,6.57-2.09,1.78-4.77,2.67-8.03,2.67ZM260.23,417.83c-1.8,0-3.39.54-4.79,1.62-1.39,1.08-2.29,2.59-2.69,4.54h14.52c-.15-1.83-.86-3.32-2.15-4.46-1.28-1.14-2.92-1.71-4.9-1.71Z"/>
    <path d="M278.16,440.71v-27.28h5.06l.49,4.07h.28c.73-1.32,1.87-2.44,3.41-3.36,1.54-.92,3.32-1.38,5.33-1.38,3.34,0,5.85,1.01,7.53,3.03,1.69,2.02,2.53,4.99,2.53,8.91v16h-5.83v-15.29c0-2.27-.48-4.03-1.43-5.28-.95-1.25-2.46-1.87-4.51-1.87s-3.69.68-5.03,2.04c-1.34,1.36-2.01,3.32-2.01,5.89v14.52h-5.83Z"/>
    <path d="M321.17,441.37c-2.64,0-4.97-.6-6.99-1.79-2.02-1.19-3.59-2.85-4.73-4.98-1.14-2.13-1.71-4.6-1.71-7.42s.56-5.37,1.68-7.54c1.12-2.16,2.7-3.85,4.73-5.06,2.04-1.21,4.39-1.82,7.07-1.82s4.91.6,6.82,1.79c1.91,1.19,3.38,2.78,4.43,4.76,1.04,1.98,1.57,4.16,1.57,6.54v1.18c0,.42-.02.89-.05,1.4h-20.52c.18,2.53,1.01,4.45,2.48,5.75,1.47,1.3,3.19,1.95,5.17,1.95,1.72,0,3.09-.36,4.1-1.07,1.01-.71,1.75-1.7,2.23-2.94h5.89c-.66,2.6-2.04,4.79-4.12,6.57-2.09,1.78-4.77,2.67-8.03,2.67ZM321.17,417.83c-1.8,0-3.39.54-4.79,1.62-1.39,1.08-2.29,2.59-2.69,4.54h14.52c-.15-1.83-.86-3.32-2.15-4.46-1.28-1.14-2.92-1.71-4.9-1.71Z"/>
    <path d="M339.04,440.71v-5.06h6.65v-15.35c0-1.21-.59-1.81-1.76-1.81h-4.34v-5.06h6.55c1.5,0,2.73.43,3.68,1.29.95.86,1.43,2.06,1.43,3.6v.66h.27c.4-2.05,1.27-3.6,2.61-4.65,1.34-1.05,3.29-1.57,5.86-1.57h4.24v6.16h-5.94c-2.16,0-3.83.75-5.01,2.25-1.17,1.5-1.76,3.3-1.76,5.39v9.08h8.47v5.06h-20.95Z"/>
  </g>
</svg>
