<?xml version="1.0" encoding="UTF-8"?>
<svg id="Layer_1" data-name="Layer 1" xmlns="http://www.w3.org/2000/svg" xmlns:xlink="http://www.w3.org/1999/xlink" viewBox="90.36 64.63 335.28003 354.99">
  <defs>
    <style>
      .cls-1 {
        mask: url(#mask);
      }

      .cls-2 {
        fill: #004a82;
      }

      .cls-3 {
        isolation: isolate;
      }

      .cls-4 {
        fill: #fff;
      }

      .cls-5 {
        fill: #0077ba;
      }
    </style>
    <mask id="mask" x="118.56" y="68.11" width="271.85" height="271.85" maskUnits="userSpaceOnUse">
      <g id="mask-1he0h8_xwz-2" data-name="mask-1he0h8 xwz-2">
        <rect id="path-1he0h8_xwz-1" data-name="path-1he0h8 xwz-1" class="cls-4" x="118.56" y="68.11" width="271.85" height="271.85" rx="8" ry="8"/>
      </g>
    </mask>
  </defs>
  <g id="Page-1">
    <g id="ironcore">
      <rect id="Rectangle" class="cls-4" x="115.08" y="64.63" width="278.82" height="278.82"/>
      <g id="Path">
        <g id="Mask">
          <rect id="path-3ulh_37f8a-1" data-name="path-3ulh 37f8a-1" class="cls-5" x="118.56" y="68.11" width="271.85" height="271.85" rx="8" ry="8"/>
        </g>
        <g id="Clipped">
          <g class="cls-1">
            <polygon id="Path-2" data-name="Path" class="cls-2" points="186.06 141.33 186.06 207.32 286.43 207.32 286.43 242.82 324.79 242.82 200.18 339.96 118.56 339.96 118.56 194.29 186.06 141.33"/>
          </g>
        </g>
      </g>
      <g id="Group">
        <g id="_1" data-name="+1">
          <polygon id="Path-3" data-name="Path" class="cls-4" points="364.37 96.41 369.1 96.41 369.1 93.11 364.37 93.11 364.37 88.22 360.96 88.22 360.96 93.11 356.24 93.11 356.24 96.41 360.96 96.41 360.96 101.44 364.37 101.44 364.37 96.41"/>
          <polygon id="Path-4" data-name="Path" class="cls-4" points="379.38 101.57 379.38 84.85 375.4 84.85 371.45 87.63 371.45 91.18 375.2 88.55 375.4 88.55 375.4 101.57 379.38 101.57"/>
        </g>
        <g id="Fe">
          <polygon id="Path-5" data-name="Path" class="cls-4" points="211.56 247.26 211.56 207.28 252.52 207.28 252.52 187.41 211.56 187.41 211.56 161.81 256.6 161.81 256.6 141.33 186.06 141.33 186.06 247.26 211.56 247.26"/>
          <path id="Shape" class="cls-4" d="M301.55,248.78c6.13,0,11.42-.83,15.88-2.49,4.46-1.66,8.15-3.86,11.08-6.61,2.92-2.75,5.16-5.77,6.71-9.06s2.48-6.57,2.81-9.83h-22.48c-.33,2.05-1.13,3.81-2.42,5.27s-2.92,2.59-4.89,3.36-4.19,1.16-6.66,1.16c-4.26,0-7.85-1.5-10.77-4.51-2.92-3.01-4.38-7.15-4.38-12.43v-2.78h52.14v-8.33c0-8.16-1.56-15.2-4.69-21.12s-7.53-10.5-13.21-13.71c-5.68-3.22-12.37-4.82-20.08-4.82-7.27,0-13.8,1.49-19.57,4.47-5.77,2.98-10.33,7.38-13.68,13.21s-5.03,13.03-5.03,21.62v6.62c0,8.78,1.65,16.14,4.94,22.08,3.3,5.94,7.89,10.41,13.8,13.41,5.9,3,12.73,4.51,20.49,4.51ZM286.43,196.6v-.08c0-3.07.6-5.81,1.8-8.22s2.88-4.31,5.04-5.7,4.66-2.09,7.53-2.09,5.32.7,7.42,2.09,3.74,3.29,4.9,5.7,1.74,5.15,1.74,8.22v.08h-28.43Z"/>
        </g>
        <g id="_26" data-name="26">
          <path id="Path-6" data-name="Path" class="cls-4" d="M130.78,90.07v-.26c0-1.12.8-2.12,2.14-2.12,1.23,0,2.14.88,2.14,2.01,0,1.27-.97,2.29-1.84,3.19l-6,6.21v2.48h12.06v-3.19h-6.62v-.18l3.37-3.59c1.37-1.45,2.99-2.88,2.99-5.32,0-2.7-2.36-4.74-6.03-4.74-4.15,0-6,2.73-6,5.29v.22h3.79Z"/>
          <path id="Shape-2" data-name="Shape" class="cls-4" d="M154.88,89c-.11-2.02-2.01-4.44-5.93-4.44-4.33,0-6.98,2.99-6.98,8.93,0,2.4.48,4.2,1.27,5.51,1.24,2.03,3.27,2.87,5.56,2.87,3.7,0,6.42-2.18,6.42-5.93,0-3.55-2.59-5.35-5.27-5.35-2.14,0-3.37,1.08-3.9,2.21h-.25c-.11-2.68.99-5.15,3.11-5.15,1.19,0,1.94.64,2.19,1.35h3.76ZM146.24,96.11c0-1.54,1.03-2.63,2.57-2.63,1.42,0,2.55.96,2.55,2.63s-1.07,2.7-2.56,2.7-2.56-1.04-2.56-2.7Z"/>
        </g>
        <g id="_55.8457" data-name="55.8457">
          <path id="Path-7" data-name="Path" class="cls-4" d="M126.77,322.03c.11,1.63,1.58,2.83,3.63,2.83,2.35,0,3.95-1.57,3.95-3.87s-1.62-3.59-3.56-3.59c-1.23,0-2.01.6-2.24.96h-.08l.3-3.57h5.02v-1.3h-6.3l-.5,6.4h1.27c.3-.55,1.04-1.23,2.19-1.23,1.26,0,2.38.9,2.38,2.37,0,1.67-1.21,2.56-2.35,2.56-1.02,0-2.07-.44-2.29-1.55h-1.44Z"/>
          <path id="Path-8" data-name="Path" class="cls-4" d="M136.56,322.03c.11,1.63,1.58,2.83,3.63,2.83,2.35,0,3.95-1.57,3.95-3.87s-1.62-3.59-3.56-3.59c-1.23,0-2.01.6-2.24.96h-.08l.3-3.57h5.02v-1.3h-6.3l-.5,6.4h1.27c.3-.55,1.04-1.23,2.19-1.23,1.26,0,2.38.9,2.38,2.37,0,1.67-1.21,2.56-2.35,2.56-1.02,0-2.07-.44-2.29-1.55h-1.44Z"/>
          <path id="Path-9" data-name="Path" class="cls-4" d="M146.14,323.62c0,.66.52,1.15,1.17,1.15.68,0,1.19-.49,1.19-1.15,0-.69-.51-1.18-1.19-1.18s-1.17.49-1.17,1.18Z"/>
          <path id="Shape-3" data-name="Shape" class="cls-4" d="M154.78,324.86c2.33,0,4-1.34,4-3.28,0-1.73-1.31-2.56-2.25-2.79v-.07c.75-.25,1.83-1,1.83-2.48,0-1.72-1.49-2.97-3.54-2.97s-3.54,1.25-3.54,2.97c0,1.46,1.03,2.22,1.81,2.48v.07c-.93.23-2.25,1.05-2.25,2.81,0,1.94,1.63,3.27,3.94,3.27ZM154.82,318.21c-1.2,0-2.09-.77-2.09-1.87s.89-1.84,2.09-1.84,2.07.74,2.07,1.84-.87,1.87-2.07,1.87ZM154.82,323.62c-1.42,0-2.51-.85-2.51-2.1s1.09-2.12,2.51-2.12,2.49.87,2.49,2.12-1.07,2.1-2.49,2.1Z"/>
          <path id="Shape-4" data-name="Shape" class="cls-4" d="M165.22,313.48c-1.58,2.52-3.24,5.03-4.63,7.55v1.32h5.42v2.29h1.44v-2.29h1.45v-1.31h-1.45v-7.56h-2.22ZM162.08,321.03v-.07c1.17-2.05,2.55-4.25,3.85-6.19h.08v6.27h-3.93Z"/>
          <path id="Path-10" data-name="Path" class="cls-4" d="M170.83,322.03c.11,1.63,1.58,2.83,3.63,2.83,2.35,0,3.95-1.57,3.95-3.87s-1.62-3.59-3.56-3.59c-1.23,0-2.01.6-2.24.96h-.08l.3-3.57h5.02v-1.3h-6.3l-.5,6.4h1.27c.3-.55,1.04-1.23,2.19-1.23,1.26,0,2.38.9,2.38,2.37,0,1.67-1.21,2.56-2.35,2.56-1.02,0-2.07-.44-2.29-1.55h-1.44Z"/>
          <polygon id="Path-11" data-name="Path" class="cls-4" points="180.16 313.48 180.16 314.78 185.77 314.78 185.77 314.87 181.16 324.63 182.74 324.63 187.3 314.83 187.3 313.48 180.16 313.48"/>
        </g>
        <g id="IronCore" class="cls-3">
          <g class="cls-3">
            <path class="cls-4" d="M128.39,285.47h3.75v18.06h-3.75v-18.06Z"/>
            <path class="cls-4" d="M142.09,293.4c-1.41,0-2.35.46-2.83,1.37-.27.51-.4,1.31-.4,2.38v6.38h-3.52v-13.36h3.33v2.33c.54-.89,1.01-1.5,1.41-1.83.65-.55,1.5-.82,2.55-.82.07,0,.12,0,.17,0s.15.01.3.02v3.58c-.22-.02-.42-.04-.59-.05-.17,0-.31-.01-.42-.01Z"/>
            <path class="cls-4" d="M156.28,291.87c1.13,1.41,1.69,3.08,1.69,5.01s-.56,3.64-1.69,5.03c-1.13,1.39-2.84,2.09-5.13,2.09s-4.01-.7-5.13-2.09c-1.13-1.39-1.69-3.07-1.69-5.03s.56-3.6,1.69-5.01c1.13-1.41,2.84-2.12,5.13-2.12s4.01.71,5.13,2.12ZM151.13,292.7c-1.02,0-1.81.36-2.36,1.08-.55.72-.83,1.75-.83,3.09s.28,2.37.83,3.1c.55.73,1.34,1.09,2.36,1.09s1.81-.36,2.35-1.09c.55-.73.82-1.76.82-3.1s-.27-2.37-.82-3.09c-.55-.72-1.33-1.08-2.35-1.08Z"/>
            <path class="cls-4" d="M166.75,292.76c-1.18,0-2,.5-2.44,1.51-.23.53-.34,1.21-.34,2.03v7.23h-3.48v-13.33h3.37v1.95c.45-.69.87-1.18,1.27-1.48.72-.54,1.63-.81,2.73-.81,1.38,0,2.51.36,3.39,1.08.88.72,1.32,1.92,1.32,3.6v8.99h-3.58v-8.12c0-.7-.09-1.24-.28-1.62-.34-.69-1-1.03-1.96-1.03Z"/>
          </g>
          <g class="cls-3">
            <g>
              <path class="cls-5" d="M188.82,302.19c-1.35,1.23-3.07,1.85-5.17,1.85-2.6,0-4.64-.83-6.13-2.5-1.49-1.67-2.23-3.97-2.23-6.89,0-3.15.85-5.58,2.54-7.29,1.47-1.49,3.34-2.23,5.61-2.23,3.04,0,5.26,1,6.67,2.99.78,1.12,1.19,2.24,1.25,3.37h-3.77c-.24-.87-.56-1.52-.94-1.96-.69-.78-1.7-1.18-3.05-1.18s-2.45.55-3.25,1.66c-.79,1.11-1.19,2.67-1.19,4.7s.42,3.54,1.26,4.55c.84,1.01,1.9,1.51,3.19,1.51s2.33-.43,3.03-1.3c.38-.47.7-1.16.96-2.1h3.74c-.33,1.97-1.16,3.57-2.5,4.8Z"/>
              <path class="cls-5" d="M205.06,291.87c1.13,1.41,1.69,3.08,1.69,5.01s-.56,3.64-1.69,5.03c-1.13,1.39-2.84,2.09-5.13,2.09s-4.01-.7-5.13-2.09c-1.13-1.39-1.69-3.07-1.69-5.03s.56-3.6,1.69-5.01c1.13-1.41,2.84-2.12,5.13-2.12s4.01.71,5.13,2.12ZM199.91,292.7c-1.02,0-1.81.36-2.36,1.08-.55.72-.83,1.75-.83,3.09s.28,2.37.83,3.1c.55.73,1.34,1.09,2.36,1.09s1.81-.36,2.35-1.09c.55-.73.82-1.76.82-3.1s-.27-2.37-.82-3.09c-.55-.72-1.33-1.08-2.35-1.08Z"/>
              <path class="cls-5" d="M215.96,293.4c-1.41,0-2.35.46-2.83,1.37-.27.51-.4,1.31-.4,2.38v6.38h-3.52v-13.36h3.33v2.33c.54-.89,1.01-1.5,1.41-1.83.65-.55,1.5-.82,2.55-.82.07,0,.12,0,.17,0s.15.01.3.02v3.58c-.22-.02-.42-.04-.59-.05-.17,0-.31-.01-.42-.01Z"/>
              <path class="cls-5" d="M230.44,299.61c-.09.79-.5,1.6-1.24,2.41-1.14,1.3-2.74,1.95-4.8,1.95-1.7,0-3.2-.55-4.5-1.64-1.3-1.09-1.95-2.88-1.95-5.34,0-2.31.59-4.08,1.76-5.32,1.17-1.23,2.69-1.85,4.56-1.85,1.11,0,2.11.21,3,.62.89.42,1.63,1.07,2.21,1.97.52.79.86,1.71,1.02,2.76.09.61.13,1.5.11,2.65h-9.14c.05,1.34.47,2.28,1.26,2.82.48.33,1.06.5,1.74.5.72,0,1.3-.2,1.75-.61.25-.22.46-.53.65-.92h3.57ZM226.99,295.52c-.06-.92-.34-1.62-.84-2.1-.5-.48-1.13-.72-1.87-.72-.81,0-1.44.25-1.88.76-.45.51-.73,1.19-.84,2.06h5.43Z"/>
            </g>
          </g>
        </g>
      </g>
    </g>
  </g>
  <g>
    <path d="M90.36,418.66v-7.52h12.16v-40.96h-12v-7.52h32.48v7.52h-12v40.96h12.16v7.52h-32.8Z"/>
    <path d="M129.72,418.66v-7.36h9.68v-22.32c0-1.76-.85-2.64-2.56-2.64h-6.32v-7.36h9.52c2.19,0,3.97.63,5.36,1.88,1.39,1.25,2.08,3,2.08,5.24v.96h.4c.59-2.99,1.85-5.24,3.8-6.76,1.95-1.52,4.79-2.28,8.52-2.28h6.16v8.96h-8.64c-3.15,0-5.57,1.09-7.28,3.28-1.71,2.19-2.56,4.8-2.56,7.84v13.2h12.32v7.36h-30.48Z"/>
    <path d="M188.36,419.62c-3.79,0-7.17-.85-10.16-2.56-2.99-1.71-5.33-4.12-7.04-7.24-1.71-3.12-2.56-6.79-2.56-11s.85-7.88,2.56-11c1.71-3.12,4.05-5.53,7.04-7.24,2.99-1.71,6.4-2.56,10.24-2.56s7.24.85,10.2,2.56c2.96,1.71,5.28,4.12,6.96,7.24,1.68,3.12,2.52,6.79,2.52,11s-.85,7.88-2.56,11c-1.71,3.12-4.04,5.53-7,7.24-2.96,1.71-6.36,2.56-10.2,2.56ZM188.36,411.54c2.03,0,3.89-.45,5.6-1.36,1.71-.91,3.08-2.31,4.12-4.2,1.04-1.89,1.56-4.28,1.56-7.16s-.52-5.33-1.56-7.2c-1.04-1.87-2.4-3.25-4.08-4.16-1.68-.91-3.53-1.36-5.56-1.36s-3.89.45-5.6,1.36c-1.71.91-3.08,2.29-4.12,4.16-1.04,1.87-1.56,4.27-1.56,7.2,0,4.37,1.11,7.59,3.32,9.64,2.21,2.05,4.84,3.08,7.88,3.08Z"/>
    <path d="M211.4,418.66v-39.68h7.36l.72,5.92h.4c1.07-1.92,2.72-3.55,4.96-4.88s4.83-2,7.76-2c4.85,0,8.51,1.47,10.96,4.4,2.45,2.93,3.68,7.25,3.68,12.96v23.28h-8.48v-22.24c0-3.31-.69-5.87-2.08-7.68-1.39-1.81-3.57-2.72-6.56-2.72s-5.37.99-7.32,2.96c-1.95,1.97-2.92,4.83-2.92,8.56v21.12h-8.48Z"/>
    <path d="M273.64,419.62c-4.69,0-8.68-1.2-11.96-3.6-3.28-2.4-5.79-5.77-7.52-10.12-1.73-4.35-2.6-9.4-2.6-15.16s.87-10.89,2.6-15.24c1.73-4.35,4.25-7.73,7.56-10.16,3.31-2.43,7.28-3.64,11.92-3.64,6.03,0,10.83,1.64,14.4,4.92,3.57,3.28,5.65,7.72,6.24,13.32h-9.36c-.48-2.93-1.67-5.37-3.56-7.32-1.89-1.95-4.49-2.92-7.8-2.92-4.21,0-7.49,1.87-9.84,5.6-2.35,3.73-3.52,8.88-3.52,15.44s1.17,11.61,3.52,15.32c2.35,3.71,5.63,5.56,9.84,5.56,3.41,0,6.03-.89,7.84-2.68,1.81-1.79,2.99-4.15,3.52-7.08h9.36c-.85,5.49-3.01,9.83-6.48,13-3.47,3.17-8.19,4.76-14.16,4.76Z"/>
    <path d="M317.8,419.62c-3.79,0-7.17-.85-10.16-2.56-2.99-1.71-5.33-4.12-7.04-7.24-1.71-3.12-2.56-6.79-2.56-11s.85-7.88,2.56-11c1.71-3.12,4.05-5.53,7.04-7.24,2.99-1.71,6.4-2.56,10.24-2.56s7.24.85,10.2,2.56c2.96,1.71,5.28,4.12,6.96,7.24,1.68,3.12,2.52,6.79,2.52,11s-.85,7.88-2.56,11c-1.71,3.12-4.04,5.53-7,7.24-2.96,1.71-6.36,2.56-10.2,2.56ZM317.8,411.54c2.03,0,3.89-.45,5.6-1.36,1.71-.91,3.08-2.31,4.12-4.2,1.04-1.89,1.56-4.28,1.56-7.16s-.52-5.33-1.56-7.2c-1.04-1.87-2.4-3.25-4.08-4.16-1.68-.91-3.53-1.36-5.56-1.36s-3.89.45-5.6,1.36c-1.71.91-3.08,2.29-4.12,4.16-1.04,1.87-1.56,4.27-1.56,7.2,0,4.37,1.11,7.59,3.32,9.64,2.21,2.05,4.84,3.08,7.88,3.08Z"/>
    <path d="M344.28,418.66v-7.36h9.68v-22.32c0-1.76-.85-2.64-2.56-2.64h-6.32v-7.36h9.52c2.19,0,3.97.63,5.36,1.88,1.39,1.25,2.08,3,2.08,5.24v.96h.4c.59-2.99,1.85-5.24,3.8-6.76,1.95-1.52,4.79-2.28,8.52-2.28h6.16v8.96h-8.64c-3.15,0-5.57,1.09-7.28,3.28-1.71,2.19-2.56,4.8-2.56,7.84v13.2h12.32v7.36h-30.48Z"/>
    <path d="M406.92,419.62c-3.84,0-7.23-.87-10.16-2.6-2.93-1.73-5.23-4.15-6.88-7.24-1.65-3.09-2.48-6.69-2.48-10.8s.81-7.81,2.44-10.96c1.63-3.15,3.92-5.6,6.88-7.36,2.96-1.76,6.39-2.64,10.28-2.64s7.15.87,9.92,2.6c2.77,1.73,4.92,4.04,6.44,6.92,1.52,2.88,2.28,6.05,2.28,9.52v1.72c0,.61-.03,1.29-.08,2.04h-29.84c.27,3.68,1.47,6.47,3.6,8.36,2.13,1.89,4.64,2.84,7.52,2.84,2.51,0,4.49-.52,5.96-1.56,1.47-1.04,2.55-2.47,3.24-4.28h8.56c-.96,3.79-2.96,6.97-6,9.56-3.04,2.59-6.93,3.88-11.68,3.88ZM406.92,385.38c-2.61,0-4.93.79-6.96,2.36-2.03,1.57-3.33,3.77-3.92,6.6h21.12c-.21-2.67-1.25-4.83-3.12-6.48-1.87-1.65-4.24-2.48-7.12-2.48Z"/>
  </g>
</svg>
