<?xml version="1.0" encoding="UTF-8"?>
<svg id="Layer_1" data-name="Layer 1" xmlns="http://www.w3.org/2000/svg" xmlns:xlink="http://www.w3.org/1999/xlink" viewBox="39.68 72.09 420.32 386.48">
  <defs>
    <style>
      .cls-1 {
        fill: url(#linear-gradient-3);
      }

      .cls-2 {
        fill: url(#linear-gradient-2);
      }

      .cls-3 {
        fill: url(#linear-gradient);
      }
    </style>
    <linearGradient id="linear-gradient" x1="141.27" y1="304.29" x2="277.4" y2="68.5" gradientUnits="userSpaceOnUse">
      <stop offset="0" stop-color="#ff990f"/>
      <stop offset="1" stop-color="#ffc946"/>
    </linearGradient>
    <linearGradient id="linear-gradient-2" x1="173.8" y1="323.07" x2="309.93" y2="87.28" xlink:href="#linear-gradient"/>
    <linearGradient id="linear-gradient-3" x1="209.03" y1="343.41" x2="345.16" y2="107.62" xlink:href="#linear-gradient"/>
  </defs>
  <g>
    <path class="cls-3" d="M350.07,115.97c-24.87-26.97-60.49-43.88-100.07-43.88s-75.21,16.91-100.08,43.89c49.66,12.27,156.82,11.01,200.15,0Z"/>
    <path class="cls-2" d="M373.59,151.18c-54.14,17.14-183.72,16.7-248.74,3.52-7.03,16.43-10.95,34.5-10.95,53.5,0,12.64,1.76,24.87,4.98,36.48,26.01,2.93,87.83,4.2,119.68-2.67,38.99-8.42,57.97-18.8,83.08-24.49,27.99-6.35,52-8.37,64.46-9.01,0-.1,0-.2,0-.3,0-20.37-4.5-39.67-12.52-57.02Z"/>
    <path class="cls-1" d="M129.96,272.37c22.93,42.8,68.08,71.93,120.04,71.93s97-29.06,119.96-71.78c-23.68,10.11-67.52,19.36-119.96,19.36-44.36,0-93.28-11.89-120.04-19.5Z"/>
  </g>
  <g>
    <path d="M39.68,440.97v-56h8.48v25.6l19.84-25.6h10.48l-21.92,27.76v.48l22.4,27.76h-10.72l-20.08-25.12v25.12h-8.48Z"/>
    <path d="M98.4,441.93c-3.79,0-7.17-.85-10.16-2.56-2.99-1.71-5.33-4.12-7.04-7.24-1.71-3.12-2.56-6.79-2.56-11s.85-7.88,2.56-11c1.71-3.12,4.05-5.53,7.04-7.24,2.99-1.71,6.4-2.56,10.24-2.56s7.24.85,10.2,2.56,5.28,4.12,6.96,7.24c1.68,3.12,2.52,6.79,2.52,11s-.85,7.88-2.56,11c-1.71,3.12-4.04,5.53-7,7.24-2.96,1.71-6.36,2.56-10.2,2.56ZM98.4,433.85c2.03,0,3.89-.45,5.6-1.36,1.71-.91,3.08-2.31,4.12-4.2s1.56-4.28,1.56-7.16-.52-5.33-1.56-7.2c-1.04-1.87-2.4-3.25-4.08-4.16-1.68-.91-3.53-1.36-5.56-1.36s-3.89.45-5.6,1.36c-1.71.91-3.08,2.29-4.12,4.16-1.04,1.87-1.56,4.27-1.56,7.2,0,4.37,1.11,7.59,3.32,9.64,2.21,2.05,4.84,3.08,7.88,3.08Z"/>
    <path d="M124.96,440.97v-39.68h7.36l.72,5.92h.4c1.07-1.92,2.72-3.55,4.96-4.88,2.24-1.33,4.83-2,7.76-2,4.85,0,8.51,1.47,10.96,4.4,2.45,2.93,3.68,7.25,3.68,12.96v23.28h-8.48v-22.24c0-3.31-.69-5.87-2.08-7.68-1.39-1.81-3.57-2.72-6.56-2.72s-5.37.99-7.32,2.96c-1.95,1.97-2.92,4.83-2.92,8.56v21.12h-8.48Z"/>
    <path d="M165.04,458.57v-7.44h6.48c1.87,0,3.21-.39,4.04-1.16.83-.77,1.24-2.07,1.24-3.88v-37.6h-10.08v-7.2h10.08v-5.52c0-4.43,1.09-7.6,3.28-9.52,2.19-1.92,5.31-2.88,9.36-2.88h9.68v7.44h-8.64c-1.87,0-3.2.37-4,1.12-.8.75-1.2,2.05-1.2,3.92v5.44h13.84v7.2h-13.84v37.68c0,4.43-1.09,7.6-3.28,9.52-2.19,1.92-5.33,2.88-9.44,2.88h-7.52Z"/>
    <path d="M206.8,440.97v-7.36h12.48v-22.32c0-1.76-.85-2.64-2.56-2.64h-8.8v-7.36h10.32c3.31,0,5.72.76,7.24,2.28s2.28,3.93,2.28,7.24v22.8h12.48v7.36h-33.44ZM222.72,395.21c-1.87,0-3.43-.6-4.68-1.8-1.25-1.2-1.88-2.68-1.88-4.44s.63-3.23,1.88-4.4c1.25-1.17,2.81-1.76,4.68-1.76s3.51.59,4.76,1.76c1.25,1.17,1.88,2.64,1.88,4.4s-.63,3.24-1.88,4.44c-1.25,1.2-2.84,1.8-4.76,1.8Z"/>
    <path d="M261.36,441.93c-3.31,0-6.27-.79-8.88-2.36-2.61-1.57-4.68-3.91-6.2-7-1.52-3.09-2.28-6.91-2.28-11.44s.77-8.35,2.32-11.44c1.55-3.09,3.64-5.43,6.28-7,2.64-1.57,5.59-2.36,8.84-2.36,3.04,0,5.55.57,7.52,1.72,1.97,1.15,3.44,2.6,4.4,4.36v-23.04h8.48v57.6h-7.28l-.72-5.84h-.48c-1.07,2.08-2.57,3.73-4.52,4.96-1.95,1.23-4.44,1.84-7.48,1.84ZM263.12,433.85c3.04,0,5.56-1.07,7.56-3.2s3-5.31,3-9.52-1-7.45-3-9.56c-2-2.11-4.52-3.16-7.56-3.16s-5.56,1.07-7.56,3.2c-2,2.13-3,5.33-3,9.6s1,7.37,3,9.48c2,2.11,4.52,3.16,7.56,3.16Z"/>
    <path d="M308.32,441.93c-3.84,0-7.23-.87-10.16-2.6-2.93-1.73-5.23-4.15-6.88-7.24-1.65-3.09-2.48-6.69-2.48-10.8s.81-7.81,2.44-10.96c1.63-3.15,3.92-5.6,6.88-7.36s6.39-2.64,10.28-2.64,7.15.87,9.92,2.6c2.77,1.73,4.92,4.04,6.44,6.92,1.52,2.88,2.28,6.05,2.28,9.52v1.72c0,.61-.03,1.29-.08,2.04h-29.84c.27,3.68,1.47,6.47,3.6,8.36,2.13,1.89,4.64,2.84,7.52,2.84,2.51,0,4.49-.52,5.96-1.56,1.47-1.04,2.55-2.46,3.24-4.28h8.56c-.96,3.79-2.96,6.97-6,9.56-3.04,2.59-6.93,3.88-11.68,3.88ZM308.32,407.69c-2.61,0-4.93.79-6.96,2.36-2.03,1.57-3.33,3.77-3.92,6.6h21.12c-.21-2.67-1.25-4.83-3.12-6.48-1.87-1.65-4.24-2.48-7.12-2.48Z"/>
    <path d="M334.4,440.97v-39.68h7.36l.72,5.92h.4c1.07-1.92,2.72-3.55,4.96-4.88,2.24-1.33,4.83-2,7.76-2,4.85,0,8.51,1.47,10.96,4.4,2.45,2.93,3.68,7.25,3.68,12.96v23.28h-8.48v-22.24c0-3.31-.69-5.87-2.08-7.68-1.39-1.81-3.57-2.72-6.56-2.72s-5.37.99-7.32,2.96c-1.95,1.97-2.92,4.83-2.92,8.56v21.12h-8.48Z"/>
    <path d="M397.04,441.93c-3.68,0-6.97-.85-9.88-2.56-2.91-1.71-5.19-4.12-6.84-7.24-1.65-3.12-2.48-6.79-2.48-11s.84-7.87,2.52-10.96c1.68-3.09,3.96-5.51,6.84-7.24,2.88-1.73,6.16-2.6,9.84-2.6,5.07,0,9.16,1.27,12.28,3.8s5.11,6.01,5.96,10.44h-8.88c-.53-1.92-1.61-3.44-3.24-4.56-1.63-1.12-3.69-1.68-6.2-1.68-1.81,0-3.53.48-5.16,1.44-1.63.96-2.93,2.39-3.92,4.28-.99,1.89-1.48,4.25-1.48,7.08s.49,5.12,1.48,7.04c.99,1.92,2.29,3.38,3.92,4.36,1.63.99,3.35,1.48,5.16,1.48,2.56,0,4.61-.56,6.16-1.68,1.55-1.12,2.64-2.67,3.28-4.64h8.88c-1.07,4.38-3.15,7.84-6.24,10.4-3.09,2.56-7.09,3.84-12,3.84Z"/>
    <path d="M441.28,441.93c-3.84,0-7.23-.87-10.16-2.6-2.93-1.73-5.23-4.15-6.88-7.24-1.65-3.09-2.48-6.69-2.48-10.8s.81-7.81,2.44-10.96c1.63-3.15,3.92-5.6,6.88-7.36s6.39-2.64,10.28-2.64,7.15.87,9.92,2.6c2.77,1.73,4.92,4.04,6.44,6.92,1.52,2.88,2.28,6.05,2.28,9.52v1.72c0,.61-.03,1.29-.08,2.04h-29.84c.27,3.68,1.47,6.47,3.6,8.36,2.13,1.89,4.64,2.84,7.52,2.84,2.51,0,4.49-.52,5.96-1.56,1.47-1.04,2.55-2.46,3.24-4.28h8.56c-.96,3.79-2.96,6.97-6,9.56-3.04,2.59-6.93,3.88-11.68,3.88ZM441.28,407.69c-2.61,0-4.93.79-6.96,2.36-2.03,1.57-3.33,3.77-3.92,6.6h21.12c-.21-2.67-1.25-4.83-3.12-6.48-1.87-1.65-4.24-2.48-7.12-2.48Z"/>
  </g>
</svg>