<?xml version="1.0" encoding="UTF-8"?>
<svg id="Layer_1" data-name="Layer 1" xmlns="http://www.w3.org/2000/svg" xmlns:xlink="http://www.w3.org/1999/xlink" viewBox="71.5 39.21 366.46 441.24002">
  <defs>
    <style>
      .cls-1, .cls-2, .cls-3 {
        stroke: #221f20;
        stroke-miterlimit: 10;
      }

      .cls-1, .cls-3 {
        fill: none;
        stroke-width: 5.5px;
      }

      .cls-2 {
        fill: #221f20;
      }

      .cls-4 {
        fill: url(#linear-gradient-7);
      }

      .cls-5 {
        fill: url(#linear-gradient-5);
      }

      .cls-6 {
        fill: url(#linear-gradient-6);
      }

      .cls-7 {
        fill: url(#linear-gradient-3);
      }

      .cls-8 {
        fill: url(#linear-gradient);
      }

      .cls-9 {
        fill: #fff;
      }

      .cls-10 {
        fill: #5279a3;
      }

      .cls-11 {
        fill: url(#linear-gradient-4);
      }

      .cls-11, .cls-12 {
        opacity: .27;
      }

      .cls-11, .cls-12, .cls-13, .cls-14 {
        isolation: isolate;
      }

      .cls-12 {
        fill: url(#linear-gradient-2);
      }

      .cls-13 {
        fill: url(#linear-gradient-8);
      }

      .cls-13, .cls-14 {
        opacity: .42;
      }

      .cls-14 {
        fill: url(#linear-gradient-9);
      }

      .cls-15 {
        fill: url(#linear-gradient-10);
      }

      .cls-3 {
        stroke-linecap: round;
      }
    </style>
    <linearGradient id="linear-gradient" x1="-5311.75" y1="-7236.55" x2="-5129.06" y2="-7419.25" gradientTransform="translate(5417.06 -7094.07) scale(1 -1)" gradientUnits="userSpaceOnUse">
      <stop offset="0" stop-color="#53b7f9"/>
      <stop offset=".14" stop-color="#50b2f8"/>
      <stop offset=".31" stop-color="#49a3f5"/>
      <stop offset=".49" stop-color="#3e8bf2"/>
      <stop offset=".49" stop-color="#3e8bf2"/>
      <stop offset=".6" stop-color="#3a82f0"/>
      <stop offset=".76" stop-color="#326cec"/>
      <stop offset=".96" stop-color="#2348e5"/>
      <stop offset=".99" stop-color="#2142e4"/>
    </linearGradient>
    <linearGradient id="linear-gradient-2" x1="2352.03" y1="-8471.25" x2="2318.69" y2="-8529.01" gradientTransform="translate(1788.07 -7722.28) rotate(28.8) scale(1.01 -.9)" gradientUnits="userSpaceOnUse">
      <stop offset="0" stop-color="#fff" stop-opacity="0"/>
      <stop offset=".12" stop-color="#c8d4e1" stop-opacity=".32"/>
      <stop offset=".25" stop-color="#95adc6" stop-opacity=".61"/>
      <stop offset=".37" stop-color="#7090b3" stop-opacity=".82"/>
      <stop offset=".46" stop-color="#5a7fa7" stop-opacity=".95"/>
      <stop offset=".52" stop-color="#5279a3"/>
    </linearGradient>
    <linearGradient id="linear-gradient-3" x1="-6717.72" y1="-7236.55" x2="-6535.02" y2="-7419.25" gradientTransform="translate(-6314.28 -7094.07) rotate(-180)" xlink:href="#linear-gradient"/>
    <linearGradient id="linear-gradient-4" x1="1135.03" y1="-9218.88" x2="1101.68" y2="-9276.64" gradientTransform="translate(-2685.29 -7722.28) rotate(151.2) scale(1.01 .9)" xlink:href="#linear-gradient-2"/>
    <linearGradient id="linear-gradient-5" x1="3907.45" y1="-5505.3" x2="3917.22" y2="-5510.93" gradientTransform="translate(5762.51 -3621.24) rotate(90) scale(1 -1)" gradientUnits="userSpaceOnUse">
      <stop offset="0" stop-color="#fff" stop-opacity="0"/>
      <stop offset=".08" stop-color="#e5ebf1" stop-opacity=".12"/>
      <stop offset=".29" stop-color="#a6bacf" stop-opacity=".41"/>
      <stop offset=".47" stop-color="#7896b7" stop-opacity=".62"/>
      <stop offset=".63" stop-color="#5c80a8" stop-opacity=".75"/>
      <stop offset=".73" stop-color="#5279a3" stop-opacity=".8"/>
    </linearGradient>
    <linearGradient id="linear-gradient-6" x1="3928.95" y1="-5505.3" x2="3938.72" y2="-5510.93" xlink:href="#linear-gradient-5"/>
    <linearGradient id="linear-gradient-7" x1="3951.23" y1="-5505.3" x2="3961" y2="-5510.94" xlink:href="#linear-gradient-5"/>
    <linearGradient id="linear-gradient-8" x1="232.15" y1="-7301.71" x2="214.35" y2="-7332.54" gradientTransform="translate(0 -7094.07) scale(1 -1)" gradientUnits="userSpaceOnUse">
      <stop offset="0" stop-color="#fff" stop-opacity="0"/>
      <stop offset="0" stop-color="#fbfcfd" stop-opacity=".02"/>
      <stop offset=".08" stop-color="#ced9e5" stop-opacity=".28"/>
      <stop offset=".17" stop-color="#a8bbd0" stop-opacity=".5"/>
      <stop offset=".25" stop-color="#88a3c0" stop-opacity=".68"/>
      <stop offset=".35" stop-color="#7090b3" stop-opacity=".82"/>
      <stop offset=".44" stop-color="#5f83aa" stop-opacity=".92"/>
      <stop offset=".55" stop-color="#557ba4" stop-opacity=".98"/>
      <stop offset=".7" stop-color="#5279a3"/>
    </linearGradient>
    <linearGradient id="linear-gradient-9" x1="2505.79" y1="-7290.5" x2="2524.48" y2="-7322.86" gradientTransform="translate(2802.13 -7094.07) rotate(-180)" gradientUnits="userSpaceOnUse">
      <stop offset="0" stop-color="#fff" stop-opacity="0"/>
      <stop offset=".02" stop-color="#f5f7fa" stop-opacity=".05"/>
      <stop offset=".16" stop-color="#c4d1df" stop-opacity=".34"/>
      <stop offset=".29" stop-color="#9bb1c9" stop-opacity=".58"/>
      <stop offset=".42" stop-color="#7b98b8" stop-opacity=".76"/>
      <stop offset=".55" stop-color="#6487ac" stop-opacity=".89"/>
      <stop offset=".67" stop-color="#567ca5" stop-opacity=".97"/>
      <stop offset=".79" stop-color="#5279a3"/>
    </linearGradient>
    <linearGradient id="linear-gradient-10" x1="3835.65" y1="-5505.2" x2="3845.75" y2="-5511.03" xlink:href="#linear-gradient-5"/>
  </defs>
  <g id="Layer_5" data-name="Layer 5">
    <path class="cls-1" d="M182.93,105.34l-22.43-15.68c5.12-7.32,13.51-11.69,22.43-11.69,15.02,0,27.37,12.36,27.37,27.37,0,5.43-1.62,10.74-4.64,15.25l-22.73-15.25h0Z"/>
    <polygon class="cls-9" points="243.82 215.35 253.3 267.86 269.71 213.89 243.82 215.35"/>
    <path class="cls-8" d="M254.78,262.45l-9.7-44.55c-.56-2.55-2.76-4.42-5.37-4.54-6.51-.3-18-1.04-22.59-2.15-1.04-.25-1.94-.87-2.55-1.74l-32.26-46.24c-1.24-1.3-1.37-3.31-.3-4.76l24.58-36.47c1.18-1.6.74-3.87-.95-4.91l-41.92-28.55c-1.25-.77-2.76-.8-4-.19-.84.42-1.49,1.16-1.88,2.01l-35.43,85.35c-.64,1.41-.49,3.05.4,4.32l69.97,88.48c1.3,1.76,2,3.88,2.01,6.07l.31,82.99c0,.78.64,1.42,1.43,1.42l57.29-.22c.79,0,1.42-.65,1.42-1.44l-.44-94.59c0-.1-.01-.2-.03-.29h0Z"/>
    <path class="cls-9" d="M206.88,128.04l-58.03-38.59c-.67-.45-1.55-.33-1.96.26l-19.77,39.06c-.31.46.03,1.09.62,1.23l69.4,13.52c.39.09.78-.05.98-.35l9.05-14.02c.23-.35.1-.84-.3-1.11h0Z"/>
    <path class="cls-3" d="M245.73,208.18s-28.37-8.33-28.53-27.46c-.03-3.69-11.05-5.98-11.05-5.98,0,0,.6-21.44,2.19-27.63,2.86-11.18,12.2-29.9,38.76-29.9,24.63,0,32.82,17.4,34.44,27.73,2.17,13.86,2.7,36.85-5.42,55.85"/>
    <path class="cls-12" d="M206.87,128.01l-58.5-38.9c-.41-.27-.95-.2-1.2.16l-20.04,39.46c-.32.47,0,1.13.62,1.28l69.46,13.51c.35.08.71-.04.88-.32l9.08-14.07c.23-.36.1-.86-.3-1.12h0Z"/>
    <path class="cls-1" d="M325.82,105.34l22.43-15.68c-5.12-7.32-13.51-11.69-22.43-11.69-15.02,0-27.37,12.36-27.37,27.37,0,5.43,1.62,10.74,4.64,15.25l22.73-15.25Z"/>
    <path class="cls-7" d="M253.97,262.45l9.7-44.55c.56-2.55,2.76-4.42,5.37-4.54,6.51-.3,18-1.04,22.59-2.15,1.04-.25,1.94-.87,2.55-1.74l32.26-46.24c1.24-1.3,1.37-3.31.3-4.76l-24.58-36.47c-1.18-1.6-.74-3.87.95-4.91l41.92-28.55c1.25-.77,2.76-.8,4-.19.84.42,1.49,1.16,1.88,2.01l35.43,85.35c.64,1.41.49,3.05-.4,4.32l-69.97,88.48c-1.3,1.76-2,3.88-2.01,6.07l-.31,82.99c0,.78-.64,1.42-1.43,1.42l-57.29-.22c-.79,0-1.42-.65-1.42-1.44l.44-94.59c0-.1.01-.2.03-.29h0Z"/>
    <path class="cls-9" d="M301.87,128.04l58.03-38.59c.67-.45,1.55-.33,1.96.26l19.77,39.06c.31.46-.03,1.09-.62,1.23l-69.4,13.52c-.39.09-.78-.05-.98-.35l-9.05-14.02c-.23-.35-.1-.84.3-1.11h0Z"/>
    <path class="cls-11" d="M301.88,128.01l58.5-38.9c.41-.27.95-.2,1.2.16l20.04,39.46c.32.47,0,1.13-.62,1.28l-69.46,13.51c-.35.08-.71-.04-.88-.32l-9.08-14.07c-.23-.36-.1-.86.3-1.12h0Z"/>
    <path class="cls-2" d="M272.04,44.38c7.73-3.08,12.98-5.17,12.98-5.17,0,0-62.21,35.58-70.05,40.07-.89.43-1.75.84-1.75.84-4.28,2.06-8.86,1.44-10.22-1.4-1.37-2.83.99-6.8,5.27-8.87,0,0,.43-.21,1-.48,2.12-.84,41.68-16.6,62.76-25h0Z"/>
  </g>
  <g id="Layer_7" data-name="Layer 7">
    <circle class="cls-10" cx="139.11" cy="123.75" r="3.67"/>
    <circle class="cls-10" cx="368.32" cy="123.75" r="3.67"/>
    <circle class="cls-9" cx="254.4" cy="291.09" r="5.64"/>
    <circle class="cls-5" cx="254.4" cy="291.09" r="5.64"/>
    <circle class="cls-9" cx="254.4" cy="312.6" r="5.64"/>
    <circle class="cls-6" cx="254.4" cy="312.6" r="5.64"/>
    <path class="cls-9" d="M248.76,334.88c0-3.12,2.52-5.64,5.64-5.64s5.64,2.52,5.64,5.64-2.52,5.64-5.64,5.64-5.64-2.52-5.64-5.64Z"/>
    <path class="cls-4" d="M248.76,334.88c0-3.12,2.52-5.64,5.64-5.64s5.64,2.52,5.64,5.64-2.52,5.64-5.64,5.64-5.64-2.52-5.64-5.64Z"/>
    <path class="cls-9" d="M254.54,220.23l-45.67,19.51c-.38.16-.8-.11-.8-.53v-41.43c0-.42.44-.7.82-.51l45.67,21.92c.44.22.42.85-.02,1.04h0Z"/>
    <path class="cls-13" d="M254.67,220.14l-45.8,19.6c-.38.16-.8-.11-.8-.53v-41.43c0-.36.5-.67.82-.51l45.79,21.98c.38.18.38.73-.01.89h0Z"/>
    <path class="cls-9" d="M254.26,220.23l45.67,19.51c.38.16.8-.11.8-.53v-41.43c0-.42-.44-.7-.82-.51l-45.67,21.92c-.44.22-.42.85.02,1.04h0Z"/>
    <path class="cls-14" d="M254.12,220.13l45.8,19.6c.38.16.8-.11.8-.53v-41.43c0-.36-.5-.67-.82-.51l-45.79,21.98c-.38.18-.38.73.01.89h0Z"/>
    <circle class="cls-9" cx="254.4" cy="219.49" r="5.79"/>
    <circle class="cls-15" cx="254.4" cy="219.45" r="5.83"/>
  </g>
  <g>
    <path d="M98.07,420.43c-3.12,0-5.81-.81-8.08-2.42-2.27-1.61-4.02-3.91-5.23-6.88-1.21-2.97-1.81-6.51-1.81-10.62s.6-7.64,1.81-10.62c1.21-2.97,2.95-5.26,5.23-6.88,2.27-1.61,4.97-2.42,8.08-2.42s5.86.81,8.11,2.42c2.26,1.61,3.99,3.91,5.2,6.88,1.21,2.97,1.81,6.51,1.81,10.62s-.6,7.64-1.81,10.62c-1.21,2.97-2.94,5.26-5.2,6.88-2.25,1.61-4.96,2.42-8.11,2.42ZM98.07,414.93c2.75,0,4.97-1.24,6.65-3.71,1.69-2.47,2.53-6.04,2.53-10.7s-.84-8.22-2.53-10.7c-1.69-2.48-3.9-3.71-6.65-3.71s-5.01,1.24-6.68,3.71c-1.67,2.47-2.5,6.04-2.5,10.7s.83,8.22,2.5,10.7c1.67,2.48,3.9,3.71,6.68,3.71Z"/>
    <path d="M115.83,431.87v-39.38h5.06l.44,4.18h.33c.73-1.36,1.84-2.5,3.33-3.44,1.48-.94,3.25-1.4,5.31-1.4s4.07.54,5.83,1.62c1.76,1.08,3.16,2.68,4.21,4.79s1.57,4.74,1.57,7.89-.54,5.74-1.62,7.86c-1.08,2.13-2.54,3.73-4.37,4.81-1.83,1.08-3.89,1.62-6.16,1.62-2.02,0-3.7-.4-5.06-1.21-1.36-.81-2.36-1.72-3.02-2.75v15.4h-5.83ZM128.76,414.87c2.05,0,3.77-.73,5.14-2.2s2.06-3.67,2.06-6.6-.69-5.11-2.06-6.54c-1.38-1.43-3.09-2.14-5.14-2.14s-3.82.72-5.2,2.17c-1.38,1.45-2.06,3.64-2.06,6.57s.69,5.08,2.06,6.54,3.11,2.2,5.2,2.2Z"/>
    <path d="M159.34,420.43c-2.64,0-4.97-.6-6.98-1.79-2.02-1.19-3.59-2.85-4.73-4.98-1.14-2.13-1.71-4.6-1.71-7.42s.56-5.37,1.68-7.54c1.12-2.16,2.7-3.85,4.73-5.06,2.04-1.21,4.39-1.82,7.07-1.82s4.91.6,6.82,1.79c1.91,1.19,3.38,2.78,4.43,4.76,1.05,1.98,1.57,4.16,1.57,6.54v1.18c0,.42-.02.89-.06,1.4h-20.52c.18,2.53,1.01,4.45,2.48,5.75,1.47,1.3,3.19,1.95,5.17,1.95,1.72,0,3.09-.36,4.1-1.07,1.01-.71,1.75-1.7,2.23-2.94h5.88c-.66,2.6-2.03,4.79-4.12,6.57-2.09,1.78-4.77,2.67-8.03,2.67ZM159.34,396.89c-1.8,0-3.39.54-4.79,1.62-1.39,1.08-2.29,2.59-2.69,4.54h14.52c-.15-1.83-.86-3.32-2.15-4.46-1.28-1.14-2.92-1.71-4.9-1.71Z"/>
    <path d="M177.27,419.77v-27.28h5.06l.5,4.07h.27c.73-1.32,1.87-2.44,3.41-3.36,1.54-.92,3.32-1.38,5.34-1.38,3.34,0,5.85,1.01,7.53,3.03,1.69,2.02,2.53,4.99,2.53,8.91v16h-5.83v-15.29c0-2.27-.48-4.03-1.43-5.28-.95-1.25-2.46-1.87-4.51-1.87s-3.69.68-5.03,2.04c-1.34,1.36-2.01,3.32-2.01,5.89v14.52h-5.83Z"/>
    <path d="M216.31,419.77v-38.5h6.16l7.98,17.38,7.98-17.38h6.16v38.5h-5.55v-27.39l-6.27,13.75h-4.62l-6.27-13.7v27.33h-5.55Z"/>
    <path d="M258.43,420.43c-2.16,0-3.98-.38-5.44-1.13-1.47-.75-2.57-1.76-3.3-3.02-.73-1.27-1.1-2.65-1.1-4.15,0-2.68.98-4.77,2.94-6.27,1.96-1.5,4.74-2.25,8.33-2.25h7.04v-.61c0-4.11-1.91-6.16-5.72-6.16-1.58,0-2.91.34-3.99,1.02-1.08.68-1.81,1.77-2.17,3.27h-5.83c.29-2.86,1.53-5.12,3.71-6.79,2.18-1.67,4.94-2.5,8.28-2.5,4.03,0,6.97.99,8.8,2.97,1.83,1.98,2.75,4.71,2.75,8.19v16.78h-4.95l-.5-4.01h-.38c-.81,1.28-1.81,2.38-3.02,3.3-1.21.92-3.03,1.38-5.45,1.38ZM259.53,415.53c2.38,0,4.17-.72,5.36-2.17,1.19-1.45,1.84-3.29,1.95-5.53h-6.38c-2.09,0-3.57.34-4.43,1.02-.86.68-1.29,1.62-1.29,2.83s.43,2.15,1.29,2.83c.86.68,2.03,1.02,3.49,1.02Z"/>
    <path d="M279.17,419.77v-27.28h5.06l.5,4.07h.27c.73-1.32,1.87-2.44,3.41-3.36,1.54-.92,3.32-1.38,5.34-1.38,3.34,0,5.85,1.01,7.53,3.03,1.69,2.02,2.53,4.99,2.53,8.91v16h-5.83v-15.29c0-2.27-.48-4.03-1.43-5.28-.95-1.25-2.46-1.87-4.51-1.87s-3.69.68-5.03,2.04c-1.34,1.36-2.01,3.32-2.01,5.89v14.52h-5.83Z"/>
    <path d="M319.37,420.43c-2.16,0-3.98-.38-5.44-1.13-1.47-.75-2.57-1.76-3.3-3.02-.73-1.27-1.1-2.65-1.1-4.15,0-2.68.98-4.77,2.94-6.27,1.96-1.5,4.74-2.25,8.33-2.25h7.04v-.61c0-4.11-1.91-6.16-5.72-6.16-1.58,0-2.91.34-3.99,1.02-1.08.68-1.81,1.77-2.17,3.27h-5.83c.29-2.86,1.53-5.12,3.71-6.79,2.18-1.67,4.94-2.5,8.28-2.5,4.03,0,6.97.99,8.8,2.97,1.83,1.98,2.75,4.71,2.75,8.19v16.78h-4.95l-.5-4.01h-.38c-.81,1.28-1.81,2.38-3.02,3.3-1.21.92-3.03,1.38-5.45,1.38ZM320.47,415.53c2.38,0,4.17-.72,5.36-2.17,1.19-1.45,1.84-3.29,1.95-5.53h-6.38c-2.09,0-3.57.34-4.43,1.02-.86.68-1.29,1.62-1.29,2.83s.43,2.15,1.29,2.83c.86.68,2.03,1.02,3.49,1.02Z"/>
    <path d="M351.71,411.9c-1.69,0-3.25-.27-4.67-.83l-1.38,1.65c-.44.55-.56,1.07-.36,1.57.2.5.69.74,1.46.74h7.21c3.19,0,5.77.67,7.73,2.01,1.96,1.34,2.94,3.38,2.94,6.13,0,1.72-.43,3.29-1.29,4.7-.86,1.41-2.24,2.54-4.12,3.38-1.89.84-4.37,1.26-7.45,1.26-3.89,0-7.01-.72-9.38-2.17-2.36-1.45-3.55-3.62-3.55-6.52,0-1.03.25-1.97.74-2.83s1.15-1.64,1.95-2.34c-.99-.73-1.59-1.77-1.79-3.11-.2-1.34.19-2.63,1.18-3.88l2.42-3.08c-1.72-1.83-2.58-4.09-2.58-6.76,0-1.8.43-3.46,1.29-4.98.86-1.52,2.11-2.74,3.74-3.66,1.63-.92,3.6-1.38,5.91-1.38,1.5,0,2.9.22,4.18.66h10.28v3.85l-4.78.27v.5c.77,1.43,1.15,3.01,1.15,4.73s-.43,3.46-1.29,5c-.86,1.54-2.1,2.77-3.71,3.68-1.61.92-3.56,1.38-5.83,1.38ZM344.34,423.4c0,1.47.71,2.55,2.12,3.25,1.41.7,3.18,1.04,5.31,1.04,2.27,0,4.07-.38,5.39-1.16,1.32-.77,1.98-1.85,1.98-3.25,0-1.17-.48-2.1-1.43-2.78-.95-.68-2.57-1.02-4.84-1.02h-6.43c-1.39,1.1-2.09,2.4-2.09,3.91ZM351.71,407.23c1.61,0,2.94-.48,3.99-1.43,1.05-.95,1.57-2.27,1.57-3.96s-.52-2.9-1.57-3.85c-1.04-.95-2.37-1.43-3.99-1.43s-3,.48-4.04,1.43c-1.04.95-1.57,2.24-1.57,3.85s.52,3.01,1.57,3.96c1.04.95,2.39,1.43,4.04,1.43Z"/>
    <path d="M383.12,420.43c-2.64,0-4.97-.6-6.98-1.79-2.02-1.19-3.59-2.85-4.73-4.98-1.14-2.13-1.71-4.6-1.71-7.42s.56-5.37,1.68-7.54c1.12-2.16,2.7-3.85,4.73-5.06,2.04-1.21,4.39-1.82,7.07-1.82s4.91.6,6.82,1.79c1.91,1.19,3.38,2.78,4.43,4.76,1.05,1.98,1.57,4.16,1.57,6.54v1.18c0,.42-.02.89-.06,1.4h-20.52c.18,2.53,1.01,4.45,2.48,5.75,1.47,1.3,3.19,1.95,5.17,1.95,1.72,0,3.09-.36,4.1-1.07,1.01-.71,1.75-1.7,2.23-2.94h5.88c-.66,2.6-2.03,4.79-4.12,6.57-2.09,1.78-4.77,2.67-8.03,2.67ZM383.12,396.89c-1.8,0-3.39.54-4.79,1.62-1.39,1.08-2.29,2.59-2.69,4.54h14.52c-.15-1.83-.86-3.32-2.15-4.46-1.28-1.14-2.92-1.71-4.9-1.71Z"/>
    <path d="M411.77,420.43c-2.27,0-4.31-.54-6.1-1.62-1.8-1.08-3.22-2.69-4.26-4.81-1.04-2.13-1.57-4.75-1.57-7.86s.53-5.74,1.59-7.87c1.06-2.13,2.5-3.73,4.32-4.81,1.81-1.08,3.84-1.62,6.08-1.62,2.09,0,3.81.39,5.17,1.18,1.36.79,2.36,1.79,3.02,3v-15.84h5.83v39.6h-5.01l-.49-4.01h-.33c-.73,1.43-1.77,2.57-3.11,3.41-1.34.84-3.05,1.27-5.14,1.27ZM412.98,414.87c2.09,0,3.82-.73,5.2-2.2s2.06-3.65,2.06-6.54-.69-5.12-2.06-6.57c-1.38-1.45-3.11-2.17-5.2-2.17s-3.82.73-5.2,2.2-2.06,3.67-2.06,6.6.69,5.07,2.06,6.52c1.38,1.45,3.11,2.17,5.2,2.17Z"/>
    <path d="M86.68,480.43c-3.23,0-5.97-.83-8.22-2.48-2.26-1.65-3.98-3.97-5.17-6.96-1.19-2.99-1.79-6.46-1.79-10.42s.6-7.49,1.79-10.48c1.19-2.99,2.92-5.32,5.2-6.98,2.27-1.67,5-2.5,8.19-2.5,4.14,0,7.44,1.13,9.9,3.38s3.89,5.31,4.29,9.16h-6.43c-.33-2.02-1.15-3.69-2.45-5.03-1.3-1.34-3.09-2.01-5.36-2.01-2.9,0-5.15,1.28-6.77,3.85-1.61,2.57-2.42,6.1-2.42,10.61s.81,7.98,2.42,10.53c1.61,2.55,3.87,3.82,6.77,3.82,2.35,0,4.14-.61,5.39-1.84,1.25-1.23,2.05-2.85,2.42-4.87h6.43c-.59,3.78-2.07,6.76-4.45,8.94-2.38,2.18-5.63,3.27-9.74,3.27Z"/>
    <path d="M117.04,480.43c-2.6,0-4.93-.59-6.98-1.76-2.05-1.17-3.67-2.83-4.84-4.98-1.17-2.15-1.76-4.67-1.76-7.56s.59-5.42,1.76-7.56c1.17-2.15,2.79-3.8,4.84-4.98,2.05-1.17,4.4-1.76,7.04-1.76s4.98.59,7.01,1.76c2.04,1.17,3.63,2.83,4.79,4.98,1.15,2.14,1.73,4.67,1.73,7.56s-.59,5.42-1.76,7.56c-1.17,2.14-2.78,3.8-4.81,4.98-2.04,1.17-4.37,1.76-7.01,1.76ZM117.04,474.87c1.39,0,2.68-.31,3.85-.94,1.17-.62,2.12-1.59,2.83-2.89.71-1.3,1.07-2.94,1.07-4.92s-.36-3.67-1.07-4.95c-.72-1.28-1.65-2.24-2.81-2.86-1.15-.62-2.43-.93-3.82-.93s-2.68.31-3.85.93c-1.17.62-2.12,1.58-2.83,2.86-.71,1.28-1.07,2.93-1.07,4.95,0,3.01.76,5.22,2.28,6.63,1.52,1.41,3.33,2.12,5.42,2.12Z"/>
    <path d="M135.3,479.77v-27.28h5.06l.5,4.07h.27c.73-1.32,1.87-2.44,3.41-3.36,1.54-.92,3.32-1.38,5.34-1.38,3.34,0,5.85,1.01,7.53,3.03,1.69,2.02,2.53,4.99,2.53,8.91v16h-5.83v-15.29c0-2.27-.48-4.03-1.43-5.28-.95-1.25-2.46-1.87-4.51-1.87s-3.69.68-5.03,2.04c-1.34,1.36-2.01,3.32-2.01,5.89v14.52h-5.83Z"/>
    <path d="M180.95,479.77c-2.68,0-4.8-.65-6.38-1.95-1.58-1.3-2.36-3.62-2.36-6.96v-13.42h-6.88v-4.95h4.07c1.87,0,2.97-.92,3.3-2.75l.82-4.4h4.51v7.15h10.78v4.95h-10.78v13.31c0,1.43.32,2.43.96,3,.64.57,1.75.85,3.33.85h6.38v5.17h-7.75Z"/>
    <path d="M194.32,479.77v-5.06h6.66v-15.35c0-1.21-.59-1.81-1.76-1.81h-4.34v-5.06h6.54c1.5,0,2.73.43,3.69,1.29.95.86,1.43,2.06,1.43,3.6v.66h.28c.4-2.05,1.27-3.6,2.61-4.65,1.34-1.05,3.29-1.57,5.86-1.57h4.23v6.16h-5.94c-2.16,0-3.83.75-5,2.25-1.17,1.5-1.76,3.3-1.76,5.39v9.08h8.47v5.06h-20.96Z"/>
    <path d="M235.18,480.43c-2.6,0-4.93-.59-6.98-1.76-2.05-1.17-3.67-2.83-4.84-4.98-1.17-2.15-1.76-4.67-1.76-7.56s.59-5.42,1.76-7.56c1.17-2.15,2.79-3.8,4.84-4.98,2.05-1.17,4.4-1.76,7.04-1.76s4.98.59,7.01,1.76c2.04,1.17,3.63,2.83,4.79,4.98,1.15,2.14,1.73,4.67,1.73,7.56s-.59,5.42-1.76,7.56c-1.17,2.14-2.78,3.8-4.81,4.98-2.04,1.17-4.37,1.76-7.01,1.76ZM235.18,474.87c1.39,0,2.68-.31,3.85-.94,1.17-.62,2.12-1.59,2.83-2.89.71-1.3,1.07-2.94,1.07-4.92s-.36-3.67-1.07-4.95c-.72-1.28-1.65-2.24-2.81-2.86-1.15-.62-2.43-.93-3.82-.93s-2.68.31-3.85.93c-1.17.62-2.12,1.58-2.83,2.86-.71,1.28-1.07,2.93-1.07,4.95,0,3.01.76,5.22,2.28,6.63,1.52,1.41,3.33,2.12,5.42,2.12Z"/>
    <path d="M251.02,479.77v-5.06h9.13v-27.67c0-1.21-.59-1.82-1.76-1.82h-6.6v-5.06h7.65c2.13,0,3.75.56,4.87,1.68,1.12,1.12,1.68,2.74,1.68,4.87v28h9.18v5.06h-24.14Z"/>
    <path d="M292.15,479.77v-38.5h13.04c2.93,0,5.35.5,7.26,1.51,1.91,1.01,3.32,2.39,4.23,4.15.92,1.76,1.38,3.78,1.38,6.05s-.46,4.29-1.38,6.05c-.92,1.76-2.33,3.14-4.23,4.15-1.91,1.01-4.33,1.51-7.26,1.51h-7.21v15.07h-5.83ZM297.98,459.47h6.93c2.49,0,4.32-.59,5.47-1.76,1.15-1.17,1.73-2.75,1.73-4.73s-.58-3.51-1.73-4.7c-1.16-1.19-2.98-1.79-5.47-1.79h-6.93v12.98Z"/>
    <path d="M322.45,479.77v-5.06h9.13v-27.67c0-1.21-.59-1.82-1.76-1.82h-6.6v-5.06h7.65c2.13,0,3.75.56,4.87,1.68,1.12,1.12,1.68,2.74,1.68,4.87v28h9.18v5.06h-24.14Z"/>
    <path d="M361.34,480.43c-2.16,0-3.98-.38-5.44-1.13-1.47-.75-2.57-1.76-3.3-3.02-.73-1.27-1.1-2.65-1.1-4.15,0-2.68.98-4.77,2.94-6.27,1.96-1.5,4.74-2.25,8.33-2.25h7.04v-.61c0-4.11-1.91-6.16-5.72-6.16-1.58,0-2.91.34-3.99,1.02-1.08.68-1.81,1.77-2.17,3.27h-5.83c.29-2.86,1.53-5.12,3.71-6.79,2.18-1.67,4.94-2.5,8.28-2.5,4.03,0,6.97.99,8.8,2.97,1.83,1.98,2.75,4.71,2.75,8.19v16.78h-4.95l-.5-4.01h-.38c-.81,1.28-1.81,2.38-3.02,3.3-1.21.92-3.03,1.38-5.45,1.38ZM362.44,475.53c2.38,0,4.17-.72,5.36-2.17,1.19-1.45,1.84-3.29,1.95-5.53h-6.38c-2.09,0-3.57.34-4.43,1.02-.86.68-1.29,1.62-1.29,2.83s.43,2.15,1.29,2.83c.86.68,2.03,1.02,3.49,1.02Z"/>
    <path d="M382.07,479.77v-27.28h5.06l.5,4.07h.27c.73-1.32,1.87-2.44,3.41-3.36,1.54-.92,3.32-1.38,5.34-1.38,3.34,0,5.85,1.01,7.53,3.03,1.69,2.02,2.53,4.99,2.53,8.91v16h-5.83v-15.29c0-2.27-.48-4.03-1.43-5.28-.95-1.25-2.46-1.87-4.51-1.87s-3.69.68-5.03,2.04c-1.34,1.36-2.01,3.32-2.01,5.89v14.52h-5.83Z"/>
    <path d="M425.08,480.43c-2.64,0-4.97-.6-6.98-1.79-2.02-1.19-3.59-2.85-4.73-4.98-1.14-2.13-1.71-4.6-1.71-7.42s.56-5.37,1.68-7.54c1.12-2.16,2.7-3.85,4.73-5.06,2.04-1.21,4.39-1.82,7.07-1.82s4.91.6,6.82,1.79c1.91,1.19,3.38,2.78,4.43,4.76,1.05,1.98,1.57,4.16,1.57,6.54v1.18c0,.42-.02.89-.06,1.4h-20.52c.18,2.53,1.01,4.45,2.48,5.75,1.47,1.3,3.19,1.95,5.17,1.95,1.72,0,3.09-.36,4.1-1.07,1.01-.71,1.75-1.7,2.23-2.94h5.88c-.66,2.6-2.03,4.79-4.12,6.57-2.09,1.78-4.77,2.67-8.03,2.67ZM425.08,456.89c-1.8,0-3.39.54-4.79,1.62-1.39,1.08-2.29,2.59-2.69,4.54h14.52c-.15-1.83-.86-3.32-2.15-4.46-1.28-1.14-2.92-1.71-4.9-1.71Z"/>
  </g>
</svg>
