<?xml version="1.0" encoding="UTF-8"?>
<svg id="Layer_1" data-name="Layer 1" xmlns="http://www.w3.org/2000/svg" xmlns:xlink="http://www.w3.org/1999/xlink" viewBox="51.56 58.328747 379.46 360.65128">
  <defs>
    <style>
      .cls-1 {
        mask: url(#mask);
      }

      .cls-2 {
        fill: url(#linear-gradient-2);
      }

      .cls-2, .cls-3, .cls-4, .cls-5, .cls-6, .cls-7, .cls-8 {
        fill-rule: evenodd;
      }

      .cls-3 {
        fill: url(#linear-gradient-3);
      }

      .cls-4 {
        fill: url(#linear-gradient-4);
      }

      .cls-5 {
        fill: #fff;
      }

      .cls-6 {
        fill: #009f76;
      }

      .cls-7 {
        fill: url(#linear-gradient);
      }

      .cls-8 {
        isolation: isolate;
        opacity: .29;
      }
    </style>
    <mask id="mask" x="51.56" y="58.33" width="353.04" height="310.84" maskUnits="userSpaceOnUse">
      <g id="mask-2">
        <path id="path-1-2" data-name="path-1" class="cls-5" d="M252.64,59.54c3.37-1.62,8.84-1.61,12.19,0l105.78,50.94c3.37,1.62,6.77,5.9,7.6,9.53l26.13,114.47c.83,3.64-.39,8.97-2.71,11.88l-73.21,91.8c-2.33,2.92-7.26,5.29-10.98,5.29h-117.41c-3.74,0-8.66-2.38-10.98-5.29l-73.21-91.8c-2.33-2.92-3.54-8.26-2.71-11.88l26.13-114.47c.83-3.64,4.25-7.92,7.6-9.53l105.78-50.94Z"/>
      </g>
    </mask>
    <linearGradient id="linear-gradient" x1="6263.67" y1="-3295.68" x2="6266.22" y2="-3299.16" gradientTransform="translate(162222.83 -79062.37) rotate(-180) scale(25.85 24.03)" gradientUnits="userSpaceOnUse">
      <stop offset="0" stop-color="#fff"/>
      <stop offset="1" stop-color="#439246"/>
    </linearGradient>
    <linearGradient id="linear-gradient-2" x1="6268.85" y1="-3296.55" x2="6272.19" y2="-3302.31" gradientTransform="translate(159599.15 -79024.09) rotate(-180) scale(25.42 24.02)" xlink:href="#linear-gradient"/>
    <linearGradient id="linear-gradient-3" x1="5896.61" y1="-3245.16" x2="5898.74" y2="-3248.1" gradientTransform="translate(-241980.32 -111804.59) scale(41.07 -34.51)" xlink:href="#linear-gradient"/>
    <linearGradient id="linear-gradient-4" x1="5896.89" y1="-3246.94" x2="5899.61" y2="-3251.39" gradientTransform="translate(-239818.28 -111133.91) scale(40.71 -34.29)" xlink:href="#linear-gradient"/>
  </defs>
  <g id="Page-1">
    <g id="logo">
      <g id="Rectangle-2">
        <g id="Mask">
          <path id="path-1" class="cls-6" d="M252.64,59.54c3.37-1.62,8.84-1.61,12.19,0l105.78,50.94c3.37,1.62,6.77,5.9,7.6,9.53l26.13,114.47c.83,3.64-.39,8.97-2.71,11.88l-73.21,91.8c-2.33,2.92-7.26,5.29-10.98,5.29h-117.41c-3.74,0-8.66-2.38-10.98-5.29l-73.21-91.8c-2.33-2.92-3.54-8.26-2.71-11.88l26.13-114.47c.83-3.64,4.25-7.92,7.6-9.53l105.78-50.94Z"/>
        </g>
        <g class="cls-1">
          <polygon class="cls-8" points="51.56 240.33 215.27 140.88 325.54 253.76 194.7 369.17 51.56 240.33"/>
        </g>
      </g>
      <path id="Combined-Shape" class="cls-7" d="M212.49,188.78c1.46,4,4.2,7.84,7.35,9.91l27.27,17.85c4.68,3.06,12.24,3.08,16.95,0l27.27-17.85c4.68-3.06,8.47-10.09,8.47-15.7v-37.59c0-2.45-.72-5.17-1.92-7.71l-85.39,51.09Z"/>
      <path id="Combined-Shape-2" data-name="Combined-Shape" class="cls-2" d="M214.4,141.09c-1.19,2.53-1.91,5.23-1.91,7.67v37.59c0,5.61,3.77,12.62,8.47,15.7l27.27,17.85c4.68,3.06,12.24,3.08,16.95,0l27.27-17.85c2.29-1.5,4.36-3.94,5.89-6.7l-83.94-54.26Z"/>
      <path id="Combined-Shape-3" data-name="Combined-Shape" class="cls-3" d="M327.56,249.32c-1.59,3.43-4.17,6.55-7.06,8.22l-52.7,30.43c-4.83,2.79-12.67,2.79-17.5,0l-52.7-30.43c-4.83-2.79-8.75-9.58-8.75-15.15v-60.85c0-2.59.84-5.43,2.23-8.02l136.48,75.81Z"/>
      <path id="Combined-Shape-4" data-name="Combined-Shape" class="cls-4" d="M327.39,174.24c1.16,2.39,1.86,4.95,1.86,7.3v60.85c0,5.58-3.92,12.37-8.75,15.15l-52.7,30.43c-4.83,2.79-12.67,2.79-17.5,0l-52.7-30.43c-2.25-1.3-4.3-3.47-5.85-5.98l135.65-77.32Z"/>
    </g>
  </g>
  <g>
    <path d="M106.3,418.98c-4.16,0-7.81-1.19-10.96-3.56-3.15-2.37-5.6-5.72-7.36-10.04-1.76-4.32-2.64-9.44-2.64-15.36s.88-10.88,2.64-15.2c1.76-4.32,4.28-7.69,7.56-10.12,3.28-2.43,7.21-3.64,11.8-3.64,5.55,0,10.01,1.52,13.4,4.56,3.39,3.04,5.45,7.33,6.2,12.88h-9.2c-.53-2.88-1.69-5.17-3.48-6.88-1.79-1.71-4.09-2.56-6.92-2.56-4.32,0-7.63,1.87-9.92,5.6-2.29,3.73-3.44,8.85-3.44,15.36s1.21,11.96,3.64,15.56c2.43,3.6,5.59,5.4,9.48,5.4,2.61,0,4.77-.77,6.48-2.32,1.71-1.55,3.01-3.53,3.92-5.96.91-2.43,1.47-5,1.68-7.72h-11.76v-7.04h20.32v30.08h-7.84l-.56-7.52h-.48c-1.07,2.45-2.56,4.48-4.48,6.08-1.92,1.6-4.61,2.4-8.08,2.4Z"/>
    <path d="M148.14,418.98c-3.15,0-5.79-.55-7.92-1.64-2.13-1.09-3.73-2.56-4.8-4.4-1.07-1.84-1.6-3.85-1.6-6.04,0-3.89,1.43-6.93,4.28-9.12,2.85-2.19,6.89-3.28,12.12-3.28h10.24v-.88c0-5.97-2.77-8.96-8.32-8.96-2.29,0-4.23.49-5.8,1.48-1.57.99-2.63,2.57-3.16,4.76h-8.48c.43-4.16,2.23-7.45,5.4-9.88,3.17-2.43,7.19-3.64,12.04-3.64,5.87,0,10.13,1.44,12.8,4.32,2.67,2.88,4,6.85,4,11.92v24.4h-7.2l-.72-5.84h-.56c-1.17,1.87-2.64,3.47-4.4,4.8-1.76,1.33-4.4,2-7.92,2ZM149.74,411.86c3.47,0,6.07-1.05,7.8-3.16,1.73-2.11,2.68-4.79,2.84-8.04h-9.28c-3.04,0-5.19.49-6.44,1.48-1.25.99-1.88,2.36-1.88,4.12s.63,3.13,1.88,4.12c1.25.99,2.95,1.48,5.08,1.48Z"/>
    <path d="M175.5,418.02v-7.36h9.68v-22.32c0-1.76-.85-2.64-2.56-2.64h-6.32v-7.36h9.52c2.19,0,3.97.63,5.36,1.88,1.39,1.25,2.08,3,2.08,5.24v.96h.4c.59-2.99,1.85-5.24,3.8-6.76,1.95-1.52,4.79-2.28,8.52-2.28h6.16v8.96h-8.64c-3.15,0-5.57,1.09-7.28,3.28-1.71,2.19-2.56,4.8-2.56,7.84v13.2h12.32v7.36h-30.48Z"/>
    <path d="M232.78,418.98c-3.31,0-6.27-.79-8.88-2.36-2.61-1.57-4.68-3.91-6.2-7-1.52-3.09-2.28-6.91-2.28-11.44s.77-8.35,2.32-11.44c1.55-3.09,3.64-5.43,6.28-7,2.64-1.57,5.59-2.36,8.84-2.36,3.04,0,5.55.57,7.52,1.72,1.97,1.15,3.44,2.6,4.4,4.36v-23.04h8.48v57.6h-7.28l-.72-5.84h-.48c-1.07,2.08-2.57,3.73-4.52,4.96-1.95,1.23-4.44,1.84-7.48,1.84ZM234.54,410.9c3.04,0,5.56-1.07,7.56-3.2,2-2.13,3-5.31,3-9.52s-1-7.45-3-9.56c-2-2.11-4.52-3.16-7.56-3.16s-5.56,1.07-7.56,3.2c-2,2.13-3,5.33-3,9.6s1,7.37,3,9.48c2,2.11,4.52,3.16,7.56,3.16Z"/>
    <path d="M279.74,418.98c-3.84,0-7.23-.87-10.16-2.6-2.93-1.73-5.23-4.15-6.88-7.24-1.65-3.09-2.48-6.69-2.48-10.8s.81-7.81,2.44-10.96c1.63-3.15,3.92-5.6,6.88-7.36,2.96-1.76,6.39-2.64,10.28-2.64s7.15.87,9.92,2.6c2.77,1.73,4.92,4.04,6.44,6.92s2.28,6.05,2.28,9.52v1.72c0,.61-.03,1.29-.08,2.04h-29.84c.27,3.68,1.47,6.47,3.6,8.36,2.13,1.89,4.64,2.84,7.52,2.84,2.51,0,4.49-.52,5.96-1.56,1.47-1.04,2.55-2.47,3.24-4.28h8.56c-.96,3.79-2.96,6.97-6,9.56-3.04,2.59-6.93,3.88-11.68,3.88ZM279.74,384.74c-2.61,0-4.93.79-6.96,2.36-2.03,1.57-3.33,3.77-3.92,6.6h21.12c-.21-2.67-1.25-4.83-3.12-6.48-1.87-1.65-4.24-2.48-7.12-2.48Z"/>
    <path d="M305.82,418.02v-39.68h7.36l.72,5.92h.4c1.07-1.92,2.72-3.55,4.96-4.88s4.83-2,7.76-2c4.85,0,8.51,1.47,10.96,4.4,2.45,2.93,3.68,7.25,3.68,12.96v23.28h-8.48v-22.24c0-3.31-.69-5.87-2.08-7.68-1.39-1.81-3.57-2.72-6.56-2.72s-5.37.99-7.32,2.96c-1.95,1.97-2.92,4.83-2.92,8.56v21.12h-8.48Z"/>
    <path d="M368.38,418.98c-3.84,0-7.23-.87-10.16-2.6-2.93-1.73-5.23-4.15-6.88-7.24-1.65-3.09-2.48-6.69-2.48-10.8s.81-7.81,2.44-10.96c1.63-3.15,3.92-5.6,6.88-7.36s6.39-2.64,10.28-2.64,7.15.87,9.92,2.6c2.77,1.73,4.92,4.04,6.44,6.92s2.28,6.05,2.28,9.52v1.72c0,.61-.03,1.29-.08,2.04h-29.84c.27,3.68,1.47,6.47,3.6,8.36,2.13,1.89,4.64,2.84,7.52,2.84,2.51,0,4.49-.52,5.96-1.56,1.47-1.04,2.55-2.47,3.24-4.28h8.56c-.96,3.79-2.96,6.97-6,9.56-3.04,2.59-6.93,3.88-11.68,3.88ZM368.38,384.74c-2.61,0-4.93.79-6.96,2.36-2.03,1.57-3.33,3.77-3.92,6.6h21.12c-.21-2.67-1.25-4.83-3.12-6.48-1.87-1.65-4.24-2.48-7.12-2.48Z"/>
    <path d="M394.38,418.02v-7.36h9.68v-22.32c0-1.76-.85-2.64-2.56-2.64h-6.32v-7.36h9.52c2.19,0,3.97.63,5.36,1.88,1.39,1.25,2.08,3,2.08,5.24v.96h.4c.59-2.99,1.85-5.24,3.8-6.76,1.95-1.52,4.79-2.28,8.52-2.28h6.16v8.96h-8.64c-3.15,0-5.57,1.09-7.28,3.28-1.71,2.19-2.56,4.8-2.56,7.84v13.2h12.32v7.36h-30.48Z"/>
  </g>
</svg>