<?xml version="1.0" encoding="UTF-8"?>
<svg id="Layer_1" data-name="Layer 1" xmlns="http://www.w3.org/2000/svg" viewBox="85.09108 45.4975 329.8308 412.1325">
  <defs>
    <style>
      .cls-1 {
        fill: #1abf00;
      }
    </style>
  </defs>
  <g id="Layer_2" data-name="Layer 2">
    <g id="g7">
      <path id="path6" class="cls-1" d="M311.43,368.29h-122.95c-8.14.02-15.83-3.68-20.89-10.06l-76.67-96.12c-5.09-6.35-6.98-14.68-5.14-22.6l27.36-119.87c1.79-7.94,7.12-14.62,14.46-18.13l110.88-53.35c7.32-3.55,15.86-3.55,23.18,0l110.78,53.35c7.34,3.51,12.66,10.2,14.44,18.13l27.36,119.87c1.83,7.92-.07,16.25-5.14,22.6l-76.67,96.12c-5.07,6.41-12.82,10.12-20.99,10.06ZM243.25,58.29l-110.78,53.35c-4.25,2.03-7.34,5.89-8.37,10.48l-27.36,119.89c-1.09,4.61.01,9.47,2.99,13.16l76.61,96.05c2.93,3.69,7.38,5.84,12.1,5.82h122.95c4.71.01,9.17-2.13,12.1-5.82l76.71-96.05c2.94-3.68,4.04-8.5,2.99-13.09l-27.37-119.89c-1.04-4.59-4.12-8.45-8.37-10.48l-110.76-53.43c-4.24-2.06-9.19-2.06-13.44,0Z"/>
      <path id="polygon6" class="cls-1" d="M235.67,267.1l-9.2-9.2-21.69-21.69-9.2-9.2,9.2-9.2,81.15-81.15-21.71-21.71-112.06,112.06,83.5,83.5,21.71-21.71-21.71-21.71Z"/>
      <path id="rect6" class="cls-1" d="M213.96,227.01l81.16-81.16,21.7,21.7-81.16,81.16-21.7-21.7Z"/>
      <path id="rect7" class="cls-1" d="M244.88,257.9l81.16-81.16,21.7,21.7-81.16,81.16-21.7-21.7Z"/>
    </g>
  </g>
  <g>
    <path d="M180.76,444.88v-38.5h5.83v33.28h18.97v5.22h-24.8Z"/>
    <path d="M218.98,445.54c-3.3,0-5.8-1.02-7.51-3.05-1.7-2.04-2.56-5-2.56-8.88v-16h5.83v15.29c0,2.24.49,3.99,1.46,5.25.97,1.26,2.47,1.9,4.48,1.9s3.7-.68,5.06-2.04c1.36-1.36,2.03-3.32,2.03-5.88v-14.52h5.83v27.28h-5.06l-.5-4.07h-.27c-.73,1.32-1.87,2.44-3.41,3.36-1.54.92-3.34,1.38-5.39,1.38Z"/>
    <path d="M238.51,444.88v-5.06h8.58v-15.35c0-1.21-.59-1.81-1.76-1.81h-6.05v-5.06h7.1c2.27,0,3.93.52,4.98,1.57s1.57,2.71,1.57,4.98v15.68h8.58v5.06h-22.99ZM249.45,413.42c-1.28,0-2.36-.41-3.22-1.24-.86-.83-1.29-1.84-1.29-3.05s.43-2.22,1.29-3.03c.86-.81,1.93-1.21,3.22-1.21s2.41.4,3.27,1.21c.86.81,1.29,1.82,1.29,3.03s-.43,2.23-1.29,3.05c-.86.83-1.95,1.24-3.27,1.24Z"/>
    <path d="M277.99,437.02c-1.69,0-3.25-.27-4.67-.83l-1.38,1.65c-.44.55-.56,1.07-.36,1.57.2.5.69.74,1.46.74h7.21c3.19,0,5.77.67,7.73,2.01,1.96,1.34,2.94,3.38,2.94,6.13,0,1.72-.43,3.29-1.29,4.7-.86,1.41-2.24,2.54-4.12,3.38-1.89.84-4.37,1.26-7.45,1.26-3.89,0-7.01-.72-9.38-2.17-2.36-1.45-3.55-3.62-3.55-6.52,0-1.03.25-1.97.74-2.83s1.15-1.64,1.95-2.34c-.99-.73-1.59-1.77-1.79-3.11-.2-1.34.19-2.63,1.18-3.88l2.42-3.08c-1.72-1.83-2.58-4.09-2.58-6.76,0-1.8.43-3.46,1.29-4.98.86-1.52,2.11-2.74,3.74-3.66,1.63-.92,3.6-1.38,5.91-1.38,1.5,0,2.9.22,4.18.66h10.28v3.85l-4.78.27v.5c.77,1.43,1.15,3.01,1.15,4.73s-.43,3.46-1.29,5c-.86,1.54-2.1,2.77-3.71,3.68-1.61.92-3.56,1.38-5.83,1.38ZM270.62,448.51c0,1.47.71,2.55,2.12,3.25,1.41.7,3.18,1.04,5.31,1.04,2.27,0,4.07-.38,5.39-1.16,1.32-.77,1.98-1.85,1.98-3.25,0-1.17-.48-2.1-1.43-2.78-.95-.68-2.57-1.02-4.84-1.02h-6.43c-1.39,1.1-2.09,2.4-2.09,3.91ZM277.99,432.34c1.61,0,2.94-.48,3.99-1.43,1.05-.95,1.57-2.27,1.57-3.96s-.52-2.9-1.57-3.85c-1.04-.95-2.37-1.43-3.99-1.43s-3,.48-4.04,1.43c-1.04.95-1.57,2.24-1.57,3.85s.52,3.01,1.57,3.96c1.04.95,2.39,1.43,4.04,1.43Z"/>
    <path d="M295.7,444.88v-5.06h8.58v-15.35c0-1.21-.59-1.81-1.76-1.81h-6.05v-5.06h7.1c2.27,0,3.93.52,4.98,1.57s1.57,2.71,1.57,4.98v15.68h8.58v5.06h-22.99ZM306.65,413.42c-1.28,0-2.36-.41-3.22-1.24-.86-.83-1.29-1.84-1.29-3.05s.43-2.22,1.29-3.03c.86-.81,1.93-1.21,3.22-1.21s2.41.4,3.27,1.21c.86.81,1.29,1.82,1.29,3.03s-.43,2.23-1.29,3.05c-.86.83-1.95,1.24-3.27,1.24Z"/>
  </g>
</svg>
