<svg xmlns="http://www.w3.org/2000/svg" width="547" height="547" fill="none" viewBox="0 0 547 547">
  <rect width="547" height="547" fill="#fff" rx="30"/>
  <path fill="#000" fill-rule="evenodd" d="M265.159 49.67a12.424 12.424 0 0 1 10.937 0L474.1 146.732c6.161 3.021 8.925 7.736 5.905 13.897-3.02 6.161-10.68 11.435-16.841 8.415l-192.536-94.38-185.58 90.97v300.519h185.58c6.861 0 12.424 5.563 12.424 12.424 0 6.862-5.563 12.424-12.424 12.424H72.624c-6.862 0-12.424-5.562-12.424-12.424v-320.69c0-4.741 2.698-9.069 6.955-11.156l198.004-97.06Z" clip-rule="evenodd"/>
  <path fill="#000" fill-rule="evenodd" d="M265.159 49.67a12.424 12.424 0 0 1 10.937 0L474.1 146.732c6.161 3.021 8.925 7.736 5.905 13.897-3.02 6.161-10.68 11.435-16.841 8.415l-192.536-94.38-185.58 90.97v300.519h185.58c6.861 0 12.424 5.563 12.424 12.424 0 6.862-5.563 12.424-12.424 12.424H72.624c-6.862 0-12.424-5.562-12.424-12.424v-320.69c0-4.741 2.698-9.069 6.955-11.156l198.004-97.06Z" clip-rule="evenodd"/>
  <path fill="#000" fill-rule="evenodd" d="M474.1 146.731c6.61 3.24 10.062 6.624 10.062 13.485v318.36c0 6.862-5.563 12.424-12.424 12.424-6.862 0-12.424-5.562-12.424-12.424v-318.36c0-6.861 7.925-13.485 14.786-13.485ZM272.183 419.219l-69.367-33.589c-5.018-2.429-11.055-.331-13.485 4.686-2.429 5.018-.331 11.055 4.687 13.485l73.678 35.676a10.052 10.052 0 0 0 4.487 1.054 10.052 10.052 0 0 0 4.487-1.054l147.445-71.395c5.017-2.429 7.115-8.466 4.686-13.484-2.43-5.018-8.467-7.116-13.485-4.686l-143.133 69.307Z" clip-rule="evenodd"/>
  <path fill="#000" fill-rule="evenodd" d="M272.181 252.07c6.861-.032 11.615 1.348 11.647 8.209l1.553 218.239c.032 6.862-5.504 12.45-12.366 12.482-6.861.032-12.449-5.504-12.481-12.366l-1.553-218.238c-.033-6.862 6.338-8.294 13.2-8.326Z" clip-rule="evenodd"/>
  <path fill="#000" fill-rule="evenodd" d="m272.183 335.357-69.367-33.588c-5.018-2.43-11.055-.332-13.485 4.686-2.429 5.018-.331 11.055 4.687 13.485l73.678 35.675a10.035 10.035 0 0 0 4.487 1.054 10.035 10.035 0 0 0 4.487-1.054l147.445-71.394c5.017-2.429 7.115-8.467 4.686-13.484-2.43-5.018-8.467-7.116-13.485-4.686l-143.133 69.306Zm-.125-84.694-69.242-33.528c-5.018-2.43-11.055-.332-13.485 4.686-2.429 5.018-.331 11.055 4.687 13.484l73.663 35.669a10.058 10.058 0 0 0 8.639.173c.191-.086.379-.178.564-.275l197.124-100.894c4.962-2.54 6.926-8.622 4.386-13.585-2.54-4.963-8.622-6.927-13.585-4.386l-192.751 98.656Z" clip-rule="evenodd"/>
</svg>
