<?xml version="1.0" encoding="UTF-8" standalone="no"?>
<svg
   id="Layer_1"
   data-name="Layer 1"
   viewBox="0 0.00000047683716 518.19 406.5712"
   version="1.1"
   sodipodi:docname="ocm_horizontal_color.svg"
   width="518.19"
   height="406.5712"
   inkscape:version="1.2.1 (9c6d41e410, 2022-07-14)"
   xmlns:inkscape="http://www.inkscape.org/namespaces/inkscape"
   xmlns:sodipodi="http://sodipodi.sourceforge.net/DTD/sodipodi-0.dtd"
   xmlns="http://www.w3.org/2000/svg"
   xmlns:svg="http://www.w3.org/2000/svg">
  <sodipodi:namedview
     id="namedview698"
     pagecolor="#ffffff"
     bordercolor="#000000"
     borderopacity="0.25"
     inkscape:showpageshadow="2"
     inkscape:pageopacity="0.0"
     inkscape:pagecheckerboard="0"
     inkscape:deskcolor="#d1d1d1"
     showgrid="false"
     inkscape:zoom="0.54800776"
     inkscape:cx="166.96844"
     inkscape:cy="143.24615"
     inkscape:window-width="1920"
     inkscape:window-height="991"
     inkscape:window-x="-9"
     inkscape:window-y="-9"
     inkscape:window-maximized="1"
     inkscape:current-layer="Layer_1" />
  <defs
     id="defs655">
    <style
       id="style653">
      .cls-1 {
        fill: #257ddc;
      }
    </style>
  </defs>
  <path
     class="cls-1"
     d="m 278.58,4.6311989 -4.1,4.58 -4.1,-0.24 c -5.3,-0.34 -16.93,-0.24 -20.86,0.21 l -3.08,0.34 -1.37,-1.44 c -0.75,-0.79 -2.7,-2.87 -4.34,-4.65 l -2.98,-3.20999998 -2.5,0.44 C 229.64,1.6511989 219.45,4.4211989 213.91,6.5111989 l -1.74,0.65 -1.33,6.1900001 -1.33,6.19 -4.96,2.46 c -5.64,2.8 -10.53,5.68 -15.73,9.27 l -3.59,2.46 -6.05,-1.88 -6.05,-1.88 -3.01,2.67 c -3.97,3.56 -10.22,9.92 -13.17,13.41 l -2.36,2.8 1.95,6.05 1.92,6.02 -2.22,3.32 c -3.56,5.27 -4.96,7.66 -8.45,14.57 l -3.32,6.5 -6.12,1.37 -6.12,1.4 -1.44,4.27 c -1.71,5.03 -3.25,10.840001 -4.38,16.650001 -0.48,2.33 -0.85,4.34 -0.85,4.48 0,0.14 2.09,2.15 4.65,4.48 l 4.68,4.21 -0.24,3.86 c -0.38,5.75 -0.31,16.28 0.14,20.45 l 0.38,3.69 -3.18,2.94 c -1.74,1.64 -3.86,3.59 -4.68,4.38 l -1.5,1.4 0.58,3.04 c 1.4,7.08 5.37,20.76 6.43,22.06 0.41,0.48 1.78,0.82 10.74,2.7 l 1.78,0.38 1.27,2.8 c 2.46,5.44 6.84,12.93 10.84,18.57 l 1.95,2.77 -1.85,6.09 -1.88,6.09 1.61,1.92 c 2.98,3.49 8.75,9.34 12.99,13.03 l 4.21,3.69 5.68,-1.85 c 3.15,-1.03 5.98,-1.85 6.29,-1.85 0.31,0 1.61,0.75 2.94,1.68 4.21,2.98 9.75,6.19 15.73,9.13 l 5.85,2.91 1.3,5.81 c 0.72,3.21 1.5,6.02 1.68,6.29 0.92,1.13 18.64,6.02 24.55,6.74 0.79,0.07 1.47,-0.51 5.1,-4.51 4,-4.38 4.27,-4.62 5.44,-4.55 7.08,0.41 18.71,0.48 22.43,0.14 l 4.41,-0.41 1.2,1.3 c 0.65,0.72 2.6,2.8 4.31,4.65 l 3.11,3.39 4.58,-0.92 c 5.27,-1.06 11.01,-2.63 16.93,-4.68 l 4.14,-1.4 1.33,-6.19 1.33,-6.19 2.05,-1.03 c 7.56,-3.73 13.82,-7.35 19.25,-11.22 l 2.8,-1.98 6.05,1.88 6.05,1.88 1.57,-1.27 c 2.67,-2.19 10.91,-10.36 14.12,-14.02 l 3.08,-3.56 -1.95,-6.12 -1.98,-6.12 1.92,-2.7 c 2.98,-4.24 6.5,-10.29 9.37,-16.14 l 2.6,-5.33 6.16,-1.44 c 3.39,-0.79 6.19,-1.47 6.22,-1.5 0.03,-0.03 0.68,-1.98 1.47,-4.34 1.57,-4.86 3.15,-10.91 4.31,-16.93 l 0.82,-4.1 -1.95,-1.88 c -1.06,-1.06 -3.21,-3.04 -4.75,-4.45 l -2.77,-2.56 0.27,-3.08 c 0.41,-4.51 0.41,-16.04 -0.03,-20.69 l -0.38,-4.04 2.67,-2.5 c 1.5,-1.4 3.59,-3.39 4.68,-4.41 l 1.98,-1.88 -1.06,-5.03 c -1.13,-5.54 -2.7,-11.150001 -4.62,-16.690001 -0.68,-1.98 -1.3,-3.62 -1.33,-3.66 -0.03,-0.04 -2.6,-0.62 -5.71,-1.3 -3.08,-0.68 -5.88,-1.3 -6.22,-1.4 -0.34,-0.1 -1.27,-1.64 -2.22,-3.69 -2.22,-4.68 -5.3,-9.99 -9.16,-15.8 l -3.21,-4.82 1.85,-6.05 1.85,-6.09 -2.63,-2.98 c -3.76,-4.17 -9.61,-9.92 -13.13,-12.96 l -3.04,-2.56 -6.02,1.92 -6.05,1.95 -3.76,-2.53 c -4.96,-3.32 -10.98,-6.74 -16.28,-9.27 l -4.34,-2.05 -0.68,-3.08 c -0.41,-1.68 -1.06,-4.51 -1.44,-6.2200001 l -0.75,-3.15 -4.17,-1.37 c -6.77,-2.22 -19.18,-5.22999998 -21.17,-5.15999998 -0.24,0.03 -2.26,2.11999998 -4.51,4.64999998 z m 3.35,61.4900001 19.39,11.22 V 100.1112 l -0.03,22.81 -7.18,4.1 c -5.03,2.87 -7.32,4.34 -7.52,4.89 -0.48,1.27 -0.34,5.1 0.21,6.46 0.31,0.68 1.3,2.05 2.22,3.04 1.54,1.64 1.71,1.95 1.71,3.39 0,1.44 -0.17,1.78 -1.16,2.77 -0.99,0.99 -1.44,1.16 -2.6,1.16 -2.56,0 -4.45,-1.85 -4.45,-4.34 0,-2.26 -2.8,-5.03 -5.98,-5.92 l -1.54,-0.41 -6.53,3.73 -6.53,3.76 -6.02,-3.45 c -6.22,-3.59 -7.25,-4.48 -7.25,-6.46 0,-1.27 0.48,-2.09 2.33,-4.17 1.81,-2.02 2.46,-3.42 2.46,-5.3 0,-3.8 -2.74,-6.5 -6.53,-6.5 -3.49,0 -5.4,1.71 -6.81,6.05 -0.68,2.19 -1.06,2.8 -2.02,3.42 -1.95,1.33 -2.77,1.09 -9.44,-2.74 l -6.16,-3.52 -0.1,-22.57 c -0.07,-19.900001 -0.03,-22.670001 0.44,-23.050001 1.37,-1.13 38.71,-22.5 39.16,-22.43 0.31,0.07 9.27,5.13 19.94,11.28 z M 248.66,122.6112 c 1.3,0.79 2.05,2.19 2.05,3.9 0,1.3 -0.17,1.64 -1.88,3.25 -1.03,0.99 -2.05,2.26 -2.26,2.8 -0.51,1.3 -0.44,5.37 0.1,6.5 0.31,0.62 2.33,1.98 6.77,4.55 l 6.33,3.66 0.1,6.98 c 0.07,6.5 0.03,7.04 -0.62,8.1 -0.41,0.65 -1.27,1.37 -1.98,1.68 -1.16,0.48 -1.47,0.48 -3.66,-0.03 -2.98,-0.68 -3.97,-0.68 -5.57,-0.03 -3.25,1.4 -4.89,4.82 -3.76,8.07 1.2,3.59 4.34,5.2 8.34,4.24 3.86,-0.92 5.33,-0.62 6.7,1.44 0.55,0.85 0.62,1.74 0.62,8 v 7.04 l -19.73,11.39 c -14.94,8.62 -19.83,11.28 -20.24,11.05 -0.31,-0.17 -9.2,-5.3 -19.8,-11.39 l -19.22,-11.11 0.07,-22.71 0.1,-22.74 19.66,-11.35 c 10.81,-6.26 19.73,-11.32 19.83,-11.25 0.1,0.03 3.42,1.95 7.39,4.24 l 7.22,4.14 1.44,-0.48 c 1.95,-0.72 4.41,-2.46 5.13,-3.69 0.34,-0.55 0.72,-1.68 0.85,-2.53 0.27,-1.98 0.68,-2.77 2.02,-3.56 1.33,-0.82 2.74,-0.85 4,-0.14 z m 72.7,14.06 19.59,11.22 -0.07,22.88 -0.07,22.84 -19.32,11.25 c -10.64,6.19 -19.56,11.22 -19.83,11.18 -0.27,-0.07 -9.27,-5.1 -19.9,-11.22 l -19.42,-11.11 v -17.03 l -1.27,-1.2 c -2.39,-2.26 -5.4,-2.8 -8.93,-1.64 -2.02,0.68 -2.74,0.55 -4.38,-0.89 -1.03,-0.89 -1.16,-1.23 -1.16,-2.67 0,-1.27 0.21,-1.88 0.89,-2.7 1.3,-1.54 2.8,-1.85 5.2,-1.03 2.94,1.06 5.57,0.38 8.45,-2.12 l 1.2,-1.06 v -15.25 l 5.95,-3.45 c 4.96,-2.91 6.16,-3.45 7.39,-3.45 1.16,0 1.64,0.21 2.56,1.13 0.68,0.68 1.3,1.74 1.5,2.67 0.92,3.76 2.98,5.92 5.98,6.33 4.86,0.68 8.79,-4.41 6.87,-8.96 -0.27,-0.68 -1.37,-2.15 -2.39,-3.28 -1.68,-1.78 -1.88,-2.19 -1.88,-3.45 0,-2.39 0.72,-3.08 7.01,-6.74 3.21,-1.85 5.95,-3.39 6.12,-3.39 0.17,-0.03 9.13,4.99 19.9,11.15 z"
     id="path657" />
  <g
     id="g695"
     transform="translate(-12.06,-58.898801)">
    <path
       d="m 31.31,395.46 c -3.97,0 -7.4,-1.03 -10.29,-3.08 -2.89,-2.05 -5.11,-4.97 -6.65,-8.75 -1.54,-3.78 -2.31,-8.28 -2.31,-13.51 0,-5.23 0.77,-9.73 2.31,-13.51 1.54,-3.78 3.76,-6.7 6.65,-8.75 2.89,-2.05 6.32,-3.08 10.29,-3.08 3.97,0 7.45,1.03 10.32,3.08 2.87,2.05 5.08,4.97 6.62,8.75 1.54,3.78 2.31,8.28 2.31,13.51 0,5.23 -0.77,9.73 -2.31,13.51 -1.54,3.78 -3.75,6.7 -6.62,8.75 -2.87,2.05 -6.31,3.08 -10.32,3.08 z m 0,-7 c 3.5,0 6.32,-1.58 8.47,-4.72 2.15,-3.15 3.22,-7.69 3.22,-13.62 0,-5.93 -1.07,-10.46 -3.22,-13.62 -2.15,-3.15 -4.97,-4.72 -8.47,-4.72 -3.5,0 -6.38,1.58 -8.51,4.72 -2.12,3.15 -3.18,7.69 -3.18,13.62 0,5.93 1.06,10.46 3.18,13.62 2.12,3.15 4.96,4.72 8.51,4.72 z"
       id="path659" />
    <path
       d="M 53.92,410.02 V 359.9 h 6.44 l 0.56,5.32 h 0.42 c 0.93,-1.73 2.35,-3.18 4.23,-4.38 1.89,-1.19 4.14,-1.78 6.75,-1.78 2.61,0 5.18,0.69 7.42,2.06 2.24,1.38 4.02,3.41 5.35,6.09 1.33,2.68 2,6.03 2,10.04 0,4.01 -0.69,7.3 -2.07,10.01 -1.38,2.71 -3.23,4.75 -5.56,6.12 -2.33,1.38 -4.95,2.06 -7.84,2.06 -2.57,0 -4.71,-0.51 -6.44,-1.54 -1.73,-1.03 -3.01,-2.19 -3.85,-3.5 V 410 h -7.42 z m 16.45,-21.63 c 2.61,0 4.79,-0.93 6.54,-2.8 1.75,-1.87 2.62,-4.67 2.62,-8.4 0,-3.73 -0.88,-6.51 -2.62,-8.33 -1.75,-1.82 -3.93,-2.73 -6.54,-2.73 -2.61,0 -4.86,0.92 -6.61,2.77 -1.75,1.85 -2.62,4.63 -2.62,8.36 0,3.73 0.88,6.46 2.62,8.33 1.75,1.87 3.96,2.8 6.61,2.8 z"
       id="path661" />
    <path
       d="m 109.29,395.46 c -3.36,0 -6.32,-0.76 -8.89,-2.27 -2.57,-1.52 -4.57,-3.63 -6.02,-6.33 -1.45,-2.71 -2.17,-5.86 -2.17,-9.45 0,-3.59 0.71,-6.84 2.14,-9.59 1.42,-2.75 3.43,-4.9 6.02,-6.44 2.59,-1.54 5.59,-2.31 8.99,-2.31 3.4,0 6.25,0.76 8.68,2.27 2.43,1.52 4.31,3.54 5.64,6.05 1.33,2.52 2,5.3 2,8.33 v 1.51 c 0,0.54 -0.02,1.13 -0.07,1.78 H 99.5 c 0.23,3.22 1.28,5.66 3.15,7.32 1.87,1.66 4.06,2.49 6.58,2.49 2.19,0 3.93,-0.46 5.21,-1.37 1.28,-0.91 2.23,-2.16 2.83,-3.75 h 7.49 c -0.84,3.31 -2.59,6.1 -5.25,8.37 -2.66,2.27 -6.07,3.39 -10.22,3.39 z m 0,-29.96 c -2.29,0 -4.32,0.69 -6.09,2.07 -1.77,1.38 -2.92,3.3 -3.43,5.77 h 18.48 c -0.19,-2.33 -1.1,-4.22 -2.73,-5.67 -1.63,-1.45 -3.71,-2.17 -6.23,-2.17 z"
       id="path663" />
    <path
       d="M 132.11,394.62 V 359.9 h 6.44 l 0.63,5.18 h 0.35 c 0.93,-1.68 2.38,-3.1 4.34,-4.27 1.96,-1.17 4.22,-1.75 6.79,-1.75 4.25,0 7.44,1.28 9.59,3.85 2.15,2.57 3.22,6.35 3.22,11.34 v 20.37 h -7.42 v -19.46 c 0,-2.89 -0.61,-5.13 -1.82,-6.72 -1.21,-1.59 -3.13,-2.38 -5.74,-2.38 -2.61,0 -4.7,0.86 -6.41,2.59 -1.7,1.73 -2.55,4.22 -2.55,7.49 v 18.48 z"
       id="path665" />
    <path
       d="m 199.92,395.46 c -4.11,0 -7.59,-1.05 -10.46,-3.15 -2.87,-2.1 -5.06,-5.05 -6.58,-8.86 -1.52,-3.8 -2.27,-8.22 -2.27,-13.26 0,-5.04 0.76,-9.53 2.27,-13.33 1.52,-3.8 3.72,-6.77 6.61,-8.89 2.89,-2.12 6.37,-3.18 10.43,-3.18 5.27,0 9.47,1.43 12.6,4.3 3.13,2.87 4.95,6.75 5.46,11.66 h -8.19 c -0.42,-2.57 -1.46,-4.7 -3.11,-6.41 -1.66,-1.7 -3.93,-2.55 -6.83,-2.55 -3.69,0 -6.56,1.63 -8.61,4.9 -2.05,3.27 -3.08,7.77 -3.08,13.51 0,5.74 1.03,10.16 3.08,13.4 2.05,3.24 4.92,4.87 8.61,4.87 2.99,0 5.27,-0.78 6.86,-2.34 1.59,-1.56 2.61,-3.63 3.08,-6.2 h 8.19 c -0.75,4.81 -2.64,8.6 -5.67,11.38 -3.03,2.78 -7.16,4.17 -12.39,4.17 z"
       id="path667" />
    <path
       d="m 238.56,395.46 c -3.31,0 -6.28,-0.75 -8.89,-2.24 -2.61,-1.49 -4.67,-3.6 -6.16,-6.33 -1.49,-2.73 -2.24,-5.94 -2.24,-9.62 0,-3.68 0.75,-6.89 2.24,-9.62 1.49,-2.73 3.55,-4.84 6.16,-6.33 2.61,-1.49 5.6,-2.24 8.96,-2.24 3.36,0 6.33,0.75 8.92,2.24 2.59,1.49 4.62,3.61 6.09,6.33 1.47,2.73 2.21,5.94 2.21,9.62 0,3.68 -0.75,6.9 -2.24,9.62 -1.49,2.73 -3.53,4.84 -6.12,6.33 -2.59,1.49 -5.56,2.24 -8.92,2.24 z m 0,-7.07 c 1.77,0 3.41,-0.4 4.9,-1.19 1.49,-0.79 2.69,-2.02 3.6,-3.67 0.91,-1.66 1.36,-3.75 1.36,-6.27 0,-2.52 -0.45,-4.67 -1.36,-6.3 -0.91,-1.63 -2.1,-2.85 -3.57,-3.64 -1.47,-0.79 -3.09,-1.19 -4.87,-1.19 -1.78,0 -3.41,0.4 -4.9,1.19 -1.49,0.79 -2.69,2.01 -3.6,3.64 -0.91,1.63 -1.37,3.73 -1.37,6.3 0,3.83 0.97,6.64 2.91,8.44 1.94,1.8 4.23,2.69 6.9,2.69 z"
       id="path669" />
    <path
       d="M 261.31,394.62 V 359.9 h 6.16 l 0.63,4.06 h 0.35 c 0.61,-1.45 1.54,-2.62 2.8,-3.54 1.26,-0.91 2.75,-1.36 4.48,-1.36 1.73,0 3.15,0.42 4.41,1.26 1.26,0.84 2.19,2.05 2.8,3.64 h 0.28 c 0.61,-1.4 1.56,-2.57 2.87,-3.5 1.31,-0.93 2.92,-1.4 4.83,-1.4 2.57,0 4.52,0.84 5.84,2.52 1.33,1.68 2,4.04 2,7.07 v 25.97 h -7.14 v -24.5 c 0,-1.4 -0.29,-2.51 -0.88,-3.33 -0.58,-0.82 -1.5,-1.22 -2.76,-1.22 -1.26,0 -2.3,0.49 -3.12,1.47 -0.82,0.98 -1.23,2.36 -1.23,4.13 v 23.45 h -7.21 v -24.5 c 0,-1.4 -0.28,-2.51 -0.84,-3.33 -0.56,-0.82 -1.47,-1.22 -2.73,-1.22 -1.26,0 -2.31,0.49 -3.15,1.47 -0.84,0.98 -1.26,2.36 -1.26,4.13 v 23.45 h -7.14 z"
       id="path671" />
    <path
       d="M 306.39,410.02 V 359.9 h 6.44 l 0.56,5.32 h 0.42 c 0.93,-1.73 2.34,-3.18 4.23,-4.38 1.89,-1.19 4.14,-1.78 6.76,-1.78 2.62,0 5.18,0.69 7.42,2.06 2.24,1.38 4.02,3.41 5.35,6.09 1.33,2.68 2,6.03 2,10.04 0,4.01 -0.69,7.3 -2.06,10.01 -1.38,2.71 -3.23,4.75 -5.57,6.12 -2.33,1.38 -4.95,2.06 -7.84,2.06 -2.57,0 -4.71,-0.51 -6.44,-1.54 -1.73,-1.03 -3.01,-2.19 -3.85,-3.5 V 410 h -7.42 z m 16.45,-21.63 c 2.61,0 4.79,-0.93 6.54,-2.8 1.75,-1.87 2.62,-4.67 2.62,-8.4 0,-3.73 -0.88,-6.51 -2.62,-8.33 -1.75,-1.82 -3.93,-2.73 -6.54,-2.73 -2.61,0 -4.87,0.92 -6.62,2.77 -1.75,1.85 -2.62,4.63 -2.62,8.36 0,3.73 0.88,6.46 2.62,8.33 1.75,1.87 3.96,2.8 6.62,2.8 z"
       id="path673" />
    <path
       d="m 361.34,395.46 c -3.31,0 -6.28,-0.75 -8.89,-2.24 -2.61,-1.49 -4.67,-3.6 -6.16,-6.33 -1.49,-2.73 -2.24,-5.94 -2.24,-9.62 0,-3.68 0.75,-6.89 2.24,-9.62 1.49,-2.73 3.55,-4.84 6.16,-6.33 2.61,-1.49 5.6,-2.24 8.96,-2.24 3.36,0 6.33,0.75 8.92,2.24 2.59,1.49 4.62,3.61 6.09,6.33 1.47,2.73 2.21,5.94 2.21,9.62 0,3.68 -0.75,6.9 -2.24,9.62 -1.49,2.73 -3.54,4.84 -6.12,6.33 -2.59,1.49 -5.56,2.24 -8.92,2.24 z m 0,-7.07 c 1.77,0 3.41,-0.4 4.9,-1.19 1.49,-0.79 2.69,-2.02 3.6,-3.67 0.91,-1.66 1.37,-3.75 1.37,-6.27 0,-2.52 -0.46,-4.67 -1.37,-6.3 -0.91,-1.63 -2.1,-2.85 -3.57,-3.64 -1.47,-0.79 -3.09,-1.19 -4.86,-1.19 -1.77,0 -3.41,0.4 -4.9,1.19 -1.49,0.79 -2.69,2.01 -3.6,3.64 -0.91,1.63 -1.36,3.73 -1.36,6.3 0,3.83 0.97,6.64 2.9,8.44 1.94,1.8 4.23,2.69 6.9,2.69 z"
       id="path675" />
    <path
       d="M 384.58,394.62 V 359.9 h 6.44 l 0.63,5.18 H 392 c 0.93,-1.68 2.38,-3.1 4.34,-4.27 1.96,-1.17 4.22,-1.75 6.79,-1.75 4.25,0 7.44,1.28 9.59,3.85 2.15,2.57 3.22,6.35 3.22,11.34 v 20.37 h -7.42 v -19.46 c 0,-2.89 -0.61,-5.13 -1.82,-6.72 -1.21,-1.59 -3.13,-2.38 -5.74,-2.38 -2.61,0 -4.7,0.86 -6.4,2.59 -1.7,1.73 -2.56,4.22 -2.56,7.49 v 18.48 z"
       id="path677" />
    <path
       d="m 439.32,395.46 c -3.36,0 -6.32,-0.76 -8.89,-2.27 -2.57,-1.52 -4.57,-3.63 -6.02,-6.33 -1.45,-2.71 -2.17,-5.86 -2.17,-9.45 0,-3.59 0.71,-6.84 2.14,-9.59 1.42,-2.75 3.43,-4.9 6.02,-6.44 2.59,-1.54 5.59,-2.31 9,-2.31 3.41,0 6.25,0.76 8.68,2.27 2.43,1.52 4.31,3.54 5.63,6.05 1.33,2.52 2,5.3 2,8.33 v 1.51 c 0,0.54 -0.02,1.13 -0.07,1.78 h -26.11 c 0.23,3.22 1.28,5.66 3.15,7.32 1.87,1.66 4.06,2.49 6.58,2.49 2.19,0 3.93,-0.46 5.21,-1.37 1.28,-0.91 2.23,-2.16 2.83,-3.75 h 7.49 c -0.84,3.31 -2.59,6.1 -5.25,8.37 -2.66,2.26 -6.07,3.39 -10.22,3.39 z m 0,-29.96 c -2.29,0 -4.32,0.69 -6.09,2.07 -1.77,1.38 -2.92,3.3 -3.43,5.77 h 18.48 c -0.19,-2.33 -1.1,-4.22 -2.73,-5.67 -1.63,-1.45 -3.71,-2.17 -6.23,-2.17 z"
       id="path679" />
    <path
       d="M 462.14,394.62 V 359.9 h 6.44 l 0.63,5.18 h 0.35 c 0.93,-1.68 2.38,-3.1 4.34,-4.27 1.96,-1.17 4.22,-1.75 6.79,-1.75 4.25,0 7.44,1.28 9.59,3.85 2.15,2.57 3.22,6.35 3.22,11.34 v 20.37 h -7.42 v -19.46 c 0,-2.89 -0.61,-5.13 -1.82,-6.72 -1.21,-1.59 -3.13,-2.38 -5.74,-2.38 -2.61,0 -4.7,0.86 -6.4,2.59 -1.7,1.73 -2.56,4.22 -2.56,7.49 v 18.48 z"
       id="path681" />
    <path
       d="m 520.24,394.62 c -3.41,0 -6.11,-0.83 -8.12,-2.49 -2.01,-1.66 -3.01,-4.61 -3.01,-8.85 V 366.2 h -8.75 v -6.3 h 5.18 c 2.38,0 3.78,-1.17 4.2,-3.5 l 1.05,-5.6 h 5.74 v 9.1 h 13.72 v 6.3 h -13.72 v 16.94 c 0,1.82 0.41,3.09 1.23,3.82 0.82,0.72 2.23,1.08 4.23,1.08 h 8.12 v 6.58 z"
       id="path683" />
    <path
       d="m 178.61,464.62 v -49 h 7.84 l 10.15,22.12 10.15,-22.12 h 7.84 v 49 h -7.07 v -34.86 l -7.98,17.5 h -5.88 l -7.98,-17.43 v 34.79 z"
       id="path685" />
    <path
       d="m 237.2,465.46 c -3.31,0 -6.28,-0.75 -8.89,-2.24 -2.61,-1.49 -4.67,-3.6 -6.16,-6.33 -1.49,-2.73 -2.24,-5.94 -2.24,-9.62 0,-3.68 0.75,-6.89 2.24,-9.62 1.49,-2.73 3.55,-4.84 6.16,-6.33 2.61,-1.49 5.6,-2.24 8.96,-2.24 3.36,0 6.34,0.75 8.93,2.24 2.59,1.49 4.62,3.61 6.09,6.33 1.47,2.73 2.21,5.94 2.21,9.62 0,3.68 -0.75,6.9 -2.24,9.62 -1.49,2.73 -3.54,4.84 -6.12,6.33 -2.59,1.49 -5.57,2.24 -8.93,2.24 z m 0,-7.07 c 1.77,0 3.41,-0.4 4.9,-1.19 1.49,-0.79 2.7,-2.02 3.61,-3.67 0.91,-1.66 1.36,-3.75 1.36,-6.27 0,-2.52 -0.46,-4.67 -1.36,-6.3 -0.91,-1.63 -2.1,-2.85 -3.57,-3.64 -1.47,-0.79 -3.09,-1.19 -4.87,-1.19 -1.78,0 -3.41,0.4 -4.9,1.19 -1.49,0.79 -2.7,2.01 -3.61,3.64 -0.91,1.63 -1.36,3.73 -1.36,6.3 0,3.83 0.97,6.64 2.9,8.44 1.94,1.8 4.24,2.69 6.9,2.69 z"
       id="path687" />
    <path
       d="m 274.09,465.46 c -2.89,0 -5.48,-0.69 -7.77,-2.06 -2.29,-1.38 -4.1,-3.42 -5.42,-6.12 -1.33,-2.71 -2,-6.04 -2,-10.01 0,-3.97 0.68,-7.3 2.03,-10.01 1.35,-2.71 3.19,-4.75 5.5,-6.12 2.31,-1.38 4.89,-2.06 7.73,-2.06 2.66,0 4.85,0.5 6.58,1.5 1.73,1 3.01,2.27 3.85,3.81 v -20.16 h 7.42 v 50.4 h -6.37 l -0.63,-5.11 h -0.42 c -0.93,1.82 -2.25,3.27 -3.96,4.34 -1.7,1.07 -3.89,1.61 -6.54,1.61 z m 1.54,-7.07 c 2.66,0 4.86,-0.93 6.61,-2.8 1.75,-1.87 2.62,-4.64 2.62,-8.33 0,-3.69 -0.88,-6.52 -2.62,-8.36 -1.74,-1.84 -3.96,-2.77 -6.61,-2.77 -2.65,0 -4.87,0.93 -6.62,2.8 -1.75,1.87 -2.62,4.67 -2.62,8.4 0,3.73 0.88,6.45 2.62,8.29 1.75,1.84 3.96,2.76 6.62,2.76 z"
       id="path689" />
    <path
       d="m 315.18,465.46 c -3.36,0 -6.32,-0.76 -8.89,-2.27 -2.57,-1.52 -4.57,-3.63 -6.02,-6.33 -1.45,-2.71 -2.17,-5.86 -2.17,-9.45 0,-3.59 0.71,-6.84 2.13,-9.59 1.42,-2.75 3.43,-4.9 6.02,-6.44 2.59,-1.54 5.59,-2.31 8.99,-2.31 3.4,0 6.25,0.76 8.68,2.27 2.43,1.52 4.3,3.54 5.63,6.05 1.33,2.52 2,5.3 2,8.33 v 1.51 c 0,0.54 -0.02,1.13 -0.07,1.78 h -26.11 c 0.23,3.22 1.28,5.66 3.15,7.32 1.87,1.66 4.06,2.49 6.58,2.49 2.19,0 3.93,-0.46 5.22,-1.37 1.28,-0.91 2.23,-2.16 2.83,-3.75 h 7.49 c -0.84,3.31 -2.59,6.1 -5.25,8.37 -2.66,2.26 -6.07,3.39 -10.22,3.39 z m 0,-29.96 c -2.29,0 -4.32,0.69 -6.09,2.07 -1.77,1.38 -2.92,3.3 -3.43,5.77 h 18.48 c -0.19,-2.33 -1.1,-4.22 -2.73,-5.67 -1.63,-1.45 -3.71,-2.17 -6.23,-2.17 z"
       id="path691" />
    <path
       d="m 334.92,464.62 v -6.44 h 11.62 v -35.21 c 0,-1.54 -0.75,-2.31 -2.24,-2.31 h -8.4 v -6.44 h 9.73 c 2.71,0 4.77,0.71 6.2,2.14 1.42,1.42 2.13,3.49 2.13,6.19 v 35.63 h 11.69 v 6.44 z"
       id="path693" />
  </g>
</svg>
