<?xml version="1.0" encoding="UTF-8"?>
<svg id="Layer_1" data-name="Layer 1" xmlns="http://www.w3.org/2000/svg" xmlns:xlink="http://www.w3.org/1999/xlink" viewBox="98.66 62.84 299.75 410.72">
  <defs>
    <style>
      .cls-1 {
        fill: url(#linear-gradient-8);
      }

      .cls-2 {
        fill: url(#linear-gradient-7);
      }

      .cls-3 {
        fill: url(#linear-gradient-5);
      }

      .cls-4 {
        fill: url(#linear-gradient-6);
      }

      .cls-5 {
        fill: url(#linear-gradient-9);
      }

      .cls-6 {
        fill: url(#linear-gradient-4);
      }

      .cls-7 {
        fill: url(#linear-gradient-3);
      }

      .cls-8 {
        fill: url(#linear-gradient-2);
      }

      .cls-9 {
        fill: url(#linear-gradient);
      }

      .cls-10 {
        fill: url(#linear-gradient-10);
      }

      .cls-11 {
        fill: url(#linear-gradient-11);
      }

      .cls-12 {
        fill: url(#linear-gradient-12);
      }
    </style>
    <linearGradient id="linear-gradient" x1="107.65" y1="54.68" x2="401.91" y2="348.93" gradientUnits="userSpaceOnUse">
      <stop offset="0" stop-color="#5c37f8"/>
      <stop offset=".13" stop-color="#5734ee"/>
      <stop offset=".35" stop-color="#4c2cd5"/>
      <stop offset=".64" stop-color="#3920ac"/>
      <stop offset=".97" stop-color="#1e0e73"/>
      <stop offset="1" stop-color="#1c0d6d"/>
    </linearGradient>
    <linearGradient id="linear-gradient-2" x1="186.29" y1="-23.96" x2="480.54" y2="270.29" xlink:href="#linear-gradient"/>
    <linearGradient id="linear-gradient-3" x1="29.02" y1="133.32" x2="323.27" y2="427.57" xlink:href="#linear-gradient"/>
    <linearGradient id="linear-gradient-4" x1="107.65" y1="54.68" x2="401.91" y2="348.93" xlink:href="#linear-gradient"/>
    <linearGradient id="linear-gradient-5" x1="73.96" y1="88.37" x2="368.21" y2="382.63" xlink:href="#linear-gradient"/>
    <linearGradient id="linear-gradient-6" x1="141.41" y1="20.92" x2="435.66" y2="315.17" xlink:href="#linear-gradient"/>
    <linearGradient id="linear-gradient-7" x1="141.09" y1="21.24" x2="435.34" y2="315.49" xlink:href="#linear-gradient"/>
    <linearGradient id="linear-gradient-8" x1="74.34" y1="87.99" x2="368.59" y2="382.25" xlink:href="#linear-gradient"/>
    <linearGradient id="linear-gradient-9" x1="107.71" y1="54.62" x2="401.96" y2="348.87" xlink:href="#linear-gradient"/>
    <linearGradient id="linear-gradient-10" x1="152.41" y1="9.93" x2="446.66" y2="304.18" xlink:href="#linear-gradient"/>
    <linearGradient id="linear-gradient-11" x1="62.94" y1="99.4" x2="357.19" y2="393.65" xlink:href="#linear-gradient"/>
    <linearGradient id="linear-gradient-12" x1="107.77" y1="54.56" x2="402.02" y2="348.81" xlink:href="#linear-gradient"/>
  </defs>
  <g>
    <path d="M154.45,403.55c-3.31,0-6.27-.68-8.85-2.03-2.59-1.35-4.63-3.42-6.12-6.19-1.49-2.78-2.24-6.29-2.24-10.54v-31.08h7.42v31.5c0,3.73.89,6.62,2.66,8.64,1.77,2.03,4.2,3.05,7.28,3.05s5.51-1.02,7.28-3.05c1.77-2.03,2.66-4.91,2.66-8.64v-31.5h7.42v31.08c0,4.25-.77,7.76-2.31,10.54s-3.63,4.84-6.27,6.19c-2.64,1.35-5.61,2.03-8.92,2.03Z"/>
    <path d="M177.83,402.71v-34.72h6.44l.63,5.18h.35c.93-1.68,2.38-3.1,4.34-4.27,1.96-1.17,4.22-1.75,6.79-1.75,4.25,0,7.44,1.28,9.59,3.85,2.15,2.57,3.22,6.35,3.22,11.34v20.37h-7.42v-19.46c0-2.89-.61-5.13-1.82-6.72-1.21-1.59-3.13-2.38-5.74-2.38s-4.7.86-6.4,2.59c-1.7,1.73-2.56,4.22-2.56,7.49v18.48h-7.42Z"/>
    <path d="M217.52,402.71v-6.44h10.92v-19.53c0-1.54-.75-2.31-2.24-2.31h-7.7v-6.44h9.03c2.89,0,5.01.67,6.33,2,1.33,1.33,2,3.44,2,6.33v19.95h10.92v6.44h-29.26ZM231.45,362.67c-1.63,0-3-.53-4.1-1.58-1.1-1.05-1.65-2.34-1.65-3.88s.55-2.82,1.65-3.85c1.1-1.03,2.46-1.54,4.1-1.54s3.07.51,4.16,1.54c1.1,1.03,1.65,2.31,1.65,3.85s-.55,2.83-1.65,3.88c-1.1,1.05-2.48,1.58-4.16,1.58Z"/>
    <path d="M271.63,402.71c-3.41,0-6.11-.83-8.12-2.49-2.01-1.66-3.01-4.61-3.01-8.85v-17.08h-8.75v-6.3h5.18c2.38,0,3.78-1.17,4.2-3.5l1.05-5.6h5.74v9.1h13.72v6.3h-13.72v16.94c0,1.82.41,3.09,1.23,3.82.82.72,2.23,1.08,4.23,1.08h8.12v6.58h-9.87Z"/>
    <path d="M307.05,403.55c-3.36,0-6.32-.76-8.89-2.27-2.57-1.52-4.57-3.63-6.02-6.33-1.45-2.71-2.17-5.86-2.17-9.45s.71-6.84,2.13-9.59c1.42-2.75,3.43-4.9,6.02-6.44,2.59-1.54,5.59-2.31,9-2.31s6.25.76,8.68,2.27c2.43,1.52,4.31,3.54,5.63,6.05,1.33,2.52,2,5.3,2,8.33v1.51c0,.54-.02,1.13-.07,1.78h-26.11c.23,3.22,1.28,5.66,3.15,7.32,1.87,1.66,4.06,2.49,6.58,2.49,2.19,0,3.93-.46,5.22-1.37,1.28-.91,2.23-2.16,2.83-3.75h7.49c-.84,3.31-2.59,6.1-5.25,8.37s-6.07,3.39-10.22,3.39ZM307.05,373.59c-2.29,0-4.32.69-6.09,2.07-1.77,1.38-2.92,3.3-3.43,5.77h18.48c-.19-2.33-1.1-4.22-2.73-5.67-1.63-1.45-3.71-2.17-6.23-2.17Z"/>
    <path d="M343.52,403.55c-2.89,0-5.48-.69-7.77-2.06-2.29-1.38-4.09-3.42-5.42-6.12-1.33-2.71-2-6.04-2-10.01s.68-7.3,2.03-10.01c1.35-2.71,3.18-4.75,5.5-6.12,2.31-1.38,4.89-2.06,7.73-2.06,2.66,0,4.85.5,6.58,1.5,1.73,1,3.01,2.27,3.85,3.81v-20.16h7.42v50.4h-6.37l-.63-5.11h-.42c-.93,1.82-2.25,3.27-3.96,4.34-1.7,1.07-3.88,1.61-6.54,1.61ZM345.06,396.48c2.66,0,4.87-.93,6.62-2.8,1.75-1.87,2.62-4.64,2.62-8.33s-.88-6.52-2.62-8.36-3.96-2.77-6.62-2.77-4.86.93-6.61,2.8c-1.75,1.87-2.62,4.67-2.62,8.4s.88,6.45,2.62,8.29c1.75,1.84,3.96,2.76,6.61,2.76Z"/>
    <path d="M98.66,472.71v-49h7.84l10.15,22.12,10.15-22.12h7.84v49h-7.07v-34.86l-7.98,17.5h-5.88l-7.98-17.43v34.79h-7.07Z"/>
    <path d="M155.85,473.55c-3.36,0-6.32-.76-8.89-2.27-2.57-1.52-4.57-3.63-6.02-6.33-1.45-2.71-2.17-5.86-2.17-9.45s.71-6.84,2.13-9.59c1.42-2.75,3.43-4.9,6.02-6.44s5.59-2.31,9-2.31,6.25.76,8.68,2.27c2.43,1.52,4.3,3.54,5.63,6.05,1.33,2.52,2,5.3,2,8.33v1.51c0,.54-.02,1.13-.07,1.78h-26.11c.23,3.22,1.28,5.66,3.15,7.32,1.87,1.66,4.06,2.49,6.58,2.49,2.19,0,3.93-.46,5.21-1.37,1.28-.91,2.23-2.16,2.83-3.75h7.49c-.84,3.31-2.59,6.1-5.25,8.37s-6.07,3.39-10.22,3.39ZM155.85,443.59c-2.29,0-4.32.69-6.09,2.07-1.77,1.38-2.92,3.3-3.43,5.77h18.48c-.19-2.33-1.1-4.22-2.73-5.67-1.63-1.45-3.71-2.17-6.23-2.17Z"/>
    <path d="M195.61,472.71c-3.41,0-6.11-.83-8.12-2.49-2.01-1.66-3.01-4.61-3.01-8.85v-17.08h-8.75v-6.3h5.18c2.38,0,3.78-1.17,4.2-3.5l1.05-5.6h5.74v9.1h13.72v6.3h-13.72v16.94c0,1.82.41,3.09,1.23,3.82.82.72,2.23,1.08,4.23,1.08h8.12v6.58h-9.87Z"/>
    <path d="M225.08,473.55c-2.75,0-5.06-.48-6.93-1.43-1.87-.96-3.27-2.24-4.2-3.85-.93-1.61-1.4-3.37-1.4-5.29,0-3.41,1.25-6.07,3.75-7.98,2.5-1.91,6.03-2.87,10.6-2.87h8.96v-.77c0-5.23-2.43-7.84-7.28-7.84-2.01,0-3.7.43-5.08,1.3-1.38.86-2.3,2.25-2.76,4.16h-7.42c.37-3.64,1.95-6.52,4.73-8.64,2.78-2.12,6.29-3.18,10.54-3.18,5.13,0,8.87,1.26,11.2,3.78,2.33,2.52,3.5,6,3.5,10.43v21.35h-6.3l-.63-5.11h-.49c-1.03,1.63-2.31,3.03-3.85,4.2s-3.85,1.75-6.93,1.75ZM226.48,467.32c3.03,0,5.31-.92,6.82-2.77,1.52-1.84,2.35-4.19,2.49-7.04h-8.12c-2.66,0-4.54.43-5.63,1.3-1.1.86-1.65,2.06-1.65,3.6s.55,2.74,1.65,3.61c1.1.86,2.58,1.29,4.44,1.29Z"/>
    <path d="M265.12,473.55c-2.89,0-5.48-.69-7.77-2.06-2.29-1.38-4.1-3.42-5.43-6.12-1.33-2.71-1.99-6.04-1.99-10.01s.68-7.3,2.03-10.01c1.35-2.71,3.19-4.75,5.49-6.12,2.31-1.38,4.89-2.06,7.74-2.06,2.66,0,4.85.5,6.58,1.5,1.73,1,3.01,2.27,3.85,3.81v-20.16h7.42v50.4h-6.37l-.63-5.11h-.42c-.93,1.82-2.25,3.27-3.95,4.34-1.7,1.07-3.89,1.61-6.55,1.61ZM266.66,466.48c2.66,0,4.87-.93,6.62-2.8,1.75-1.87,2.62-4.64,2.62-8.33s-.88-6.52-2.62-8.36-3.96-2.77-6.62-2.77-4.86.93-6.61,2.8c-1.75,1.87-2.62,4.67-2.62,8.4s.88,6.45,2.62,8.29c1.75,1.84,3.96,2.76,6.61,2.76Z"/>
    <path d="M302.64,473.55c-2.75,0-5.06-.48-6.93-1.43-1.87-.96-3.27-2.24-4.2-3.85-.93-1.61-1.4-3.37-1.4-5.29,0-3.41,1.25-6.07,3.74-7.98,2.5-1.91,6.03-2.87,10.61-2.87h8.96v-.77c0-5.23-2.43-7.84-7.28-7.84-2.01,0-3.7.43-5.07,1.3-1.38.86-2.3,2.25-2.77,4.16h-7.42c.37-3.64,1.95-6.52,4.72-8.64,2.78-2.12,6.29-3.18,10.54-3.18,5.13,0,8.87,1.26,11.2,3.78,2.33,2.52,3.5,6,3.5,10.43v21.35h-6.3l-.63-5.11h-.49c-1.03,1.63-2.31,3.03-3.85,4.2-1.54,1.17-3.85,1.75-6.93,1.75ZM304.04,467.32c3.03,0,5.31-.92,6.83-2.77,1.52-1.84,2.34-4.19,2.48-7.04h-8.12c-2.66,0-4.54.43-5.63,1.3-1.1.86-1.65,2.06-1.65,3.6s.55,2.74,1.65,3.61c1.1.86,2.58,1.29,4.45,1.29Z"/>
    <path d="M348.35,472.71c-3.41,0-6.11-.83-8.12-2.49-2.01-1.66-3.01-4.61-3.01-8.85v-17.08h-8.75v-6.3h5.18c2.38,0,3.78-1.17,4.2-3.5l1.05-5.6h5.74v9.1h13.72v6.3h-13.72v16.94c0,1.82.41,3.09,1.23,3.82.82.72,2.23,1.08,4.24,1.08h8.12v6.58h-9.87Z"/>
    <path d="M380.2,473.55c-2.75,0-5.06-.48-6.93-1.43-1.87-.96-3.27-2.24-4.2-3.85-.93-1.61-1.4-3.37-1.4-5.29,0-3.41,1.25-6.07,3.75-7.98,2.5-1.91,6.03-2.87,10.61-2.87h8.96v-.77c0-5.23-2.43-7.84-7.28-7.84-2.01,0-3.7.43-5.08,1.3-1.38.86-2.3,2.25-2.76,4.16h-7.42c.37-3.64,1.95-6.52,4.72-8.64,2.78-2.12,6.29-3.18,10.54-3.18,5.13,0,8.87,1.26,11.2,3.78,2.33,2.52,3.5,6,3.5,10.43v21.35h-6.3l-.63-5.11h-.49c-1.03,1.63-2.31,3.03-3.85,4.2-1.54,1.17-3.85,1.75-6.93,1.75ZM381.6,467.32c3.03,0,5.31-.92,6.83-2.77,1.52-1.84,2.34-4.19,2.48-7.04h-8.12c-2.66,0-4.54.43-5.63,1.3-1.1.86-1.65,2.06-1.65,3.6s.55,2.74,1.65,3.61c1.1.86,2.58,1.29,4.45,1.29Z"/>
  </g>
  <g>
    <path class="cls-9" d="M243.64,126.75c0-35.3-28.61-63.91-63.91-63.91s-63.91,28.61-63.91,63.91,28.61,63.91,63.91,63.91v-63.91h63.91Z"/>
    <path class="cls-8" d="M324,190.66c35.19-.12,63.69-28.68,63.69-63.91s-28.61-63.91-63.91-63.91-63.91,28.61-63.91,63.91h64.14v63.91Z"/>
    <path class="cls-7" d="M179.73,206.88c-35.3,0-63.91,28.61-63.91,63.91s28.61,63.91,63.91,63.91,63.79-28.49,63.91-63.69h-63.91v-64.14Z"/>
    <path class="cls-6" d="M259.86,271.02c.12,35.19,28.69,63.69,63.91,63.69s63.91-28.62,63.91-63.91-28.49-63.79-63.69-63.91v64.13h-64.13Z"/>
    <path class="cls-3" d="M188.39,190.07c-2.83.38-5.72.6-8.66.6v16.21c2.94,0,5.82.22,8.66.6v-17.41Z"/>
    <path class="cls-4" d="M260.44,135.28c-.37-2.79-.58-5.63-.58-8.53h-16.21c0,2.87-.21,5.68-.57,8.45,5.76.02,11.62.05,17.37.08Z"/>
    <path class="cls-2" d="M323.77,190.67c-3.33,0-6.6-.26-9.79-.75v17.71c3.19-.49,6.46-.75,9.79-.75.08,0,.15,0,.23,0v-16.23c-.08,0-.15,0-.23,0Z"/>
    <path class="cls-1" d="M260.68,260.61h-17.85c.53,3.32.82,6.72.82,10.19,0,.08,0,.15,0,.23h16.23c0-.08,0-.15,0-.23,0-3.47.29-6.87.82-10.19Z"/>
    <path class="cls-5" d="M243.07,135.2c-28.47-.1-54.68-.06-54.68.46v54.4c28.44-3.85,50.92-26.4,54.68-54.86Z"/>
    <path class="cls-10" d="M260.44,135.28c3.74,28.05,25.66,50.36,53.54,54.64v-54.26s-25.51-.23-53.54-.38Z"/>
    <path class="cls-11" d="M188.39,207.48v53.12h54.44c-4.43-27.64-26.58-49.35-54.44-53.12Z"/>
    <path class="cls-12" d="M260.68,260.61h53.31v-52.98c-27.33,4.2-48.94,25.71-53.31,52.98Z"/>
  </g>
</svg>