<?xml version="1.0" encoding="UTF-8" standalone="no"?>
<!-- Generator: Adobe Illustrator 23.1.0, SVG Export Plug-In . SVG Version: 6.00 Build 0)  -->

<svg
   version="1.1"
   id="Ebene_1"
   x="0px"
   y="0px"
   viewBox="0 0 274.68 126.97039"
   xml:space="preserve"
   sodipodi:docname="BWI_Logo_IT-fuer-Deutschland.svg"
   width="274.67999"
   height="126.97039"
   inkscape:version="1.4.3 (0d15f75, 2025-12-25)"
   xmlns:inkscape="http://www.inkscape.org/namespaces/inkscape"
   xmlns:sodipodi="http://sodipodi.sourceforge.net/DTD/sodipodi-0.dtd"
   xmlns="http://www.w3.org/2000/svg"
   xmlns:svg="http://www.w3.org/2000/svg"><defs
   id="defs6" /><sodipodi:namedview
   id="namedview6"
   pagecolor="#ffffff"
   bordercolor="#000000"
   borderopacity="0.25"
   inkscape:showpageshadow="2"
   inkscape:pageopacity="0.0"
   inkscape:pagecheckerboard="0"
   inkscape:deskcolor="#d1d1d1"
   inkscape:zoom="0.52"
   inkscape:cx="137.5"
   inkscape:cy="60.576923"
   inkscape:current-layer="Ebene_1" />
<style
   type="text/css"
   id="style1">
	.st0{fill:#FFFFFF;}
	.st1{fill-rule:evenodd;clip-rule:evenodd;fill:#989898;}
	.st2{fill-rule:evenodd;clip-rule:evenodd;fill:#FF0000;}
	.st3{fill-rule:evenodd;clip-rule:evenodd;fill:#98989B;}
	.st4{fill:#98989B;}
</style>
<g
   id="g6"
   transform="translate(-40.11,-40.11)">
	
	<path
   class="st1"
   d="m 75.45,85.03 c 0,3.43 -2.36,5.68 -6.43,5.68 H 50.04 V 79.35 h 18.97 c 4.08,0 6.44,2.25 6.44,5.68 m 10.29,21.01 c 0,-6.65 -3.75,-9.76 -6.75,-11.15 2.47,-1.18 6.11,-4.72 6.11,-10.29 0,-8.47 -5.68,-13.94 -15.33,-13.94 H 40.28 v 49.63 h 30.34 c 8.79,0.01 15.12,-5.03 15.12,-14.25 m -9.65,-0.54 c 0,3.32 -2.04,6.11 -6.43,6.11 H 50.04 V 99.5 h 19.62 c 4.39,0 6.43,2.68 6.43,6"
   id="path1" />
	<path
   class="st1"
   d="m 123.9,115.26 c 3.32,3.43 8.15,5.47 13.51,5.47 10.18,0 18.22,-6.97 18.22,-17.47 v -32.6 h -9.54 v 32.27 c 0,5.68 -3.43,9.11 -8.68,9.11 -5.15,0 -8.47,-3 -8.47,-8.79 l -0.11,-32.59 h -9.54 v 32.27 c 0,5.68 -3.43,9.11 -8.68,9.11 -5.15,0 -8.58,-3.43 -8.58,-9.11 V 70.66 h -9.65 v 32.59 c 0,10.51 8.15,17.47 18.23,17.47 5.25,0.01 9.97,-2.24 13.29,-5.46"
   id="path2" />
	<rect
   x="163.99001"
   y="70.660004"
   class="st1"
   width="9.6499996"
   height="49.529999"
   id="rect2" />
	<path
   class="st2"
   d="m 113.93,49.76 c 0,-5.36 4.39,-9.65 9.65,-9.65 H 229.5 c 5.36,0 9.65,4.29 9.65,9.65 v 0.32 c 0,5.36 -4.29,9.65 -9.65,9.65 H 123.58 c -5.25,0 -9.65,-4.29 -9.65,-9.65 z"
   id="path3" />
	<path
   class="st1"
   d="m 245.04,49.76 c 0,-5.36 4.29,-9.65 9.65,-9.65 h 12.87 c 5.36,0 9.65,4.29 9.65,9.65 v 0.32 c 0,5.36 -4.29,9.65 -9.65,9.65 h -12.87 c -5.36,0 -9.65,-4.29 -9.65,-9.65 z"
   id="path4" />
	<path
   class="st3"
   d="m 282.45,49.76 c 0,-5.36 4.29,-9.65 9.65,-9.65 h 12.86 c 5.36,0 9.65,4.29 9.65,9.65 v 0.32 c 0,5.36 -4.29,9.65 -9.65,9.65 H 292.1 c -5.36,0 -9.65,-4.29 -9.65,-9.65 z"
   id="path5" />
	<path
   class="st4"
   d="m 43.55,166.69 v -25.73 h -3.44 v 25.73 z m 17.84,-23.41 v -2.32 H 47.7 v 2.32 h 5.12 v 23.41 h 3.44 v -23.41 z m 22.02,5.31 v -2.06 H 79.9 v -3.22 c 0,-2.84 1.53,-3.78 3.51,-3.89 v -2.09 c -4.41,-0.19 -6.81,2.39 -6.81,6.36 v 2.84 h -2.32 v 2.06 h 2.32 v 18.1 h 3.29 v -18.1 z m 15.55,-6.54 c 0,-0.9 -0.78,-1.61 -1.68,-1.61 -0.93,0 -1.72,0.71 -1.72,1.61 0,0.86 0.79,1.57 1.72,1.57 0.9,0 1.68,-0.67 1.68,-1.57 z m -6.17,0 c 0,-0.9 -0.75,-1.61 -1.68,-1.61 -0.93,0 -1.68,0.71 -1.68,1.61 0,0.86 0.75,1.57 1.68,1.57 0.94,0 1.68,-0.67 1.68,-1.57 z m 8.53,23.44 v -18.96 h -3.29 v 17.42 c -0.93,0.56 -2.06,0.82 -3.63,0.82 -2.77,0 -4.04,-1.8 -4.04,-4.15 v -14.1 h -3.29 v 13.98 c 0,4.04 2.09,6.58 7.14,6.58 3.26,0.02 5.61,-0.73 7.11,-1.59 z M 115.3,146.2 c -4.79,-0.11 -6.69,0.41 -8.67,1.42 v 19.07 h 3.29 v -17.61 c 1.08,-0.71 2.95,-0.86 4.6,-0.37 z m 31.26,7.37 c 0,-7.96 -3.59,-12.98 -10.69,-12.98 -2.8,0 -5.16,0.6 -6.66,1.42 v 23.67 c 1.35,0.79 3.85,1.38 6.81,1.38 7.29,0 10.54,-5.57 10.54,-13.49 z m -3.55,-0.04 c 0,7.25 -1.98,11.1 -7.18,11.1 -1.31,0 -2.47,-0.19 -3.22,-0.49 v -20.83 c 0.9,-0.37 1.83,-0.52 3.18,-0.52 4.9,0.01 7.22,3.67 7.22,10.74 z m 23.22,2.5 c 0.07,-6.73 -2.84,-9.87 -7.66,-9.87 -4.75,0 -8.11,3.55 -8.11,10.39 0,7.18 3.7,10.51 8.97,10.51 2.73,0 4.86,-0.64 6.1,-1.38 l -0.86,-2.17 c -1.05,0.6 -2.69,1.16 -4.97,1.16 -3.63,0 -5.76,-2.24 -6.13,-6.81 z m -3.14,-1.38 -9.65,1.46 c -0.07,-5.46 2.09,-7.82 5.01,-7.82 2.88,0 4.64,1.8 4.64,6.36 z M 185,165.49 v -18.96 h -3.29 v 17.42 c -0.93,0.56 -2.06,0.82 -3.63,0.82 -2.77,0 -4.04,-1.8 -4.04,-4.15 v -14.1 h -3.29 v 13.98 c 0,4.04 2.09,6.58 7.14,6.58 3.26,0.02 5.62,-0.73 7.11,-1.59 z m 13.24,1.09 v -2.09 c -0.34,0.07 -0.64,0.15 -0.97,0.15 -1.83,0 -2.54,-1.31 -2.54,-2.92 v -13.13 h 3.52 v -2.06 h -3.52 v -5.65 l -3.29,1.01 v 4.64 h -2.32 v 2.06 h 2.32 v 13.2 c 0,2.47 1.35,5.09 5.01,5.09 0.82,0 1.41,-0.19 1.79,-0.3 z m 14.77,-5.5 c 0,-2.32 -0.97,-4.41 -4.9,-5.91 -1.94,-0.75 -3.37,-1.68 -3.37,-3.63 0,-1.72 1.16,-3.18 3.37,-3.18 1.57,0 2.77,0.67 3.37,1.12 l 0.86,-1.98 c -1.05,-0.71 -2.65,-1.38 -4.71,-1.38 -3.67,0 -6.02,2.54 -6.02,5.53 0,2.09 0.79,4.19 4.71,5.65 2.21,0.82 3.33,1.76 3.33,3.85 0,1.94 -1.5,3.48 -3.74,3.48 -1.79,0 -3.21,-0.6 -3.93,-1.2 l -0.9,2.17 c 1.08,0.82 2.99,1.38 5.16,1.38 4.11,0.01 6.77,-2.83 6.77,-5.9 z m 15.81,4.64 -0.82,-2.06 c -0.75,0.52 -1.68,0.97 -3.07,0.97 -3.25,0 -4.97,-3.33 -4.97,-8.15 0,-4.71 1.42,-8.04 5.08,-8.04 1.5,0 2.39,0.52 2.99,0.97 l 0.79,-1.91 c -0.64,-0.56 -1.98,-1.35 -4.45,-1.35 -4.49,0 -7.74,3.81 -7.74,10.43 0,6.51 3.25,10.47 7.66,10.47 2.25,0.01 3.75,-0.62 4.53,-1.33 z m 18.59,0.97 v -14.4 c 0,-2.84 -1.57,-5.94 -6.69,-5.94 -1.5,0 -2.95,0.37 -4.64,1.23 v -10.25 h -3.29 v 29.35 h 3.29 v -17.24 c 1.23,-0.75 2.43,-1.01 3.93,-1.01 3.21,0 4.11,1.87 4.11,3.96 v 14.28 h 3.29 z m 8.82,0 v -29.35 h -3.29 v 29.35 z m 18.92,-1.05 V 152.7 c 0,-4.94 -3.29,-6.54 -7.03,-6.54 -2.77,0 -5.01,0.86 -6.17,1.49 l 0.79,1.95 c 1.12,-0.56 2.92,-1.27 4.86,-1.27 2.58,0 4.45,0.9 4.45,4 v 1.23 c -6.24,0.64 -11.26,2.21 -11.26,7.55 0,3.66 2.43,5.95 7.67,5.95 2.8,0 5.16,-0.56 6.69,-1.42 z m -3.1,-1.16 c -0.82,0.45 -2.06,0.67 -3.33,0.67 -2.99,0 -4.79,-1.2 -4.79,-4.11 0,-4.08 3.03,-5.16 8.11,-5.8 v 9.24 z m 23.03,2.21 v -14.55 c 0,-2.88 -1.64,-5.98 -7.25,-5.98 -3.21,0 -5.57,0.56 -7.37,1.42 v 19.11 h 3.29 V 149 c 1.05,-0.45 1.94,-0.71 3.82,-0.71 3.44,0 4.22,2.06 4.22,3.93 v 14.47 z m 19.71,-1.05 v -28.31 h -3.25 v 9.46 c -1.08,-0.3 -2.06,-0.45 -3.18,-0.45 -5.2,0 -8.75,3.89 -8.75,10.58 0,6.09 3.1,10.13 8.86,10.13 2.8,0.01 4.97,-0.58 6.32,-1.41 z m -3.26,-1.31 c -0.63,0.41 -1.57,0.56 -2.92,0.56 -4.11,0 -5.76,-3.48 -5.76,-8.23 0,-4.38 1.5,-8.41 6.17,-8.41 0.86,0 1.68,0.15 2.51,0.37 z"
   id="path6" />
</g>
</svg>
