<svg xmlns="http://www.w3.org/2000/svg" role="img" viewBox="-34.10 -37.10 1981.20 456.20"><g fill="#23a3dd" fill-opacity="1"><path d="M693.7 303.8c-8.6 2.2-25.4 4.8-48.1 4.8-48.5 0-85-29.8-85-90.6v-34.7c0-60.8 36.5-90.6 85-90.6 22.7 0 39.5 2.6 48.1 4.8 6.3 1.5 7.8 3.7 7.8 9.7v24.2c0 3.7-3 5.6-6.7 5.6h-1.1c-14.9-1.9-23.9-2.6-48.1-2.6-17.5 0-35.8 10.1-35.8 48.8V218c0 38.8 18.3 48.9 35.8 48.9 24.2 0 33.2-.7 48.1-2.6h1.1c3.7 0 6.7 1.9 6.7 5.6v24.2c0 5.9-1.5 8.2-7.8 9.7z"/><path d="M756.7 305.6H722c-4.1 0-7.5-3.7-7.5-7.8V29.3c0-4.1 3.4-7.5 7.5-7.5h34.7c4.1 0 7.1 3.4 7.1 7.5v268.5c-.1 4.1-3 7.8-7.1 7.8z"/><path d="M869.3 308.6c-58.5 0-89.1-39.5-89.1-92.8v-30.2c0-53.3 30.6-92.9 89.1-92.9 58.5 0 89.1 39.5 89.1 92.9v30.2c0 53.3-30.6 92.8-89.1 92.8zm39.9-123c0-30.6-13.8-50.3-39.9-50.3-26.1 0-39.9 19.8-39.9 50.3v30.2c0 30.6 13.8 50.3 39.9 50.3 26.1 0 39.9-19.8 39.9-50.3v-30.2z"/><path d="M1138.7 305.6h-34.3c-4.1 0-7.5-3.4-7.5-7.5v-8.6c-19.4 12.7-34.7 18.6-58.5 18.6-18.6 0-35.1-4.8-45.9-15.7-13.8-13.8-18.6-36.9-18.6-67.9V103.2c0-4.1 3.4-7.8 7.5-7.8h34.3c4.1 0 7.5 3.7 7.5 7.8v121.6c0 18.6 1.5 29.5 8.6 35.8 5.2 4.5 11.6 6.7 23.1 6.7 13.8 0 31.7-9.3 42.1-14.9V103.2c0-4.1 3.4-7.8 7.5-7.8h34.3c4.1 0 7.5 3.7 7.5 7.8v195c-.2 4.1-3.5 7.4-7.6 7.4z"/><path d="M1326.2 298.9c-23.1 6-51.1 9.7-74.9 9.7-60 0-89.1-35.4-89.1-93.6v-28.7c0-58.2 29.1-93.6 89.1-93.6 8.9 0 22 .7 35.8 2.6v-66c0-4.1 3.4-7.5 7.5-7.5h34.3c4.1 0 7.5 3.4 7.5 7.5v259.5c-.1 5.7-1.6 7.9-10.2 10.1zm-39.1-163.3c-10.4-1.5-26.8-2.6-35.8-2.6-32.1 0-39.9 22.8-39.9 53.3V215c0 30.6 7.8 53.3 39.9 53.3 13.4 0 28.7-1.1 35.8-2.6V135.6z"/><path d="M1441.4 308.6c-58.5 0-89.1-39.5-89.1-92.8v-30.2c0-53.3 30.6-92.9 89.1-92.9 58.5 0 89.1 39.5 89.1 92.9v30.2c0 53.3-30.5 92.8-89.1 92.8zm39.9-123c0-30.6-13.8-50.3-39.9-50.3-26.1 0-39.9 19.8-39.9 50.3v30.2c0 30.6 13.8 50.3 39.9 50.3 26.1 0 39.9-19.8 39.9-50.3v-30.2z"/><path d="M1722.2 129.3l-12.3 4.8c6 8.6 9.3 16.8 9.3 29.8v2.6c0 46.6-32.1 67.9-88.4 67.9-19.8 0-33.2-3.4-40.6-6.3-4.5 3-6.3 6.3-6.3 9.7 0 7.5 4.1 10.4 12.7 12.3l44 10.4c50.7 11.9 83.5 19.8 83.5 59.7v2.6c0 38-28 58.5-91.4 58.5-60.4 0-92.5-22.7-92.5-61.9V316c0-15.3 7.1-30.2 19-41-10.4-7.8-16.8-20.9-16.8-34.3v-.4c0-11.6 4.8-23.1 14.9-30.2-11.2-11.6-15.3-25-15.3-43.6v-2.6c0-37.3 24.2-68.6 88.7-68.6h87.3c5.6 0 10.1 4.5 10.1 10.1v15.7c0 5.6-1.5 6.3-5.9 8.2zm-47.4 190.9c0-8.2-4.8-13.1-44-22.4l-33.2-7.8c-5.6 7.8-9.3 12.7-9.3 26.1v3.4c0 15.3 9.3 24.6 44.4 24.6 35.8 0 42.1-7.8 42.1-21.3v-2.6zm-4.1-155.5c0-17.9-7.8-31.7-39.9-31.7-31.7 0-40.3 14.2-40.3 31.7v3c0 13.8 5.6 29.5 40.3 29.5 30.9 0 39.9-10.8 39.9-29.5v-3z"/><path d="M1902.4 305.6h-34.3c-4.1 0-7.5-3.4-7.5-7.5v-8.6c-19.4 12.7-34.7 18.6-58.5 18.6-18.6 0-35.1-4.8-45.9-15.7-13.8-13.8-18.6-36.9-18.6-67.9V103.2c0-4.1 3.4-7.8 7.5-7.8h34.3c4.1 0 7.5 3.7 7.5 7.8v121.6c0 18.6 1.5 29.5 8.6 35.8 5.2 4.5 11.6 6.7 23.1 6.7 13.8 0 31.7-9.3 42.1-14.9V103.2c0-4.1 3.4-7.8 7.5-7.8h34.3c4.1 0 7.5 3.7 7.5 7.8v195c-.1 4.1-3.5 7.4-7.6 7.4z"/></g><g fill="#23a3dd" fill-opacity="1"><path d="M440.4 198.3c0 20.3-16.4 36.7-36.7 36.7-15.5 0-28.8-9.6-34.1-23.2l.3 1.5-71.4 14.1c-.7 22.5-19.5 40.4-42.3 39.7-21.4-.7-38.9-18.2-39.6-39.6l-72-14.2c-5.7 12.8-18.6 21.7-33.5 21.7-20.3 0-36.7-16.4-36.7-36.7 0-20.3 16.4-36.7 36.7-36.7 20.3 0 36.7 16.4 36.7 36.7l70.9 14.6c4.7-13.8 16.6-24.3 31.2-27v-42.5c-16.6-3.5-29.1-18.2-29.1-35.9 0-20.3 16.4-36.7 36.7-36.7 20.3 0 36.7 16.4 36.7 36.7 0 17.8-12.7 32.7-29.6 36v42.3c14.7 2.6 26.8 13.1 31.6 27l70.5-14.5.4 1.7v-1.7c0-20.3 16.4-36.7 36.7-36.7 20.1 0 36.6 16.5 36.6 36.7z"/><path fill="#23a3dd" fill-opacity="1" d="M452.8 104.1c-33.5-15.7-64.4-13.9-89.3-3.7-1.2-25.8-12.6-50.7-34.5-71.4-42.4-40.2-110.9-36.5-151 8.1-16.8 18.7-25.4 40.8-26.7 63.2C126.4 90.1 95.5 88.4 62 104c-42.5 19.9-76 82.3-45.4 142.8 22.3 44.1 77.7 65.1 113.1 61.5l256.2.1c35.4 3.2 90.2-17.8 112.4-61.6 30.5-60.4-3-122.9-45.5-142.7zm8.9 126.5c-13 24-35.5 33.1-60.9 35.4h-90.2c-11.7 14.8-28.6 26.4-52.9 26.4-21.7 0-40.2-9.2-52.9-26.4l-89.5.1c-25.8-2.2-48.7-11.2-61.9-35.5-19.3-35.5-4-75.9 29.3-92.1 33.3-16.3 73.8-1.1 89.5 33.1 1.5 3.3 3.4 9.1 3.7 11 0 0 2.6-3 3-3.5 12.4-13 20.3-17.5 32.2-24.1-3.3-3-6.2-6.7-8.3-9.9-.3-.6-.6-1.1-.7-1.3-14-20.8-16.2-54.3 5.6-79.7 23.8-27.8 64.4-30.4 93.1-7 19.3 15.8 31.6 48.1 16.7 79.7v.1s-5.2 10.8-13.2 18.1c12 6.6 19.9 11.1 32.2 24.1.4.4 3 3.5 3 3.5.4-1.9 2.2-7.7 3.7-11 15.7-34.2 56.2-49.3 89.5-33.1 32.9 16.2 48.2 56.6 29 92.1z"/></g></svg>