<?xml version="1.0" encoding="UTF-8"?>
<svg id="Layer_1" data-name="Layer 1" xmlns="http://www.w3.org/2000/svg" viewBox="0 0 500 500">
  <defs>
    <style>
      .cls-1 {
        fill: none;
      }

      .cls-2 {
        fill-rule: evenodd;
      }
    </style>
  </defs>
  <path class="cls-2" d="M246.36,342.69c2.02,1.01,4.4,1.01,6.42,0l117.91-58.52c3.56-1.77,5.02-6.09,3.25-9.65-1.77-3.56-6.09-5.02-9.65-3.25l-114.7,56.92-109.88-54.9v-127.95l110.05-66.32,114.24,62.43c3.52,1.85,7.87.5,9.73-3.02,1.81-3.44.56-7.7-2.82-9.62l-117.87-64.41c-2.25-1.23-4.98-1.17-7.17.15l-117.07,70.55c-2.16,1.3-3.48,3.64-3.48,6.17v136.46c0,2.73,1.54,5.22,3.98,6.44l117.07,58.49Z"/>
  <path class="cls-2" d="M243.38,302.84c1.65.8,3.58.77,5.21-.08l78.09-41.19,39.33,20.2c2.84,1.43,6.3.28,7.73-2.56,1.41-2.81.31-6.23-2.47-7.69l-32.41-16.64,32.58-18.12c2.78-1.55,3.78-5.06,2.23-7.84-.53-.96-1.33-1.74-2.29-2.26l-35.07-18.99,35-18.36c2.82-1.48,3.9-4.96,2.42-7.78-.54-1.02-1.37-1.86-2.39-2.4l-34.85-18.61,34.89-18.99c2.79-1.52,3.83-5.02,2.31-7.81,0,0,0,0,0,0-1.52-2.79-5.02-3.83-7.81-2.31,0,0,0,0,0,0l-41.54,22.61-69.45-37.09c-1.76-.94-3.89-.9-5.62.11l-78.78,45.99c-2.75,1.6-3.67,5.13-2.07,7.88.57.98,1.43,1.78,2.45,2.27l34.03,16.56-34.43,20.22c-2.74,1.61-3.66,5.14-2.05,7.88.57.98,1.42,1.76,2.44,2.26l34.6,16.94-34.97,20.4c-2.75,1.6-3.68,5.13-2.07,7.88.58.99,1.43,1.78,2.46,2.28l72.5,35.26h0ZM217.43,230.06l-31.87-15.6,66.74-39.19,104.38,56.52-30.12,16.75-71.72-37.2c-1.75-.91-3.85-.86-5.55.14l-31.85,18.58h0ZM314.22,255.12l-61.88-32.09-66.72,38.92,60.17,29.26,68.42-36.09ZM216.84,182.73l-31.23-15.2,66.69-38.93,104.02,55.56-32.22,16.9-69.19-37.46c-1.77-.96-3.92-.92-5.66.1l-32.42,19.04h0Z"/>
  <g>
    <rect class="cls-1" x="16.59" y="354.66" width="466.83" height="126.73"/>
    <path d="M57.6,413.21c-4.69,0-8.68-1.2-11.96-3.6-3.28-2.4-5.79-5.77-7.52-10.12-1.73-4.35-2.6-9.4-2.6-15.16s.87-10.89,2.6-15.24c1.73-4.35,4.25-7.73,7.56-10.16,3.31-2.43,7.28-3.64,11.92-3.64,6.03,0,10.83,1.64,14.4,4.92,3.57,3.28,5.65,7.72,6.24,13.32h-9.36c-.48-2.93-1.67-5.37-3.56-7.32-1.89-1.95-4.49-2.92-7.8-2.92-4.21,0-7.49,1.87-9.84,5.6-2.35,3.73-3.52,8.88-3.52,15.44s1.17,11.61,3.52,15.32c2.35,3.71,5.63,5.56,9.84,5.56,3.41,0,6.03-.89,7.84-2.68,1.81-1.79,2.99-4.15,3.52-7.08h9.36c-.85,5.49-3.01,9.83-6.48,13-3.47,3.17-8.19,4.76-14.16,4.76Z"/>
    <path d="M101.76,413.21c-3.79,0-7.17-.85-10.16-2.56-2.99-1.71-5.33-4.12-7.04-7.24-1.71-3.12-2.56-6.79-2.56-11s.85-7.88,2.56-11c1.71-3.12,4.05-5.53,7.04-7.24,2.99-1.71,6.4-2.56,10.24-2.56s7.24.85,10.2,2.56c2.96,1.71,5.28,4.12,6.96,7.24s2.52,6.79,2.52,11-.85,7.88-2.56,11c-1.71,3.12-4.04,5.53-7,7.24-2.96,1.71-6.36,2.56-10.2,2.56ZM101.76,405.13c2.03,0,3.89-.45,5.6-1.36,1.71-.91,3.08-2.31,4.12-4.2,1.04-1.89,1.56-4.28,1.56-7.16s-.52-5.33-1.56-7.2c-1.04-1.87-2.4-3.25-4.08-4.16-1.68-.91-3.53-1.36-5.56-1.36s-3.89.45-5.6,1.36c-1.71.91-3.08,2.29-4.12,4.16-1.04,1.87-1.56,4.27-1.56,7.2,0,4.37,1.11,7.59,3.32,9.64,2.21,2.05,4.84,3.08,7.88,3.08Z"/>
    <path d="M148.24,413.21c-2.93,0-5.4-.6-7.4-1.8s-3.53-2.87-4.6-5h-.48l-.72,5.84h-7.28v-57.6h8.48v23.04c.96-1.6,2.48-3.01,4.56-4.24,2.08-1.23,4.56-1.84,7.44-1.84,3.31,0,6.27.79,8.88,2.36,2.61,1.57,4.68,3.91,6.2,7,1.52,3.09,2.28,6.91,2.28,11.44s-.76,8.35-2.28,11.44c-1.52,3.09-3.59,5.43-6.2,7-2.61,1.57-5.57,2.36-8.88,2.36ZM146.48,405.13c3.04,0,5.56-1.05,7.56-3.16,2-2.11,3-5.27,3-9.48s-1-7.47-3-9.6c-2-2.13-4.52-3.2-7.56-3.2s-5.56,1.05-7.56,3.16c-2,2.11-3,5.29-3,9.56s1,7.39,3,9.52c2,2.13,4.52,3.2,7.56,3.2Z"/>
    <path d="M186.8,413.21c-3.15,0-5.79-.55-7.92-1.64-2.13-1.09-3.73-2.56-4.8-4.4-1.07-1.84-1.6-3.85-1.6-6.04,0-3.89,1.43-6.93,4.28-9.12,2.85-2.19,6.89-3.28,12.12-3.28h10.24v-.88c0-5.97-2.77-8.96-8.32-8.96-2.29,0-4.23.49-5.8,1.48-1.57.99-2.63,2.57-3.16,4.76h-8.48c.43-4.16,2.23-7.45,5.4-9.88,3.17-2.43,7.19-3.64,12.04-3.64,5.87,0,10.13,1.44,12.8,4.32,2.67,2.88,4,6.85,4,11.92v24.4h-7.2l-.72-5.84h-.56c-1.17,1.87-2.64,3.47-4.4,4.8-1.76,1.33-4.4,2-7.92,2ZM188.4,406.09c3.47,0,6.07-1.05,7.8-3.16,1.73-2.11,2.68-4.79,2.84-8.04h-9.28c-3.04,0-5.19.49-6.44,1.48-1.25.99-1.88,2.36-1.88,4.12s.63,3.13,1.88,4.12c1.25.99,2.95,1.48,5.08,1.48Z"/>
    <path d="M212.64,412.25v-7.36h13.28v-40.24c0-1.76-.85-2.64-2.56-2.64h-9.6v-7.36h11.12c3.09,0,5.45.81,7.08,2.44,1.63,1.63,2.44,3.99,2.44,7.08v40.72h13.36v7.36h-35.12Z"/>
    <path d="M273.92,412.25c-3.89,0-6.99-.95-9.28-2.84-2.29-1.89-3.44-5.27-3.44-10.12v-19.52h-10v-7.2h5.92c2.72,0,4.32-1.33,4.8-4l1.2-6.4h6.56v10.4h15.68v7.2h-15.68v19.36c0,2.08.47,3.53,1.4,4.36.93.83,2.55,1.24,4.84,1.24h9.28v7.52h-11.28Z"/>
    <path d="M309.76,413.21c-4.69,0-8.68-1.2-11.96-3.6-3.28-2.4-5.79-5.77-7.52-10.12-1.73-4.35-2.6-9.4-2.6-15.16s.87-10.89,2.6-15.24c1.73-4.35,4.25-7.73,7.56-10.16,3.31-2.43,7.28-3.64,11.92-3.64,6.03,0,10.83,1.64,14.4,4.92,3.57,3.28,5.65,7.72,6.24,13.32h-9.36c-.48-2.93-1.67-5.37-3.56-7.32-1.89-1.95-4.49-2.92-7.8-2.92-4.21,0-7.49,1.87-9.84,5.6-2.35,3.73-3.52,8.88-3.52,15.44s1.17,11.61,3.52,15.32c2.35,3.71,5.63,5.56,9.84,5.56,3.41,0,6.03-.89,7.84-2.68,1.81-1.79,2.99-4.15,3.52-7.08h9.36c-.85,5.49-3.01,9.83-6.48,13-3.47,3.17-8.19,4.76-14.16,4.76Z"/>
    <path d="M353.92,413.21c-3.79,0-7.17-.85-10.16-2.56-2.99-1.71-5.33-4.12-7.04-7.24-1.71-3.12-2.56-6.79-2.56-11s.85-7.88,2.56-11c1.71-3.12,4.05-5.53,7.04-7.24,2.99-1.71,6.4-2.56,10.24-2.56s7.24.85,10.2,2.56c2.96,1.71,5.28,4.12,6.96,7.24s2.52,6.79,2.52,11-.85,7.88-2.56,11c-1.71,3.12-4.04,5.53-7,7.24-2.96,1.71-6.36,2.56-10.2,2.56ZM353.92,405.13c2.03,0,3.89-.45,5.6-1.36,1.71-.91,3.08-2.31,4.12-4.2,1.04-1.89,1.56-4.28,1.56-7.16s-.52-5.33-1.56-7.2c-1.04-1.87-2.4-3.25-4.08-4.16-1.68-.91-3.53-1.36-5.56-1.36s-3.89.45-5.6,1.36c-1.71.91-3.08,2.29-4.12,4.16-1.04,1.87-1.56,4.27-1.56,7.2,0,4.37,1.11,7.59,3.32,9.64,2.21,2.05,4.84,3.08,7.88,3.08Z"/>
    <path d="M380.4,412.25v-7.36h9.68v-22.32c0-1.76-.85-2.64-2.56-2.64h-6.32v-7.36h9.52c2.19,0,3.97.63,5.36,1.88,1.39,1.25,2.08,3,2.08,5.24v.96h.4c.59-2.99,1.85-5.24,3.8-6.76,1.95-1.52,4.79-2.28,8.52-2.28h6.16v8.96h-8.64c-3.15,0-5.57,1.09-7.28,3.28-1.71,2.19-2.56,4.8-2.56,7.84v13.2h12.32v7.36h-30.48Z"/>
    <path d="M443.04,413.21c-3.84,0-7.23-.87-10.16-2.6-2.93-1.73-5.23-4.15-6.88-7.24-1.65-3.09-2.48-6.69-2.48-10.8s.81-7.81,2.44-10.96c1.63-3.15,3.92-5.6,6.88-7.36s6.39-2.64,10.28-2.64,7.15.87,9.92,2.6c2.77,1.73,4.92,4.04,6.44,6.92,1.52,2.88,2.28,6.05,2.28,9.52v1.72c0,.61-.03,1.29-.08,2.04h-29.84c.27,3.68,1.47,6.47,3.6,8.36,2.13,1.89,4.64,2.84,7.52,2.84,2.51,0,4.49-.52,5.96-1.56,1.47-1.04,2.55-2.47,3.24-4.28h8.56c-.96,3.79-2.96,6.97-6,9.56-3.04,2.59-6.93,3.88-11.68,3.88ZM443.04,378.97c-2.61,0-4.93.79-6.96,2.36-2.03,1.57-3.33,3.77-3.92,6.6h21.12c-.21-2.67-1.25-4.83-3.12-6.48-1.87-1.65-4.24-2.48-7.12-2.48Z"/>
  </g>
</svg>
