<?xml version="1.0" encoding="utf-8"?>
<!-- Generator: Adobe Illustrator 25.2.3, SVG Export Plug-In . SVG Version: 6.00 Build 0)  -->
<svg version="1.1" id="Ebene_1" xmlns="http://www.w3.org/2000/svg" xmlns:xlink="http://www.w3.org/1999/xlink" x="0px" y="0px"
	 viewBox="0 0 258 72" style="enable-background:new 0 0 258 72;" xml:space="preserve">
<style type="text/css">
	.st0{fill:#FFFFFF;}
	.st1{fill:#179C7D;}
</style>
<g>
	<rect id="Logoweiß" class="st0" width="41.65" height="41.65"/>
	<g>
		<path class="st1" d="M0,41.63c9.91-5.07,24.42-13.28,41.65-25.27v-4.03C26.49,22.2,11.07,30.13,0,35.37V41.63z"/>
		<path class="st1" d="M0,29.61c11.03-4.47,26.45-11.38,41.65-20.38V7.24C27.37,14.3,12.52,18.71,0,21.46V29.61z"/>
		<path class="st1" d="M41.65,41.65V21.4c-9.48,7.96-18.87,14.84-26.76,20.25H41.65z"/>
		<path class="st1" d="M9.56,41.65c7.49-4.42,16.58-10.2,25.64-16.95c2.11-1.58,4.27-3.2,6.45-4.87v-2.51
			c-13.4,10-27.08,18.33-37.77,24.33H9.56z"/>
		<path class="st1" d="M0,18.52c12.18-2.13,27.09-5.97,41.65-12.86V3.4C26.97,9.96,12.29,12.74,0,13.73V18.52z"/>
		<path class="st1" d="M0,0v11.6c0.91-0.06,1.84-0.12,2.79-0.19c10.13-0.77,23.95-2.56,38.87-8.97V0H0z"/>
	</g>
	<g>
		<path d="M243.63,41.65h5.33v-7.52c0-2.94,0-8.35,4.33-8.35c0.96,0,1.91,0.16,2.39,0.44v-5.37c-0.56-0.16-1.12-0.16-1.63-0.16
			c-3.18,0-5.37,3.23-5.61,5.13h-0.08v-4.65h-4.73V41.65z M238.3,36.16c-1.99,1.11-4.21,2.07-6.8,2.07c-3.29,0-5.6-1.87-5.84-5.18
			h14.16c0-7.16-2.15-12.37-9.74-12.37c-6.36,0-9.5,4.89-9.5,10.82c0,6.72,3.93,10.62,10.7,10.62c2.87,0,5.09-0.56,7.04-1.63V36.16z
			 M225.65,29.4c0.24-2.75,1.75-4.81,4.73-4.81c2.99,0,4.18,2.23,4.34,4.81H225.65z M208.63,41.65h5.33V25.06h4.65v-3.9h-4.65v-2.55
			c0-1.59,0.56-3.14,2.35-3.14c1.15,0,1.83,0.44,2.3,0.72l0.44-4.42c-1.03-0.24-2.54-0.44-3.9-0.44c-4.22,0-6.52,2.86-6.52,6.96
			v2.86h-3.94v3.9h3.94V41.65z M187.43,30.9c0-3.06,1.67-6.08,5.13-6.08c3.5,0,5.17,2.95,5.17,6.08c0,3.43-1.07,7.08-5.17,7.08
			C188.5,37.99,187.43,34.29,187.43,30.9 M181.86,31.54c0,5.88,3.94,10.58,10.71,10.58c6.8,0,10.74-4.7,10.74-10.58
			c0-6.76-4.65-10.86-10.74-10.86C186.52,20.68,181.86,24.78,181.86,31.54 M159.67,41.65H165V31.62c0-2.62,0.84-6.8,4.69-6.8
			c3.42,0,3.46,3.38,3.46,5.89v10.94h5.33V28.72c0-4.61-2.11-8.03-6.96-8.03c-2.78,0-5.09,1.27-6.44,3.26H165V11.82h-5.33V41.65z
			 M135.37,41.65h5.33V31.62c0-2.62,0.84-6.8,4.69-6.8c3.42,0,3.46,3.38,3.46,5.89v10.94h5.33V28.72c0-4.61-2.11-8.03-6.96-8.03
			c-2.78,0-5.05,0.92-6.72,3.26h-0.08v-2.78h-5.05V41.65z M129.88,21.16h-5.33v10.02c0,2.62-0.83,6.8-4.69,6.8
			c-3.42,0-3.46-3.38-3.46-5.89V21.16h-5.33v12.93c0,4.61,2.11,8.03,6.96,8.03c2.78,0,5.09-1.27,6.72-3.26h0.08v2.79h5.05V21.16z
			 M93.52,35.72c0-3.14,3.54-3.54,5.93-3.54h2.31c0,1.59-0.24,3.06-1.11,4.22c-0.84,1.11-2.11,1.83-3.74,1.83
			C94.99,38.23,93.52,37.47,93.52,35.72 M90.82,26.81c1.79-1.36,4.06-2.23,6.32-2.23c3.14,0,4.61,1.11,4.61,4.42h-2.94
			c-2.23,0-4.85,0.19-6.88,1.19c-2.03,0.99-3.5,2.78-3.5,5.85c0,3.9,3.54,6.09,7.16,6.09c2.43,0,5.09-1.27,6.32-3.54h0.08
			c0.04,0.63,0.04,1.98,0.24,3.06h4.69c-0.12-1.59-0.2-3.03-0.24-4.57c-0.04-1.51-0.08-3.06-0.08-5.13v-2.63
			c0-6.04-2.59-8.63-8.83-8.63c-2.27,0-5.05,0.6-7.12,1.55L90.82,26.81z M74.79,41.65h5.33v-7.52c0-2.94,0-8.35,4.33-8.35
			c0.96,0,1.91,0.16,2.39,0.44v-5.37c-0.56-0.16-1.11-0.16-1.63-0.16c-3.18,0-5.37,3.23-5.61,5.13h-0.08v-4.65h-4.73V41.65z
			 M55.54,41.65h5.57V29.48h9.39V25.1H61.1v-6.84h9.86v-4.37H55.54V41.65z"/>
	</g>
	<g>
		<path d="M220.3,54.15h2.67v13.33h-2.67V54.15z"/>
		<path d="M230.29,56.02c-0.23,0-0.46,0.02-0.69,0.08c-0.24,0.05-0.47,0.15-0.69,0.29c-0.21,0.13-0.38,0.32-0.52,0.57
			c-0.14,0.24-0.21,0.55-0.21,0.92c0,0.28,0.09,0.52,0.27,0.71c0.18,0.19,0.4,0.36,0.67,0.52c0.29,0.15,0.61,0.29,0.96,0.42
			c0.33,0.14,0.68,0.29,1.05,0.44c0.37,0.14,0.73,0.31,1.07,0.5c0.36,0.2,0.67,0.45,0.94,0.74c0.27,0.28,0.49,0.62,0.67,1.01
			c0.15,0.41,0.23,0.9,0.23,1.47c-0.03,1.44-0.52,2.47-1.47,3.09c-0.96,0.62-2.13,0.94-3.53,0.94c-0.69,0-1.27-0.05-1.74-0.15
			c-0.48-0.09-1.04-0.21-1.68-0.36l0.25-2.41c0.94,0.53,1.95,0.81,3.02,0.82c0.55,0,1.08-0.14,1.59-0.42
			c0.51-0.28,0.77-0.71,0.78-1.3c0-0.32-0.08-0.59-0.23-0.82c-0.18-0.23-0.4-0.42-0.67-0.57c-0.59-0.31-1.25-0.6-2.01-0.88
			c-0.37-0.15-0.72-0.33-1.05-0.54c-0.34-0.19-0.66-0.42-0.96-0.69c-0.27-0.28-0.49-0.62-0.67-1.01c-0.18-0.39-0.27-0.86-0.27-1.39
			c0.03-1.48,0.52-2.53,1.47-3.17c0.92-0.6,1.98-0.9,3.19-0.9c1.15,0,2.21,0.16,3.19,0.48l-0.25,2.2
			C232.15,56.22,231.24,56.03,230.29,56.02z"/>
		<path d="M240.91,56.02c-0.23,0-0.46,0.02-0.69,0.08c-0.24,0.05-0.47,0.15-0.69,0.29c-0.21,0.13-0.38,0.32-0.52,0.57
			c-0.14,0.24-0.21,0.55-0.21,0.92c0,0.28,0.09,0.52,0.27,0.71c0.18,0.19,0.4,0.36,0.67,0.52c0.29,0.15,0.61,0.29,0.96,0.42
			c0.33,0.14,0.68,0.29,1.05,0.44c0.37,0.14,0.73,0.31,1.07,0.5c0.36,0.2,0.67,0.45,0.94,0.74c0.27,0.28,0.49,0.62,0.67,1.01
			c0.15,0.41,0.23,0.9,0.23,1.47c-0.03,1.44-0.52,2.47-1.47,3.09s-2.13,0.94-3.53,0.94c-0.69,0-1.27-0.05-1.74-0.15
			c-0.48-0.09-1.04-0.21-1.68-0.36l0.25-2.41c0.94,0.53,1.95,0.81,3.02,0.82c0.55,0,1.08-0.14,1.59-0.42
			c0.51-0.28,0.77-0.71,0.78-1.3c0-0.32-0.08-0.59-0.23-0.82c-0.18-0.23-0.4-0.42-0.67-0.57c-0.59-0.31-1.25-0.6-2.01-0.88
			c-0.37-0.15-0.72-0.33-1.05-0.54c-0.34-0.19-0.66-0.42-0.96-0.69c-0.27-0.28-0.49-0.62-0.67-1.01c-0.18-0.39-0.27-0.86-0.27-1.39
			c0.03-1.48,0.52-2.53,1.47-3.17c0.92-0.6,1.98-0.9,3.19-0.9c1.15,0,2.21,0.16,3.19,0.48l-0.25,2.2
			C242.77,56.22,241.86,56.03,240.91,56.02z"/>
		<path d="M249.51,56.25h-3.82v-2.1H256v2.1h-3.82v11.23h-2.67V56.25z"/>
	</g>
</g>
</svg>
