<?xml version="1.0" encoding="UTF-8"?>
<svg id="Layer_1" data-name="Layer 1" xmlns="http://www.w3.org/2000/svg" xmlns:xlink="http://www.w3.org/1999/xlink" viewBox="0 0 500 500">
  <defs>
    <style>
      .cls-1 {
        opacity: .29;
      }

      .cls-1, .cls-2, .cls-3, .cls-4, .cls-5, .cls-6, .cls-7, .cls-8 {
        isolation: isolate;
      }

      .cls-2, .cls-4, .cls-5, .cls-6, .cls-7 {
        opacity: .8;
      }

      .cls-3 {
        opacity: .85;
      }

      .cls-9 {
        fill: none;
        stroke-width: 2.36px;
      }

      .cls-9, .cls-10 {
        stroke: #000;
      }

      .cls-11 {
        fill: url(#radial-gradient-7);
      }

      .cls-12 {
        fill: url(#radial-gradient-4);
      }

      .cls-13 {
        fill: url(#radial-gradient-3);
      }

      .cls-14 {
        fill: url(#radial-gradient-2);
      }

      .cls-15 {
        fill: url(#linear-gradient-8);
      }

      .cls-16 {
        fill: url(#linear-gradient-7);
      }

      .cls-17 {
        fill: url(#linear-gradient-5);
      }

      .cls-18 {
        fill: url(#linear-gradient-6);
      }

      .cls-19 {
        fill: url(#linear-gradient-9);
      }

      .cls-20 {
        fill: url(#linear-gradient-2);
      }

      .cls-21 {
        fill: url(#radial-gradient);
      }

      .cls-22 {
        fill: url(#linear-gradient);
      }

      .cls-10 {
        stroke-width: 2.3px;
      }

      .cls-23 {
        fill: #a0a0a0;
      }

      .cls-24 {
        fill: #009f76;
      }

      .cls-4 {
        fill: url(#linear-gradient-4);
      }

      .cls-5 {
        fill: url(#linear-gradient-3);
      }

      .cls-25 {
        fill: url(#linear-gradient-10);
      }

      .cls-26 {
        fill: url(#linear-gradient-11);
      }

      .cls-27 {
        fill: url(#linear-gradient-12);
      }

      .cls-28 {
        fill: url(#linear-gradient-13);
      }

      .cls-29 {
        fill: url(#linear-gradient-14);
      }

      .cls-30 {
        fill: url(#linear-gradient-15);
      }

      .cls-31 {
        fill: url(#linear-gradient-16);
      }

      .cls-32 {
        fill: url(#linear-gradient-17);
      }

      .cls-33 {
        fill: url(#linear-gradient-18);
      }

      .cls-34 {
        fill: #027154;
      }

      .cls-6 {
        fill: url(#radial-gradient-5);
      }

      .cls-7 {
        fill: url(#radial-gradient-6);
      }

      .cls-8 {
        fill: #fff;
        opacity: .39;
      }
    </style>
    <linearGradient id="linear-gradient" x1="1816.38" y1="-7130.13" x2="1816.38" y2="-7253.16" gradientTransform="translate(-1734.46 -7155.24) scale(1.09 -1.01)" gradientUnits="userSpaceOnUse">
      <stop offset="0" stop-color="#fff"/>
      <stop offset="1" stop-color="#fff" stop-opacity="0"/>
    </linearGradient>
    <linearGradient id="linear-gradient-2" x1="246.3" y1="-7343.39" x2="246.3" y2="-7390.79" gradientTransform="translate(0 -7151.05) scale(1 -1)" gradientUnits="userSpaceOnUse">
      <stop offset="0" stop-color="#fff"/>
      <stop offset="1" stop-color="#bebebe"/>
    </linearGradient>
    <radialGradient id="radial-gradient" cx="312.31" cy="-11421.9" fx="312.31" fy="-11421.9" r="56.69" gradientTransform="translate(0 -5035.22) scale(1 -.47)" gradientUnits="userSpaceOnUse">
      <stop offset="0" stop-color="#dfbe00"/>
      <stop offset=".8" stop-color="#deaf00"/>
      <stop offset="1" stop-color="#dea101"/>
    </radialGradient>
    <radialGradient id="radial-gradient-2" cx="181.02" cy="-7376.71" fx="181.02" fy="-7376.71" r="56.68" gradientTransform="translate(0 -7094.07) scale(1 -1)" xlink:href="#radial-gradient"/>
    <radialGradient id="radial-gradient-3" cx="1480.34" cy="-5897.56" fx="1480.34" fy="-5897.56" r="25.62" gradientTransform="translate(-1594.9 -9006.83) scale(1.22 -1.55)" gradientUnits="userSpaceOnUse">
      <stop offset="0" stop-color="#d2d2d2"/>
      <stop offset=".88" stop-color="#d2d2d2"/>
      <stop offset="1" stop-color="gray"/>
    </radialGradient>
    <radialGradient id="radial-gradient-4" cx="1994.85" cy="-6919.36" fx="1994.85" fy="-6919.36" r="25.63" gradientTransform="translate(-2356.4 -7542.62) scale(1.32 -1.11)" xlink:href="#radial-gradient-3"/>
    <linearGradient id="linear-gradient-3" x1="215.54" y1="-7264.01" x2="228" y2="-7283.87" gradientTransform="translate(0 -7151.05) scale(1 -1)" xlink:href="#linear-gradient"/>
    <linearGradient id="linear-gradient-4" x1="285.73" y1="-7264.66" x2="296.14" y2="-7281.97" gradientTransform="translate(0 -7151.05) scale(1 -1)" xlink:href="#linear-gradient"/>
    <radialGradient id="radial-gradient-5" cx="15389.36" cy="7192.25" fx="15389.36" fy="7192.25" r="29.76" gradientTransform="translate(15667.79 -2433.8) rotate(-180) scale(1 -.36)" gradientUnits="userSpaceOnUse">
      <stop offset="0" stop-color="#fff"/>
      <stop offset="1" stop-color="#fff" stop-opacity="0"/>
    </radialGradient>
    <radialGradient id="radial-gradient-6" cx="8993.77" cy="14336.22" fx="8993.77" fy="14336.22" r="29.77" gradientTransform="translate(12107.45 4933.21) rotate(-128.88) scale(1.19 -.44) skewX(1.5)" xlink:href="#radial-gradient-5"/>
    <radialGradient id="radial-gradient-7" cx="245.05" cy="-8277.27" fx="245.05" fy="-8277.27" r="30.18" gradientTransform="translate(0 -6442.86) scale(1 -.8)" xlink:href="#radial-gradient"/>
    <linearGradient id="linear-gradient-5" x1="254.86" y1="-7309.1" x2="244.6" y2="-7326.46" gradientTransform="translate(0 -7151.05) scale(1 -1)" xlink:href="#linear-gradient"/>
    <linearGradient id="linear-gradient-6" x1="2886.87" y1="-6320.51" x2="2886.87" y2="-6348.01" gradientTransform="translate(-3667.84 -9049.13) scale(1.33 -1.48)" xlink:href="#linear-gradient"/>
    <linearGradient id="linear-gradient-7" x1="2661.26" y1="-6320.51" x2="2661.26" y2="-6348.01" gradientTransform="translate(-3218.54 -9049.13) scale(1.33 -1.48)" xlink:href="#linear-gradient"/>
    <linearGradient id="linear-gradient-8" x1="45.93" y1="-7416.52" x2="146.89" y2="-7337.74" gradientTransform="translate(0 -7151.05) scale(1 -1)" xlink:href="#linear-gradient"/>
    <linearGradient id="linear-gradient-9" x1="15038.31" y1="-7373.42" x2="15139.26" y2="-7294.64" gradientTransform="translate(15482.99 -7108.62) rotate(-180)" xlink:href="#linear-gradient"/>
    <linearGradient id="linear-gradient-10" x1="246.64" y1="-7496.18" x2="246.72" y2="-7504.07" gradientTransform="translate(0 -7151.05) scale(1 -1)" gradientUnits="userSpaceOnUse">
      <stop offset="0" stop-color="#3c3c3c"/>
      <stop offset="1" stop-color="#a0a0a0" stop-opacity="0"/>
    </linearGradient>
    <linearGradient id="linear-gradient-11" x1="235.3" y1="-7278.27" x2="237.88" y2="-7287.62" gradientTransform="translate(0 -7151.05) scale(1 -1)" xlink:href="#linear-gradient"/>
    <linearGradient id="linear-gradient-12" x1="226.88" y1="-7288.05" x2="232.78" y2="-7299.13" gradientTransform="translate(0 -7151.05) scale(1 -1)" gradientUnits="userSpaceOnUse">
      <stop offset="0" stop-color="#3c3c3c"/>
      <stop offset="1" stop-color="#3c3c3c" stop-opacity="0"/>
    </linearGradient>
    <linearGradient id="linear-gradient-13" x1="253.65" y1="-7278.01" x2="257.05" y2="-7288.19" gradientTransform="translate(0 -7151.05) scale(1 -1)" xlink:href="#linear-gradient"/>
    <linearGradient id="linear-gradient-14" x1="246.54" y1="-7288.76" x2="252.44" y2="-7299.84" xlink:href="#linear-gradient-12"/>
    <linearGradient id="linear-gradient-15" x1="6895.3" y1="-3718.01" x2="6895.95" y2="-3717.13" gradientTransform="translate(178501.85 89581.73) rotate(-180) scale(25.85 -24.03)" gradientUnits="userSpaceOnUse">
      <stop offset="0" stop-color="#fff"/>
      <stop offset="1" stop-color="#439246"/>
    </linearGradient>
    <linearGradient id="linear-gradient-16" x1="6899.83" y1="-3717.73" x2="6900.68" y2="-3716.26" gradientTransform="translate(175643.34 89542.33) rotate(-180) scale(25.42 -24.02)" xlink:href="#linear-gradient-15"/>
    <linearGradient id="linear-gradient-17" x1="6489.2" y1="-3771.12" x2="6489.74" y2="-3770.37" gradientTransform="translate(-266280.99 130389.79) scale(41.07 34.51)" xlink:href="#linear-gradient-15"/>
    <linearGradient id="linear-gradient-18" x1="6488.22" y1="-3770.16" x2="6488.91" y2="-3769.03" gradientTransform="translate(-263887.73 129537.77) scale(40.71 34.29)" xlink:href="#linear-gradient-15"/>
  </defs>
  <g id="Layer_2" data-name="Layer 2">
    <g class="cls-2">
      <path class="cls-23" d="M379.22,353.01c0,6.71-59.91,12.19-133.88,12.19s-133.88-5.44-133.88-12.19,59.91-12.19,133.88-12.19,133.88,5.48,133.88,12.19"/>
    </g>
    <path class="cls-10" d="M134.45,228.74c-.71,3.75-1.02,7.56-.95,11.38,1.77,58.15,50.4,105.32,112.44,105.32s111.9-46.91,112.44-105.32c.04-4.22-.74-8.41-2.31-12.33,0,0,13.28,2.86,37.03,19.94,20.89,3.81,13.28-13.28,13.28-13.28,0,0-4.76-13.28-35.12-37.03-30.36-23.75-29.55-31.72-32.86-46.41-3.35-14.77-7.93-34.26-7.93-34.26,0,0-7.02-30.64-22.98-46.5-34.3-34.24-89.85-34.2-124.1.1-.09.09-.18.18-.26.26-15.95,16.04-24.93,40.43-24.93,40.43,0,0-5.12,19.35-4.99,34.85.14,15.23-3.58,28.69-33.94,52.44-30.36,23.75-35.12,37.03-35.12,37.03,0,0-7.25,16,13.64,12.24,23.75-15.68,36.71-18.85,36.66-18.85h0Z"/>
    <path class="cls-22" d="M313.92,108.32c0,34.31-30.68,62.13-68.52,62.13s-68.52-27.83-68.52-62.13,30.68-62.13,68.52-62.13,68.52,27.83,68.52,62.13"/>
    <path class="cls-20" d="M336.94,259.51c0,28.82-10.15,55.52-26.56,74.42-16.41,18.9-111.76,18.9-128.17,0-16.41-18.9-26.56-45-26.56-73.83,0-57.65,40.61-104.42,90.64-104.42,49.67.05,90.05,46.63,90.64,103.83Z"/>
    <path class="cls-8" d="M162.78,222.26s-3.08,28.78.63,45.37c3.72,16.59,7.98,33.08,7.98,33.08l-8.88,2.76c-3.34-3.87-6.41-7.95-9.2-12.24-4.31-6.75-9.52-20.53-9.52-20.53l13.78,10.74s-2.76-11.65-1.54-24.52c1.22-12.87,2.49-26.38,6.75-34.67h0Z"/>
    <path class="cls-23" d="M198.08,175.04s3.99,6.12,6.75,6.21c4.53.5,5.8,5.26,10.29,4.94,9.61,11.51,18.04,22.21,27.01,26.69,3.22,2.08,6.66,2.58,9.61-2.49,5.12-4.49,16.9-17.13,19.44-21.98,3.72-4.31,2.86-10.56,2.86-10.56,0,0,6.34-2.54,9.52-2.76,3.53-.27.54-6.44,3.67-7.02-.77-5.08,4.12-4.99-1.63-5.62-5.76-.63-78.77-4.49-84.57-.63-5.8,3.85-6.8,6.21-2.95,13.23h0Z"/>
    <path class="cls-8" d="M329.51,223.8s3.08,28.78-.63,45.37c-3.72,16.59-7.98,33.08-7.98,33.08l8.88,2.76c3.34-3.87,6.41-7.95,9.2-12.24,4.31-6.71,9.52-20.53,9.52-20.53l-13.78,10.74s2.76-11.65,1.54-24.52c-1.22-12.87-2.49-26.42-6.75-34.67Z"/>
    <path class="cls-23" d="M362,338.64c0,5.62-1.59,7.66-4.44,12.51h-104.51c-2.86-4.85-4.44-6.89-4.44-12.51,0-22.43,25.38-40.7,56.7-40.7s56.7,18.22,56.7,40.7"/>
    <path class="cls-21" d="M368.98,340.54c0,5.62-1.59,7.66-4.44,12.51h-104.46c-2.86-4.85-4.44-6.89-4.44-12.51,0-22.43,25.38-40.7,56.7-40.7s56.65,18.22,56.65,40.7"/>
    <path class="cls-23" d="M244.71,339.23c0,5.62-1.59,7.66-4.44,12.51h-104.46c-2.86-4.85-4.44-6.89-4.44-12.51,0-22.43,25.38-40.7,56.7-40.7s56.65,18.26,56.65,40.7"/>
    <path class="cls-14" d="M237.69,340.54c0,5.62-1.59,7.66-4.44,12.51h-104.46c-2.86-4.85-4.44-6.89-4.44-12.51,0-22.43,25.38-40.7,56.7-40.7s56.65,18.22,56.65,40.7"/>
    <g class="cls-3">
      <path d="M316.91,135.2c0,16.95-17.31,30.68-38.7,30.68s-38.7-13.73-38.7-30.68,17.31-30.68,38.7-30.68,38.7,13.73,38.7,30.68"/>
    </g>
    <g class="cls-3">
      <path d="M244.62,132.98c0,22.39-14.73,40.56-32.9,40.56s-32.9-18.17-32.9-40.56,14.73-40.56,32.9-40.56,32.9,18.17,32.9,40.56"/>
      <path class="cls-9" d="M244.62,132.98c0,22.39-14.73,40.56-32.9,40.56s-32.9-18.17-32.9-40.56,14.73-40.56,32.9-40.56,32.9,18.17,32.9,40.56"/>
    </g>
    <path class="cls-13" d="M242.72,133.98c0,21.89-14,39.61-31.32,39.61s-31.32-17.72-31.32-39.61,14-39.61,31.32-39.61,31.32,17.72,31.32,39.61"/>
    <path class="cls-12" d="M311.11,137.42c0,16.04-15.18,29.05-33.85,29.05s-33.85-13.01-33.85-29.05,15.18-29.05,33.85-29.05,33.85,13.01,33.85,29.05"/>
    <path d="M261.44,137.78c0,7.25-4.03,13.14-8.97,13.14s-8.97-5.89-8.97-13.14,4.03-13.14,8.97-13.14,8.97,5.89,8.97,13.14"/>
    <path class="cls-5" d="M191.55,107.69s8.97-16.63,26.24-10.88c17.27,5.76,18.45,15.77,22.93,38.84,4.49,23.07-15.91,2.18-15.91,2.18,0,0-2.58-19.85-14.09-25.61-11.51-5.76-19.17-3.85-19.17-4.53Z"/>
    <path class="cls-10" d="M242.13,137.51c0,7.25-4.03,13.14-8.97,13.14s-8.97-5.89-8.97-13.14,4.03-13.14,8.97-13.14,8.97,5.89,8.97,13.14"/>
    <path class="cls-4" d="M272.27,110.91s18.58-3.22,28.82,9.61,7.02,17.31,7.02,17.31l-14.09.63s-8.93-20.53-21.75-27.55h0Z"/>
    <path class="cls-6" d="M248.84,151.11s16.86,9.97,31.59,8.02c14.73-1.95,21.66-7.39,27.6-13.23-1.5,6.98-15.36,18.04-27.51,18.67-12.15.63-31.68-12.83-31.68-13.46Z"/>
    <path class="cls-7" d="M184.3,122.74s-.09,21.71,12.92,34.13c13.01,12.42,20.8,9.79,31.04,11.33-8.11,3.4-26.65,3.4-36.44-7.48-9.79-10.88-8.16-37.53-7.52-37.98h0Z"/>
    <path class="cls-11" d="M246.07,203.77l3.17-.05s3.44-3.81,15.36-16.27c7.98-9.06,10.51-15,10.51-15,0,0,1.63-5.98-6.16-12.1-10.2-5.08-15.36-5.08-22.93-5.03-7.57.05-13.14.95-22.93,5.08-9.79,4.12-8.16,12.46-8.16,12.46,0,0,.73,3.99,12.64,16.45,11.92,12.46,18.49,14.46,18.49,14.46h0Z"/>
    <path class="cls-17" d="M225.95,161.21s15.45,1.04,25.61,7.21c10.15,6.16,13.82,14.73,13.82,14.73,0,0,6.34-6.93,7.21-9.56.86-2.63,2.63-7.93-6.62-13.23-9.25-5.3-14.55-3.81-23.57-3.67-8.93.09-16.45,4.67-16.45,4.53h0Z"/>
    <g class="cls-2">
      <path class="cls-18" d="M206.28,327.72c0,12.55-15.5,22.75-34.58,22.75s-34.58-10.2-34.58-22.75,15.5-22.75,34.58-22.75,34.58,10.2,34.58,22.75"/>
    </g>
    <g class="cls-2">
      <path class="cls-16" d="M355.52,327.72c0,12.55-15.5,22.75-34.58,22.75s-34.58-10.2-34.58-22.75,15.5-22.75,34.58-22.75,34.58,10.2,34.58,22.75"/>
    </g>
    <path class="cls-15" d="M87.18,239.03s53.79-34.58,62.13-41.01.63-26.92.63-26.92c-5.64,7.72-11.85,15-18.58,21.8-9.61,7.7-17.31,14.09-32.04,26.24-14.73,14.77-12.15,20.53-12.15,19.9Z"/>
    <path class="cls-19" d="M403.43,238.35s-53.79-34.58-62.13-41.01c-8.34-6.44-.63-26.92-.63-26.92,5.64,7.72,11.85,15,18.58,21.8,9.61,7.7,17.31,14.09,32.04,26.24,14.73,14.77,12.15,20.58,12.15,19.9h0Z"/>
    <path class="cls-25" d="M237.1,345.21s6.89.59,9.74.54c3.17-.05,7.39-.36,9.61-.59.68,3.44,2.9,6.53,3.63,7.48.91.86-26.74.14-26.74.14,0,0,3.44-4.85,3.76-7.57Z"/>
    <path class="cls-26" d="M231.39,124.87s2.22,6.39,2.36,11.83c4.85-1.63,7.39-3.26,7.39-3.26,0,0-1.22-8.57-9.74-8.57h0Z"/>
    <path class="cls-27" d="M226.36,129.4s-.82,7.12,2.22,11.96c3.04,4.85,6.48,6.39,9.11,6.98-.82.73-4.53,2.72-7.98-.09s-5.17-5.48-5.17-9.2.63-8.25,1.81-9.65h0Z"/>
    <path class="cls-28" d="M250.38,125.27s2.22,6.39,2.36,11.83c4.85-1.63,7.39-3.26,7.39-3.26,0,0-1.22-8.57-9.74-8.57Z"/>
    <path class="cls-29" d="M246.03,130.12s-.82,7.12,2.22,11.96c3.04,4.85,6.48,6.39,9.11,6.98-.82.73-4.53,2.72-7.98-.09-3.44-2.81-5.17-5.48-5.17-9.2s.68-8.29,1.81-9.65h0Z"/>
  </g>
  <g id="Layer_1-2" data-name="Layer 1-2">
    <path class="cls-34" d="M150.04,179.34s36.07,37.39,95.08,36.44c28.73-.45,66.26.5,104.33-39.29l2.58,3.04,18.9,16.5s-17.13,19.94-12.42,31.91c0,0,1.95,12.06.36,22.75-2.45,16.72-11.87,40.97-18.85,47.22,0,0-165.83-4.12-187.31,0,0,0-21.8-15.95-24.11-67.21,0,0-2.99-15.91-16.81-26.83l32.86-30.36,5.39,5.85Z"/>
  </g>
  <g id="Page-1">
    <g id="logo">
      <g id="Rectangle-2">
        <g id="Mask-2-2">
          <path id="path-1-2" class="cls-24" d="M245.76,219.68c.99-.41,2.11-.41,3.1,0l26.94,12.98c.94.52,1.64,1.39,1.94,2.42l6.63,29.15c.18,1.06-.07,2.15-.69,3.02l-18.64,23.38c-.71.81-1.72,1.3-2.8,1.36h-29.91c-1.08-.07-2.08-.55-2.8-1.36l-18.64-23.38c-.62-.88-.87-1.96-.69-3.02l6.65-29.15c.3-1.03.99-1.91,1.94-2.42l26.97-12.98Z"/>
        </g>
        <polygon class="cls-1" points="194.55 265.72 236.24 240.4 264.32 269.14 231 298.53 194.55 265.72"/>
      </g>
      <path id="Combined-Shape" class="cls-30" d="M235.53,252.6c.35,1.01,1.01,1.89,1.87,2.52l6.95,4.53c1.33.78,2.98.78,4.31,0l6.94-4.53c1.28-.94,2.07-2.41,2.16-4v-9.57c-.02-.68-.19-1.35-.49-1.96l-21.74,13.01Z"/>
      <path id="Combined-Shape-2" class="cls-31" d="M236.02,240.45c-.3.61-.47,1.27-.48,1.95v9.57c.08,1.59.88,3.06,2.16,4l6.95,4.53c1.33.78,2.98.78,4.31,0l6.94-4.53c.63-.44,1.14-1.03,1.5-1.71l-21.38-13.82Z"/>
      <path id="Combined-Shape-3" class="cls-32" d="M264.84,268.03c-.38.86-1.01,1.59-1.81,2.09l-13.42,7.75c-1.4.71-3.06.71-4.45,0l-13.42-7.75c-1.31-.86-2.14-2.29-2.23-3.86v-15.5c.02-.72.22-1.42.57-2.04l34.77,19.3Z"/>
      <path id="Combined-Shape-4" class="cls-33" d="M264.8,248.89c.29.58.44,1.21.45,1.86v15.5c-.09,1.57-.91,3-2.23,3.86l-13.42,7.75c-1.4.71-3.06.71-4.45,0l-13.42-7.75c-.61-.38-1.12-.9-1.49-1.52l34.57-19.7Z"/>
    </g>
  </g>
  <g>
    <path d="M94.31,441.61c-2.86,0-5.37-.82-7.54-2.45-2.16-1.63-3.85-3.93-5.06-6.9-1.21-2.97-1.82-6.49-1.82-10.56s.6-7.48,1.82-10.45c1.21-2.97,2.94-5.29,5.2-6.96,2.26-1.67,4.96-2.5,8.11-2.5,3.81,0,6.88,1.04,9.21,3.13,2.33,2.09,3.75,5.04,4.26,8.86h-6.32c-.37-1.98-1.16-3.56-2.39-4.73-1.23-1.17-2.81-1.76-4.76-1.76-2.97,0-5.24,1.28-6.82,3.85-1.58,2.57-2.36,6.09-2.36,10.56s.83,8.22,2.5,10.7c1.67,2.48,3.84,3.71,6.52,3.71,1.8,0,3.28-.53,4.45-1.59,1.17-1.06,2.07-2.43,2.69-4.1.62-1.67,1.01-3.44,1.16-5.31h-8.08v-4.84h13.97v20.68h-5.39l-.39-5.17h-.33c-.73,1.69-1.76,3.08-3.08,4.18-1.32,1.1-3.17,1.65-5.56,1.65Z"/>
    <path d="M123.07,441.61c-2.16,0-3.98-.38-5.45-1.13-1.47-.75-2.57-1.76-3.3-3.02-.73-1.27-1.1-2.65-1.1-4.15,0-2.68.98-4.77,2.94-6.27,1.96-1.5,4.74-2.25,8.33-2.25h7.04v-.61c0-4.11-1.91-6.16-5.72-6.16-1.58,0-2.91.34-3.99,1.02-1.08.68-1.81,1.77-2.17,3.27h-5.83c.29-2.86,1.53-5.12,3.71-6.79,2.18-1.67,4.94-2.5,8.28-2.5,4.03,0,6.97.99,8.8,2.97,1.83,1.98,2.75,4.71,2.75,8.19v16.78h-4.95l-.49-4.01h-.39c-.81,1.28-1.81,2.38-3.03,3.3-1.21.92-3.03,1.38-5.44,1.38ZM124.17,436.71c2.38,0,4.17-.72,5.36-2.17,1.19-1.45,1.84-3.29,1.95-5.53h-6.38c-2.09,0-3.57.34-4.43,1.02-.86.68-1.29,1.62-1.29,2.83s.43,2.15,1.29,2.83c.86.68,2.03,1.02,3.49,1.02Z"/>
    <path d="M141.88,440.95v-5.06h6.66v-15.35c0-1.21-.59-1.81-1.76-1.81h-4.34v-5.06h6.54c1.5,0,2.73.43,3.69,1.29.95.86,1.43,2.06,1.43,3.6v.66h.28c.4-2.05,1.27-3.6,2.61-4.65,1.34-1.05,3.29-1.57,5.86-1.57h4.24v6.16h-5.94c-2.16,0-3.83.75-5.01,2.25-1.17,1.5-1.76,3.3-1.76,5.39v9.08h8.47v5.06h-20.95Z"/>
    <path d="M181.26,441.61c-2.27,0-4.31-.54-6.1-1.62-1.8-1.08-3.22-2.69-4.26-4.81-1.04-2.13-1.57-4.75-1.57-7.86s.53-5.74,1.6-7.87c1.06-2.13,2.5-3.73,4.32-4.81,1.81-1.08,3.84-1.62,6.08-1.62,2.09,0,3.81.39,5.17,1.18,1.36.79,2.36,1.79,3.03,3v-15.84h5.83v39.6h-5.01l-.49-4.01h-.33c-.73,1.43-1.77,2.57-3.11,3.41-1.34.84-3.05,1.27-5.14,1.27ZM182.47,436.05c2.09,0,3.82-.73,5.2-2.2s2.06-3.65,2.06-6.54-.69-5.12-2.06-6.57c-1.38-1.45-3.11-2.17-5.2-2.17s-3.82.73-5.2,2.2-2.06,3.67-2.06,6.6.69,5.07,2.06,6.52c1.38,1.45,3.11,2.17,5.2,2.17Z"/>
    <path d="M213.55,441.61c-2.64,0-4.97-.6-6.98-1.79-2.02-1.19-3.59-2.85-4.73-4.98-1.14-2.13-1.7-4.6-1.7-7.42s.56-5.37,1.68-7.54c1.12-2.16,2.69-3.85,4.73-5.06s4.39-1.82,7.07-1.82,4.91.6,6.82,1.79c1.91,1.19,3.38,2.78,4.43,4.76,1.05,1.98,1.57,4.16,1.57,6.54v1.18c0,.42-.02.89-.05,1.4h-20.52c.18,2.53,1.01,4.45,2.47,5.75,1.47,1.3,3.19,1.95,5.17,1.95,1.72,0,3.09-.36,4.1-1.07,1.01-.71,1.75-1.7,2.23-2.94h5.89c-.66,2.6-2.04,4.79-4.12,6.57-2.09,1.78-4.77,2.67-8.03,2.67ZM213.55,418.07c-1.8,0-3.39.54-4.78,1.62-1.39,1.08-2.29,2.59-2.7,4.54h14.52c-.15-1.83-.86-3.32-2.15-4.46-1.28-1.14-2.91-1.71-4.9-1.71Z"/>
    <path d="M231.48,440.95v-27.28h5.06l.49,4.07h.28c.73-1.32,1.87-2.44,3.41-3.36,1.54-.92,3.32-1.38,5.33-1.38,3.34,0,5.85,1.01,7.54,3.03,1.69,2.02,2.53,4.99,2.53,8.91v16h-5.83v-15.29c0-2.27-.48-4.03-1.43-5.28-.95-1.25-2.46-1.87-4.51-1.87s-3.69.68-5.03,2.04c-1.34,1.36-2.01,3.32-2.01,5.89v14.52h-5.83Z"/>
    <path d="M272.6,440.95v-38.5h5.83v33.28h18.97v5.22h-24.81Z"/>
    <path d="M301.2,440.95v-5.06h8.58v-15.35c0-1.21-.59-1.81-1.76-1.81h-6.05v-5.06h7.09c2.27,0,3.93.52,4.98,1.57,1.04,1.04,1.57,2.71,1.57,4.98v15.68h8.58v5.06h-22.99ZM312.15,409.49c-1.28,0-2.36-.41-3.22-1.24-.86-.83-1.29-1.84-1.29-3.05s.43-2.22,1.29-3.03c.86-.81,1.93-1.21,3.22-1.21s2.41.4,3.27,1.21c.86.81,1.29,1.82,1.29,3.03s-.43,2.23-1.29,3.05c-.86.83-1.95,1.24-3.27,1.24Z"/>
    <path d="M328.54,440.95v-27.28h5.06l.49,4.07h.28c.73-1.32,1.87-2.44,3.41-3.36,1.54-.92,3.32-1.38,5.33-1.38,3.34,0,5.85,1.01,7.54,3.03,1.69,2.02,2.53,4.99,2.53,8.91v16h-5.83v-15.29c0-2.27-.48-4.03-1.43-5.28-.95-1.25-2.46-1.87-4.51-1.87s-3.69.68-5.03,2.04c-1.34,1.36-2.01,3.32-2.01,5.89v14.52h-5.83Z"/>
    <path d="M367.75,441.61c-3.3,0-5.8-1.02-7.51-3.05s-2.56-5-2.56-8.88v-16h5.83v15.29c0,2.24.49,3.99,1.46,5.25.97,1.26,2.47,1.9,4.48,1.9s3.7-.68,5.06-2.04c1.36-1.36,2.04-3.32,2.04-5.88v-14.52h5.83v27.28h-5.06l-.49-4.07h-.28c-.73,1.32-1.87,2.44-3.41,3.36-1.54.92-3.34,1.38-5.39,1.38Z"/>
    <path d="M387.44,440.95l9.35-13.64-9.68-13.64h6.49l7.04,10.17,7.04-10.17h6.49l-9.68,13.64,9.35,13.64h-6.49l-6.71-10.17-6.77,10.17h-6.43Z"/>
  </g>
</svg>
