<?xml version="1.0" encoding="UTF-8"?>
<svg id="Layer_1" data-name="Layer 1" xmlns="http://www.w3.org/2000/svg" xmlns:xlink="http://www.w3.org/1999/xlink" viewBox="0 0 500 500">
  <defs>
    <style>
      .cls-1 {
        fill: url(#linear-gradient-3);
      }

      .cls-2 {
        fill: url(#linear-gradient-2);
      }

      .cls-3 {
        fill: url(#linear-gradient);
      }
    </style>
    <linearGradient id="linear-gradient" x1="120.46" y1="322.22" x2="282.65" y2="41.31" gradientUnits="userSpaceOnUse">
      <stop offset="0" stop-color="#ff990f"/>
      <stop offset="1" stop-color="#ffc946"/>
    </linearGradient>
    <linearGradient id="linear-gradient-2" x1="159.21" y1="344.59" x2="321.4" y2="63.68" xlink:href="#linear-gradient"/>
    <linearGradient id="linear-gradient-3" x1="201.19" y1="368.83" x2="363.37" y2="87.91" xlink:href="#linear-gradient"/>
  </defs>
  <g>
    <path class="cls-3" d="M369.22,97.85c-29.63-32.13-72.07-52.28-119.22-52.28s-89.6,20.15-119.23,52.29c59.16,14.61,186.83,13.11,238.46-.01Z"/>
    <path class="cls-2" d="M397.24,139.8c-64.51,20.42-218.88,19.89-296.35,4.19-8.38,19.57-13.05,41.1-13.05,63.74,0,15.06,2.1,29.62,5.94,43.46,30.99,3.49,104.64,5.01,142.59-3.18,46.46-10.03,69.07-22.4,98.98-29.18,33.35-7.56,61.96-9.97,76.8-10.74,0-.12,0-.24,0-.36,0-24.26-5.37-47.26-14.92-67.93Z"/>
    <path class="cls-1" d="M106.99,284.2c27.32,51,81.11,85.7,143.01,85.7s115.57-34.62,142.92-85.52c-28.21,12.05-80.44,23.06-142.92,23.06-52.85,0-111.13-14.17-143.01-23.24Z"/>
  </g>
  <g>
    <path d="M105.37,446.87v-38.5h5.83v17.6l13.64-17.6h7.21l-15.07,19.08v.33l15.4,19.08h-7.37l-13.81-17.27v17.27h-5.83Z"/>
    <path d="M145.74,447.53c-2.6,0-4.93-.59-6.98-1.76-2.05-1.17-3.67-2.83-4.84-4.98-1.17-2.15-1.76-4.67-1.76-7.56s.59-5.42,1.76-7.56c1.17-2.15,2.79-3.8,4.84-4.98,2.05-1.17,4.4-1.76,7.04-1.76s4.98.59,7.01,1.76c2.04,1.17,3.63,2.83,4.79,4.98,1.15,2.14,1.73,4.67,1.73,7.56s-.59,5.42-1.76,7.56c-1.17,2.14-2.78,3.8-4.81,4.98-2.04,1.17-4.37,1.76-7.01,1.76ZM145.74,441.98c1.39,0,2.68-.31,3.85-.94,1.17-.62,2.12-1.59,2.83-2.89.71-1.3,1.07-2.94,1.07-4.92s-.36-3.67-1.07-4.95c-.72-1.28-1.65-2.24-2.81-2.86-1.15-.62-2.43-.93-3.82-.93s-2.68.31-3.85.93c-1.17.62-2.12,1.58-2.83,2.86-.71,1.28-1.07,2.93-1.07,4.95,0,3.01.76,5.22,2.28,6.63,1.52,1.41,3.33,2.12,5.42,2.12Z"/>
    <path d="M164,446.87v-27.28h5.06l.5,4.07h.27c.73-1.32,1.87-2.44,3.41-3.36,1.54-.92,3.32-1.38,5.34-1.38,3.34,0,5.85,1.01,7.53,3.03,1.69,2.02,2.53,4.99,2.53,8.91v16h-5.83v-15.29c0-2.27-.48-4.03-1.43-5.28-.95-1.25-2.46-1.87-4.51-1.87s-3.69.68-5.03,2.04c-1.34,1.36-2.01,3.32-2.01,5.89v14.52h-5.83Z"/>
    <path d="M191.55,458.97v-5.11h4.46c1.28,0,2.21-.27,2.78-.8.57-.53.85-1.42.85-2.67v-25.85h-6.93v-4.95h6.93v-3.79c0-3.04.75-5.22,2.25-6.54,1.5-1.32,3.65-1.98,6.44-1.98h6.66v5.11h-5.94c-1.28,0-2.2.26-2.75.77-.55.51-.83,1.41-.83,2.7v3.74h9.52v4.95h-9.52v25.91c0,3.04-.75,5.22-2.25,6.54-1.5,1.32-3.67,1.98-6.49,1.98h-5.17Z"/>
    <path d="M220.81,446.87v-5.06h8.58v-15.35c0-1.21-.59-1.81-1.76-1.81h-6.05v-5.06h7.1c2.27,0,3.93.52,4.98,1.57s1.57,2.71,1.57,4.98v15.68h8.58v5.06h-22.99ZM231.76,415.41c-1.28,0-2.36-.41-3.22-1.24-.86-.83-1.29-1.84-1.29-3.05s.43-2.22,1.29-3.03c.86-.81,1.93-1.21,3.22-1.21s2.41.4,3.27,1.21c.86.81,1.29,1.82,1.29,3.03s-.43,2.23-1.29,3.05c-.86.83-1.95,1.24-3.27,1.24Z"/>
    <path d="M258.87,447.53c-2.27,0-4.31-.54-6.1-1.62-1.8-1.08-3.22-2.69-4.26-4.81-1.04-2.13-1.57-4.75-1.57-7.86s.53-5.74,1.59-7.87c1.06-2.13,2.5-3.73,4.32-4.81,1.81-1.08,3.84-1.62,6.08-1.62,2.09,0,3.81.39,5.17,1.18,1.36.79,2.36,1.79,3.02,3v-15.84h5.83v39.6h-5.01l-.49-4.01h-.33c-.73,1.43-1.77,2.57-3.11,3.41-1.34.84-3.05,1.27-5.14,1.27ZM260.08,441.98c2.09,0,3.82-.73,5.2-2.2s2.06-3.65,2.06-6.54-.69-5.12-2.06-6.57c-1.38-1.45-3.11-2.17-5.2-2.17s-3.82.73-5.2,2.2-2.06,3.67-2.06,6.6.69,5.07,2.06,6.52c1.38,1.45,3.11,2.17,5.2,2.17Z"/>
    <path d="M291.16,447.53c-2.64,0-4.97-.6-6.98-1.79-2.02-1.19-3.59-2.85-4.73-4.98-1.14-2.13-1.71-4.6-1.71-7.42s.56-5.37,1.68-7.54c1.12-2.16,2.7-3.85,4.73-5.06,2.04-1.21,4.39-1.82,7.07-1.82s4.91.6,6.82,1.79c1.91,1.19,3.38,2.78,4.43,4.76,1.05,1.98,1.57,4.16,1.57,6.54v1.18c0,.42-.02.89-.06,1.4h-20.52c.18,2.53,1.01,4.45,2.48,5.75,1.47,1.3,3.19,1.95,5.17,1.95,1.72,0,3.09-.36,4.1-1.07,1.01-.71,1.75-1.7,2.23-2.94h5.88c-.66,2.6-2.03,4.79-4.12,6.57-2.09,1.78-4.77,2.67-8.03,2.67ZM291.16,423.99c-1.8,0-3.39.54-4.79,1.62-1.39,1.08-2.29,2.59-2.69,4.54h14.52c-.15-1.83-.86-3.32-2.15-4.46-1.28-1.14-2.92-1.71-4.9-1.71Z"/>
    <path d="M309.09,446.87v-27.28h5.06l.5,4.07h.27c.73-1.32,1.87-2.44,3.41-3.36,1.54-.92,3.32-1.38,5.34-1.38,3.34,0,5.85,1.01,7.53,3.03,1.69,2.02,2.53,4.99,2.53,8.91v16h-5.83v-15.29c0-2.27-.48-4.03-1.43-5.28-.95-1.25-2.46-1.87-4.51-1.87s-3.69.68-5.03,2.04c-1.34,1.36-2.01,3.32-2.01,5.89v14.52h-5.83Z"/>
    <path d="M352.15,447.53c-2.53,0-4.79-.59-6.79-1.76-2-1.17-3.57-2.83-4.7-4.98-1.14-2.15-1.71-4.67-1.71-7.56s.58-5.41,1.73-7.54c1.15-2.13,2.72-3.79,4.7-4.98s4.23-1.79,6.76-1.79c3.48,0,6.3.87,8.44,2.61s3.51,4.13,4.1,7.18h-6.1c-.37-1.32-1.11-2.36-2.23-3.13-1.12-.77-2.54-1.16-4.26-1.16-1.25,0-2.43.33-3.55.99-1.12.66-2.02,1.64-2.7,2.94-.68,1.3-1.02,2.92-1.02,4.87s.34,3.52,1.02,4.84c.68,1.32,1.58,2.32,2.7,3,1.12.68,2.3,1.02,3.55,1.02,1.76,0,3.17-.38,4.23-1.16,1.06-.77,1.81-1.83,2.25-3.19h6.1c-.73,3.01-2.16,5.39-4.29,7.15-2.13,1.76-4.88,2.64-8.25,2.64Z"/>
    <path d="M382.57,447.53c-2.64,0-4.97-.6-6.98-1.79-2.02-1.19-3.59-2.85-4.73-4.98-1.14-2.13-1.71-4.6-1.71-7.42s.56-5.37,1.68-7.54c1.12-2.16,2.7-3.85,4.73-5.06,2.04-1.21,4.39-1.82,7.07-1.82s4.91.6,6.82,1.79c1.91,1.19,3.38,2.78,4.43,4.76,1.05,1.98,1.57,4.16,1.57,6.54v1.18c0,.42-.02.89-.06,1.4h-20.52c.18,2.53,1.01,4.45,2.48,5.75,1.47,1.3,3.19,1.95,5.17,1.95,1.72,0,3.09-.36,4.1-1.07,1.01-.71,1.75-1.7,2.23-2.94h5.88c-.66,2.6-2.03,4.79-4.12,6.57-2.09,1.78-4.77,2.67-8.03,2.67ZM382.57,423.99c-1.8,0-3.39.54-4.79,1.62-1.39,1.08-2.29,2.59-2.69,4.54h14.52c-.15-1.83-.86-3.32-2.15-4.46-1.28-1.14-2.92-1.71-4.9-1.71Z"/>
  </g>
</svg>
