<?xml version="1.0" encoding="UTF-8"?>
<svg id="Layer_1" data-name="Layer 1" xmlns="http://www.w3.org/2000/svg" viewBox="0 0 500 500">
  <defs>
    <style>
      .cls-1 {
        fill: #257ddc;
      }
    </style>
  </defs>
  <path class="cls-1" d="M270.9,39.59l-4.91,5.49-4.91-.29c-6.35-.41-20.26-.29-24.97.25l-3.68.41-1.64-1.72c-.9-.94-3.23-3.44-5.2-5.57l-3.56-3.85-2.99.53c-6.71,1.19-18.91,4.5-25.55,7l-2.09.78-1.6,7.41-1.6,7.41-5.94,2.95c-6.75,3.36-12.61,6.8-18.83,11.09l-4.3,2.95-7.25-2.25-7.25-2.25-3.6,3.19c-4.75,4.26-12.24,11.87-15.76,16.05l-2.82,3.36,2.33,7.25,2.29,7.21-2.66,3.97c-4.26,6.3-5.94,9.17-10.11,17.44l-3.97,7.78-7.33,1.64-7.33,1.68-1.72,5.12c-2.05,6.02-3.89,12.98-5.24,19.94-.57,2.78-1.02,5.2-1.02,5.36s2.5,2.58,5.57,5.36l5.61,5.04-.29,4.63c-.45,6.88-.37,19.49.16,24.48l.45,4.42-3.81,3.52c-2.09,1.97-4.63,4.3-5.61,5.24l-1.8,1.68.7,3.64c1.68,8.47,6.43,24.85,7.7,26.4.49.57,2.13.98,12.85,3.23l2.13.45,1.51,3.36c2.95,6.51,8.19,15.47,12.98,22.23l2.33,3.32-2.21,7.29-2.25,7.29,1.92,2.29c3.56,4.18,10.48,11.18,15.56,15.6l5.04,4.42,6.8-2.21c3.77-1.23,7.16-2.21,7.53-2.21s1.92.9,3.52,2.01c5.04,3.56,11.67,7.41,18.83,10.93l7,3.48,1.56,6.96c.86,3.85,1.8,7.21,2.01,7.53,1.11,1.35,22.31,7.21,29.39,8.06.94.08,1.76-.61,6.1-5.4,4.79-5.24,5.12-5.53,6.51-5.44,8.47.49,22.39.57,26.86.16l5.28-.49,1.43,1.56c.78.86,3.11,3.36,5.16,5.57l3.73,4.05,5.49-1.11c6.3-1.27,13.18-3.15,20.26-5.61l4.95-1.68,1.6-7.41,1.6-7.41,2.46-1.23c9.05-4.46,16.54-8.8,23.05-13.43l3.36-2.37,7.25,2.25,7.25,2.25,1.88-1.51c3.19-2.62,13.06-12.4,16.91-16.78l3.68-4.26-2.33-7.33-2.37-7.33,2.29-3.23c3.56-5.08,7.78-12.32,11.22-19.32l3.11-6.39,7.37-1.72c4.05-.94,7.41-1.76,7.45-1.8s.82-2.37,1.76-5.2c1.88-5.81,3.77-13.06,5.16-20.26l.98-4.91-2.33-2.25c-1.27-1.27-3.85-3.64-5.69-5.32l-3.32-3.07.33-3.68c.49-5.4.49-19.2-.04-24.77l-.45-4.83,3.19-2.99c1.8-1.68,4.3-4.05,5.61-5.28l2.37-2.25-1.27-6.02c-1.35-6.63-3.23-13.35-5.53-19.98-.82-2.37-1.56-4.34-1.6-4.38s-3.11-.74-6.84-1.56c-3.68-.82-7.04-1.56-7.45-1.68s-1.51-1.97-2.66-4.42c-2.66-5.61-6.35-11.95-10.97-18.91l-3.85-5.77,2.21-7.25,2.21-7.29-3.15-3.56c-4.5-4.99-11.5-11.87-15.72-15.52l-3.64-3.07-7.21,2.29-7.25,2.33-4.5-3.03c-5.94-3.97-13.14-8.06-19.49-11.09l-5.2-2.46-.82-3.68c-.49-2.01-1.27-5.4-1.72-7.45l-.9-3.77-4.99-1.64c-8.11-2.66-22.97-6.26-25.34-6.18-.29.04-2.7,2.54-5.4,5.57ZM274.91,113.2l23.21,13.43v27.26l-.04,27.31-8.6,4.91c-6.02,3.44-8.76,5.2-9.01,5.85-.57,1.51-.41,6.1.25,7.74.37.82,1.56,2.46,2.66,3.64,1.84,1.97,2.05,2.33,2.05,4.05s-.2,2.13-1.39,3.32c-1.15,1.15-1.72,1.39-3.11,1.39-3.07,0-5.32-2.21-5.32-5.2,0-2.7-3.36-6.02-7.16-7.08l-1.84-.49-7.82,4.46-7.82,4.5-7.21-4.13c-7.45-4.3-8.68-5.36-8.68-7.74,0-1.51.57-2.5,2.78-4.99,2.17-2.42,2.95-4.09,2.95-6.35,0-4.54-3.28-7.78-7.82-7.78-4.18,0-6.47,2.05-8.15,7.25-.82,2.62-1.27,3.36-2.42,4.09-2.33,1.6-3.32,1.31-11.3-3.28l-7.37-4.22-.12-27.02c-.08-23.83-.04-27.14.53-27.59,1.64-1.35,46.34-26.94,46.87-26.86.37.08,11.09,6.14,23.87,13.51ZM235.08,180.83c1.56.94,2.46,2.62,2.46,4.67,0,1.56-.2,1.97-2.25,3.89-1.23,1.19-2.46,2.7-2.7,3.36-.61,1.56-.53,6.43.12,7.78.37.74,2.78,2.37,8.11,5.44l7.57,4.38.12,8.35c.08,7.78.04,8.43-.74,9.7-.49.78-1.51,1.64-2.37,2.01-1.39.57-1.76.57-4.38-.04-3.56-.82-4.75-.82-6.67-.04-3.89,1.68-5.85,5.77-4.5,9.66,1.43,4.3,5.2,6.22,9.99,5.08,4.63-1.11,6.39-.74,8.02,1.72.66,1.02.74,2.09.74,9.58v8.43l-23.62,13.63c-17.89,10.32-23.74,13.51-24.24,13.22-.37-.2-11.01-6.35-23.7-13.63l-23.01-13.3.08-27.18.12-27.22,23.54-13.59c12.94-7.49,23.62-13.55,23.74-13.47.12.04,4.09,2.33,8.84,5.08l8.64,4.95,1.72-.57c2.33-.86,5.28-2.95,6.14-4.42.41-.66.86-2.01,1.02-3.03.33-2.37.82-3.32,2.42-4.26,1.6-.98,3.28-1.02,4.79-.16ZM322.11,197.65l23.46,13.43-.08,27.39-.08,27.35-23.13,13.47c-12.73,7.41-23.42,13.43-23.74,13.39-.33-.08-11.09-6.1-23.83-13.43l-23.25-13.3v-20.39l-1.51-1.43c-2.87-2.7-6.47-3.36-10.68-1.97-2.42.82-3.28.66-5.24-1.06-1.23-1.06-1.39-1.47-1.39-3.19,0-1.51.25-2.25,1.06-3.23,1.56-1.84,3.36-2.21,6.22-1.23,3.52,1.27,6.67.45,10.11-2.54l1.43-1.27v-18.26l7.12-4.13c5.94-3.48,7.37-4.13,8.84-4.13,1.39,0,1.97.25,3.07,1.35.82.82,1.56,2.09,1.8,3.19,1.11,4.5,3.56,7.08,7.16,7.57,5.81.82,10.52-5.28,8.23-10.73-.33-.82-1.64-2.58-2.87-3.93-2.01-2.13-2.25-2.62-2.25-4.13,0-2.87.86-3.68,8.39-8.06,3.85-2.21,7.12-4.05,7.33-4.05.2-.04,10.93,5.98,23.83,13.35Z"/>
  <g>
    <path d="M213.86,419.88c-3.12,0-5.81-.81-8.08-2.42-2.27-1.61-4.02-3.91-5.23-6.88-1.21-2.97-1.81-6.51-1.81-10.62s.6-7.64,1.81-10.62c1.21-2.97,2.95-5.26,5.23-6.88,2.27-1.61,4.97-2.42,8.08-2.42s5.86.81,8.11,2.42c2.26,1.61,3.99,3.91,5.2,6.88,1.21,2.97,1.81,6.51,1.81,10.62s-.6,7.64-1.81,10.62c-1.21,2.97-2.94,5.26-5.2,6.88-2.25,1.61-4.96,2.42-8.11,2.42ZM213.86,414.38c2.75,0,4.97-1.24,6.65-3.71,1.69-2.47,2.53-6.04,2.53-10.7s-.84-8.22-2.53-10.7c-1.69-2.48-3.9-3.71-6.65-3.71s-5.01,1.24-6.68,3.71c-1.67,2.47-2.5,6.04-2.5,10.7s.83,8.22,2.5,10.7c1.67,2.48,3.9,3.71,6.68,3.71Z"/>
    <path d="M231.63,431.32v-39.38h5.06l.44,4.18h.33c.73-1.36,1.84-2.5,3.33-3.44,1.48-.94,3.25-1.4,5.31-1.4s4.07.54,5.83,1.62c1.76,1.08,3.16,2.68,4.21,4.79s1.57,4.74,1.57,7.89-.54,5.74-1.62,7.86c-1.08,2.13-2.54,3.73-4.37,4.81-1.83,1.08-3.89,1.62-6.16,1.62-2.02,0-3.7-.4-5.06-1.21-1.36-.81-2.36-1.72-3.02-2.75v15.4h-5.83ZM244.55,414.33c2.05,0,3.77-.73,5.14-2.2s2.06-3.67,2.06-6.6-.69-5.11-2.06-6.54c-1.38-1.43-3.09-2.14-5.14-2.14s-3.82.72-5.2,2.17c-1.38,1.45-2.06,3.64-2.06,6.57s.69,5.08,2.06,6.54,3.11,2.2,5.2,2.2Z"/>
    <path d="M275.13,419.88c-2.64,0-4.97-.6-6.98-1.79-2.02-1.19-3.59-2.85-4.73-4.98-1.14-2.13-1.71-4.6-1.71-7.42s.56-5.37,1.68-7.54c1.12-2.16,2.7-3.85,4.73-5.06,2.04-1.21,4.39-1.82,7.07-1.82s4.91.6,6.82,1.79c1.91,1.19,3.38,2.78,4.43,4.76,1.05,1.98,1.57,4.16,1.57,6.54v1.18c0,.42-.02.89-.06,1.4h-20.52c.18,2.53,1.01,4.45,2.48,5.75,1.47,1.3,3.19,1.95,5.17,1.95,1.72,0,3.09-.36,4.1-1.07,1.01-.71,1.75-1.7,2.23-2.94h5.88c-.66,2.6-2.03,4.79-4.12,6.57-2.09,1.78-4.77,2.67-8.03,2.67ZM275.13,396.34c-1.8,0-3.39.54-4.79,1.62-1.39,1.08-2.29,2.59-2.69,4.54h14.52c-.15-1.83-.86-3.32-2.15-4.46-1.28-1.14-2.92-1.71-4.9-1.71Z"/>
    <path d="M293.06,419.22v-27.28h5.06l.5,4.07h.27c.73-1.32,1.87-2.44,3.41-3.36,1.54-.92,3.32-1.38,5.34-1.38,3.34,0,5.85,1.01,7.53,3.03,1.69,2.02,2.53,4.99,2.53,8.91v16h-5.83v-15.29c0-2.27-.48-4.03-1.43-5.28-.95-1.25-2.46-1.87-4.51-1.87s-3.69.68-5.03,2.04c-1.34,1.36-2.01,3.32-2.01,5.89v14.52h-5.83Z"/>
    <path d="M54.07,479.88c-3.23,0-5.97-.83-8.22-2.48-2.26-1.65-3.98-3.97-5.17-6.96-1.19-2.99-1.79-6.46-1.79-10.42s.6-7.49,1.79-10.48c1.19-2.99,2.92-5.32,5.2-6.98,2.27-1.67,5-2.5,8.19-2.5,4.14,0,7.44,1.13,9.9,3.38s3.89,5.31,4.29,9.16h-6.43c-.33-2.02-1.15-3.69-2.45-5.03-1.3-1.34-3.09-2.01-5.36-2.01-2.9,0-5.15,1.28-6.77,3.85-1.61,2.57-2.42,6.1-2.42,10.61s.81,7.98,2.42,10.53c1.61,2.55,3.87,3.82,6.77,3.82,2.35,0,4.14-.61,5.39-1.84,1.25-1.23,2.05-2.85,2.42-4.87h6.43c-.59,3.78-2.07,6.76-4.45,8.94-2.38,2.18-5.63,3.27-9.74,3.27Z"/>
    <path d="M84.43,479.88c-2.6,0-4.93-.59-6.98-1.76-2.05-1.17-3.67-2.83-4.84-4.98-1.17-2.15-1.76-4.67-1.76-7.56s.59-5.42,1.76-7.56c1.17-2.15,2.79-3.8,4.84-4.98,2.05-1.17,4.4-1.76,7.04-1.76s4.98.59,7.01,1.76c2.04,1.17,3.63,2.83,4.79,4.98,1.15,2.14,1.73,4.67,1.73,7.56s-.59,5.42-1.76,7.56c-1.17,2.14-2.78,3.8-4.81,4.98-2.04,1.17-4.37,1.76-7.01,1.76ZM84.43,474.33c1.39,0,2.68-.31,3.85-.94,1.17-.62,2.12-1.59,2.83-2.89.71-1.3,1.07-2.94,1.07-4.92s-.36-3.67-1.07-4.95c-.72-1.28-1.65-2.24-2.81-2.86-1.15-.62-2.43-.93-3.82-.93s-2.68.31-3.85.93c-1.17.62-2.12,1.58-2.83,2.86-.71,1.28-1.07,2.93-1.07,4.95,0,3.01.76,5.22,2.28,6.63,1.52,1.41,3.33,2.12,5.42,2.12Z"/>
    <path d="M102.3,479.22v-27.28h4.84l.5,3.19h.27c.48-1.14,1.21-2.06,2.2-2.78.99-.71,2.16-1.07,3.52-1.07s2.48.33,3.46.99c.99.66,1.72,1.61,2.2,2.86h.22c.48-1.1,1.23-2.02,2.26-2.75,1.03-.73,2.29-1.1,3.79-1.1,2.02,0,3.55.66,4.59,1.98s1.57,3.17,1.57,5.55v20.41h-5.61v-19.25c0-1.1-.23-1.97-.69-2.61-.46-.64-1.18-.96-2.17-.96s-1.81.38-2.45,1.16c-.64.77-.96,1.85-.96,3.25v18.42h-5.67v-19.25c0-1.1-.22-1.97-.66-2.61-.44-.64-1.16-.96-2.15-.96s-1.82.38-2.48,1.16c-.66.77-.99,1.85-.99,3.25v18.42h-5.61Z"/>
    <path d="M137.72,491.32v-39.38h5.06l.44,4.18h.33c.73-1.36,1.84-2.5,3.33-3.44,1.48-.94,3.25-1.4,5.31-1.4s4.07.54,5.83,1.62c1.76,1.08,3.16,2.68,4.21,4.79s1.57,4.74,1.57,7.89-.54,5.74-1.62,7.86c-1.08,2.13-2.54,3.73-4.37,4.81-1.83,1.08-3.89,1.62-6.16,1.62-2.02,0-3.7-.4-5.06-1.21-1.36-.81-2.36-1.72-3.02-2.75v15.4h-5.83ZM150.65,474.33c2.05,0,3.77-.73,5.14-2.2s2.06-3.67,2.06-6.6-.69-5.11-2.06-6.54c-1.38-1.43-3.09-2.14-5.14-2.14s-3.82.72-5.2,2.17c-1.38,1.45-2.06,3.64-2.06,6.57s.69,5.08,2.06,6.54,3.11,2.2,5.2,2.2Z"/>
    <path d="M180.9,479.88c-2.6,0-4.93-.59-6.98-1.76-2.05-1.17-3.67-2.83-4.84-4.98-1.17-2.15-1.76-4.67-1.76-7.56s.59-5.42,1.76-7.56c1.17-2.15,2.79-3.8,4.84-4.98,2.05-1.17,4.4-1.76,7.04-1.76s4.98.59,7.01,1.76c2.04,1.17,3.63,2.83,4.79,4.98,1.15,2.14,1.73,4.67,1.73,7.56s-.59,5.42-1.76,7.56c-1.17,2.14-2.78,3.8-4.81,4.98-2.04,1.17-4.37,1.76-7.01,1.76ZM180.9,474.33c1.39,0,2.68-.31,3.85-.94,1.17-.62,2.12-1.59,2.83-2.89.71-1.3,1.07-2.94,1.07-4.92s-.36-3.67-1.07-4.95c-.72-1.28-1.65-2.24-2.81-2.86-1.15-.62-2.43-.93-3.82-.93s-2.68.31-3.85.93c-1.17.62-2.12,1.58-2.83,2.86-.71,1.28-1.07,2.93-1.07,4.95,0,3.01.76,5.22,2.28,6.63,1.52,1.41,3.33,2.12,5.42,2.12Z"/>
    <path d="M199.16,479.22v-27.28h5.06l.5,4.07h.27c.73-1.32,1.87-2.44,3.41-3.36,1.54-.92,3.32-1.38,5.34-1.38,3.34,0,5.85,1.01,7.53,3.03,1.69,2.02,2.53,4.99,2.53,8.91v16h-5.83v-15.29c0-2.27-.48-4.03-1.43-5.28-.95-1.25-2.46-1.87-4.51-1.87s-3.69.68-5.03,2.04c-1.34,1.36-2.01,3.32-2.01,5.89v14.52h-5.83Z"/>
    <path d="M242.16,479.88c-2.64,0-4.97-.6-6.98-1.79-2.02-1.19-3.59-2.85-4.73-4.98-1.14-2.13-1.71-4.6-1.71-7.42s.56-5.37,1.68-7.54c1.12-2.16,2.7-3.85,4.73-5.06,2.04-1.21,4.39-1.82,7.07-1.82s4.91.6,6.82,1.79c1.91,1.19,3.38,2.78,4.43,4.76,1.05,1.98,1.57,4.16,1.57,6.54v1.18c0,.42-.02.89-.06,1.4h-20.52c.18,2.53,1.01,4.45,2.48,5.75,1.47,1.3,3.19,1.95,5.17,1.95,1.72,0,3.09-.36,4.1-1.07,1.01-.71,1.75-1.7,2.23-2.94h5.88c-.66,2.6-2.03,4.79-4.12,6.57-2.09,1.78-4.77,2.67-8.03,2.67ZM242.16,456.34c-1.8,0-3.39.54-4.79,1.62-1.39,1.08-2.29,2.59-2.69,4.54h14.52c-.15-1.83-.86-3.32-2.15-4.46-1.28-1.14-2.92-1.71-4.9-1.71Z"/>
    <path d="M260.09,479.22v-27.28h5.06l.5,4.07h.27c.73-1.32,1.87-2.44,3.41-3.36,1.54-.92,3.32-1.38,5.34-1.38,3.34,0,5.85,1.01,7.53,3.03,1.69,2.02,2.53,4.99,2.53,8.91v16h-5.83v-15.29c0-2.27-.48-4.03-1.43-5.28-.95-1.25-2.46-1.87-4.51-1.87s-3.69.68-5.03,2.04c-1.34,1.36-2.01,3.32-2.01,5.89v14.52h-5.83Z"/>
    <path d="M305.74,479.22c-2.68,0-4.8-.65-6.38-1.95-1.58-1.3-2.36-3.62-2.36-6.96v-13.42h-6.88v-4.95h4.07c1.87,0,2.97-.92,3.3-2.75l.82-4.4h4.51v7.15h10.78v4.95h-10.78v13.31c0,1.43.32,2.43.96,3,.64.57,1.75.85,3.33.85h6.38v5.17h-7.75Z"/>
    <path d="M329.6,479.22v-38.5h6.16l7.98,17.38,7.98-17.38h6.16v38.5h-5.55v-27.39l-6.27,13.75h-4.62l-6.27-13.7v27.33h-5.55Z"/>
    <path d="M375.64,479.88c-2.6,0-4.93-.59-6.98-1.76-2.05-1.17-3.67-2.83-4.84-4.98-1.17-2.15-1.76-4.67-1.76-7.56s.59-5.42,1.76-7.56c1.17-2.15,2.79-3.8,4.84-4.98,2.05-1.17,4.4-1.76,7.04-1.76s4.98.59,7.01,1.76c2.04,1.17,3.63,2.83,4.79,4.98,1.15,2.14,1.73,4.67,1.73,7.56s-.59,5.42-1.76,7.56c-1.17,2.14-2.78,3.8-4.81,4.98-2.04,1.17-4.37,1.76-7.01,1.76ZM375.64,474.33c1.39,0,2.68-.31,3.85-.94,1.17-.62,2.12-1.59,2.83-2.89.71-1.3,1.07-2.94,1.07-4.92s-.36-3.67-1.07-4.95c-.72-1.28-1.65-2.24-2.81-2.86-1.15-.62-2.43-.93-3.82-.93s-2.68.31-3.85.93c-1.17.62-2.12,1.58-2.83,2.86-.71,1.28-1.07,2.93-1.07,4.95,0,3.01.76,5.22,2.28,6.63,1.52,1.41,3.33,2.12,5.42,2.12Z"/>
    <path d="M404.62,479.88c-2.27,0-4.31-.54-6.1-1.62-1.8-1.08-3.22-2.69-4.26-4.81-1.04-2.13-1.57-4.75-1.57-7.86s.53-5.74,1.59-7.87c1.06-2.13,2.5-3.73,4.32-4.81,1.81-1.08,3.84-1.62,6.08-1.62,2.09,0,3.81.39,5.17,1.18,1.36.79,2.36,1.79,3.02,3v-15.84h5.83v39.6h-5.01l-.49-4.01h-.33c-.73,1.43-1.77,2.57-3.11,3.41-1.34.84-3.05,1.27-5.14,1.27ZM405.83,474.33c2.09,0,3.82-.73,5.2-2.2s2.06-3.65,2.06-6.54-.69-5.12-2.06-6.57c-1.38-1.45-3.11-2.17-5.2-2.17s-3.82.73-5.2,2.2-2.06,3.67-2.06,6.6.69,5.07,2.06,6.52c1.38,1.45,3.11,2.17,5.2,2.17Z"/>
    <path d="M436.91,479.88c-2.64,0-4.97-.6-6.98-1.79-2.02-1.19-3.59-2.85-4.73-4.98-1.14-2.13-1.71-4.6-1.71-7.42s.56-5.37,1.68-7.54c1.12-2.16,2.7-3.85,4.73-5.06,2.04-1.21,4.39-1.82,7.07-1.82s4.91.6,6.82,1.79c1.91,1.19,3.38,2.78,4.43,4.76,1.05,1.98,1.57,4.16,1.57,6.54v1.18c0,.42-.02.89-.06,1.4h-20.52c.18,2.53,1.01,4.45,2.48,5.75,1.47,1.3,3.19,1.95,5.17,1.95,1.72,0,3.09-.36,4.1-1.07,1.01-.71,1.75-1.7,2.23-2.94h5.88c-.66,2.6-2.03,4.79-4.12,6.57-2.09,1.78-4.77,2.67-8.03,2.67ZM436.91,456.34c-1.8,0-3.39.54-4.79,1.62-1.39,1.08-2.29,2.59-2.69,4.54h14.52c-.15-1.83-.86-3.32-2.15-4.46-1.28-1.14-2.92-1.71-4.9-1.71Z"/>
    <path d="M452.42,479.22v-5.06h9.13v-27.67c0-1.21-.59-1.82-1.76-1.82h-6.6v-5.06h7.65c2.13,0,3.75.56,4.87,1.68,1.12,1.12,1.68,2.74,1.68,4.87v28h9.18v5.06h-24.14Z"/>
  </g>
</svg>
