<?xml version="1.0" encoding="UTF-8"?>
<svg id="Layer_1" data-name="Layer 1" xmlns="http://www.w3.org/2000/svg" viewBox="0 0 500 640.08">
  <defs>
    <style>
      .cls-1 {
        fill: none;
      }

      .cls-2 {
        fill: #028dfa;
      }

      .cls-3 {
        fill: #00baff;
      }

      .cls-4 {
        fill: #1243ed;
      }
    </style>
  </defs>
  <g>
    <rect class="cls-1" x="51.74" y="373.53" width="415.53" height="252.93"/>
    <path d="M82.04,432.09c-4.53,0-8.45-1.17-11.76-3.52-3.31-2.35-5.84-5.68-7.6-10-1.76-4.32-2.64-9.47-2.64-15.44s.88-11.12,2.64-15.44c1.76-4.32,4.29-7.65,7.6-10,3.31-2.35,7.23-3.52,11.76-3.52s8.52,1.17,11.8,3.52c3.28,2.35,5.8,5.68,7.56,10,1.76,4.32,2.64,9.47,2.64,15.44s-.88,11.12-2.64,15.44c-1.76,4.32-4.28,7.65-7.56,10-3.28,2.35-7.21,3.52-11.8,3.52ZM82.04,424.09c4,0,7.23-1.8,9.68-5.4,2.45-3.6,3.68-8.79,3.68-15.56s-1.23-11.96-3.68-15.56c-2.45-3.6-5.68-5.4-9.68-5.4s-7.29,1.8-9.72,5.4c-2.43,3.6-3.64,8.79-3.64,15.56s1.21,11.96,3.64,15.56c2.43,3.6,5.67,5.4,9.72,5.4Z"/>
    <path d="M107.88,448.73v-57.28h7.36l.64,6.08h.48c1.07-1.97,2.68-3.64,4.84-5,2.16-1.36,4.73-2.04,7.72-2.04s5.92.79,8.48,2.36c2.56,1.57,4.6,3.89,6.12,6.96,1.52,3.07,2.28,6.89,2.28,11.48s-.79,8.35-2.36,11.44c-1.57,3.09-3.69,5.43-6.36,7-2.67,1.57-5.65,2.36-8.96,2.36-2.93,0-5.39-.59-7.36-1.76-1.97-1.17-3.44-2.51-4.4-4v22.4h-8.48ZM126.68,424.01c2.99,0,5.48-1.07,7.48-3.2,2-2.13,3-5.33,3-9.6s-1-7.44-3-9.52c-2-2.08-4.49-3.12-7.48-3.12s-5.56,1.05-7.56,3.16c-2,2.11-3,5.29-3,9.56s1,7.39,3,9.52c2,2.13,4.52,3.2,7.56,3.2Z"/>
    <path d="M171.16,432.09c-3.84,0-7.23-.87-10.16-2.6-2.93-1.73-5.23-4.15-6.88-7.24-1.65-3.09-2.48-6.69-2.48-10.8s.81-7.81,2.44-10.96c1.63-3.15,3.92-5.6,6.88-7.36s6.39-2.64,10.28-2.64,7.15.87,9.92,2.6c2.77,1.73,4.92,4.04,6.44,6.92s2.28,6.05,2.28,9.52v1.72c0,.61-.03,1.29-.08,2.04h-29.84c.27,3.68,1.47,6.47,3.6,8.36,2.13,1.89,4.64,2.84,7.52,2.84,2.51,0,4.49-.52,5.96-1.56,1.47-1.04,2.55-2.47,3.24-4.28h8.56c-.96,3.79-2.96,6.97-6,9.56-3.04,2.59-6.93,3.88-11.68,3.88ZM171.16,397.85c-2.61,0-4.93.79-6.96,2.36-2.03,1.57-3.33,3.77-3.92,6.6h21.12c-.21-2.67-1.25-4.83-3.12-6.48-1.87-1.65-4.24-2.48-7.12-2.48Z"/>
    <path d="M197.23,431.13v-39.68h7.36l.72,5.92h.4c1.07-1.92,2.72-3.55,4.96-4.88,2.24-1.33,4.83-2,7.76-2,4.85,0,8.51,1.47,10.96,4.4,2.45,2.93,3.68,7.25,3.68,12.96v23.28h-8.48v-22.24c0-3.31-.69-5.87-2.08-7.68-1.39-1.81-3.57-2.72-6.56-2.72s-5.37.99-7.32,2.96c-1.95,1.97-2.92,4.83-2.92,8.56v21.12h-8.48Z"/>
    <path d="M254.02,431.13v-56h8.96l11.6,25.28,11.6-25.28h8.96v56h-8.08v-39.84l-9.12,20h-6.72l-9.12-19.92v39.76h-8.08Z"/>
    <path d="M298.66,431.13v-7.36h12.48v-22.32c0-1.76-.85-2.64-2.56-2.64h-8.8v-7.36h10.32c3.31,0,5.72.76,7.24,2.28,1.52,1.52,2.28,3.93,2.28,7.24v22.8h12.48v7.36h-33.44ZM314.58,385.37c-1.87,0-3.43-.6-4.68-1.8-1.25-1.2-1.88-2.68-1.88-4.44s.63-3.23,1.88-4.4c1.25-1.17,2.81-1.76,4.68-1.76s3.51.59,4.76,1.76c1.25,1.17,1.88,2.64,1.88,4.4s-.63,3.24-1.88,4.44c-1.25,1.2-2.84,1.8-4.76,1.8Z"/>
    <path d="M355.94,432.09c-3.68,0-6.97-.85-9.88-2.56-2.91-1.71-5.19-4.12-6.84-7.24-1.65-3.12-2.48-6.79-2.48-11s.84-7.87,2.52-10.96c1.68-3.09,3.96-5.51,6.84-7.24,2.88-1.73,6.16-2.6,9.84-2.6,5.07,0,9.16,1.27,12.28,3.8,3.12,2.53,5.11,6.01,5.96,10.44h-8.88c-.53-1.92-1.61-3.44-3.24-4.56-1.63-1.12-3.69-1.68-6.2-1.68-1.81,0-3.53.48-5.16,1.44-1.63.96-2.93,2.39-3.92,4.28-.99,1.89-1.48,4.25-1.48,7.08s.49,5.12,1.48,7.04c.99,1.92,2.29,3.37,3.92,4.36,1.63.99,3.35,1.48,5.16,1.48,2.56,0,4.61-.56,6.16-1.68,1.55-1.12,2.64-2.67,3.28-4.64h8.88c-1.07,4.37-3.15,7.84-6.24,10.4-3.09,2.56-7.09,3.84-12,3.84Z"/>
    <path d="M378.34,431.13v-7.36h9.68v-22.32c0-1.76-.85-2.64-2.56-2.64h-6.32v-7.36h9.52c2.19,0,3.97.63,5.36,1.88,1.39,1.25,2.08,3,2.08,5.24v.96h.4c.59-2.99,1.85-5.24,3.8-6.76,1.95-1.52,4.79-2.28,8.52-2.28h6.16v8.96h-8.64c-3.15,0-5.57,1.09-7.28,3.28-1.71,2.19-2.56,4.8-2.56,7.84v13.2h12.32v7.36h-30.48Z"/>
    <path d="M436.98,432.09c-3.79,0-7.17-.85-10.16-2.56-2.99-1.71-5.33-4.12-7.04-7.24-1.71-3.12-2.56-6.79-2.56-11s.85-7.88,2.56-11c1.71-3.12,4.05-5.53,7.04-7.24,2.99-1.71,6.4-2.56,10.24-2.56s7.24.85,10.2,2.56c2.96,1.71,5.28,4.12,6.96,7.24,1.68,3.12,2.52,6.79,2.52,11s-.85,7.88-2.56,11c-1.71,3.12-4.04,5.53-7,7.24-2.96,1.71-6.36,2.56-10.2,2.56ZM436.98,424.01c2.03,0,3.89-.45,5.6-1.36,1.71-.91,3.08-2.31,4.12-4.2,1.04-1.89,1.56-4.28,1.56-7.16s-.52-5.33-1.56-7.2c-1.04-1.87-2.4-3.25-4.08-4.16-1.68-.91-3.53-1.36-5.56-1.36s-3.89.45-5.6,1.36c-1.71.91-3.08,2.29-4.12,4.16-1.04,1.87-1.56,4.27-1.56,7.2,0,4.37,1.11,7.59,3.32,9.64,2.21,2.05,4.84,3.08,7.88,3.08Z"/>
    <path d="M98.07,511.13v-56h35.92v7.92h-27.44v17.12h23.04v7.44h-23.04v23.52h-8.48Z"/>
    <path d="M137.51,511.13v-7.36h9.68v-22.32c0-1.76-.85-2.64-2.56-2.64h-6.32v-7.36h9.52c2.19,0,3.97.63,5.36,1.88,1.39,1.25,2.08,3,2.08,5.24v.96h.4c.59-2.99,1.85-5.24,3.8-6.76,1.95-1.52,4.79-2.28,8.52-2.28h6.16v8.96h-8.64c-3.15,0-5.57,1.09-7.28,3.28-1.71,2.19-2.56,4.8-2.56,7.84v13.2h12.32v7.36h-30.48Z"/>
    <path d="M196.15,512.09c-3.79,0-7.17-.85-10.16-2.56-2.99-1.71-5.33-4.12-7.04-7.24-1.71-3.12-2.56-6.79-2.56-11s.85-7.88,2.56-11c1.71-3.12,4.05-5.53,7.04-7.24,2.99-1.71,6.4-2.56,10.24-2.56s7.24.85,10.2,2.56c2.96,1.71,5.28,4.12,6.96,7.24,1.68,3.12,2.52,6.79,2.52,11s-.85,7.88-2.56,11c-1.71,3.12-4.04,5.53-7,7.24-2.96,1.71-6.36,2.56-10.2,2.56ZM196.15,504.01c2.03,0,3.89-.45,5.6-1.36,1.71-.91,3.08-2.31,4.12-4.2,1.04-1.89,1.56-4.28,1.56-7.16s-.52-5.33-1.56-7.2c-1.04-1.87-2.4-3.25-4.08-4.16-1.68-.91-3.53-1.36-5.56-1.36s-3.89.45-5.6,1.36c-1.71.91-3.08,2.29-4.12,4.16-1.04,1.87-1.56,4.27-1.56,7.2,0,4.37,1.11,7.59,3.32,9.64,2.21,2.05,4.84,3.08,7.88,3.08Z"/>
    <path d="M219.19,511.13v-39.68h7.36l.72,5.92h.4c1.07-1.92,2.72-3.55,4.96-4.88s4.83-2,7.76-2c4.85,0,8.51,1.47,10.96,4.4,2.45,2.93,3.68,7.25,3.68,12.96v23.28h-8.48v-22.24c0-3.31-.69-5.87-2.08-7.68-1.39-1.81-3.57-2.72-6.56-2.72s-5.37.99-7.32,2.96c-1.95,1.97-2.92,4.83-2.92,8.56v21.12h-8.48Z"/>
    <path d="M282.07,511.13c-3.89,0-6.99-.95-9.28-2.84-2.29-1.89-3.44-5.27-3.44-10.12v-19.52h-10v-7.2h5.92c2.72,0,4.32-1.33,4.8-4l1.2-6.4h6.56v10.4h15.68v7.2h-15.68v19.36c0,2.08.47,3.53,1.4,4.36.93.83,2.55,1.24,4.84,1.24h9.28v7.52h-11.28Z"/>
    <path d="M319.02,512.09c-3.84,0-7.23-.87-10.16-2.6-2.93-1.73-5.23-4.15-6.88-7.24-1.65-3.09-2.48-6.69-2.48-10.8s.81-7.81,2.44-10.96c1.63-3.15,3.92-5.6,6.88-7.36,2.96-1.76,6.39-2.64,10.28-2.64s7.15.87,9.92,2.6c2.77,1.73,4.92,4.04,6.44,6.92,1.52,2.88,2.28,6.05,2.28,9.52v1.72c0,.61-.03,1.29-.08,2.04h-29.84c.27,3.68,1.47,6.47,3.6,8.36,2.13,1.89,4.64,2.84,7.52,2.84,2.51,0,4.49-.52,5.96-1.56,1.47-1.04,2.55-2.47,3.24-4.28h8.56c-.96,3.79-2.96,6.97-6,9.56-3.04,2.59-6.93,3.88-11.68,3.88ZM319.02,477.85c-2.61,0-4.93.79-6.96,2.36-2.03,1.57-3.33,3.77-3.92,6.6h21.12c-.21-2.67-1.25-4.83-3.12-6.48-1.87-1.65-4.24-2.48-7.12-2.48Z"/>
    <path d="M345.1,511.13v-39.68h7.36l.72,5.92h.4c1.07-1.92,2.72-3.55,4.96-4.88s4.83-2,7.76-2c4.85,0,8.51,1.47,10.96,4.4,2.45,2.93,3.68,7.25,3.68,12.96v23.28h-8.48v-22.24c0-3.31-.69-5.87-2.08-7.68-1.39-1.81-3.57-2.72-6.56-2.72s-5.37.99-7.32,2.96c-1.95,1.97-2.92,4.83-2.92,8.56v21.12h-8.48Z"/>
    <path d="M401.5,512.09c-3.31,0-6.27-.79-8.88-2.36-2.61-1.57-4.68-3.91-6.2-7-1.52-3.09-2.28-6.91-2.28-11.44s.77-8.35,2.32-11.44c1.55-3.09,3.64-5.43,6.28-7,2.64-1.57,5.59-2.36,8.84-2.36,3.04,0,5.55.57,7.52,1.72,1.97,1.15,3.44,2.6,4.4,4.36v-23.04h8.48v57.6h-7.28l-.72-5.84h-.48c-1.07,2.08-2.57,3.73-4.52,4.96-1.95,1.23-4.44,1.84-7.48,1.84ZM403.26,504.01c3.04,0,5.56-1.07,7.56-3.2,2-2.13,3-5.31,3-9.52s-1-7.45-3-9.56c-2-2.11-4.52-3.16-7.56-3.16s-5.56,1.07-7.56,3.2c-2,2.13-3,5.33-3,9.6s1,7.37,3,9.48c2,2.11,4.52,3.16,7.56,3.16Z"/>
    <path d="M100.39,587.13v-56h18.96c4.27,0,7.79.73,10.56,2.2,2.77,1.47,4.83,3.48,6.16,6.04,1.33,2.56,2,5.49,2,8.8s-.67,6.24-2,8.8c-1.33,2.56-3.39,4.57-6.16,6.04-2.77,1.47-6.29,2.2-10.56,2.2h-10.48v21.92h-8.48ZM108.87,557.61h10.08c3.63,0,6.28-.85,7.96-2.56,1.68-1.71,2.52-4,2.52-6.88s-.84-5.11-2.52-6.84c-1.68-1.73-4.33-2.6-7.96-2.6h-10.08v18.88Z"/>
    <path d="M140.15,587.13v-7.36h13.28v-40.24c0-1.76-.85-2.64-2.56-2.64h-9.6v-7.36h11.12c3.09,0,5.45.81,7.08,2.44,1.63,1.63,2.44,3.99,2.44,7.08v40.72h13.36v7.36h-35.12Z"/>
    <path d="M195.11,588.09c-3.15,0-5.79-.55-7.92-1.64-2.13-1.09-3.73-2.56-4.8-4.4-1.07-1.84-1.6-3.85-1.6-6.04,0-3.89,1.43-6.93,4.28-9.12,2.85-2.19,6.89-3.28,12.12-3.28h10.24v-.88c0-5.97-2.77-8.96-8.32-8.96-2.29,0-4.23.49-5.8,1.48-1.57.99-2.63,2.57-3.16,4.76h-8.48c.43-4.16,2.23-7.45,5.4-9.88,3.17-2.43,7.19-3.64,12.04-3.64,5.87,0,10.13,1.44,12.8,4.32,2.67,2.88,4,6.85,4,11.92v24.4h-7.2l-.72-5.84h-.56c-1.17,1.87-2.64,3.47-4.4,4.8-1.76,1.33-4.4,2-7.92,2ZM196.71,580.97c3.47,0,6.07-1.05,7.8-3.16,1.73-2.11,2.68-4.79,2.84-8.04h-9.28c-3.04,0-5.19.49-6.44,1.48-1.25.99-1.88,2.36-1.88,4.12s.63,3.13,1.88,4.12c1.25.99,2.95,1.48,5.08,1.48Z"/>
    <path d="M243.03,587.13c-3.89,0-6.99-.95-9.28-2.84-2.29-1.89-3.44-5.27-3.44-10.12v-19.52h-10v-7.2h5.92c2.72,0,4.32-1.33,4.8-4l1.2-6.4h6.56v10.4h15.68v7.2h-15.68v19.36c0,2.08.47,3.53,1.4,4.36.93.83,2.55,1.24,4.84,1.24h9.28v7.52h-11.28Z"/>
    <path d="M260.23,604.73v-7.44h6.48c1.87,0,3.21-.39,4.04-1.16.83-.77,1.24-2.07,1.24-3.88v-37.6h-10.08v-7.2h10.08v-5.52c0-4.43,1.09-7.6,3.28-9.52,2.19-1.92,5.31-2.88,9.36-2.88h9.68v7.44h-8.64c-1.87,0-3.2.37-4,1.12-.8.75-1.2,2.05-1.2,3.92v5.44h13.84v7.2h-13.84v37.68c0,4.43-1.09,7.6-3.28,9.52-2.19,1.92-5.33,2.88-9.44,2.88h-7.52Z"/>
    <path d="M318.71,588.09c-3.79,0-7.17-.85-10.16-2.56-2.99-1.71-5.33-4.12-7.04-7.24-1.71-3.12-2.56-6.79-2.56-11s.85-7.88,2.56-11c1.71-3.12,4.05-5.53,7.04-7.24,2.99-1.71,6.4-2.56,10.24-2.56s7.24.85,10.2,2.56c2.96,1.71,5.28,4.12,6.96,7.24,1.68,3.12,2.52,6.79,2.52,11s-.85,7.88-2.56,11c-1.71,3.12-4.04,5.53-7,7.24-2.96,1.71-6.36,2.56-10.2,2.56ZM318.71,580.01c2.03,0,3.89-.45,5.6-1.36,1.71-.91,3.08-2.31,4.12-4.2,1.04-1.89,1.56-4.28,1.56-7.16s-.52-5.33-1.56-7.2c-1.04-1.87-2.4-3.25-4.08-4.16-1.68-.91-3.53-1.36-5.56-1.36s-3.89.45-5.6,1.36c-1.71.91-3.08,2.29-4.12,4.16-1.04,1.87-1.56,4.27-1.56,7.2,0,4.37,1.11,7.59,3.32,9.64,2.21,2.05,4.84,3.08,7.88,3.08Z"/>
    <path d="M341.66,587.13v-7.36h9.68v-22.32c0-1.76-.85-2.64-2.56-2.64h-6.32v-7.36h9.52c2.19,0,3.97.63,5.36,1.88,1.39,1.25,2.08,3,2.08,5.24v.96h.4c.59-2.99,1.85-5.24,3.8-6.76,1.95-1.52,4.79-2.28,8.52-2.28h6.16v8.96h-8.64c-3.15,0-5.57,1.09-7.28,3.28-1.71,2.19-2.56,4.8-2.56,7.84v13.2h12.32v7.36h-30.48Z"/>
    <path d="M378.3,587.13v-39.68h7.04l.72,4.64h.4c.69-1.65,1.76-3,3.2-4.04s3.15-1.56,5.12-1.56,3.6.48,5.04,1.44c1.44.96,2.51,2.35,3.2,4.16h.32c.69-1.6,1.79-2.93,3.28-4,1.49-1.07,3.33-1.6,5.52-1.6,2.93,0,5.16.96,6.68,2.88s2.28,4.61,2.28,8.08v29.68h-8.16v-28c0-1.6-.33-2.87-1-3.8-.67-.93-1.72-1.4-3.16-1.4s-2.63.56-3.56,1.68c-.93,1.12-1.4,2.69-1.4,4.72v26.8h-8.24v-28c0-1.6-.32-2.87-.96-3.8-.64-.93-1.68-1.4-3.12-1.4s-2.64.56-3.6,1.68c-.96,1.12-1.44,2.69-1.44,4.72v26.8h-8.16Z"/>
  </g>
  <g id="layer1">
    <path id="rect2727" class="cls-4" d="M158.98,72.09h229.05v271.29H116.74V114.33c0-23.33,18.91-42.24,42.24-42.24Z"/>
  </g>
  <g id="layer2">
    <path id="rect6963" class="cls-2" d="M226.8,140.89h160.74v202.98h-202.98v-160.74c0-23.33,18.91-42.24,42.24-42.24h0Z"/>
  </g>
  <g id="layer3">
    <path id="rect12826" class="cls-3" d="M294.13,207.24h93.9v136.14h-136.14v-93.9c0-23.33,18.91-42.24,42.24-42.24h0Z"/>
  </g>
</svg>
