<?xml version="1.0" encoding="UTF-8"?>
<svg id="Layer_1" data-name="Layer 1" xmlns="http://www.w3.org/2000/svg" xmlns:xlink="http://www.w3.org/1999/xlink" viewBox="0 0 500 500">
  <defs>
    <style>
      .cls-1 {
        fill: #3edebf;
      }

      .cls-1, .cls-2 {
        fill-rule: evenodd;
      }

      .cls-2 {
        fill: url(#linear-gradient);
      }
    </style>
    <linearGradient id="linear-gradient" x1="-192.05" y1="-8543.32" x2="19.02" y2="-8755.86" gradientTransform="translate(278.79 -6320.03) scale(.75 -.75)" gradientUnits="userSpaceOnUse">
      <stop offset="0" stop-color="#3edebf"/>
      <stop offset="1" stop-color="#18828d"/>
    </linearGradient>
  </defs>
  <g id="layer1">
    <g id="g161">
      <path id="path134" class="cls-2" d="M231.23,132.24c.4-2.82.6-5.7.6-8.63,0-.08,0-.16,0-.24h16.34c0,.08,0,.16,0,.24,0,2.93.2,5.81.6,8.63h-17.53ZM179.17,184.61v-52.37h52.06c-3.79,27.02-25.09,48.43-52.06,52.37ZM179.17,202.25v-17.64c-2.9.42-5.86.65-8.87.65v-61.89h61.53c-.13-33.94-27.68-61.41-61.65-61.41s-61.65,27.6-61.65,61.65,27.6,61.65,61.65,61.65h.13v16.34s-.09,0-.13,0c-34.05,0-61.65,27.6-61.65,61.65s27.6,61.65,61.65,61.65,61.65-27.6,61.65-61.65c0-.08,0-.16,0-.24h78.12v-77.75c33.99-.07,61.52-27.65,61.52-61.65s-27.6-61.65-61.65-61.65-61.52,27.47-61.65,61.41h61.78v61.89h-.13c-2.97,0-5.89-.21-8.74-.62v-52.41h-52.31c3.8,27.11,25.22,48.56,52.31,52.41v69.5h-69.92c-3.97-26.79-25.18-47.97-51.99-51.89ZM231.16,254.14c.43,2.9.66,5.86.67,8.87h-61.53v-61.41c3.01,0,5.97.23,8.87.65v51.89h51.99Z"/>
      <path id="path136" class="cls-1" d="M309.81,307.1c24.25,0,43.91-19.66,43.91-43.91s-19.66-43.91-43.91-43.91-43.91,19.66-43.91,43.91,19.66,43.91,43.91,43.91ZM309.81,324.85c34.05,0,61.65-27.6,61.65-61.65s-27.6-61.65-61.65-61.65-61.65,27.6-61.65,61.65,27.6,61.65,61.65,61.65Z"/>
      <path id="path138" class="cls-1" d="M369.23,295.87l28.25,28.77-24.17,24-28.25-28.77,24.17-24Z"/>
      <path id="path140" class="cls-1" d="M340.14,254.31c-2.61,2.05-5.91,3.25-9.48,3.21-8.33-.1-15-6.93-14.9-15.26.04-3.45,1.24-6.61,3.21-9.13-2.75-.82-5.67-1.28-8.68-1.32-17.42-.21-31.71,13.74-31.92,31.16-.21,17.42,13.74,31.71,31.16,31.92,17.42.21,31.71-13.74,31.92-31.16.04-3.27-.42-6.44-1.31-9.42Z"/>
    </g>
  </g>
  <g>
    <path d="M77.17,422.02c-3.12,0-5.81-.81-8.08-2.42-2.27-1.61-4.02-3.91-5.23-6.88-1.21-2.97-1.81-6.51-1.81-10.62s.6-7.64,1.81-10.62c1.21-2.97,2.95-5.26,5.23-6.88,2.27-1.61,4.97-2.42,8.08-2.42s5.86.81,8.11,2.42c2.26,1.61,3.99,3.91,5.2,6.88,1.21,2.97,1.81,6.51,1.81,10.62s-.6,7.64-1.81,10.62c-1.21,2.97-2.94,5.26-5.2,6.88-2.25,1.61-4.96,2.42-8.11,2.42ZM77.17,416.52c2.75,0,4.97-1.24,6.65-3.71,1.69-2.47,2.53-6.04,2.53-10.7s-.84-8.22-2.53-10.7c-1.69-2.48-3.9-3.71-6.65-3.71s-5.01,1.24-6.68,3.71c-1.67,2.47-2.5,6.04-2.5,10.7s.83,8.22,2.5,10.7c1.67,2.48,3.9,3.71,6.68,3.71Z"/>
    <path d="M94.94,433.46v-39.38h5.06l.44,4.18h.33c.73-1.36,1.84-2.5,3.33-3.44,1.48-.94,3.25-1.4,5.31-1.4s4.07.54,5.83,1.62c1.76,1.08,3.16,2.68,4.21,4.79s1.57,4.74,1.57,7.89-.54,5.74-1.62,7.86c-1.08,2.13-2.54,3.73-4.37,4.81-1.83,1.08-3.89,1.62-6.16,1.62-2.02,0-3.7-.4-5.06-1.21-1.36-.81-2.36-1.72-3.02-2.75v15.4h-5.83ZM107.86,416.47c2.05,0,3.77-.73,5.14-2.2s2.06-3.67,2.06-6.6-.69-5.11-2.06-6.54c-1.38-1.43-3.09-2.14-5.14-2.14s-3.82.72-5.2,2.17c-1.38,1.45-2.06,3.64-2.06,6.57s.69,5.08,2.06,6.54,3.11,2.2,5.2,2.2Z"/>
    <path d="M138.44,422.02c-2.64,0-4.97-.6-6.98-1.79-2.02-1.19-3.59-2.85-4.73-4.98-1.14-2.13-1.71-4.6-1.71-7.42s.56-5.37,1.68-7.54c1.12-2.16,2.7-3.85,4.73-5.06,2.04-1.21,4.39-1.82,7.07-1.82s4.91.6,6.82,1.79c1.91,1.19,3.38,2.78,4.43,4.76,1.05,1.98,1.57,4.16,1.57,6.54v1.18c0,.42-.02.89-.06,1.4h-20.52c.18,2.53,1.01,4.45,2.48,5.75,1.47,1.3,3.19,1.95,5.17,1.95,1.72,0,3.09-.36,4.1-1.07,1.01-.71,1.75-1.7,2.23-2.94h5.88c-.66,2.6-2.03,4.79-4.12,6.57-2.09,1.78-4.77,2.67-8.03,2.67ZM138.44,398.48c-1.8,0-3.39.54-4.79,1.62-1.39,1.08-2.29,2.59-2.69,4.54h14.52c-.15-1.83-.86-3.32-2.15-4.46-1.28-1.14-2.92-1.71-4.9-1.71Z"/>
    <path d="M156.37,421.36v-27.28h5.06l.5,4.07h.27c.73-1.32,1.87-2.44,3.41-3.36,1.54-.92,3.32-1.38,5.34-1.38,3.34,0,5.85,1.01,7.53,3.03,1.69,2.02,2.53,4.99,2.53,8.91v16h-5.83v-15.29c0-2.27-.48-4.03-1.43-5.28-.95-1.25-2.46-1.87-4.51-1.87s-3.69.68-5.03,2.04c-1.34,1.36-2.01,3.32-2.01,5.89v14.52h-5.83Z"/>
    <path d="M197.17,421.36v-38.5h12.6c3.01,0,5.49.51,7.45,1.54,1.96,1.03,3.43,2.41,4.4,4.15.97,1.74,1.46,3.71,1.46,5.91,0,2.49-.63,4.7-1.9,6.63-1.26,1.92-3.2,3.33-5.8,4.21l8.08,16.06h-6.77l-7.37-15.24h-6.32v15.24h-5.83ZM203,400.85h6.44c2.64,0,4.57-.59,5.8-1.76,1.23-1.17,1.84-2.71,1.84-4.62s-.6-3.49-1.81-4.65c-1.21-1.15-3.17-1.73-5.89-1.73h-6.38v12.76Z"/>
    <path d="M240.34,422.02c-2.64,0-4.97-.6-6.98-1.79-2.02-1.19-3.59-2.85-4.73-4.98-1.14-2.13-1.71-4.6-1.71-7.42s.56-5.37,1.68-7.54c1.12-2.16,2.7-3.85,4.73-5.06,2.04-1.21,4.39-1.82,7.07-1.82s4.91.6,6.82,1.79c1.91,1.19,3.38,2.78,4.43,4.76,1.05,1.98,1.57,4.16,1.57,6.54v1.18c0,.42-.02.89-.06,1.4h-20.52c.18,2.53,1.01,4.45,2.48,5.75,1.47,1.3,3.19,1.95,5.17,1.95,1.72,0,3.09-.36,4.1-1.07,1.01-.71,1.75-1.7,2.23-2.94h5.88c-.66,2.6-2.03,4.79-4.12,6.57-2.09,1.78-4.77,2.67-8.03,2.67ZM240.34,398.48c-1.8,0-3.39.54-4.79,1.62-1.39,1.08-2.29,2.59-2.69,4.54h14.52c-.15-1.83-.86-3.32-2.15-4.46-1.28-1.14-2.92-1.71-4.9-1.71Z"/>
    <path d="M270.7,422.02c-3.59,0-6.45-.84-8.58-2.53-2.13-1.69-3.34-3.92-3.63-6.71h6c.22,1.28.87,2.33,1.95,3.13,1.08.81,2.52,1.21,4.32,1.21s3.05-.36,3.99-1.07c.93-.71,1.4-1.55,1.4-2.5,0-1.39-.56-2.35-1.68-2.86-1.12-.51-2.76-.9-4.92-1.16-1.87-.22-3.57-.65-5.09-1.29-1.52-.64-2.72-1.52-3.6-2.64-.88-1.12-1.32-2.52-1.32-4.21,0-2.38.94-4.31,2.8-5.78,1.87-1.47,4.47-2.2,7.81-2.2s5.92.75,7.75,2.26c1.83,1.5,2.9,3.56,3.19,6.16h-5.61c-.15-1.1-.71-1.97-1.71-2.61-.99-.64-2.22-.96-3.68-.96s-2.7.28-3.58.85-1.32,1.31-1.32,2.23c0,1.98,2.13,3.19,6.38,3.63,2.02.22,3.81.6,5.39,1.13,1.58.53,2.82,1.36,3.74,2.48.92,1.12,1.38,2.69,1.38,4.7.04,1.65-.43,3.13-1.4,4.46-.97,1.32-2.31,2.37-4.02,3.13-1.71.77-3.69,1.16-5.97,1.16Z"/>
    <path d="M300.95,422.02c-2.6,0-4.93-.59-6.98-1.76-2.05-1.17-3.67-2.83-4.84-4.98-1.17-2.15-1.76-4.67-1.76-7.56s.59-5.42,1.76-7.56c1.17-2.15,2.79-3.8,4.84-4.98,2.05-1.17,4.4-1.76,7.04-1.76s4.98.59,7.01,1.76c2.04,1.17,3.63,2.83,4.79,4.98,1.15,2.14,1.73,4.67,1.73,7.56s-.59,5.42-1.76,7.56c-1.17,2.14-2.78,3.8-4.81,4.98-2.04,1.17-4.37,1.76-7.01,1.76ZM300.95,416.47c1.39,0,2.68-.31,3.85-.94,1.17-.62,2.12-1.59,2.83-2.89.71-1.3,1.07-2.94,1.07-4.92s-.36-3.67-1.07-4.95c-.72-1.28-1.65-2.24-2.81-2.86-1.15-.62-2.43-.93-3.82-.93s-2.68.31-3.85.93c-1.17.62-2.12,1.58-2.83,2.86-.71,1.28-1.07,2.93-1.07,4.95,0,3.01.76,5.22,2.28,6.63,1.52,1.41,3.33,2.12,5.42,2.12Z"/>
    <path d="M329,422.02c-3.3,0-5.8-1.02-7.51-3.05-1.7-2.04-2.56-5-2.56-8.88v-16h5.83v15.29c0,2.24.49,3.99,1.46,5.25.97,1.26,2.47,1.9,4.48,1.9s3.7-.68,5.06-2.04c1.36-1.36,2.03-3.32,2.03-5.88v-14.52h5.83v27.28h-5.06l-.5-4.07h-.27c-.73,1.32-1.87,2.44-3.41,3.36-1.54.92-3.34,1.38-5.39,1.38Z"/>
    <path d="M349.63,421.36v-5.06h6.66v-15.35c0-1.21-.59-1.81-1.76-1.81h-4.34v-5.06h6.54c1.5,0,2.73.43,3.69,1.29.95.86,1.43,2.06,1.43,3.6v.66h.28c.4-2.05,1.27-3.6,2.61-4.65,1.34-1.05,3.29-1.57,5.86-1.57h4.23v6.16h-5.94c-2.16,0-3.83.75-5,2.25-1.17,1.5-1.76,3.3-1.76,5.39v9.08h8.47v5.06h-20.96Z"/>
    <path d="M392.74,422.02c-2.53,0-4.79-.59-6.79-1.76-2-1.17-3.57-2.83-4.7-4.98-1.14-2.15-1.71-4.67-1.71-7.56s.58-5.41,1.73-7.54c1.15-2.13,2.72-3.79,4.7-4.98s4.23-1.79,6.76-1.79c3.48,0,6.3.87,8.44,2.61s3.51,4.13,4.1,7.18h-6.1c-.37-1.32-1.11-2.36-2.23-3.13-1.12-.77-2.54-1.16-4.26-1.16-1.25,0-2.43.33-3.55.99-1.12.66-2.02,1.64-2.7,2.94-.68,1.3-1.02,2.92-1.02,4.87s.34,3.52,1.02,4.84c.68,1.32,1.58,2.32,2.7,3,1.12.68,2.3,1.02,3.55,1.02,1.76,0,3.17-.38,4.23-1.16,1.06-.77,1.81-1.83,2.25-3.19h6.1c-.73,3.01-2.16,5.39-4.29,7.15-2.13,1.76-4.88,2.64-8.25,2.64Z"/>
    <path d="M423.16,422.02c-2.64,0-4.97-.6-6.98-1.79-2.02-1.19-3.59-2.85-4.73-4.98-1.14-2.13-1.71-4.6-1.71-7.42s.56-5.37,1.68-7.54c1.12-2.16,2.7-3.85,4.73-5.06,2.04-1.21,4.39-1.82,7.07-1.82s4.91.6,6.82,1.79c1.91,1.19,3.38,2.78,4.43,4.76,1.05,1.98,1.57,4.16,1.57,6.54v1.18c0,.42-.02.89-.06,1.4h-20.52c.18,2.53,1.01,4.45,2.48,5.75,1.47,1.3,3.19,1.95,5.17,1.95,1.72,0,3.09-.36,4.1-1.07,1.01-.71,1.75-1.7,2.23-2.94h5.88c-.66,2.6-2.03,4.79-4.12,6.57-2.09,1.78-4.77,2.67-8.03,2.67ZM423.16,398.48c-1.8,0-3.39.54-4.79,1.62-1.39,1.08-2.29,2.59-2.69,4.54h14.52c-.15-1.83-.86-3.32-2.15-4.46-1.28-1.14-2.92-1.71-4.9-1.71Z"/>
    <path d="M117.84,481.36v-38.5h9.24c6.2,0,10.8,1.71,13.81,5.14,3.01,3.43,4.51,8.13,4.51,14.11s-1.5,10.68-4.51,14.11c-3.01,3.43-7.61,5.14-13.81,5.14h-9.24ZM123.67,475.97h3.19c4.47,0,7.7-1.26,9.68-3.77s2.97-5.88,2.97-10.09-.99-7.58-2.97-10.09c-1.98-2.51-5.21-3.77-9.68-3.77h-3.19v27.72Z"/>
    <path d="M148.31,481.36v-5.06h8.58v-15.35c0-1.21-.59-1.81-1.76-1.81h-6.05v-5.06h7.1c2.27,0,3.93.52,4.98,1.57s1.57,2.71,1.57,4.98v15.68h8.58v5.06h-22.99ZM159.25,449.9c-1.28,0-2.36-.41-3.22-1.24-.86-.83-1.29-1.84-1.29-3.05s.43-2.22,1.29-3.03c.86-.81,1.93-1.21,3.22-1.21s2.41.4,3.27,1.21c.86.81,1.29,1.82,1.29,3.03s-.43,2.23-1.29,3.05c-.86.83-1.95,1.24-3.27,1.24Z"/>
    <path d="M188.07,482.02c-3.59,0-6.45-.84-8.58-2.53-2.13-1.69-3.34-3.92-3.63-6.71h6c.22,1.28.87,2.33,1.95,3.13,1.08.81,2.52,1.21,4.32,1.21s3.05-.36,3.99-1.07c.93-.71,1.4-1.55,1.4-2.5,0-1.39-.56-2.35-1.68-2.86-1.12-.51-2.76-.9-4.92-1.16-1.87-.22-3.57-.65-5.09-1.29-1.52-.64-2.72-1.52-3.6-2.64-.88-1.12-1.32-2.52-1.32-4.21,0-2.38.94-4.31,2.8-5.78,1.87-1.47,4.47-2.2,7.81-2.2s5.92.75,7.75,2.26c1.83,1.5,2.9,3.56,3.19,6.16h-5.61c-.15-1.1-.71-1.97-1.71-2.61-.99-.64-2.22-.96-3.68-.96s-2.7.28-3.58.85-1.32,1.31-1.32,2.23c0,1.98,2.13,3.19,6.38,3.63,2.02.22,3.81.6,5.39,1.13,1.58.53,2.82,1.36,3.74,2.48.92,1.12,1.38,2.69,1.38,4.7.04,1.65-.43,3.13-1.4,4.46-.97,1.32-2.31,2.37-4.02,3.13-1.71.77-3.69,1.16-5.97,1.16Z"/>
    <path d="M216.84,482.02c-2.53,0-4.79-.59-6.79-1.76-2-1.17-3.57-2.83-4.7-4.98-1.14-2.15-1.71-4.67-1.71-7.56s.58-5.41,1.73-7.54c1.15-2.13,2.72-3.79,4.7-4.98s4.23-1.79,6.76-1.79c3.48,0,6.3.87,8.44,2.61s3.51,4.13,4.1,7.18h-6.1c-.37-1.32-1.11-2.36-2.23-3.13-1.12-.77-2.54-1.16-4.26-1.16-1.25,0-2.43.33-3.55.99-1.12.66-2.02,1.64-2.7,2.94-.68,1.3-1.02,2.92-1.02,4.87s.34,3.52,1.02,4.84c.68,1.32,1.58,2.32,2.7,3,1.12.68,2.3,1.02,3.55,1.02,1.76,0,3.17-.38,4.23-1.16,1.06-.77,1.81-1.83,2.25-3.19h6.1c-.73,3.01-2.16,5.39-4.29,7.15-2.13,1.76-4.88,2.64-8.25,2.64Z"/>
    <path d="M246.92,482.02c-2.6,0-4.93-.59-6.98-1.76-2.05-1.17-3.67-2.83-4.84-4.98-1.17-2.15-1.76-4.67-1.76-7.56s.59-5.42,1.76-7.56c1.17-2.15,2.79-3.8,4.84-4.98,2.05-1.17,4.4-1.76,7.04-1.76s4.98.59,7.01,1.76c2.04,1.17,3.63,2.83,4.79,4.98,1.15,2.14,1.73,4.67,1.73,7.56s-.59,5.42-1.76,7.56c-1.17,2.14-2.78,3.8-4.81,4.98-2.04,1.17-4.37,1.76-7.01,1.76ZM246.92,476.47c1.39,0,2.68-.31,3.85-.94,1.17-.62,2.12-1.59,2.83-2.89.71-1.3,1.07-2.94,1.07-4.92s-.36-3.67-1.07-4.95c-.72-1.28-1.65-2.24-2.81-2.86-1.15-.62-2.43-.93-3.82-.93s-2.68.31-3.85.93c-1.17.62-2.12,1.58-2.83,2.86-.71,1.28-1.07,2.93-1.07,4.95,0,3.01.76,5.22,2.28,6.63,1.52,1.41,3.33,2.12,5.42,2.12Z"/>
    <path d="M273.87,481.36l-11.83-27.28h6.6l8.75,21.12,8.8-21.12h6.55l-11.88,27.28h-6.98Z"/>
    <path d="M308.19,482.02c-2.64,0-4.97-.6-6.98-1.79-2.02-1.19-3.59-2.85-4.73-4.98-1.14-2.13-1.71-4.6-1.71-7.42s.56-5.37,1.68-7.54c1.12-2.16,2.7-3.85,4.73-5.06,2.04-1.21,4.39-1.82,7.07-1.82s4.91.6,6.82,1.79c1.91,1.19,3.38,2.78,4.43,4.76,1.05,1.98,1.57,4.16,1.57,6.54v1.18c0,.42-.02.89-.06,1.4h-20.52c.18,2.53,1.01,4.45,2.48,5.75,1.47,1.3,3.19,1.95,5.17,1.95,1.72,0,3.09-.36,4.1-1.07,1.01-.71,1.75-1.7,2.23-2.94h5.88c-.66,2.6-2.03,4.79-4.12,6.57-2.09,1.78-4.77,2.67-8.03,2.67ZM308.19,458.48c-1.8,0-3.39.54-4.79,1.62-1.39,1.08-2.29,2.59-2.69,4.54h14.52c-.15-1.83-.86-3.32-2.15-4.46-1.28-1.14-2.92-1.71-4.9-1.71Z"/>
    <path d="M326.06,481.36v-5.06h6.66v-15.35c0-1.21-.59-1.81-1.76-1.81h-4.34v-5.06h6.54c1.5,0,2.73.43,3.69,1.29.95.86,1.43,2.06,1.43,3.6v.66h.28c.4-2.05,1.27-3.6,2.61-4.65,1.34-1.05,3.29-1.57,5.86-1.57h4.23v6.16h-5.94c-2.16,0-3.83.75-5,2.25-1.17,1.5-1.76,3.3-1.76,5.39v9.08h8.47v5.06h-20.96Z"/>
    <path d="M360.16,493.46l6.49-14.35h-1.6l-10.61-25.03h6.33l8.14,19.96,8.64-19.96h6.1l-17.33,39.38h-6.16Z"/>
  </g>
</svg>
